<svg width="47" height="48" viewBox="0 0 47 48" fill="none" xmlns="http://www.w3.org/2000/svg">
<g clip-path="url(#clip0_2298_15074)">
<path d="M40.2302 14.3998C39.763 13.5795 39.2391 12.7961 38.6641 12.0548C42.5653 7.23823 45.8875 2.76418 47 0.557836C44.8901 1.72463 40.5086 5.14493 35.8301 9.09295C35.1649 8.5283 34.4624 8.00682 33.7258 7.53306C36.2395 4.33317 38.257 1.52638 39.0264 0C37.4523 0.870269 34.3858 3.22204 30.9695 6.05496C28.5534 4.9978 25.8844 4.41099 23.0793 4.41099C12.1821 4.41099 3.34831 13.2608 3.34831 24.1778C3.34831 27.1681 4.01117 30.0033 5.1974 32.5442C2.73592 35.6543 0.743944 38.3816 0 39.837C1.32288 39.1155 3.76281 37.2773 6.56508 35.0005C7.10716 35.8287 7.70934 36.6132 8.3654 37.3489C4.87533 41.6781 1.93641 45.6164 0.930497 47.5836C2.86294 46.5299 6.81287 43.4589 11.0956 39.8841C11.8906 40.4942 12.7338 41.0447 13.6178 41.5292C11.4483 44.2928 9.71493 46.6878 9.04413 48.0006C10.439 47.2399 13.1313 45.1819 16.1558 42.6943C18.31 43.5032 20.6427 43.9458 23.0787 43.9458C33.9759 43.9458 42.8096 35.0959 42.8096 24.1789C42.8096 21.621 42.3248 19.176 41.4414 16.9322C43.7923 13.9317 45.6731 11.3084 46.3978 9.87119C45.1328 10.5705 42.8612 12.2695 40.2297 14.4009L40.2302 14.3998ZM23.0793 38.1396C15.383 38.1396 9.14336 31.8892 9.14336 24.1784C9.14336 16.4675 15.3824 10.2171 23.0793 10.2171C30.7761 10.2171 37.0152 16.4675 37.0152 24.1784C37.0152 31.8892 30.7761 38.1396 23.0793 38.1396Z" fill="#FCB300"/>
</g>
<defs>
<clipPath id="clip0_2298_15074">
<rect width="47" height="48" fill="white"/>
</clipPath>
</defs>
</svg>
