<svg width="47" height="48" viewBox="0 0 47 48" fill="none" xmlns="http://www.w3.org/2000/svg">
<g clip-path="url(#clip0_2298_27748)">
<path d="M40.2302 14.3998C39.763 13.5795 39.2391 12.7961 38.6641 12.0548C42.5653 7.23823 45.8875 2.76418 47 0.557836C44.8901 1.72463 40.5086 5.14493 35.8301 9.09295C35.1649 8.5283 34.4624 8.00682 33.7258 7.53306C36.2395 4.33317 38.257 1.52638 39.0264 0C37.4523 0.870269 34.3858 3.22204 30.9695 6.05496C28.5534 4.9978 25.8844 4.41099 23.0793 4.41099C12.1821 4.41099 3.34831 13.2608 3.34831 24.1778C3.34831 27.1681 4.01117 30.0033 5.1974 32.5442C2.73592 35.6543 0.743944 38.3816 0 39.837C1.32288 39.1155 3.76281 37.2773 6.56508 35.0005C7.10716 35.8287 7.70934 36.6132 8.3654 37.3489C4.87533 41.6781 1.93641 45.6164 0.930497 47.5836C2.86294 46.5299 6.81287 43.4589 11.0956 39.8841C11.8906 40.4942 12.7338 41.0447 13.6178 41.5292C11.4483 44.2928 9.71493 46.6878 9.04413 48.0006C10.439 47.2399 13.1313 45.1819 16.1558 42.6943C18.31 43.5032 20.6427 43.9458 23.0787 43.9458C33.9759 43.9458 42.8096 35.0959 42.8096 24.1789C42.8096 21.621 42.3248 19.176 41.4414 16.9322C43.7923 13.9317 45.6731 11.3084 46.3978 9.87119C45.1328 10.5705 42.8612 12.2695 40.2297 14.4009L40.2302 14.3998ZM23.0793 38.1396C15.383 38.1396 9.14336 31.8892 9.14336 24.1784C9.14336 16.4675 15.3824 10.2171 23.0793 10.2171C30.7761 10.2171 37.0152 16.4675 37.0152 24.1784C37.0152 31.8892 30.7761 38.1396 23.0793 38.1396Z" fill="#FCB300"/>
<path d="M27.241 34.1069C26.1248 33.8549 25.4112 34.0119 25.175 34.0716C24.9916 34.1182 24.8224 34.1762 24.668 34.2399C24.7832 34.3173 24.9518 34.4328 25.1517 34.5789C25.5542 34.8724 25.8392 35.1113 25.9596 35.212C26.1157 35.3423 26.2123 35.4207 26.2912 35.4839C26.2912 35.4839 26.4189 35.5868 26.5648 35.6989C26.7147 35.8143 26.8334 35.9065 26.9736 36.0043C27.3211 36.2472 27.8173 36.5276 27.8372 36.539C28.1653 36.7204 28.7229 37.3176 29.7198 39.2134C30.3824 37.602 30.3126 35.9383 29.424 35.0408C28.8608 34.472 28.0444 34.2877 27.241 34.1069Z" fill="white" stroke="#1E1E1E" stroke-linecap="round" stroke-linejoin="round"/>
<path d="M26.2089 34.913C25.745 34.7873 24.7929 34.5951 23.6551 34.8374C23.4195 34.8874 23.2287 34.9449 23.1016 34.987C23.2202 35.0769 23.394 35.2111 23.5995 35.3795C24.0423 35.7423 24.3495 36.0347 24.4267 36.1069C24.4267 36.1069 24.693 36.3538 24.9683 36.5944C25.1086 36.7167 25.2221 36.8156 25.3561 36.9248C25.7933 37.282 26.3429 37.6665 26.3707 37.6853C26.7403 37.9401 27.3188 38.6488 28.246 40.6106C28.3539 40.4149 29.3906 38.4685 28.4339 36.649C28.0609 35.9397 27.5215 35.5086 27.1599 35.2737C26.83 35.0814 26.5592 35.0086 26.2089 34.9136V34.913Z" fill="white" stroke="#1E1E1E" stroke-linecap="round" stroke-linejoin="round"/>
<path d="M23.8772 36.1066C23.143 35.9343 22.3153 35.7147 21.5658 36.1425C21.2831 36.304 21.094 36.5088 20.9805 36.6544C21.1463 36.7255 21.4091 36.8426 21.7225 37.0059C22.1438 37.2254 22.3919 37.3841 23.9089 38.4125C24.3524 38.7134 24.6357 38.9062 25.0121 39.2065C25.2636 39.4073 25.4657 39.5705 25.6974 39.8072C25.9563 40.0711 26.2521 40.4271 26.5252 40.8952C26.6262 40.666 26.7511 40.3299 26.8266 39.9095C26.8999 39.4994 27.0174 38.917 26.7977 38.3021C26.5337 37.565 25.9727 37.1464 25.598 36.8665C24.9099 36.3524 24.2462 36.1931 23.876 36.1066H23.8772Z" fill="white" stroke="#1E1E1E" stroke-linecap="round" stroke-linejoin="round"/>
<path d="M23.7775 38.3916C23.6804 38.221 23.5413 37.9224 23.5231 37.5339C23.5129 37.3115 23.4817 36.5783 24.0125 36.2484C24.373 36.0243 24.8709 36.0636 25.2871 36.3218C25.282 36.2621 25.2349 35.5659 25.7413 35.1916C26.0326 34.9766 26.3522 34.9817 26.4885 34.9863C27.2845 35.0107 27.7722 35.7348 27.8375 35.8355C27.6581 35.4692 27.7341 35.0375 28.0123 34.7809C28.2377 34.5728 28.5676 34.5062 28.873 34.6012C28.722 34.3185 28.3513 33.7213 27.6285 33.3402C26.9819 32.9995 26.3908 33.012 25.8361 33.0188C24.737 33.0314 23.9529 33.4119 23.7763 33.5012C23.4777 33.6519 22.8662 33.9687 22.3586 34.6268C22.2139 34.8145 20.9733 36.4191 21.7069 37.5544C22.2945 38.465 23.673 38.3984 23.7763 38.3916H23.7775Z" fill="#FCB300" stroke="#1E1E1E" stroke-linecap="round" stroke-linejoin="round"/>
<path d="M35.2412 35.0725C34.9045 34.4901 34.3226 34.138 33.9768 33.9292C33.8377 33.8451 33.7185 33.7831 33.6367 33.7427C33.6515 33.8439 33.6725 33.9935 33.6924 34.175C33.7321 34.5401 33.7435 34.8148 33.7486 34.9309C33.7554 35.081 33.7605 35.1726 33.765 35.2471C33.765 35.2471 33.7724 35.3677 33.7838 35.5031C33.7951 35.6424 33.8042 35.7533 33.8207 35.8785C33.8479 36.0906 33.857 36.197 33.9575 36.6133C34.0262 36.8983 34.0006 37.5092 33.6441 38.8919C33.7628 38.8424 35.2491 38.198 35.5007 36.722C35.5319 36.5377 35.6517 35.7823 35.2418 35.0731L35.2412 35.0725Z" fill="white" stroke="#1E1E1E" stroke-linecap="round" stroke-linejoin="round"/>
<path d="M33.9418 34.7774C33.5648 33.9015 32.9045 33.418 32.6944 33.2684C32.5502 33.1655 32.4213 33.0898 32.3271 33.0381C32.3356 33.153 32.3481 33.3213 32.3623 33.525C32.452 34.8252 32.5076 35.6295 32.4895 36.2984C32.4741 36.8768 32.3941 37.7073 32.0938 38.7237C32.2346 38.685 33.6801 38.2612 34.128 36.9041C34.4448 35.9452 34.0752 35.0891 33.9412 34.7786L33.9418 34.7774Z" fill="white" stroke="#1E1E1E" stroke-linecap="round" stroke-linejoin="round"/>
<path d="M32.0778 33.988C31.8774 33.6325 31.5339 33.0234 31.0292 33.0581C30.9258 33.0655 30.8395 33.0979 30.7845 33.1235C30.6544 33.1622 30.5114 33.2259 30.4762 33.3334C30.4472 33.4209 30.5119 33.4983 30.5182 33.529C30.5716 33.8066 30.6136 34.1632 30.7311 35.2689C30.7737 35.6699 30.8004 35.9265 30.81 36.2916C30.8174 36.5703 30.8072 36.7973 30.7998 36.9218C30.7981 36.9542 30.7964 36.9736 30.7958 36.9861C30.7839 37.1653 30.7856 37.4588 30.8429 37.9633C30.9934 37.9223 31.208 37.8467 31.4345 37.6994C31.9166 37.3854 32.1312 36.9554 32.2322 36.7472C32.5275 36.138 32.5002 35.5829 32.4849 35.3218C32.4451 34.6495 32.1982 34.2002 32.0789 33.988H32.0778Z" fill="white" stroke="#1E1E1E" stroke-linecap="round" stroke-linejoin="round"/>
<path d="M30.7016 35.2024C30.7289 35.0909 30.8084 34.8355 31.0383 34.6296C31.103 34.5716 31.5016 34.2058 31.962 34.3577C32.3322 34.4794 32.4747 34.8474 32.4963 34.9054C32.5224 34.8736 32.8932 34.4368 33.4104 34.509C33.6971 34.5488 33.8867 34.7257 33.9407 34.7775C34.1632 34.9908 34.2234 35.2422 34.241 35.3343C34.4301 35.0351 34.7849 34.9174 35.0625 35.0323C35.3691 35.1597 35.4361 35.5106 35.4407 35.5351C35.4407 35.1665 35.3731 34.8821 35.3158 34.699C34.9388 33.4977 33.8237 32.9005 33.3706 32.7276C33.3553 32.7219 33.3434 32.7173 33.3354 32.7145C32.6609 32.4648 32.0324 32.5262 32.0324 32.5262C32.0262 32.5268 32.0046 32.5291 31.9825 32.5319C31.5646 32.582 30.4302 32.8669 30.2003 33.6945C29.9942 34.4368 30.646 35.1432 30.7022 35.2024H30.7016Z" fill="#FCB300" stroke="#1E1E1E" stroke-linecap="round" stroke-linejoin="round"/>
</g>
<defs>
<clipPath id="clip0_2298_27748">
<rect width="47" height="48" fill="white"/>
</clipPath>
</defs>
</svg>
