<svg width="47" height="48" viewBox="0 0 47 48" fill="none" xmlns="http://www.w3.org/2000/svg">
<g clip-path="url(#clip0_2298_46668)">
<path d="M27.0195 36.228C27.0854 36.2274 27.5185 36.2217 27.7156 35.9271C27.828 35.7588 27.8234 35.5568 27.8183 35.4863C27.8024 35.2741 27.7014 35.1228 27.6497 35.0478C27.1154 34.2685 26.7118 33.8272 26.7118 33.8272C26.5057 33.6019 26.1542 33.2174 25.9936 33.0417C24.9756 31.9894 23.9973 31.1851 23.1866 30.5896C23.0838 30.514 21.3085 29.2211 19.3315 28.3207C18.8677 28.1097 18.4896 27.9379 18.179 27.8037C17.8628 27.8481 17.6044 27.8663 17.4301 27.8748C17.2093 27.8856 17.148 27.8794 16.5904 27.889C16.5336 27.8902 16.2958 27.8936 16.0062 27.9021C15.527 27.9158 15.2874 27.9232 15.1909 27.9317C14.9797 27.9505 14.5862 27.9857 14.2087 28.1228C14.0145 28.1933 13.2656 28.4646 12.875 29.2166C12.875 29.2166 12.5758 29.7916 12.6479 30.6704C12.6604 30.8251 12.6905 30.965 12.6916 30.9713C12.7586 31.2807 12.875 31.4968 12.9409 31.6174C12.9886 31.705 13.0391 31.7852 13.0908 31.8603C13.1288 31.9126 13.1782 31.9786 13.2373 32.0525C13.2906 32.1191 13.3321 32.1674 13.3633 32.2027C13.4791 32.3369 13.5387 32.4052 13.6114 32.4604C13.6228 32.4689 13.6103 32.4661 13.7329 32.5423C13.8453 32.6117 13.985 32.6987 14.1593 32.8955C14.3205 33.0781 14.4682 33.2606 14.5255 33.4717C14.7651 33.3573 14.9871 33.1321 15.0444 32.8369C15.1188 32.4547 14.8792 32.1481 14.8355 32.0935C14.7861 32.0867 14.7004 32.0713 14.6038 32.0298C13.9129 31.734 13.5104 30.4929 13.9623 29.6995C14.1871 29.3042 14.559 29.1347 14.605 29.1142C15.6956 28.6376 17.1797 29.6938 17.9252 30.568C18.4027 31.1283 18.6423 31.6897 18.7609 32.0218C18.8677 31.978 19.0028 31.9291 19.1618 31.8882C19.1618 31.8882 19.4252 31.8205 19.7063 31.8017C20.6743 31.7363 22.2345 32.5798 22.2345 32.5798C22.7784 32.8739 23.1571 33.1384 23.5755 33.4313C24.0518 33.7646 24.5072 34.0831 25.0193 34.5472C26.1457 35.5682 26.383 36.2365 27.0201 36.2286L27.0195 36.228Z" fill="#727272"/>
<path d="M31.1864 33.292C31.4362 33.9819 31.6428 34.6929 31.8012 35.409C31.9244 35.2253 32.0323 35.0319 32.122 34.8317C32.3082 34.4182 32.4206 33.9773 32.4581 33.5195C32.4581 33.4273 32.4536 33.3289 32.4422 33.2254C32.4189 33.0036 32.373 32.813 32.3247 32.66C32.457 32.445 32.6267 32.1305 32.7647 31.7278C32.8737 31.4081 33.0509 30.8894 33.0071 30.2984C32.9958 30.1477 32.8783 28.8059 31.8926 28.3139C31.6428 28.1894 31.3828 28.1416 31.1222 28.1416C30.6447 28.1416 30.1655 28.302 29.7437 28.4459C29.3843 28.5688 29.101 28.7132 28.9062 28.8247C29.1095 29.1654 29.3928 29.6506 29.7153 30.2421C30.3211 31.3524 30.7844 32.1851 31.1864 33.2931V33.292ZM31.5191 30.2035C31.6565 29.5471 31.787 29.4026 31.8966 29.3258C31.9477 29.29 32.0465 29.2212 32.1714 29.2303C32.474 29.2519 32.6495 29.7097 32.6807 29.7922C32.851 30.2359 32.7488 30.6505 32.5967 31.2165C32.5183 31.506 32.3917 31.8979 32.1788 32.3432C32.038 32.0321 31.9114 31.7978 31.8194 31.6385C31.7621 31.539 31.6758 31.3939 31.5628 31.1761C31.4969 31.0487 31.4458 30.9423 31.4123 30.8712C31.4424 30.5982 31.4833 30.3712 31.5185 30.2029L31.5191 30.2035Z" fill="#727272"/>
<path d="M29.1308 42.4189C29.0876 42.4189 29.0456 42.4189 29.0042 42.4189C28.5744 42.4166 27.4332 42.4109 26.5021 41.5407C26.0728 41.1391 25.8213 40.6796 25.6731 40.2803L25.6641 40.2814C25.6771 40.4276 25.6947 40.625 25.7078 40.7768C25.7793 41.5879 25.8191 42.052 25.8287 42.1647C25.8685 42.6134 25.9548 43.2897 26.1597 44.2652C26.355 45.0979 26.2568 45.2975 26.4884 45.5239C26.6451 45.6769 26.9177 45.7162 27.3821 45.7162C27.5842 45.7162 27.8232 45.7088 28.1048 45.6997C29.2409 45.6638 29.4867 45.4938 29.6111 45.3243C29.6673 45.2475 29.7229 45.1144 29.8342 44.8482C29.979 44.5029 30.0585 44.239 30.0835 44.1583C30.2651 43.5633 30.5025 43.3074 30.7795 42.7488C30.9186 42.4684 31.0793 42.0879 31.2093 41.6016C31.1565 41.6687 31.098 41.7347 31.0333 41.7984C30.4383 42.3825 29.7019 42.42 29.1302 42.42L29.1308 42.4189Z" fill="#1E1E1E"/>
<path d="M23.3759 39.2899C23.5588 39.0488 23.7955 38.7792 24.097 38.513C24.2537 38.3747 24.4076 38.2559 24.5535 38.1535C24.2219 37.8509 23.7944 37.4823 23.2772 37.0876C23.0478 36.9124 22.3125 36.3601 21.2213 35.7219C20.1312 35.0843 19.5164 34.7248 18.6806 34.5087C18.4291 34.4433 17.9851 34.3466 17.4946 34.2687C17.0778 34.2021 16.8246 34.1617 16.4721 34.1475C16.0411 34.1299 15.705 34.1691 15.0317 34.2465C14.4474 34.3136 14.2521 34.3648 14.0954 34.416C13.7883 34.5161 13.5476 34.6429 13.3823 34.7425C13.342 34.6458 13.2313 34.3426 13.3494 34.0048C13.3806 33.916 13.4533 33.7118 13.6316 33.5941C13.6049 33.5605 13.5697 33.5179 13.5203 33.4616C13.4295 33.3586 13.3744 33.3251 13.2841 33.2688C13.1286 33.1721 12.7271 32.9252 12.5358 32.7119C9.93096 35.359 9.30359 36.2714 9.17187 36.5888C9.15314 36.6337 9.14632 37.178 8.88629 37.6791C8.81532 37.8162 8.76649 37.9027 8.73243 37.9652C8.56892 38.2638 8.44174 38.5437 8.01763 39.5954C7.82118 40.0834 7.69117 40.4127 7.57762 40.8837C7.57762 40.8837 7.41865 41.5446 7.54469 41.5884C7.62644 41.6168 7.97277 41.3302 8.0233 41.3194C8.0233 41.3194 8.02501 41.3194 8.02671 41.3188C8.04318 41.3154 8.07781 41.3006 8.09427 41.3006C8.09825 41.3006 8.10109 41.3017 8.10279 41.3034C8.11074 41.3165 8.0551 41.3626 8.04715 41.3694C7.96539 41.4399 7.82516 41.7158 7.77349 42.1304C7.71104 42.6327 10.05 39.5468 10.1062 39.7669C10.2084 39.6384 16.7713 36.3773 12.5358 39.7669C12.7243 39.6162 15.2882 38.093 15.0317 39.7669C14.8948 40.2151 14.1488 39.2808 14.0954 39.5954C13.9637 40.3746 14.5289 38.3321 14.7941 39.2916C14.9093 39.7086 14.2191 39.0465 14.3582 39.2899C14.4592 39.1949 17.7332 40.81 13.5203 38.513C17.5417 36.4316 15.9148 40.3529 15.9898 40.6174C16.0693 40.8966 14.9425 41.2147 15.047 41.3842C15.4637 42.0576 17.0466 35.3941 16.1803 41.7173C16.3512 40.4699 14.3315 41.6743 14.6114 41.0668C15.4517 39.2444 14.1766 43.4705 15.047 42.6691C15.5398 42.2158 15.9957 41.8005 16.7082 41.37C17.3265 40.9969 18.2991 40.4099 19.6662 40.2739C19.7917 40.2614 19.9024 40.2546 20.0126 40.2546C20.0381 40.2546 20.0637 40.2546 20.0898 40.2557C20.301 40.262 20.4969 40.2722 20.7086 40.295C22.1314 40.4485 23.8534 41.0668 23.8534 41.0668C24.4252 41.2653 24.5347 41.3296 24.6176 41.3842C24.6415 41.4001 24.6642 41.4166 24.6875 41.4331C24.5274 41.0594 24.3258 40.634 24.0062 40.1414C23.7643 39.7688 23.5355 39.481 23.3754 39.2916L23.3759 39.2899Z" fill="#727272"/>
<path d="M33.4851 35.5123C33.3216 35.2933 33.2012 35.1164 33.028 34.8564C32.9877 34.9662 32.9451 35.0754 32.8969 35.1824C32.7936 35.4127 32.6703 35.6351 32.5312 35.8473C32.659 35.9582 32.7481 36.0589 32.8043 36.1226C33.04 36.391 33.1825 36.651 33.2602 36.8216C33.4113 37.1526 33.4942 37.5076 33.5084 37.8773C33.5294 37.8926 33.5498 37.9091 33.568 37.9279C33.6395 37.9438 33.7252 37.9563 33.8212 37.9563C33.8825 37.9563 33.9472 37.9512 34.0159 37.9393C34.0789 37.9279 34.1363 37.912 34.1868 37.8943C34.1454 37.7959 34.0983 37.693 34.0455 37.5866C33.9881 37.4723 33.9296 37.3659 33.8723 37.2675C33.9802 37.2186 34.0897 37.1669 34.201 37.1128C34.3072 37.0611 34.4111 37.0093 34.5116 36.957C34.4531 36.8535 34.3634 36.7004 34.247 36.5219C34.0046 36.1504 33.8831 36.0458 33.4845 35.5123H33.4851Z" fill="#727272"/>
<path d="M32.4874 37.1766C32.4431 37.0793 32.3426 36.8871 32.1666 36.6863C32.1007 36.6112 32.0014 36.498 31.843 36.3894C31.6914 36.2853 31.521 36.2102 31.3376 36.1653L31.0753 36.101L31.0208 35.8359C30.8647 35.0738 30.6512 34.3156 30.3855 33.583C30.1772 33.0079 29.7888 31.9369 28.9979 30.7015C28.4342 29.821 27.7142 28.9548 26.916 28.1966C26.1648 27.4833 25.3319 26.8554 24.4389 26.3253C24.0494 26.2291 23.221 26.0591 22.1275 26.0591C21.3514 26.0591 20.4424 26.145 19.4625 26.4038C19.4318 26.4117 19.4012 26.4203 19.3711 26.4288C21.1158 27.1079 23.6412 28.4019 25.8389 30.875C26.6747 31.8158 27.3106 32.7554 27.796 33.6063C28.1259 34.0938 28.3183 34.5391 28.4336 34.8616C28.5358 35.1477 28.655 35.4918 28.6754 35.9628C28.6851 36.1835 28.6703 36.3689 28.6533 36.5026C28.3609 36.5691 27.7608 36.7477 27.2129 37.2625C27.0267 37.4376 26.6628 37.7875 26.4703 38.3693C26.1978 39.1941 26.4561 39.921 26.5532 40.1593C26.5503 40.1593 26.5469 40.1599 26.5441 40.1604C26.6588 40.4107 26.8285 40.678 27.0823 40.9152C27.7693 41.5579 28.6056 41.5619 29.007 41.5642C29.4942 41.567 30.0466 41.5693 30.4366 41.1871C30.6666 40.9613 30.771 40.6769 30.8176 40.4414C30.8079 40.4255 30.7994 40.4096 30.7892 40.3936C30.6694 40.2042 30.5275 40.0507 30.3583 39.9062C30.2345 39.8004 30.0988 39.6878 29.9353 39.6519C29.8019 39.6229 29.6554 39.6434 29.5191 39.6315C29.2228 39.6053 28.9491 39.4745 28.873 39.1656C28.8021 38.8778 28.8821 38.6423 29.0399 38.4558C29.2943 38.156 29.7019 38.0047 30.0755 37.9234C30.913 37.7408 31.7941 37.7755 32.648 37.7533C32.6247 37.5514 32.5708 37.3574 32.4874 37.1749V37.1766Z" fill="white"/>
<path d="M31.5761 41.0144C31.5602 41.0207 31.5443 41.0269 31.5284 41.0332C31.5102 41.0792 31.4903 41.1259 31.4688 41.1725C31.5499 41.1998 31.647 41.2209 31.7555 41.2209C31.7924 41.2209 31.8304 41.2186 31.8696 41.2129C32.0757 41.1839 32.2602 41.0787 32.4776 40.8529C32.7984 40.5213 33.0034 40.1243 33.1408 39.7466C32.7496 40.3085 32.1983 40.7744 31.5766 41.0144H31.5761Z" fill="white"/>
<path d="M35.2546 36.5366C35.1626 36.3739 35.0638 36.2118 34.9616 36.0548C34.7975 35.8034 34.6749 35.6499 34.533 35.4718C34.4359 35.3495 34.3257 35.2113 34.1685 35.0009C33.9908 34.7626 33.8676 34.5777 33.6439 34.241L33.6195 34.204C33.5133 34.0442 33.4083 33.8826 33.3049 33.7205C33.3078 33.6682 33.3089 33.6159 33.3095 33.5636C33.3157 33.4822 33.3202 33.3997 33.3225 33.3173H33.3038C33.3004 33.2564 33.2958 33.1955 33.2896 33.1353C33.2771 33.0169 33.2589 32.8992 33.2357 32.782C33.3674 32.5312 33.4798 32.2701 33.5712 32.0028C33.691 31.6524 33.9136 30.9995 33.8573 30.2344C33.8329 29.9057 33.6433 28.2323 32.2727 27.5486C31.9247 27.3746 31.5375 27.2864 31.1225 27.2864C30.494 27.2864 29.9018 27.4889 29.4692 27.6362C29.3272 27.6846 29.187 27.7392 29.049 27.7989C28.6664 27.4701 28.1054 27.0379 27.3946 26.6261C26.2597 25.9691 25.2212 25.65 24.8272 25.5431C24.8068 25.5374 24.7863 25.5323 24.7659 25.5272C24.6915 25.5084 24.6166 25.4902 24.5422 25.4714C23.8001 25.2985 22.9548 25.2041 22.1287 25.2041C21.1527 25.2041 20.183 25.3298 19.2462 25.5772C18.4173 25.7962 17.6116 26.1119 16.852 26.5146L15.8391 27.0515C15.4144 27.064 15.2254 27.0697 15.1152 27.08C14.883 27.1004 14.4004 27.1437 13.919 27.3183C12.8817 27.6948 12.3678 28.3432 12.1197 28.8204C12.0772 28.9029 11.7098 29.6486 11.799 30.7378C11.8154 30.9414 11.8523 31.1172 11.8597 31.1502C11.9545 31.5865 12.1226 31.8936 12.1941 32.025C12.218 32.0688 12.3065 32.1222 12.2685 32.1547C9.4371 34.5589 7.70091 37.3892 7.04345 40.7428C7.01847 40.8685 6.94977 40.9845 6.90435 41.1057L6.26562 42.8046L6.90605 42.5839C6.91797 42.9542 6.97986 43.2835 7.04174 43.5253L7.46529 45.1918L7.5408 45.0968C7.53853 45.5359 7.58565 46.0097 7.72532 46.5159C7.83944 46.9289 8.00636 47.3299 8.22267 47.7076L8.7575 48.6421L8.82336 48.5801C8.87048 48.6796 8.91874 48.7706 8.967 48.8491C9.55292 49.7961 10.7537 50.0049 11.2426 50.051L12.055 50.1272L12.1657 49.3172C12.2895 48.4157 12.5382 47.5546 12.9055 46.7583C13.6748 45.0911 14.8024 44.0525 15.6262 43.2938C16.0741 42.8814 16.4971 42.4918 17.1506 42.0976C17.7184 41.7546 18.5768 41.2365 19.7532 41.1199C19.8571 41.1096 19.9406 41.1045 20.0155 41.1045C20.0331 41.1045 20.0501 41.1045 20.0677 41.1051C20.2903 41.1119 20.4555 41.1222 20.6207 41.1398C21.9237 41.2808 23.5537 41.861 23.5702 41.8667L23.7093 41.9167H23.7121C24.0483 42.0368 24.1317 42.0794 24.1522 42.0931C24.486 42.3138 24.6626 42.663 24.9129 43.2113C25.0276 43.4621 25.1911 43.8739 25.3212 44.4114C25.3961 44.7203 25.4251 44.9313 25.4489 45.1008C25.4938 45.4233 25.5449 45.789 25.8946 46.1314C26.3051 46.533 26.8785 46.5671 27.3832 46.5671C27.599 46.5671 27.8465 46.5592 28.1327 46.5506C29.1671 46.5182 29.8899 46.3857 30.2992 45.8266C30.4151 45.6685 30.4837 45.5041 30.6211 45.1759C30.7801 44.7959 30.8693 44.5042 30.8982 44.4086L30.8993 44.4052C30.9885 44.1134 31.0941 43.9314 31.2411 43.6794C31.3314 43.5236 31.4342 43.3472 31.5437 43.126C31.7107 42.7898 31.8515 42.4332 31.965 42.0606C31.9741 42.0595 31.9832 42.0584 31.9923 42.0572C32.5226 41.9822 32.8746 41.6722 33.0937 41.4458C33.9266 40.5841 34.135 39.4516 34.2355 38.9073C34.2446 38.8578 34.2531 38.8083 34.2616 38.7588C34.3331 38.7423 34.4041 38.7219 34.4734 38.698L35.3301 38.3977L35.0178 37.6577L35.6952 37.3084L35.258 36.5355L35.2546 36.5366ZM29.7428 28.445C30.2146 28.2727 30.6297 28.1407 31.1213 28.1407C31.3819 28.1407 31.642 28.1885 31.8918 28.3131C32.8774 28.8051 32.9955 30.1469 33.0063 30.2976C33.0494 30.8891 32.8729 31.4073 32.7638 31.7269C32.6265 32.1296 32.4567 32.4447 32.3238 32.6592C32.3721 32.8122 32.4181 33.0027 32.4414 33.2246C32.4522 33.3281 32.4567 33.4265 32.4573 33.5186C32.4198 33.9765 32.3074 34.4173 32.1212 34.8308C32.0309 35.031 31.923 35.2244 31.8004 35.4081C31.5778 34.5532 31.3604 33.8354 31.1855 33.2911C30.9419 32.5312 30.6058 31.4932 30.0403 30.198C29.7542 29.5422 29.4896 29.0053 29.2949 28.6259C29.3976 28.5793 29.5521 28.5133 29.7428 28.4433V28.445ZM24.6183 41.3821C24.536 41.3275 24.4258 41.2632 23.8541 41.0647C23.8541 41.0647 22.1321 40.447 20.7093 40.2929C20.4975 40.2701 20.3011 40.2599 20.0904 40.2536C20.0649 40.253 20.0388 40.2525 20.0132 40.2525C19.9031 40.2525 19.7924 40.2593 19.6669 40.2718C18.2997 40.4078 17.3272 40.9947 16.7089 41.3679C15.9958 41.7984 15.5399 42.2131 15.0476 42.667C14.1773 43.4684 12.9708 44.5792 12.13 46.4016C11.8501 47.0085 11.4907 47.955 11.3198 49.2029C11.1353 49.1858 10.1053 49.0749 9.68862 48.4009C9.58358 48.2314 9.46378 47.9396 9.38487 47.6598C9.30992 47.3953 9.27813 47.1655 9.26337 47C9.16231 47.095 9.06068 47.1894 8.95962 47.2844C8.82052 47.0409 8.65928 46.7065 8.54402 46.2896C8.27888 45.3295 8.4123 44.4905 8.54402 43.7118C8.59739 43.3973 8.68085 43.0031 8.81768 42.5549C8.6712 42.6255 8.48952 42.729 8.30102 42.8797C8.11026 43.0321 7.96775 43.1874 7.86556 43.316C7.80935 43.0958 7.71226 42.6311 7.77415 42.1283C7.82581 41.7137 7.96548 41.4378 8.04781 41.3673C8.05575 41.3605 8.11139 41.3144 8.10345 41.3013C8.10231 41.299 8.09947 41.2985 8.09493 41.2985C8.07846 41.2985 8.04383 41.3133 8.02737 41.3167C7.90984 41.3417 7.80083 41.373 7.69977 41.4082C7.73441 41.3292 7.76904 41.2501 7.80367 41.1711C7.81389 41.133 7.82865 41.0954 7.8349 41.0567C8.24879 38.3823 9.76583 35.2318 12.7914 32.856C12.566 33.0329 13.1286 33.1711 13.2842 33.2672C13.375 33.3235 13.4295 33.3571 13.5204 33.46C13.5698 33.5163 13.6056 33.5584 13.6317 33.5926C13.454 33.7103 13.3807 33.9145 13.3495 34.0032C13.2314 34.3411 13.3421 34.6442 13.3824 34.7409C13.5471 34.6414 13.7878 34.5151 14.0955 34.4145C14.2522 34.3633 14.4475 34.3126 15.0317 34.245C15.7045 34.167 16.0412 34.1284 16.4721 34.146C16.8241 34.1602 17.0779 34.2006 17.4947 34.2671C17.9858 34.3456 18.4292 34.4423 18.6807 34.5072C19.5164 34.7233 20.1308 35.0833 21.2214 35.7204C22.3126 36.3586 23.0479 36.9109 23.2772 37.086C23.795 37.4808 24.222 37.8494 24.5536 38.1519C24.4076 38.2543 24.2538 38.3738 24.0971 38.5114C23.795 38.7776 23.5583 39.0472 23.376 39.2884C23.5361 39.4778 23.7649 39.765 24.0068 40.1381C24.3265 40.6307 24.528 41.0562 24.6881 41.4299C24.6654 41.4134 24.6427 41.3969 24.6183 41.3809V41.3821ZM25.0174 34.547C24.5053 34.0829 24.05 33.7643 23.5736 33.431C23.1546 33.1381 22.7765 32.873 22.2326 32.5796C22.2326 32.5796 20.6724 31.736 19.7044 31.8015C19.4233 31.8202 19.1599 31.8879 19.1599 31.8879C19.0009 31.9289 18.8658 31.9778 18.7591 32.0216C18.641 31.6894 18.4008 31.128 17.9233 30.5678C17.1784 29.6935 15.6943 28.6373 14.6031 29.1139C14.5571 29.1338 14.1858 29.3039 13.9604 29.6992C13.5085 30.4927 13.911 31.7332 14.602 32.0295C14.699 32.0711 14.7842 32.0864 14.8336 32.0932C14.8773 32.1478 15.1163 32.4544 15.0425 32.8366C14.9852 33.1318 14.7632 33.3571 14.5236 33.4714C14.4668 33.2604 14.3187 33.0772 14.1574 32.8952C13.9831 32.6984 13.8434 32.612 13.731 32.542C13.6084 32.4658 13.6209 32.4692 13.6095 32.4601C13.5369 32.4049 13.4772 32.3367 13.3614 32.2024C13.3308 32.1672 13.2893 32.1188 13.2354 32.0523C13.1758 31.9783 13.1269 31.9129 13.0889 31.86C13.0372 31.7855 12.9867 31.7048 12.939 31.6172C12.8731 31.4966 12.7568 31.2804 12.6898 30.971C12.6886 30.9648 12.6585 30.8243 12.646 30.6701C12.5745 29.7914 12.8731 29.2163 12.8731 29.2163C13.2638 28.4644 14.0126 28.1925 14.2068 28.1225C14.5844 27.9855 14.9778 27.9502 15.189 27.9314C15.2855 27.9229 15.5251 27.9161 16.0043 27.9019C16.2939 27.8933 16.5318 27.8899 16.5885 27.8888C17.1455 27.8791 17.2074 27.8848 17.4282 27.8746C17.6031 27.866 17.8609 27.8478 18.1771 27.8035C18.4882 27.9377 18.8664 28.1095 19.3296 28.3205C21.3066 29.2209 23.0814 30.5137 23.1847 30.5894C23.9955 31.1849 24.9737 31.9892 25.9917 33.0414C26.1524 33.2172 26.5038 33.6017 26.7099 33.8269C26.7099 33.8269 27.1136 34.2683 27.6478 35.0475C27.6989 35.1226 27.8 35.2739 27.8164 35.486C27.8215 35.556 27.8261 35.7585 27.7137 35.9269C27.5167 36.2215 27.0835 36.2272 27.0176 36.2277C26.3806 36.2357 26.1433 35.5674 25.0168 34.5464L25.0174 34.547ZM30.7778 42.7477C30.5008 43.3063 30.2635 43.5622 30.0818 44.1572C30.0574 44.238 29.9773 44.5019 29.8325 44.8471C29.7213 45.1133 29.665 45.2464 29.6094 45.3232C29.4851 45.4933 29.2392 45.6633 28.1032 45.6986C27.8215 45.7077 27.5831 45.7151 27.3804 45.7151C26.916 45.7151 26.6435 45.6758 26.4868 45.5228C26.2557 45.2965 26.3533 45.0968 26.158 44.2641C25.9531 43.2881 25.8668 42.6124 25.827 42.1636C25.8168 42.0515 25.7776 41.5868 25.7061 40.7758C25.6925 40.6239 25.6754 40.4265 25.6624 40.2803L25.6715 40.2792C25.8196 40.6785 26.0712 41.1381 26.5004 41.5396C27.4309 42.4099 28.5721 42.4156 29.0025 42.4178C29.0439 42.4178 29.0859 42.4178 29.1291 42.4178C29.7008 42.4178 30.4372 42.3803 31.0322 41.7962C31.0969 41.7325 31.1548 41.6665 31.2082 41.5994C31.0776 42.0862 30.9175 42.4662 30.7784 42.7466L30.7778 42.7477ZM30.075 37.925C29.7014 38.0063 29.2937 38.1576 29.0394 38.4574C28.8815 38.6439 28.8015 38.8789 28.8725 39.1672C28.9485 39.4761 29.2222 39.6069 29.5186 39.6331C29.6548 39.645 29.8013 39.624 29.9347 39.6535C30.0977 39.6894 30.2334 39.802 30.3577 39.9078C30.5269 40.0523 30.6688 40.2058 30.7886 40.3952C30.7983 40.4106 30.8074 40.4271 30.817 40.443C30.7705 40.6785 30.666 40.9629 30.4361 41.1887C30.0466 41.5715 29.4942 41.5686 29.0065 41.5658C28.6045 41.5635 27.7687 41.5595 27.0818 40.9168C26.828 40.6796 26.6582 40.4123 26.5435 40.162C26.5464 40.162 26.5498 40.1615 26.5526 40.1609C26.4555 39.9226 26.1972 39.1957 26.4697 38.3709C26.6622 37.7896 27.0261 37.4393 27.2123 37.2641C27.7602 36.7493 28.3598 36.5707 28.6527 36.5042C28.6692 36.3705 28.6845 36.1851 28.6749 35.9644C28.6544 35.4929 28.5352 35.1493 28.433 34.8632C28.3178 34.5402 28.1253 34.0954 27.7954 33.6079C27.3106 32.757 26.6747 31.8174 25.8384 30.8766C23.6406 28.4035 21.39 27.0373 19.6453 26.3587C19.6453 26.3587 19.6476 26.3582 19.6482 26.3582C19.9689 26.2649 20.3022 26.1983 20.8234 26.142C21.1675 26.1051 21.5797 26.0601 22.1275 26.0607C22.6987 26.0613 23.4947 26.1113 24.4389 26.3269C24.7994 26.5407 25.2139 26.8081 25.6567 27.1385C25.9042 27.3228 26.3829 27.6925 26.916 28.1988C28.085 29.3079 28.7964 30.3892 28.9979 30.7037C29.7882 31.9391 30.1766 33.0101 30.3855 33.5852C30.6512 34.3178 30.8647 35.076 31.0208 35.8381L31.0753 36.1032L31.3377 36.1675C31.521 36.2124 31.6914 36.2875 31.843 36.3916C32.0014 36.5002 32.1007 36.6134 32.1666 36.6885C32.3426 36.8892 32.4431 37.0815 32.4874 37.1788C32.5708 37.3613 32.6242 37.5553 32.648 37.7572C31.7947 37.7794 30.9135 37.7447 30.0755 37.9273L30.075 37.925ZM32.4783 40.8537C32.2603 41.0789 32.0763 41.1841 31.8702 41.2137C31.831 41.2194 31.793 41.2217 31.7561 41.2217C31.6476 41.2217 31.5506 41.2001 31.4694 41.1733C31.4909 41.1267 31.5114 41.0801 31.529 41.034C31.5449 41.0277 31.5608 41.0215 31.5767 41.0152C32.1984 40.7758 32.7497 40.3099 33.1408 39.7474C33.004 40.1256 32.7985 40.5221 32.4777 40.8537H32.4783ZM34.2025 37.1128C34.0913 37.1668 33.9817 37.2186 33.8738 37.2675C33.9317 37.3653 33.9902 37.4717 34.047 37.5866C34.1003 37.6929 34.1469 37.7959 34.1883 37.8943C34.1378 37.9119 34.0805 37.9278 34.0175 37.9392C33.9493 37.9512 33.884 37.9563 33.8227 37.9563C33.7268 37.9563 33.641 37.9438 33.5695 37.9278C33.5513 37.9091 33.5309 37.8926 33.5099 37.8772C33.4957 37.5075 33.4128 37.1526 33.2618 36.8216C33.184 36.6509 33.0415 36.391 32.8059 36.1225C32.7502 36.0588 32.6611 35.9581 32.5328 35.8472C32.6719 35.6351 32.7945 35.4127 32.8984 35.1823C32.9467 35.0754 32.9892 34.9662 33.0296 34.8564C33.2027 35.1163 33.3231 35.2927 33.4866 35.5122C33.8852 36.0457 34.0067 36.1504 34.2491 36.5218C34.3661 36.701 34.4552 36.8534 34.5137 36.9569C34.4126 37.0087 34.3093 37.061 34.2031 37.1128H34.2025Z" fill="#1E1E1E"/>
<path d="M31.8206 31.6395C31.912 31.7988 32.0386 32.0331 32.18 32.3443C32.3929 31.8983 32.5195 31.507 32.5978 31.2175C32.7506 30.6515 32.8522 30.2369 32.6819 29.7933C32.6506 29.7113 32.4746 29.2535 32.1726 29.2313C32.0477 29.2222 31.9489 29.291 31.8978 29.3268C31.7882 29.4031 31.6582 29.5481 31.5202 30.2045C31.485 30.3728 31.4442 30.5998 31.4141 30.8728C31.4476 30.9439 31.4981 31.0503 31.5645 31.1777C31.6775 31.3955 31.7638 31.5411 31.8211 31.6401L31.8206 31.6395Z" fill="#1E1E1E"/>
<path d="M12.0085 36.6731C11.8439 36.8005 11.6627 36.9575 11.4782 37.148C11.2619 37.3721 11.0905 37.5911 10.957 37.7856C11.2097 37.7077 11.4623 37.6292 11.7155 37.5513C11.5543 37.7395 11.3738 37.9784 11.204 38.2714C11.0507 38.5353 10.94 38.7833 10.8594 38.9983C11.1058 38.8743 11.3726 38.7503 11.661 38.632C11.8864 38.5393 12.1045 38.4573 12.3134 38.3857C12.2015 38.62 12.08 38.9283 11.9972 39.302C11.9029 39.7263 11.8881 40.0983 11.8978 40.3798C12.1732 40.3781 12.4599 40.3702 12.7568 40.3554C13.0566 40.34 13.3456 40.3184 13.6221 40.2923C13.3791 40.6216 13.1304 41.0095 12.9044 41.4588C12.8261 41.6141 12.7562 41.766 12.6927 41.9144C13.0361 41.6363 13.4898 41.3292 14.0587 41.0755C14.2932 40.9708 14.518 40.8883 14.7281 40.8229C14.8331 40.7786 14.9552 40.7348 15.0931 40.6978C15.2038 40.6682 15.3072 40.6483 15.4008 40.6347C15.205 40.8167 14.9103 41.1437 14.7326 41.6329C14.6628 41.8257 14.6247 42.0054 14.6048 42.1596C14.8268 41.9048 15.1794 41.5606 15.6864 41.2672C16.1259 41.0123 16.3405 41.0032 16.7271 40.836C17.0337 40.7035 18.0982 40.2422 18.5337 39.2281C18.8551 38.479 18.7665 37.5848 18.394 36.9097C17.6537 35.5691 15.9851 35.4405 15.5076 35.4035C13.647 35.2602 12.3145 36.3989 12.0091 36.6748L12.0085 36.6731Z" fill="#1E1E1E"/>
<path d="M13.3452 35.4504C13.18 35.5772 12.9978 35.733 12.8127 35.9224C12.5952 36.1454 12.4226 36.3633 12.2881 36.5572C12.5413 36.4804 12.7945 36.4036 13.0477 36.3263C12.8853 36.5134 12.7042 36.7517 12.5322 37.0441C12.3778 37.3069 12.2659 37.5549 12.1836 37.7693C12.4306 37.6464 12.698 37.5242 12.987 37.407C13.2129 37.3154 13.4309 37.2346 13.6405 37.1641C13.5275 37.3979 13.4043 37.7056 13.3191 38.0787C13.2226 38.5025 13.2061 38.8745 13.2146 39.156C13.49 39.156 13.7767 39.1492 14.0736 39.1355C14.3734 39.1219 14.6624 39.1014 14.9395 39.0764C14.6948 39.4046 14.4444 39.7908 14.2156 40.2395C14.1367 40.3942 14.0657 40.5461 14.0015 40.694C14.3467 40.4176 14.8015 40.1133 15.3721 39.8619C15.6072 39.7583 15.8325 39.677 16.0432 39.6127C16.1482 39.5689 16.2703 39.5257 16.4088 39.4893C16.5195 39.4603 16.6229 39.441 16.7171 39.4273C16.5207 39.6082 16.2237 39.9335 16.0438 40.4221C15.9728 40.6149 15.9342 40.7941 15.9137 40.9482C16.1374 40.6946 16.4911 40.3522 16.9999 40.0609C17.441 39.8084 17.6556 39.8004 18.0422 39.6349C18.3494 39.5035 19.4162 39.0479 19.8568 38.0361C20.1821 37.2887 20.0981 36.394 19.7285 35.7171C18.9949 34.3725 17.3269 34.2354 16.8494 34.1962C14.9894 34.0437 13.6512 35.1756 13.3447 35.4498L13.3452 35.4504Z" fill="#727272"/>
<path d="M24.0835 34.9591C24.5825 35.3533 24.8965 35.7674 25.0617 36.0131C25.2434 36.2827 25.3683 36.5295 25.4529 36.7184C25.3683 36.6712 25.2525 36.6507 25.1242 36.6114C25.0402 36.5853 24.9329 36.5824 24.8636 36.5716C24.7268 36.7292 24.6916 36.7741 24.4849 36.8299C24.243 36.8953 24.0437 36.8691 23.9461 36.8407C23.4993 36.7104 23.2353 36.3618 23.1013 36.1803C22.743 35.6946 22.6545 35.1906 22.5937 34.8471C22.5432 34.5587 22.5318 34.3164 22.5312 34.1509C22.9196 34.2686 23.4993 34.4978 24.0835 34.9591Z" fill="white"/>
<path d="M30.8867 38.7126C31.3063 38.6717 31.7469 38.641 32.2067 38.6233C32.4815 38.6131 32.4418 38.608 32.703 38.6074" fill="#1E1E1E"/>
<path d="M30.8867 38.7126C31.3063 38.6717 31.7469 38.641 32.2067 38.6233C32.4815 38.6131 32.4418 38.608 32.703 38.6074" stroke="white" stroke-width="1.6579" stroke-linecap="round" stroke-linejoin="round"/>
<path d="M40.2302 14.3998C39.763 13.5795 39.2391 12.7961 38.6641 12.0548C42.5653 7.23823 45.8875 2.76418 47 0.557836C44.8901 1.72463 40.5086 5.14493 35.8301 9.09295C35.1649 8.5283 34.4624 8.00682 33.7258 7.53306C36.2395 4.33317 38.257 1.52638 39.0264 0C37.4523 0.870269 34.3858 3.22204 30.9695 6.05496C28.5534 4.9978 25.8844 4.41099 23.0793 4.41099C12.1821 4.41099 3.34831 13.2608 3.34831 24.1778C3.34831 27.1681 4.01117 30.0033 5.1974 32.5442C2.73592 35.6543 0.743944 38.3816 0 39.837C1.32288 39.1155 3.76281 37.2773 6.56508 35.0005C7.10716 35.8287 7.70934 36.6132 8.3654 37.3489C4.87533 41.6781 1.93641 45.6164 0.930497 47.5836C2.86294 46.5299 6.81287 43.4589 11.0956 39.8841C11.8906 40.4942 12.7338 41.0447 13.6178 41.5292C11.4483 44.2928 9.71493 46.6878 9.04413 48.0006C10.439 47.2399 13.1313 45.1819 16.1558 42.6943C18.31 43.5032 20.6427 43.9458 23.0787 43.9458C33.9759 43.9458 42.8096 35.0959 42.8096 24.1789C42.8096 21.621 42.3248 19.176 41.4414 16.9322C43.7923 13.9317 45.6731 11.3084 46.3978 9.87119C45.1328 10.5705 42.8612 12.2695 40.2297 14.4009L40.2302 14.3998ZM23.0793 38.1396C15.383 38.1396 9.14336 31.8892 9.14336 24.1784C9.14336 16.4675 15.3824 10.2171 23.0793 10.2171C30.7761 10.2171 37.0152 16.4675 37.0152 24.1784C37.0152 31.8892 30.7761 38.1396 23.0793 38.1396Z" fill="#727272"/>
<path d="M27.241 34.1069C26.1248 33.8549 25.4112 34.0119 25.175 34.0716C24.9916 34.1182 24.8224 34.1762 24.668 34.2399C24.7832 34.3173 24.9518 34.4328 25.1517 34.5789C25.5542 34.8724 25.8392 35.1113 25.9596 35.212C26.1157 35.3423 26.2123 35.4207 26.2912 35.4839C26.2912 35.4839 26.4189 35.5868 26.5648 35.6989C26.7147 35.8143 26.8334 35.9065 26.9736 36.0043C27.3211 36.2472 27.8173 36.5276 27.8372 36.539C28.1653 36.7204 28.7229 37.3176 29.7198 39.2134C30.3824 37.602 30.3126 35.9383 29.424 35.0408C28.8608 34.472 28.0444 34.2877 27.241 34.1069Z" fill="white" stroke="#1E1E1E" stroke-linecap="round" stroke-linejoin="round"/>
<path d="M26.2089 34.913C25.745 34.7873 24.7929 34.5951 23.6551 34.8374C23.4195 34.8874 23.2287 34.9449 23.1016 34.987C23.2202 35.0769 23.394 35.2111 23.5995 35.3795C24.0423 35.7423 24.3495 36.0347 24.4267 36.1069C24.4267 36.1069 24.693 36.3538 24.9683 36.5944C25.1086 36.7167 25.2221 36.8156 25.3561 36.9248C25.7933 37.282 26.3429 37.6665 26.3707 37.6853C26.7403 37.9401 27.3188 38.6488 28.246 40.6106C28.3539 40.4149 29.3906 38.4685 28.4339 36.649C28.0609 35.9397 27.5215 35.5086 27.1599 35.2737C26.83 35.0814 26.5592 35.0086 26.2089 34.9136V34.913Z" fill="white" stroke="#1E1E1E" stroke-linecap="round" stroke-linejoin="round"/>
<path d="M23.8772 36.1066C23.143 35.9343 22.3153 35.7147 21.5658 36.1425C21.2831 36.304 21.094 36.5088 20.9805 36.6544C21.1463 36.7255 21.4091 36.8426 21.7225 37.0059C22.1438 37.2254 22.3919 37.3841 23.9089 38.4125C24.3524 38.7134 24.6357 38.9062 25.0121 39.2065C25.2636 39.4073 25.4657 39.5705 25.6974 39.8072C25.9563 40.0711 26.2521 40.4271 26.5252 40.8952C26.6262 40.666 26.7511 40.3299 26.8266 39.9095C26.8999 39.4994 27.0174 38.917 26.7977 38.3021C26.5337 37.565 25.9727 37.1464 25.598 36.8665C24.9099 36.3524 24.2462 36.1931 23.876 36.1066H23.8772Z" fill="white" stroke="#1E1E1E" stroke-linecap="round" stroke-linejoin="round"/>
<path d="M23.7775 38.3916C23.6804 38.221 23.5413 37.9224 23.5231 37.5339C23.5129 37.3115 23.4817 36.5783 24.0125 36.2484C24.373 36.0243 24.8709 36.0636 25.2871 36.3218C25.282 36.2621 25.2349 35.5659 25.7413 35.1916C26.0326 34.9766 26.3522 34.9817 26.4885 34.9863C27.2845 35.0107 27.7722 35.7348 27.8375 35.8355C27.6581 35.4692 27.7341 35.0375 28.0123 34.7809C28.2377 34.5728 28.5676 34.5062 28.873 34.6012C28.722 34.3185 28.3513 33.7213 27.6285 33.3402C26.9819 32.9995 26.3908 33.012 25.8361 33.0188C24.737 33.0314 23.9529 33.4119 23.7763 33.5012C23.4777 33.6519 22.8662 33.9687 22.3586 34.6268C22.2139 34.8145 20.9733 36.4191 21.7069 37.5544C22.2945 38.465 23.673 38.3984 23.7763 38.3916H23.7775Z" fill="#727272" stroke="#1E1E1E" stroke-linecap="round" stroke-linejoin="round"/>
<path d="M35.2412 35.0725C34.9045 34.4901 34.3226 34.138 33.9768 33.9292C33.8377 33.8451 33.7185 33.7831 33.6367 33.7427C33.6515 33.8439 33.6725 33.9935 33.6924 34.175C33.7321 34.5401 33.7435 34.8148 33.7486 34.9309C33.7554 35.081 33.7605 35.1726 33.765 35.2471C33.765 35.2471 33.7724 35.3677 33.7838 35.5031C33.7951 35.6424 33.8042 35.7533 33.8207 35.8785C33.8479 36.0906 33.857 36.197 33.9575 36.6133C34.0262 36.8983 34.0006 37.5092 33.6441 38.8919C33.7628 38.8424 35.2491 38.198 35.5007 36.722C35.5319 36.5377 35.6517 35.7823 35.2418 35.0731L35.2412 35.0725Z" fill="white" stroke="#1E1E1E" stroke-linecap="round" stroke-linejoin="round"/>
<path d="M33.9418 34.7774C33.5648 33.9015 32.9045 33.418 32.6944 33.2684C32.5502 33.1655 32.4213 33.0898 32.3271 33.0381C32.3356 33.153 32.3481 33.3213 32.3623 33.525C32.452 34.8252 32.5076 35.6295 32.4895 36.2984C32.4741 36.8768 32.3941 37.7073 32.0938 38.7237C32.2346 38.685 33.6801 38.2612 34.128 36.9041C34.4448 35.9452 34.0752 35.0891 33.9412 34.7786L33.9418 34.7774Z" fill="white" stroke="#1E1E1E" stroke-linecap="round" stroke-linejoin="round"/>
<path d="M32.0778 33.988C31.8774 33.6325 31.5339 33.0234 31.0292 33.0581C30.9258 33.0655 30.8395 33.0979 30.7845 33.1235C30.6544 33.1622 30.5114 33.2259 30.4762 33.3334C30.4472 33.4209 30.5119 33.4983 30.5182 33.529C30.5716 33.8066 30.6136 34.1632 30.7311 35.2689C30.7737 35.6699 30.8004 35.9265 30.81 36.2916C30.8174 36.5703 30.8072 36.7973 30.7998 36.9218C30.7981 36.9542 30.7964 36.9736 30.7958 36.9861C30.7839 37.1653 30.7856 37.4588 30.8429 37.9633C30.9934 37.9223 31.208 37.8467 31.4345 37.6994C31.9166 37.3854 32.1312 36.9554 32.2322 36.7472C32.5275 36.138 32.5002 35.5829 32.4849 35.3218C32.4451 34.6495 32.1982 34.2002 32.0789 33.988H32.0778Z" fill="white" stroke="#1E1E1E" stroke-linecap="round" stroke-linejoin="round"/>
<path d="M30.7016 35.2024C30.7289 35.0909 30.8084 34.8355 31.0383 34.6296C31.103 34.5716 31.5016 34.2058 31.962 34.3577C32.3322 34.4794 32.4747 34.8474 32.4963 34.9054C32.5224 34.8736 32.8932 34.4368 33.4104 34.509C33.6971 34.5488 33.8867 34.7257 33.9407 34.7775C34.1632 34.9908 34.2234 35.2422 34.241 35.3343C34.4301 35.0351 34.7849 34.9174 35.0625 35.0323C35.3691 35.1597 35.4361 35.5106 35.4407 35.5351C35.4407 35.1665 35.3731 34.8821 35.3158 34.699C34.9388 33.4977 33.8237 32.9005 33.3706 32.7276C33.3553 32.7219 33.3434 32.7173 33.3354 32.7145C32.6609 32.4648 32.0324 32.5262 32.0324 32.5262C32.0262 32.5268 32.0046 32.5291 31.9825 32.5319C31.5646 32.582 30.4302 32.8669 30.2003 33.6945C29.9942 34.4368 30.646 35.1432 30.7022 35.2024H30.7016Z" fill="#727272" stroke="#1E1E1E" stroke-linecap="round" stroke-linejoin="round"/>
</g>
<defs>
<clipPath id="clip0_2298_46668">
<rect width="47" height="48" fill="white"/>
</clipPath>
</defs>
</svg>
