<svg width="47" height="48" viewBox="0 0 47 48" fill="none" xmlns="http://www.w3.org/2000/svg">
<g clip-path="url(#clip0_2235_73106)">
<path d="M27.0195 28.665C27.0854 28.6644 27.5185 28.6588 27.7156 28.3641C27.828 28.1958 27.8234 27.9938 27.8183 27.9233C27.8024 27.7112 27.7014 27.5599 27.6497 27.4848C27.1154 26.7055 26.7118 26.2642 26.7118 26.2642C26.5057 26.0389 26.1542 25.6544 25.9936 25.4787C24.9756 24.4264 23.9973 23.6222 23.1866 23.0266C23.0838 22.951 21.3085 21.6581 19.3315 20.7577C18.8677 20.5467 18.4896 20.375 18.179 20.2407C17.8628 20.2851 17.6044 20.3033 17.4301 20.3118C17.2093 20.3226 17.148 20.3164 16.5904 20.326C16.5336 20.3272 16.2958 20.3306 16.0062 20.3391C15.527 20.3528 15.2874 20.3602 15.1909 20.3687C14.9797 20.3875 14.5862 20.4227 14.2087 20.5598C14.0145 20.6303 13.2656 20.9017 12.875 21.6536C12.875 21.6536 12.5758 22.2286 12.6479 23.1074C12.6604 23.2621 12.6905 23.402 12.6916 23.4083C12.7586 23.7177 12.875 23.9339 12.9409 24.0544C12.9886 24.142 13.0391 24.2222 13.0908 24.2973C13.1288 24.3496 13.1782 24.4156 13.2373 24.4896C13.2906 24.5561 13.3321 24.6045 13.3633 24.6397C13.4791 24.7739 13.5387 24.8422 13.6114 24.8974C13.6228 24.9059 13.6103 24.9031 13.7329 24.9793C13.8453 25.0487 13.985 25.1357 14.1593 25.3325C14.3205 25.5151 14.4682 25.6977 14.5255 25.9087C14.7651 25.7944 14.9871 25.5691 15.0444 25.2739C15.1188 24.8917 14.8792 24.5851 14.8355 24.5305C14.7861 24.5237 14.7004 24.5083 14.6038 24.4668C13.9129 24.171 13.5104 22.9299 13.9623 22.1365C14.1871 21.7412 14.559 21.5717 14.605 21.5512C15.6956 21.0746 17.1797 22.1308 17.9252 23.005C18.4027 23.5653 18.6423 24.1267 18.7609 24.4588C18.8677 24.415 19.0028 24.3661 19.1618 24.3252C19.1618 24.3252 19.4252 24.2575 19.7063 24.2387C20.6743 24.1733 22.2345 25.0168 22.2345 25.0168C22.7784 25.3109 23.1571 25.5754 23.5755 25.8683C24.0518 26.2016 24.5072 26.5201 25.0193 26.9843C26.1457 28.0052 26.383 28.6735 27.0201 28.6656L27.0195 28.665Z" fill="#727272"/>
<path d="M31.1864 25.729C31.4362 26.4189 31.6428 27.1299 31.8012 27.846C31.9244 27.6623 32.0323 27.4689 32.122 27.2687C32.3082 26.8552 32.4206 26.4144 32.4581 25.9565C32.4581 25.8643 32.4536 25.7659 32.4422 25.6624C32.4189 25.4406 32.373 25.2501 32.3247 25.0971C32.457 24.882 32.6267 24.5675 32.7647 24.1648C32.8737 23.8452 33.0509 23.3264 33.0071 22.7355C32.9958 22.5847 32.8783 21.243 31.8926 20.751C31.6428 20.6264 31.3828 20.5786 31.1222 20.5786C30.6447 20.5786 30.1655 20.739 29.7437 20.8829C29.3843 21.0058 29.101 21.1502 28.9062 21.2617C29.1095 21.6024 29.3928 22.0876 29.7153 22.6791C30.3211 23.7894 30.7844 24.6221 31.1864 25.7301V25.729ZM31.5191 22.6405C31.6565 21.9841 31.787 21.8396 31.8966 21.7628C31.9477 21.727 32.0465 21.6582 32.1714 21.6673C32.474 21.6889 32.6495 22.1468 32.6807 22.2292C32.851 22.6729 32.7488 23.0875 32.5967 23.6535C32.5183 23.943 32.3917 24.3349 32.1788 24.7802C32.038 24.4691 31.9114 24.2348 31.8194 24.0755C31.7621 23.976 31.6758 23.8309 31.5628 23.6131C31.4969 23.4857 31.4458 23.3793 31.4123 23.3082C31.4424 23.0352 31.4833 22.8083 31.5185 22.6399L31.5191 22.6405Z" fill="#727272"/>
<path d="M29.1308 34.8559C29.0876 34.8559 29.0456 34.8559 29.0042 34.8559C28.5744 34.8536 27.4332 34.848 26.5021 33.9777C26.0728 33.5762 25.8213 33.1166 25.6731 32.7173L25.6641 32.7184C25.6771 32.8646 25.6947 33.062 25.7078 33.2138C25.7793 34.0249 25.8191 34.4891 25.8287 34.6017C25.8685 35.0504 25.9548 35.7267 26.1597 36.7022C26.355 37.5349 26.2568 37.7345 26.4884 37.9609C26.6451 38.1139 26.9177 38.1532 27.3821 38.1532C27.5842 38.1532 27.8232 38.1458 28.1048 38.1367C29.2409 38.1008 29.4867 37.9308 29.6111 37.7613C29.6673 37.6845 29.7229 37.5514 29.8342 37.2852C29.979 36.94 30.0585 36.676 30.0835 36.5953C30.2651 36.0003 30.5025 35.7444 30.7795 35.1858C30.9186 34.9054 31.0793 34.5249 31.2093 34.0386C31.1565 34.1057 31.098 34.1717 31.0333 34.2354C30.4383 34.8195 29.7019 34.8571 29.1302 34.8571L29.1308 34.8559Z" fill="#1E1E1E"/>
<path d="M28.6114 38.449C27.3368 38.6128 26.6998 38.6942 26.2751 38.3631C26.0935 38.2215 26.1139 38.1385 25.96 37.597C25.851 37.2142 25.8033 37.2688 25.6376 36.6118C25.5626 36.3138 25.5785 36.0169 25.6268 35.3599C25.6949 34.434 25.7256 34.3447 25.7483 34.3333C25.7494 34.3327 25.7511 34.3327 25.7534 34.3316C25.922 34.2827 26.0923 34.4072 26.1326 34.4362C26.2706 34.5363 26.3251 34.6842 26.3966 34.91C26.5823 35.4976 26.655 35.8792 26.655 35.8792C26.7203 36.2239 26.7186 36.2717 26.7753 36.6005C26.8105 36.8035 26.8662 37.0788 26.957 37.4042C27.0564 37.3678 27.204 37.2989 27.342 37.1653C27.3647 37.1431 27.4441 37.064 27.5679 36.853C27.6417 36.7273 27.7348 36.5493 27.8183 36.3206C27.9653 36.5368 27.9983 36.7262 28.0068 36.8251C28.0181 36.952 28.0022 37.0703 27.9903 37.1613C27.9733 37.2915 27.9466 37.399 27.9245 37.4753C27.9932 37.4764 28.0812 37.477 28.1828 37.4735C28.3446 37.4679 28.5002 37.4633 28.6824 37.4315C28.8005 37.411 28.9623 37.3729 29.1502 37.2995C29.2513 37.1903 29.3859 37.0191 29.4909 36.7819C29.5755 36.5908 29.6147 36.4173 29.634 36.2865C29.6868 36.357 29.7589 36.4719 29.8043 36.6278C29.8605 36.82 29.9258 36.9844 29.9127 37.0794C29.9939 37.0015 29.9695 36.9918 30.0019 37.002C30.1467 37.0481 30.1961 37.5651 29.965 37.9365C29.8668 38.0941 29.7049 38.3074 28.6109 38.4479L28.6114 38.449Z" fill="white"/>
<path d="M26.8849 36.5248C26.8701 36.1921 26.8304 35.8605 26.7674 35.5385C26.7072 35.2325 26.6396 35.0044 26.5902 34.8372C26.5113 34.5705 26.4619 34.4539 26.4409 34.4038C26.387 34.2753 26.3245 34.1496 26.2547 34.0301L26.0781 33.7281L26.4091 33.6166C26.5545 33.5677 26.9139 33.4477 27.1097 33.3919C27.1279 33.3868 27.1762 33.3732 27.2409 33.3629C27.3011 33.3533 27.376 33.3413 27.4538 33.3413C27.548 33.3413 27.6281 33.3584 27.6985 33.3942C28.034 33.5631 28.0164 34.0523 28.0056 34.3441C28.0034 34.4004 28.0017 34.4425 28.0011 34.451L28 34.4681C27.9557 35.1017 27.9267 35.5203 27.7581 35.9816C27.6707 36.2211 27.5514 36.4531 27.4038 36.6716L26.9235 37.3814L26.8849 36.5248Z" fill="white"/>
<path d="M27.4538 33.6264C27.4969 33.6264 27.5378 33.6321 27.5713 33.6492C27.7348 33.7316 27.7314 34.082 27.7223 34.3345C27.7206 34.3863 27.7189 34.4244 27.7183 34.4318C27.6746 35.0597 27.6479 35.4573 27.4918 35.8845C27.4328 36.046 27.3357 36.2667 27.1687 36.5124C27.1506 36.1023 27.0989 35.7542 27.0461 35.4841C26.9848 35.1712 26.9167 34.9392 26.8622 34.7566C26.7838 34.4932 26.7327 34.3658 26.7026 34.2942C26.63 34.1207 26.5556 33.983 26.4994 33.8869C26.5834 33.8585 26.982 33.7242 27.1864 33.6668C27.2034 33.6622 27.238 33.6526 27.2851 33.6446C27.3385 33.6361 27.3981 33.6264 27.4538 33.6264ZM27.4538 33.0576C27.3538 33.0576 27.263 33.0718 27.1966 33.0826C27.1125 33.0963 27.0512 33.1139 27.0308 33.1196C26.8389 33.1736 26.5016 33.2857 26.3183 33.3477L25.6562 33.5707L26.01 34.1741C26.0736 34.2828 26.1303 34.3971 26.1797 34.5137C26.199 34.5592 26.2439 34.6667 26.3183 34.9181C26.3659 35.0791 26.4318 35.2998 26.4891 35.5933C26.5493 35.9015 26.5874 36.2189 26.6016 36.5375L26.6782 38.2506L27.6383 36.8309C27.799 36.5938 27.929 36.3407 28.0244 36.0796C28.2066 35.5808 28.2384 35.1229 28.2827 34.4887L28.2838 34.4711C28.2855 34.4443 28.2884 34.3698 28.2889 34.355C28.3014 34.0183 28.3241 33.3915 27.8256 33.1407C27.7161 33.0855 27.5912 33.0576 27.4532 33.0576H27.4538Z" fill="#1E1E1E"/>
<path d="M23.3759 31.7269C23.5588 31.4858 23.7955 31.2162 24.097 30.95C24.2537 30.8118 24.4076 30.6929 24.5535 30.5905C24.2219 30.2879 23.7944 29.9193 23.2772 29.5246C23.0478 29.3494 22.3125 28.7971 21.2213 28.1589C20.1312 27.5213 19.5164 27.1619 18.6806 26.9457C18.4291 26.8803 17.9851 26.7836 17.4946 26.7057C17.0778 26.6391 16.8246 26.5988 16.4721 26.5845C16.0411 26.5669 15.705 26.6062 15.0317 26.6835C14.4474 26.7506 14.2521 26.8018 14.0954 26.853C13.7883 26.9531 13.5476 27.08 13.3823 27.1795C13.342 27.0828 13.2313 26.7796 13.3494 26.4418C13.3806 26.353 13.4533 26.1489 13.6316 26.0311C13.6049 25.9976 13.5697 25.9549 13.5203 25.8986C13.4295 25.7956 13.3744 25.7621 13.2841 25.7058C13.1285 25.6091 12.7271 25.3622 12.5358 25.1489C9.93096 27.7961 9.30359 28.7084 9.17187 29.0258C9.15314 29.0707 9.14632 29.615 8.88629 30.1161C8.81532 30.2532 8.76649 30.3397 8.73243 30.4022C8.56892 30.7008 8.44174 30.9807 8.01763 32.0324C7.82118 32.5204 7.69117 32.8497 7.57762 33.3207C7.57762 33.3207 7.41865 33.9816 7.54469 34.0254C7.62644 34.0538 7.97277 33.7672 8.0233 33.7564C8.0233 33.7564 8.02501 33.7564 8.02671 33.7558C8.04318 33.7524 8.07781 33.7376 8.09427 33.7376C8.09825 33.7376 8.10109 33.7387 8.10279 33.7404C8.11074 33.7535 8.0551 33.7996 8.04715 33.8064C7.96539 33.8769 7.82516 34.1528 7.77349 34.5675C7.71104 35.0697 7.80869 35.535 7.8649 35.7551C7.9671 35.6265 8.1096 35.4707 8.30037 35.3188C8.48886 35.1681 8.67054 35.0646 8.81702 34.994C8.6802 35.4422 8.59674 35.8364 8.54337 36.151C8.41165 36.9302 8.27823 37.7691 8.54337 38.7287C8.65862 39.1456 8.81986 39.4801 8.95896 39.7235C9.06002 39.6285 9.16165 39.5341 9.26271 39.4391C9.27747 39.6046 9.30927 39.8344 9.38421 40.0989C9.4637 40.3782 9.27123 40.1666 9.68796 40.84C10.1047 41.5135 10.2889 38.8231 10.4734 38.8407C10.6443 37.5934 11.8494 39.4482 12.1293 38.8407C12.9696 37.0184 14.1766 35.9075 15.047 35.1061C15.5398 34.6528 15.9957 34.2376 16.7082 33.807C17.3265 33.4339 18.2991 32.8469 19.6662 32.7109C19.7917 32.6984 19.9024 32.6916 20.0126 32.6916C20.0381 32.6916 20.0637 32.6916 20.0898 32.6927C20.301 32.699 20.4969 32.7092 20.7086 32.732C22.1314 32.8856 23.8534 33.5038 23.8534 33.5038C24.4252 33.7023 24.5347 33.7666 24.6176 33.8212C24.6415 33.8371 24.6642 33.8536 24.6875 33.8701C24.5274 33.4964 24.3258 33.071 24.0062 32.5784C23.7643 32.2059 23.5355 31.918 23.3754 31.7286L23.3759 31.7269Z" fill="#727272"/>
<path d="M33.4851 27.9493C33.3216 27.7303 33.2012 27.5534 33.028 27.2935C32.9877 27.4032 32.9451 27.5124 32.8969 27.6194C32.7936 27.8497 32.6703 28.0721 32.5312 28.2843C32.659 28.3952 32.7481 28.4959 32.8043 28.5596C33.04 28.828 33.1825 29.088 33.2602 29.2586C33.4113 29.5896 33.4942 29.9446 33.5084 30.3143C33.5294 30.3296 33.5498 30.3461 33.568 30.3649C33.6395 30.3808 33.7252 30.3933 33.8212 30.3933C33.8825 30.3933 33.9472 30.3882 34.0159 30.3763C34.0789 30.3649 34.1363 30.349 34.1868 30.3313C34.1454 30.2329 34.0983 30.13 34.0455 30.0236C33.9881 29.9093 33.9296 29.8029 33.8723 29.7045C33.9802 29.6556 34.0897 29.6039 34.201 29.5498C34.3072 29.4981 34.4111 29.4463 34.5116 29.394C34.4531 29.2905 34.3634 29.1375 34.247 28.9589C34.0046 28.5874 33.8831 28.4828 33.4845 27.9493H33.4851Z" fill="#727272"/>
<path d="M30.7548 34.1247C30.7929 34.1247 30.8303 34.1281 30.8661 34.1389C30.9916 34.1759 30.9218 34.5205 30.8786 34.7009C30.8712 34.731 30.865 34.7572 30.8604 34.7759C30.7264 35.3157 30.4499 35.8003 30.1666 36.2042C30.1456 36.2343 30.0849 36.2821 30.0775 36.3213C30.1445 35.9715 30.1752 35.6103 30.1644 35.2583C30.1593 35.0848 30.1439 34.913 30.1167 34.7464C30.1042 34.6684 30.0906 34.5877 30.0684 34.516C30.0502 34.4568 30.0122 34.3931 30.0338 34.3186C30.0724 34.1833 30.2632 34.1645 30.5868 34.136C30.6407 34.1315 30.6986 34.1235 30.7554 34.1235" fill="white"/>
<path d="M32.4873 29.6136C32.4431 29.5163 32.3426 29.3241 32.1666 29.1233C32.1007 29.0482 32.0014 28.935 31.8429 28.8264C31.6914 28.7223 31.521 28.6472 31.3376 28.6023L31.0753 28.538L31.0208 28.273C30.8647 27.5108 30.6512 26.7526 30.3855 26.02C30.1772 25.445 29.7888 24.3739 28.9979 23.1385C28.4342 22.258 27.7142 21.3918 26.916 20.6336C26.1648 19.9203 25.3319 19.2924 24.4389 18.7623C24.0494 18.6662 23.221 18.4961 22.1275 18.4961C21.3514 18.4961 20.4424 18.582 19.4625 18.8408C19.4318 18.8487 19.4012 18.8573 19.3711 18.8658C21.1158 19.5449 23.6412 20.8389 25.8389 23.312C26.6747 24.2528 27.3106 25.1924 27.796 26.0433C28.1259 26.5308 28.3183 26.9761 28.4336 27.2986C28.5358 27.5847 28.655 27.9288 28.6754 28.3998C28.6851 28.6205 28.6703 28.8059 28.6533 28.9396C28.3609 29.0061 27.7608 29.1847 27.2129 29.6995C27.0267 29.8747 26.6628 30.2245 26.4703 30.8063C26.1978 31.6311 26.4561 32.358 26.5532 32.5963C26.5503 32.5963 26.5469 32.5969 26.5441 32.5974C26.6588 32.8477 26.8285 33.115 27.0823 33.3522C27.7693 33.9949 28.6056 33.9989 29.007 34.0012C29.4941 34.004 30.0466 34.0063 30.4366 33.6241C30.6666 33.3983 30.771 33.1139 30.8176 32.8784C30.8079 32.8625 30.7994 32.8466 30.7892 32.8306C30.6694 32.6412 30.5275 32.4877 30.3583 32.3432C30.2345 32.2374 30.0988 32.1248 29.9353 32.0889C29.8019 32.0599 29.6554 32.0804 29.5191 32.0685C29.2228 32.0423 28.9491 31.9115 28.873 31.6026C28.8021 31.3148 28.8821 31.0794 29.0399 30.8928C29.2943 30.593 29.7019 30.4417 30.0755 30.3604C30.913 30.1778 31.7941 30.2125 32.648 30.1903C32.6247 29.9884 32.5708 29.7945 32.4873 29.6119V29.6136Z" fill="white"/>
<path d="M31.5761 33.4514C31.5602 33.4577 31.5443 33.4639 31.5284 33.4702C31.5102 33.5163 31.4903 33.5629 31.4688 33.6095C31.5499 33.6368 31.647 33.6579 31.7555 33.6579C31.7924 33.6579 31.8304 33.6556 31.8696 33.6499C32.0757 33.6209 32.2602 33.5157 32.4777 33.2899C32.7984 32.9583 33.0034 32.5613 33.1408 32.1836C32.7496 32.7456 32.1983 33.2114 31.5766 33.4514H31.5761Z" fill="white"/>
<path d="M35.2546 28.9736C35.1626 28.8109 35.0638 28.6488 34.9616 28.4918C34.7975 28.2404 34.6749 28.0869 34.533 27.9088C34.4359 27.7866 34.3257 27.6483 34.1685 27.4379C33.9908 27.1996 33.8676 27.0147 33.6439 26.678L33.6195 26.641C33.5133 26.4812 33.4083 26.3197 33.3049 26.1575C33.3078 26.1052 33.3089 26.0529 33.3095 26.0006C33.3157 25.9192 33.3202 25.8368 33.3225 25.7543H33.3038C33.3004 25.6934 33.2958 25.6326 33.2896 25.5723C33.2771 25.454 33.2589 25.3362 33.2357 25.2191C33.3674 24.9682 33.4798 24.7071 33.5712 24.4398C33.691 24.0894 33.9136 23.4365 33.8573 22.6715C33.8329 22.3427 33.6433 20.6693 32.2727 19.9856C31.9247 19.8116 31.5375 19.7234 31.1225 19.7234C30.494 19.7234 29.9018 19.9259 29.4692 20.0732C29.3272 20.1216 29.187 20.1762 29.049 20.2359C28.6664 19.9072 28.1054 19.4749 27.3946 19.0631C26.2597 18.4061 25.2212 18.087 24.8272 17.9801C24.8068 17.9744 24.7863 17.9693 24.7659 17.9642C24.6915 17.9454 24.6166 17.9272 24.5422 17.9084C23.8001 17.7355 22.9548 17.6411 22.1287 17.6411C21.1527 17.6411 20.183 17.7668 19.2462 18.0142C18.4173 18.2332 17.6116 18.5489 16.852 18.9516L15.8391 19.4885C15.4144 19.501 15.2254 19.5067 15.1152 19.517C14.883 19.5374 14.4004 19.5807 13.919 19.7553C12.8817 20.1318 12.3678 20.7802 12.1197 21.2575C12.0772 21.3399 11.7098 22.0856 11.799 23.1748C11.8154 23.3785 11.8523 23.5542 11.8597 23.5872C11.9545 24.0235 12.1226 24.3306 12.1941 24.462C12.218 24.5058 12.3065 24.5593 12.2685 24.5917C9.4371 26.9959 7.70091 29.8262 7.04345 33.1798C7.01847 33.3055 6.94977 33.4215 6.90435 33.5427L6.26562 35.2416L6.90605 35.0209C6.91797 35.3912 6.97986 35.7206 7.04174 35.9623L7.46529 37.6288L7.5408 37.5338C7.53853 37.9729 7.58565 38.4467 7.72532 38.953C7.83944 39.3659 8.00636 39.7669 8.22267 40.1446L8.7575 41.0791L8.82336 41.0171C8.87048 41.1166 8.91874 41.2076 8.967 41.2861C9.55292 42.2332 10.7537 42.4419 11.2426 42.488L12.055 42.5642L12.1657 41.7542C12.2895 40.8527 12.5382 39.9916 12.9055 39.1953C13.6748 37.5282 14.8024 36.4895 15.6262 35.7308C16.0741 35.3184 16.4971 34.9288 17.1506 34.5346C17.7184 34.1917 18.5768 33.6735 19.7532 33.5569C19.8571 33.5466 19.9406 33.5415 20.0155 33.5415C20.0331 33.5415 20.0501 33.5415 20.0677 33.5421C20.2903 33.5489 20.4555 33.5592 20.6207 33.5768C21.9237 33.7179 23.5537 34.298 23.5702 34.3037L23.7093 34.3538H23.7121C24.0483 34.4738 24.1317 34.5164 24.1522 34.5301C24.486 34.7508 24.6626 35.1 24.9129 35.6483C25.0276 35.8991 25.1911 36.3109 25.3212 36.8485C25.3961 37.1573 25.4251 37.3683 25.4489 37.5378C25.4938 37.8603 25.5449 38.2261 25.8946 38.5685C26.3051 38.97 26.8785 39.0042 27.3832 39.0042C27.599 39.0042 27.8465 38.9962 28.1327 38.9877C29.1671 38.9552 29.8899 38.8227 30.2992 38.2636C30.4151 38.1055 30.4837 37.9411 30.6211 37.6129C30.7801 37.233 30.8693 36.9412 30.8982 36.8456L30.8993 36.8422C30.9885 36.5504 31.0941 36.3684 31.2411 36.1164C31.3314 35.9606 31.4342 35.7843 31.5437 35.563C31.7107 35.2268 31.8515 34.8702 31.965 34.4977C31.9741 34.4965 31.9832 34.4954 31.9923 34.4942C32.5226 34.4192 32.8746 34.1092 33.0937 33.8828C33.9266 33.0211 34.135 31.8886 34.2355 31.3443C34.2445 31.2948 34.2531 31.2453 34.2616 31.1959C34.3331 31.1794 34.4041 31.1589 34.4734 31.135L35.3301 30.8347L35.0178 30.0947L35.6952 29.7455L35.258 28.9725L35.2546 28.9736ZM29.7428 20.8821C30.2146 20.7097 30.6297 20.5778 31.1213 20.5778C31.3819 20.5778 31.642 20.6255 31.8918 20.7501C32.8774 21.2421 32.9955 22.5839 33.0063 22.7346C33.0494 23.3261 32.8729 23.8443 32.7638 24.164C32.6265 24.5667 32.4567 24.8818 32.3238 25.0962C32.3721 25.2492 32.4181 25.4397 32.4414 25.6616C32.4522 25.7651 32.4567 25.8635 32.4573 25.9556C32.4198 26.4135 32.3074 26.8543 32.1211 27.2678C32.0309 27.468 31.923 27.6614 31.8004 27.8451C31.5778 26.9903 31.3604 26.2724 31.1855 25.7281C30.9419 24.9682 30.6058 23.9302 30.0403 22.6351C29.7542 21.9792 29.4896 21.4423 29.2949 21.0629C29.3976 21.0163 29.5521 20.9503 29.7428 20.8804V20.8821ZM24.6183 33.8191C24.536 33.7645 24.4258 33.7002 23.8541 33.5017C23.8541 33.5017 22.1321 32.884 20.7093 32.7299C20.4975 32.7071 20.3011 32.6969 20.0904 32.6906C20.0649 32.6901 20.0388 32.6895 20.0132 32.6895C19.9031 32.6895 19.7924 32.6963 19.6669 32.7088C18.2997 32.8448 17.3272 33.4318 16.7089 33.8049C15.9958 34.2354 15.5399 34.6501 15.0476 35.104C14.1773 35.9054 12.9708 37.0162 12.13 38.8386C11.8501 39.4455 11.4907 40.392 11.3198 41.6399C11.1353 41.6228 10.1053 41.5119 9.68862 40.8379C9.58358 40.6684 9.46378 40.3766 9.38487 40.0968C9.30992 39.8323 9.27813 39.6025 9.26337 39.437C9.16231 39.532 9.06068 39.6264 8.95962 39.7214C8.82052 39.478 8.65928 39.1435 8.54402 38.7266C8.27888 37.7665 8.4123 36.9275 8.54402 36.1488C8.59739 35.8343 8.68085 35.4401 8.81768 34.9919C8.6712 35.0625 8.48952 35.166 8.30102 35.3167C8.11026 35.4691 7.96775 35.6244 7.86556 35.753C7.80935 35.5329 7.71226 35.0682 7.77415 34.5653C7.82581 34.1507 7.96548 33.8748 8.04781 33.8043C8.05575 33.7975 8.11139 33.7514 8.10345 33.7383C8.10231 33.7361 8.09947 33.7355 8.09493 33.7355C8.07846 33.7355 8.04383 33.7503 8.02737 33.7537C7.90984 33.7787 7.80083 33.81 7.69977 33.8453C7.73441 33.7662 7.76904 33.6871 7.80367 33.6081C7.81389 33.57 7.82865 33.5324 7.8349 33.4938C8.24879 30.8193 9.76583 27.6688 12.7914 25.293C12.566 25.4699 13.1286 25.6081 13.2842 25.7042C13.375 25.7605 13.4295 25.7941 13.5204 25.897C13.5698 25.9534 13.6056 25.9954 13.6317 26.0296C13.454 26.1473 13.3807 26.3515 13.3495 26.4402C13.2314 26.7781 13.3421 27.0813 13.3824 27.178C13.5471 27.0784 13.7878 26.9521 14.0955 26.8515C14.2522 26.8003 14.4475 26.7497 15.0317 26.682C15.7045 26.604 16.0412 26.5654 16.4721 26.583C16.8241 26.5972 17.0779 26.6376 17.4947 26.7042C17.9858 26.7826 18.4292 26.8793 18.6807 26.9442C19.5164 27.1603 20.1308 27.5204 21.2214 28.1574C22.3126 28.7956 23.0479 29.3479 23.2772 29.5231C23.795 29.9178 24.222 30.2864 24.5536 30.589C24.4076 30.6913 24.2538 30.8108 24.0971 30.9484C23.795 31.2146 23.5583 31.4842 23.376 31.7254C23.5361 31.9148 23.7649 32.202 24.0068 32.5752C24.3265 33.0677 24.528 33.4932 24.6881 33.8669C24.6654 33.8504 24.6427 33.8339 24.6183 33.818V33.8191ZM25.0174 26.984C24.5053 26.5199 24.05 26.2013 23.5736 25.868C23.1546 25.5751 22.7765 25.3101 22.2326 25.0166C22.2326 25.0166 20.6724 24.1731 19.7044 24.2385C19.4233 24.2572 19.1599 24.3249 19.1599 24.3249C19.0009 24.3659 18.8658 24.4148 18.7591 24.4586C18.641 24.1264 18.4008 23.565 17.9233 23.0048C17.1784 22.1305 15.6943 21.0743 14.6031 21.5509C14.5571 21.5709 14.1858 21.7409 13.9604 22.1362C13.5085 22.9297 13.911 24.1702 14.602 24.4665C14.699 24.5081 14.7842 24.5234 14.8336 24.5303C14.8773 24.5849 15.1163 24.8914 15.0425 25.2737C14.9852 25.5689 14.7632 25.7941 14.5236 25.9084C14.4668 25.6974 14.3187 25.5143 14.1574 25.3322C13.9831 25.1354 13.8434 25.049 13.731 24.979C13.6084 24.9028 13.6209 24.9062 13.6095 24.8971C13.5369 24.8419 13.4772 24.7737 13.3614 24.6395C13.3308 24.6042 13.2893 24.5558 13.2354 24.4893C13.1758 24.4154 13.1269 24.3499 13.0889 24.297C13.0372 24.2225 12.9867 24.1418 12.939 24.0542C12.8731 23.9336 12.7568 23.7175 12.6898 23.408C12.6886 23.4018 12.6585 23.2613 12.646 23.1071C12.5745 22.2284 12.8731 21.6533 12.8731 21.6533C13.2638 20.9014 14.0126 20.6295 14.2068 20.5596C14.5844 20.4225 14.9778 20.3872 15.189 20.3684C15.2855 20.3599 15.5251 20.3531 16.0043 20.3389C16.2939 20.3303 16.5318 20.3269 16.5885 20.3258C17.1455 20.3161 17.2074 20.3218 17.4282 20.3116C17.6031 20.303 17.8609 20.2848 18.1771 20.2405C18.4882 20.3747 18.8664 20.5465 19.3296 20.7575C21.3066 21.6579 23.0814 22.9507 23.1847 23.0264C23.9955 23.6219 24.9737 24.4262 25.9917 25.4784C26.1524 25.6542 26.5038 26.0387 26.7099 26.2639C26.7099 26.2639 27.1136 26.7053 27.6478 27.4845C27.6989 27.5596 27.8 27.7109 27.8164 27.9231C27.8215 27.993 27.8261 28.1955 27.7137 28.3639C27.5167 28.6585 27.0835 28.6642 27.0176 28.6648C26.3806 28.6727 26.1433 28.0044 25.0168 26.9834L25.0174 26.984ZM30.7778 35.1848C30.5008 35.7433 30.2635 35.9993 30.0818 36.5942C30.0574 36.675 29.9773 36.9389 29.8325 37.2841C29.7213 37.5503 29.665 37.6834 29.6094 37.7602C29.4851 37.9303 29.2392 38.1004 28.1032 38.1356C27.8215 38.1447 27.5831 38.1521 27.3804 38.1521C26.916 38.1521 26.6435 38.1129 26.4868 37.9599C26.2557 37.7335 26.3533 37.5338 26.158 36.7011C25.9531 35.7251 25.8668 35.0494 25.827 34.6006C25.8168 34.4886 25.7776 34.0239 25.7061 33.2128C25.6925 33.0609 25.6754 32.8635 25.6624 32.7174L25.6715 32.7162C25.8196 33.1155 26.0712 33.5751 26.5004 33.9767C27.4309 34.8469 28.5721 34.8526 29.0025 34.8549C29.0439 34.8549 29.0859 34.8549 29.1291 34.8549C29.7008 34.8549 30.4372 34.8173 31.0322 34.2332C31.0969 34.1695 31.1548 34.1035 31.2082 34.0364C31.0776 34.5233 30.9175 34.9032 30.7784 35.1836L30.7778 35.1848ZM30.075 30.362C29.7014 30.4434 29.2937 30.5946 29.0394 30.8944C28.8815 31.081 28.8015 31.3159 28.8725 31.6042C28.9485 31.9131 29.2222 32.0439 29.5186 32.0701C29.6548 32.082 29.8013 32.061 29.9347 32.0906C30.0977 32.1264 30.2334 32.239 30.3577 32.3448C30.5269 32.4893 30.6688 32.6428 30.7886 32.8323C30.7983 32.8476 30.8074 32.8641 30.817 32.88C30.7705 33.1155 30.666 33.3999 30.4361 33.6257C30.0466 34.0085 29.4942 34.0057 29.0065 34.0028C28.6045 34.0005 27.7687 33.9966 27.0818 33.3538C26.828 33.1166 26.6582 32.8493 26.5435 32.5991C26.5464 32.5991 26.5498 32.5985 26.5526 32.5979C26.4555 32.3596 26.1972 31.6327 26.4697 30.8079C26.6622 30.2266 27.0261 29.8763 27.2123 29.7011C27.7602 29.1863 28.3598 29.0077 28.6527 28.9412C28.6692 28.8075 28.6845 28.6221 28.6749 28.4014C28.6544 27.9299 28.5352 27.5863 28.433 27.3002C28.3178 26.9772 28.1253 26.5324 27.7954 26.0449C27.3106 25.194 26.6747 24.2544 25.8384 23.3136C23.6406 20.8405 21.39 19.4743 19.6453 18.7957C19.6453 18.7957 19.6476 18.7952 19.6482 18.7952C19.9689 18.7019 20.3022 18.6354 20.8234 18.579C21.1675 18.5421 21.5797 18.4971 22.1275 18.4977C22.6987 18.4983 23.4947 18.5483 24.4389 18.7639C24.7994 18.9778 25.2139 19.2451 25.6567 19.5756C25.9042 19.7598 26.3829 20.1296 26.916 20.6358C28.085 21.7449 28.7964 22.8262 28.9979 23.1407C29.7882 24.3761 30.1766 25.4471 30.3855 26.0222C30.6512 26.7548 30.8647 27.513 31.0208 28.2751L31.0753 28.5402L31.3377 28.6045C31.521 28.6494 31.6914 28.7245 31.843 28.8286C32.0014 28.9372 32.1007 29.0504 32.1666 29.1255C32.3426 29.3263 32.4431 29.5185 32.4874 29.6158C32.5708 29.7983 32.6242 29.9923 32.648 30.1942C31.7947 30.2164 30.9135 30.1817 30.0755 30.3643L30.075 30.362ZM32.4783 33.2907C32.2603 33.5159 32.0763 33.6212 31.8702 33.6507C31.831 33.6564 31.793 33.6587 31.7561 33.6587C31.6476 33.6587 31.5506 33.6371 31.4694 33.6104C31.4909 33.5637 31.5114 33.5171 31.529 33.471C31.5449 33.4647 31.5608 33.4585 31.5767 33.4522C32.1984 33.2128 32.7497 32.7469 33.1408 32.1844C33.004 32.5626 32.7985 32.9591 32.4777 33.2907H32.4783ZM34.2025 29.5498C34.0913 29.6038 33.9817 29.6556 33.8738 29.7045C33.9317 29.8023 33.9902 29.9087 34.047 30.0236C34.1003 30.13 34.1469 30.2329 34.1883 30.3313C34.1378 30.3489 34.0805 30.3649 34.0175 30.3762C33.9493 30.3882 33.884 30.3933 33.8227 30.3933C33.7268 30.3933 33.641 30.3808 33.5695 30.3649C33.5513 30.3461 33.5309 30.3296 33.5099 30.3142C33.4957 29.9445 33.4128 29.5896 33.2618 29.2586C33.184 29.0879 33.0415 28.828 32.8059 28.5595C32.7502 28.4958 32.6611 28.3952 32.5328 28.2842C32.6719 28.0721 32.7945 27.8497 32.8984 27.6193C32.9467 27.5124 32.9892 27.4032 33.0296 27.2934C33.2027 27.5534 33.3231 27.7297 33.4866 27.9492C33.8852 28.4827 34.0067 28.5874 34.2491 28.9588C34.366 29.138 34.4552 29.2904 34.5137 29.3939C34.4126 29.4457 34.3093 29.498 34.2031 29.5498H34.2025Z" fill="#1E1E1E"/>
<path d="M31.8206 24.0765C31.912 24.2358 32.0386 24.4701 32.18 24.7813C32.3929 24.3353 32.5195 23.944 32.5978 23.6545C32.7506 23.0886 32.8522 22.6739 32.6819 22.2303C32.6506 22.1484 32.4746 21.6905 32.1726 21.6683C32.0477 21.6592 31.9489 21.728 31.8978 21.7639C31.7882 21.8401 31.6582 21.9851 31.5202 22.6415C31.485 22.8099 31.4442 23.0368 31.4141 23.3098C31.4476 23.3809 31.4981 23.4873 31.5645 23.6147C31.6775 23.8325 31.7638 23.9781 31.8211 24.0771L31.8206 24.0765Z" fill="#1E1E1E"/>
<path d="M12.0085 29.1101C11.8439 29.2375 11.6627 29.3945 11.4782 29.585C11.2619 29.8091 11.0905 30.0281 10.957 30.2226C11.2097 30.1447 11.4623 30.0662 11.7155 29.9883C11.5543 30.1766 11.3738 30.4154 11.204 30.7084C11.0507 30.9723 10.94 31.2203 10.8594 31.4353C11.1058 31.3113 11.3726 31.1873 11.661 31.069C11.8864 30.9763 12.1045 30.8944 12.3134 30.8227C12.2015 31.057 12.08 31.3653 11.9972 31.739C11.9029 32.1633 11.8881 32.5353 11.8978 32.8169C12.1732 32.8151 12.4599 32.8072 12.7568 32.7924C13.0566 32.777 13.3456 32.7554 13.6221 32.7293C13.3791 33.0586 13.1304 33.4465 12.9044 33.8958C12.8261 34.0511 12.7562 34.203 12.6927 34.3514C13.0361 34.0733 13.4898 33.7662 14.0587 33.5125C14.2932 33.4078 14.518 33.3254 14.7281 33.2599C14.8331 33.2156 14.9552 33.1718 15.0931 33.1348C15.2038 33.1052 15.3072 33.0853 15.4008 33.0717C15.205 33.2537 14.9103 33.5807 14.7326 34.0699C14.6628 34.2627 14.6247 34.4424 14.6048 34.5966C14.8268 34.3418 15.1794 33.9977 15.6864 33.7042C16.1259 33.4493 16.3405 33.4402 16.7271 33.273C17.0337 33.1405 18.0982 32.6792 18.5337 31.6651C18.8551 30.916 18.7665 30.0218 18.394 29.3467C17.6537 28.0061 15.9851 27.8775 15.5076 27.8405C13.647 27.6972 12.3145 28.8359 12.0091 29.1118L12.0085 29.1101Z" fill="#1E1E1E"/>
<path d="M13.3452 27.8874C13.18 28.0142 12.9978 28.1701 12.8127 28.3595C12.5952 28.5824 12.4226 28.8003 12.2881 28.9942C12.5413 28.9174 12.7945 28.8407 13.0477 28.7633C12.8853 28.9504 12.7042 29.1888 12.5322 29.4811C12.3778 29.7439 12.2659 29.9919 12.1836 30.2063C12.4306 30.0835 12.698 29.9612 12.987 29.844C13.2129 29.7524 13.4309 29.6717 13.6405 29.6011C13.5275 29.8349 13.4043 30.1426 13.3191 30.5157C13.2226 30.9395 13.2061 31.3115 13.2146 31.593C13.49 31.593 13.7767 31.5862 14.0736 31.5725C14.3734 31.5589 14.6624 31.5384 14.9395 31.5134C14.6948 31.8416 14.4444 32.2278 14.2156 32.6765C14.1367 32.8313 14.0657 32.9831 14.0015 33.131C14.3467 32.8546 14.8015 32.5503 15.3721 32.2989C15.6072 32.1954 15.8326 32.114 16.0432 32.0497C16.1482 32.0059 16.2703 31.9627 16.4088 31.9263C16.5195 31.8973 16.6229 31.878 16.7171 31.8643C16.5207 32.0452 16.2237 32.3705 16.0438 32.8591C15.9728 33.0519 15.9342 33.2311 15.9137 33.3853C16.1374 33.1316 16.4911 32.7892 16.9999 32.4979C17.441 32.2454 17.6556 32.2374 18.0422 32.0719C18.3494 31.9405 19.4162 31.4849 19.8568 30.4731C20.1821 29.7257 20.0981 28.831 19.7285 28.1541C18.9949 26.8095 17.3269 26.6724 16.8494 26.6332C14.9894 26.4808 13.6512 27.6126 13.3447 27.8868L13.3452 27.8874Z" fill="#727272"/>
<path d="M24.0835 27.3961C24.5825 27.7903 24.8965 28.2044 25.0617 28.4501C25.2434 28.7197 25.3683 28.9666 25.4529 29.1554C25.3683 29.1082 25.2525 29.0877 25.1242 29.0485C25.0402 29.0223 24.9329 29.0195 24.8636 29.0086C24.7268 29.1662 24.6916 29.2111 24.4849 29.2669C24.243 29.3323 24.0437 29.3061 23.9461 29.2777C23.4993 29.1474 23.2353 28.7988 23.1013 28.6173C22.743 28.1316 22.6545 27.6276 22.5937 27.2841C22.5432 26.9957 22.5318 26.7534 22.5312 26.5879C22.9196 26.7056 23.4993 26.9348 24.0835 27.3961Z" fill="white"/>
<path d="M30.8867 31.1497C31.3063 31.1087 31.7469 31.078 32.2067 31.0604C32.4815 31.0501 32.4418 31.045 32.703 31.0444" fill="#1E1E1E"/>
<path d="M30.8867 31.1497C31.3063 31.1087 31.7469 31.078 32.2067 31.0604C32.4815 31.0501 32.4418 31.045 32.703 31.0444" stroke="white" stroke-width="0.5" stroke-linecap="round" stroke-linejoin="round"/>
<path d="M40.2302 14.3998C39.763 13.5795 39.2391 12.7961 38.6641 12.0548C42.5653 7.23823 45.8875 2.76418 47 0.557836C44.8901 1.72463 40.5086 5.14493 35.8301 9.09295C35.1649 8.5283 34.4624 8.00682 33.7258 7.53306C36.2395 4.33317 38.257 1.52638 39.0264 0C37.4523 0.870269 34.3858 3.22204 30.9695 6.05496C28.5534 4.9978 25.8844 4.41099 23.0793 4.41099C12.1821 4.41099 3.34831 13.2608 3.34831 24.1778C3.34831 27.1681 4.01117 30.0033 5.1974 32.5442C2.73592 35.6543 0.743944 38.3816 0 39.837C1.32288 39.1155 3.76281 37.2773 6.56508 35.0005C7.10716 35.8287 7.70934 36.6132 8.3654 37.3489C4.87533 41.6781 1.93641 45.6164 0.930497 47.5836C2.86294 46.5299 6.81287 43.4589 11.0956 39.8841C11.8906 40.4942 12.7338 41.0447 13.6178 41.5292C11.4483 44.2928 9.71493 46.6878 9.04413 48.0006C10.439 47.2399 13.1313 45.1819 16.1558 42.6943C18.31 43.5032 20.6427 43.9458 23.0787 43.9458C33.9759 43.9458 42.8096 35.0959 42.8096 24.1789C42.8096 21.621 42.3248 19.176 41.4414 16.9322C43.7923 13.9317 45.6731 11.3084 46.3978 9.87119C45.1328 10.5705 42.8612 12.2695 40.2297 14.4009L40.2302 14.3998ZM23.0793 38.1396C15.383 38.1396 9.14336 31.8892 9.14336 24.1784C9.14336 16.4675 15.3824 10.2171 23.0793 10.2171C30.7761 10.2171 37.0152 16.4675 37.0152 24.1784C37.0152 31.8892 30.7761 38.1396 23.0793 38.1396Z" fill="#727272"/>
<path d="M27.241 34.1069C26.1248 33.8549 25.4112 34.0119 25.175 34.0716C24.9916 34.1182 24.8224 34.1762 24.668 34.2399C24.7832 34.3173 24.9518 34.4328 25.1517 34.5789C25.5542 34.8724 25.8392 35.1113 25.9596 35.212C26.1157 35.3423 26.2123 35.4207 26.2912 35.4839C26.2912 35.4839 26.4189 35.5868 26.5648 35.6989C26.7147 35.8143 26.8334 35.9065 26.9736 36.0043C27.3211 36.2472 27.8173 36.5276 27.8372 36.539C28.1653 36.7204 28.7229 37.3176 29.7198 39.2134C30.3824 37.602 30.3126 35.9383 29.424 35.0408C28.8608 34.472 28.0444 34.2877 27.241 34.1069Z" fill="white" stroke="#1E1E1E" stroke-linecap="round" stroke-linejoin="round"/>
<path d="M26.2089 34.913C25.745 34.7873 24.7929 34.5951 23.6551 34.8374C23.4195 34.8874 23.2287 34.9449 23.1016 34.987C23.2202 35.0769 23.394 35.2111 23.5995 35.3795C24.0423 35.7423 24.3495 36.0347 24.4267 36.1069C24.4267 36.1069 24.693 36.3538 24.9683 36.5944C25.1086 36.7167 25.2221 36.8156 25.3561 36.9248C25.7933 37.282 26.3429 37.6665 26.3707 37.6853C26.7403 37.9401 27.3188 38.6488 28.246 40.6106C28.3539 40.4149 29.3906 38.4685 28.4339 36.649C28.0609 35.9397 27.5215 35.5086 27.1599 35.2737C26.83 35.0814 26.5592 35.0086 26.2089 34.9136V34.913Z" fill="white" stroke="#1E1E1E" stroke-linecap="round" stroke-linejoin="round"/>
<path d="M23.8772 36.1066C23.143 35.9343 22.3153 35.7147 21.5658 36.1425C21.2831 36.304 21.094 36.5088 20.9805 36.6544C21.1463 36.7255 21.4091 36.8426 21.7225 37.0059C22.1438 37.2254 22.3919 37.3841 23.9089 38.4125C24.3524 38.7134 24.6357 38.9062 25.0121 39.2065C25.2636 39.4073 25.4657 39.5705 25.6974 39.8072C25.9563 40.0711 26.2521 40.4271 26.5252 40.8952C26.6262 40.666 26.7511 40.3299 26.8266 39.9095C26.8999 39.4994 27.0174 38.917 26.7977 38.3021C26.5337 37.565 25.9727 37.1464 25.598 36.8665C24.9099 36.3524 24.2462 36.1931 23.876 36.1066H23.8772Z" fill="white" stroke="#1E1E1E" stroke-linecap="round" stroke-linejoin="round"/>
<path d="M23.7775 38.3916C23.6804 38.221 23.5413 37.9224 23.5231 37.5339C23.5129 37.3115 23.4817 36.5783 24.0125 36.2484C24.373 36.0243 24.8709 36.0636 25.2871 36.3218C25.282 36.2621 25.2349 35.5659 25.7413 35.1916C26.0326 34.9766 26.3522 34.9817 26.4885 34.9863C27.2845 35.0107 27.7722 35.7348 27.8375 35.8355C27.6581 35.4692 27.7341 35.0375 28.0123 34.7809C28.2377 34.5728 28.5676 34.5062 28.873 34.6012C28.722 34.3185 28.3513 33.7213 27.6285 33.3402C26.9819 32.9995 26.3908 33.012 25.8361 33.0188C24.737 33.0314 23.9529 33.4119 23.7763 33.5012C23.4777 33.6519 22.8662 33.9687 22.3586 34.6268C22.2139 34.8145 20.9733 36.4191 21.7069 37.5544C22.2945 38.465 23.673 38.3984 23.7763 38.3916H23.7775Z" fill="#727272" stroke="#1E1E1E" stroke-linecap="round" stroke-linejoin="round"/>
<path d="M35.2412 35.0725C34.9045 34.4901 34.3226 34.138 33.9768 33.9292C33.8377 33.8451 33.7185 33.7831 33.6367 33.7427C33.6515 33.8439 33.6725 33.9935 33.6924 34.175C33.7321 34.5401 33.7435 34.8148 33.7486 34.9309C33.7554 35.081 33.7605 35.1726 33.765 35.2471C33.765 35.2471 33.7724 35.3677 33.7838 35.5031C33.7951 35.6424 33.8042 35.7533 33.8207 35.8785C33.8479 36.0906 33.857 36.197 33.9575 36.6133C34.0262 36.8983 34.0006 37.5092 33.6441 38.8919C33.7628 38.8424 35.2491 38.198 35.5007 36.722C35.5319 36.5377 35.6517 35.7823 35.2418 35.0731L35.2412 35.0725Z" fill="white" stroke="#1E1E1E" stroke-linecap="round" stroke-linejoin="round"/>
<path d="M33.9418 34.7774C33.5648 33.9015 32.9045 33.418 32.6944 33.2684C32.5502 33.1655 32.4213 33.0898 32.3271 33.0381C32.3356 33.153 32.3481 33.3213 32.3623 33.525C32.452 34.8252 32.5076 35.6295 32.4895 36.2984C32.4741 36.8768 32.3941 37.7073 32.0938 38.7237C32.2346 38.685 33.6801 38.2612 34.128 36.9041C34.4448 35.9452 34.0752 35.0891 33.9412 34.7786L33.9418 34.7774Z" fill="white" stroke="#1E1E1E" stroke-linecap="round" stroke-linejoin="round"/>
<path d="M32.0778 33.988C31.8774 33.6325 31.5339 33.0234 31.0292 33.0581C30.9258 33.0655 30.8395 33.0979 30.7845 33.1235C30.6544 33.1622 30.5114 33.2259 30.4762 33.3334C30.4472 33.4209 30.5119 33.4983 30.5182 33.529C30.5716 33.8066 30.6136 34.1632 30.7311 35.2689C30.7737 35.6699 30.8004 35.9265 30.81 36.2916C30.8174 36.5703 30.8072 36.7973 30.7998 36.9218C30.7981 36.9542 30.7964 36.9736 30.7958 36.9861C30.7839 37.1653 30.7856 37.4588 30.8429 37.9633C30.9934 37.9223 31.208 37.8467 31.4345 37.6994C31.9166 37.3854 32.1312 36.9554 32.2322 36.7472C32.5275 36.138 32.5002 35.5829 32.4849 35.3218C32.4451 34.6495 32.1982 34.2002 32.0789 33.988H32.0778Z" fill="white" stroke="#1E1E1E" stroke-linecap="round" stroke-linejoin="round"/>
<path d="M30.7016 35.2024C30.7289 35.0909 30.8084 34.8355 31.0383 34.6296C31.103 34.5716 31.5016 34.2058 31.962 34.3577C32.3322 34.4794 32.4747 34.8474 32.4963 34.9054C32.5224 34.8736 32.8932 34.4368 33.4104 34.509C33.6971 34.5488 33.8867 34.7257 33.9407 34.7775C34.1632 34.9908 34.2234 35.2422 34.241 35.3343C34.4301 35.0351 34.7849 34.9174 35.0625 35.0323C35.3691 35.1597 35.4361 35.5106 35.4407 35.5351C35.4407 35.1665 35.3731 34.8821 35.3158 34.699C34.9388 33.4977 33.8237 32.9005 33.3706 32.7276C33.3553 32.7219 33.3434 32.7173 33.3354 32.7145C32.6609 32.4648 32.0324 32.5262 32.0324 32.5262C32.0262 32.5268 32.0046 32.5291 31.9825 32.5319C31.5646 32.582 30.4302 32.8669 30.2003 33.6945C29.9942 34.4368 30.646 35.1432 30.7022 35.2024H30.7016Z" fill="#727272" stroke="#1E1E1E" stroke-linecap="round" stroke-linejoin="round"/>
</g>
<defs>
<clipPath id="clip0_2235_73106">
<rect width="47" height="48" fill="white"/>
</clipPath>
</defs>
</svg>
