<svg width="47" height="48" viewBox="0 0 47 48" fill="none" xmlns="http://www.w3.org/2000/svg">
<g clip-path="url(#clip0_2298_27678)">
<path d="M27.0195 24.0639C27.0854 24.0634 27.5185 24.0577 27.7156 23.7631C27.828 23.5947 27.8234 23.3928 27.8183 23.3222C27.8024 23.1101 27.7014 22.9588 27.6497 22.8837C27.1154 22.1045 26.7118 21.6631 26.7118 21.6631C26.5057 21.4379 26.1542 21.0534 25.9936 20.8776C24.9756 19.8253 23.9973 19.0211 23.1866 18.4256C23.0838 18.3499 21.3085 17.0571 19.3315 16.1567C18.8677 15.9457 18.4896 15.7739 18.179 15.6396C17.8628 15.684 17.6044 15.7022 17.4301 15.7107C17.2093 15.7216 17.148 15.7153 16.5904 15.725C16.5336 15.7261 16.2958 15.7295 16.0062 15.738C15.527 15.7517 15.2874 15.7591 15.1909 15.7676C14.9797 15.7864 14.5862 15.8217 14.2087 15.9587C14.0145 16.0293 13.2656 16.3006 12.875 17.0525C12.875 17.0525 12.5758 17.6276 12.6479 18.5063C12.6604 18.661 12.6905 18.801 12.6916 18.8072C12.7586 19.1166 12.875 19.3328 12.9409 19.4534C12.9886 19.541 13.0391 19.6212 13.0908 19.6962C13.1288 19.7486 13.1782 19.8145 13.2373 19.8885C13.2906 19.955 13.3321 20.0034 13.3633 20.0386C13.4791 20.1729 13.5387 20.2411 13.6114 20.2963C13.6228 20.3048 13.6103 20.302 13.7329 20.3782C13.8453 20.4476 13.985 20.5346 14.1593 20.7314C14.3205 20.914 14.4682 21.0966 14.5255 21.3076C14.7651 21.1933 14.9871 20.968 15.0444 20.6728C15.1188 20.2906 14.8792 19.984 14.8355 19.9294C14.7861 19.9226 14.7004 19.9073 14.6038 19.8657C13.9129 19.57 13.5104 18.3289 13.9623 17.5354C14.1871 17.1401 14.559 16.9706 14.605 16.9501C15.6956 16.4735 17.1797 17.5297 17.9252 18.4039C18.4027 18.9642 18.6423 19.5256 18.7609 19.8578C18.8677 19.814 19.0028 19.7651 19.1618 19.7241C19.1618 19.7241 19.4252 19.6564 19.7063 19.6376C20.6743 19.5722 22.2345 20.4157 22.2345 20.4157C22.7784 20.7098 23.1571 20.9743 23.5755 21.2672C24.0518 21.6005 24.5072 21.919 25.0193 22.3832C26.1457 23.4041 26.383 24.0725 27.0201 24.0645L27.0195 24.0639Z" fill="#FCB300"/>
<path d="M31.1864 21.1279C31.4362 21.8178 31.6428 22.5288 31.8012 23.2449C31.9244 23.0612 32.0323 22.8678 32.122 22.6676C32.3082 22.2541 32.4206 21.8133 32.4581 21.3554C32.4581 21.2633 32.4536 21.1649 32.4422 21.0613C32.4189 20.8395 32.373 20.649 32.3247 20.496C32.457 20.281 32.6267 19.9664 32.7647 19.5637C32.8737 19.2441 33.0509 18.7253 33.0071 18.1344C32.9958 17.9836 32.8783 16.6419 31.8926 16.1499C31.6428 16.0253 31.3828 15.9775 31.1222 15.9775C30.6447 15.9775 30.1655 16.1379 29.7437 16.2818C29.3843 16.4047 29.101 16.5492 28.9062 16.6607C29.1095 17.0014 29.3928 17.4865 29.7153 18.0781C30.3211 19.1883 30.7844 20.021 31.1864 21.129V21.1279ZM31.5191 18.0394C31.6565 17.383 31.787 17.2385 31.8966 17.1618C31.9477 17.1259 32.0465 17.0571 32.1714 17.0662C32.474 17.0878 32.6495 17.5457 32.6807 17.6282C32.851 18.0718 32.7488 18.4865 32.5967 19.0524C32.5183 19.3419 32.3917 19.7338 32.1788 20.1792C32.038 19.868 31.9114 19.6337 31.8194 19.4744C31.7621 19.3749 31.6758 19.2299 31.5628 19.012C31.4969 18.8846 31.4458 18.7782 31.4123 18.7071C31.4424 18.4341 31.4833 18.2072 31.5185 18.0388L31.5191 18.0394Z" fill="#FCB300"/>
<path d="M29.1308 30.2548C29.0876 30.2548 29.0456 30.2548 29.0042 30.2548C28.5744 30.2526 27.4332 30.2469 26.5021 29.3766C26.0728 28.9751 25.8213 28.5155 25.6731 28.1162L25.6641 28.1173C25.6771 28.2635 25.6947 28.4609 25.7078 28.6128C25.7793 29.4239 25.8191 29.888 25.8287 30.0006C25.8685 30.4494 25.9548 31.1257 26.1597 32.1011C26.355 32.9338 26.2568 33.1335 26.4884 33.3598C26.6451 33.5129 26.9177 33.5521 27.3821 33.5521C27.5842 33.5521 27.8232 33.5447 28.1048 33.5356C29.2409 33.4998 29.4867 33.3297 29.6111 33.1602C29.6673 33.0834 29.7229 32.9503 29.8342 32.6841C29.979 32.3389 30.0585 32.075 30.0835 31.9942C30.2651 31.3992 30.5025 31.1433 30.7795 30.5847C30.9186 30.3043 31.0793 29.9238 31.2093 29.4375C31.1565 29.5046 31.098 29.5706 31.0333 29.6343C30.4383 30.2184 29.7019 30.256 29.1302 30.256L29.1308 30.2548Z" fill="#1E1E1E"/>
<path d="M28.6114 33.8479C27.3368 34.0118 26.6998 34.0931 26.2751 33.7621C26.0935 33.6204 26.1139 33.5374 25.96 32.9959C25.851 32.6131 25.8033 32.6677 25.6376 32.0108C25.5626 31.7127 25.5785 31.4158 25.6268 30.7589C25.6949 29.8329 25.7256 29.7436 25.7483 29.7322C25.7494 29.7316 25.7511 29.7316 25.7534 29.7305C25.922 29.6816 26.0923 29.8061 26.1326 29.8352C26.2706 29.9353 26.3251 30.0831 26.3966 30.309C26.5823 30.8965 26.655 31.2782 26.655 31.2782C26.7203 31.6228 26.7186 31.6706 26.7753 31.9994C26.8105 32.2024 26.8662 32.4777 26.957 32.8031C27.0564 32.7667 27.204 32.6979 27.342 32.5642C27.3647 32.542 27.4441 32.4629 27.5679 32.2519C27.6417 32.1262 27.7348 31.9482 27.8183 31.7195C27.9653 31.9357 27.9983 32.1251 28.0068 32.2241C28.0181 32.3509 28.0022 32.4692 27.9903 32.5602C27.9733 32.6905 27.9466 32.798 27.9245 32.8742C27.9932 32.8753 28.0812 32.8759 28.1828 32.8725C28.3446 32.8668 28.5002 32.8622 28.6824 32.8304C28.8005 32.8099 28.9623 32.7718 29.1502 32.6984C29.2513 32.5892 29.3859 32.418 29.4909 32.1808C29.5755 31.9897 29.6147 31.8162 29.634 31.6854C29.6868 31.7559 29.7589 31.8708 29.8043 32.0267C29.8605 32.2189 29.9258 32.3833 29.9127 32.4783C29.9939 32.4004 29.9695 32.3907 30.0019 32.4009C30.1467 32.447 30.1961 32.964 29.965 33.3355C29.8668 33.493 29.7049 33.7063 28.6109 33.8468L28.6114 33.8479Z" fill="white"/>
<path d="M26.8849 31.9237C26.8701 31.591 26.8304 31.2594 26.7674 30.9375C26.7072 30.6314 26.6396 30.4034 26.5902 30.2361C26.5113 29.9694 26.4619 29.8528 26.4409 29.8027C26.387 29.6742 26.3245 29.5485 26.2547 29.429L26.0781 29.127L26.4091 29.0155C26.5545 28.9666 26.9139 28.8466 27.1097 28.7909C27.1279 28.7857 27.1762 28.7721 27.2409 28.7618C27.3011 28.7522 27.376 28.7402 27.4538 28.7402C27.548 28.7402 27.6281 28.7573 27.6985 28.7931C28.034 28.9621 28.0164 29.4512 28.0056 29.743C28.0034 29.7993 28.0017 29.8414 28.0011 29.8499L28 29.867C27.9557 30.5006 27.9267 30.9193 27.7581 31.3805C27.6707 31.62 27.5514 31.8521 27.4038 32.0705L26.9235 32.7803L26.8849 31.9237Z" fill="white"/>
<path d="M27.4538 29.0253C27.4969 29.0253 27.5378 29.031 27.5713 29.0481C27.7348 29.1306 27.7314 29.4809 27.7223 29.7335C27.7206 29.7852 27.7189 29.8233 27.7183 29.8307C27.6746 30.4587 27.6479 30.8563 27.4918 31.2834C27.4328 31.4449 27.3357 31.6656 27.1687 31.9114C27.1506 31.5013 27.0989 31.1532 27.0461 30.883C26.9848 30.5702 26.9167 30.3381 26.8622 30.1555C26.7838 29.8922 26.7327 29.7648 26.7026 29.6931C26.63 29.5196 26.5556 29.382 26.4994 29.2858C26.5834 29.2574 26.982 29.1232 27.1864 29.0657C27.2034 29.0612 27.238 29.0515 27.2851 29.0435C27.3385 29.035 27.3981 29.0253 27.4538 29.0253ZM27.4538 28.4565C27.3538 28.4565 27.263 28.4708 27.1966 28.4816C27.1125 28.4952 27.0512 28.5129 27.0308 28.5185C26.8389 28.5726 26.5016 28.6846 26.3183 28.7466L25.6562 28.9696L26.01 29.5731C26.0736 29.6817 26.1303 29.796 26.1797 29.9126C26.199 29.9581 26.2439 30.0656 26.3183 30.317C26.3659 30.478 26.4318 30.6987 26.4891 30.9922C26.5493 31.3005 26.5874 31.6179 26.6016 31.9364L26.6782 33.6496L27.6383 32.2299C27.799 31.9927 27.929 31.7396 28.0244 31.4785C28.2066 30.9797 28.2384 30.5218 28.2827 29.8876L28.2838 29.87C28.2855 29.8432 28.2884 29.7687 28.2889 29.7539C28.3014 29.4172 28.3241 28.7904 27.8256 28.5396C27.7161 28.4844 27.5912 28.4565 27.4532 28.4565H27.4538Z" fill="#1E1E1E"/>
<path d="M23.3759 27.1259C23.5588 26.8847 23.7955 26.6151 24.097 26.3489C24.2537 26.2107 24.4076 26.0918 24.5535 25.9894C24.2219 25.6868 23.7944 25.3183 23.2772 24.9235C23.0478 24.7483 22.3125 24.196 21.2213 23.5579C20.1312 22.9203 19.5164 22.5608 18.6806 22.3446C18.4291 22.2792 17.9851 22.1825 17.4946 22.1046C17.0778 22.0381 16.8246 21.9977 16.4721 21.9835C16.0411 21.9658 15.705 22.0051 15.0317 22.0824C14.4474 22.1496 14.2521 22.2007 14.0954 22.2519C13.7883 22.352 13.5476 22.4789 13.3823 22.5784C13.342 22.4817 13.2313 22.1786 13.3494 21.8407C13.3806 21.752 13.4533 21.5478 13.6316 21.43C13.6049 21.3965 13.5697 21.3538 13.5203 21.2975C13.4295 21.1946 13.3744 21.161 13.2841 21.1047C13.1285 21.008 12.7271 20.7611 12.5358 20.5479C9.93096 23.195 9.30359 24.1073 9.17187 24.4247C9.15314 24.4696 9.14632 25.014 8.88629 25.5151C8.81532 25.6521 8.76649 25.7386 8.73243 25.8012C8.56892 26.0998 8.44174 26.3796 8.01763 27.4313C7.82118 27.9193 7.69117 28.2486 7.57762 28.7196C7.57762 28.7196 7.41865 29.3805 7.54469 29.4243C7.62644 29.4528 7.97277 29.1661 8.0233 29.1553C8.0233 29.1553 8.02501 29.1553 8.02671 29.1547C8.04318 29.1513 8.07781 29.1365 8.09427 29.1365C8.09825 29.1365 8.10109 29.1377 8.10279 29.1394C8.11074 29.1524 8.0551 29.1985 8.04715 29.2053C7.96539 29.2759 7.82516 29.5517 7.77349 29.9664C7.71104 30.4686 7.80869 30.9339 7.8649 31.154C7.9671 31.0255 8.1096 30.8696 8.30037 30.7177C8.48886 30.567 8.67054 30.4635 8.81702 30.393C8.6802 30.8412 8.59674 31.2353 8.54337 31.5499C8.41165 32.3291 8.27823 33.1681 8.54337 34.1276C8.65862 34.5445 8.81986 34.879 8.95896 35.1224C9.06002 35.0274 9.16165 34.933 9.26271 34.838C9.27747 35.0035 9.30927 35.2333 9.38421 35.4978C9.4637 35.7771 9.58349 36.0695 9.68796 36.239C10.1047 36.9124 11.1346 37.0233 11.3191 37.0409C11.49 35.7936 11.8494 34.8471 12.1293 34.2397C12.9696 32.4173 14.1766 31.3064 15.047 30.505C15.5398 30.0517 15.9957 29.6365 16.7082 29.2059C17.3265 28.8328 18.2991 28.2458 19.6662 28.1099C19.7917 28.0973 19.9024 28.0905 20.0126 28.0905C20.0381 28.0905 20.0637 28.0905 20.0898 28.0917C20.301 28.0979 20.4969 28.1082 20.7086 28.1309C22.1314 28.2845 23.8534 28.9028 23.8534 28.9028C24.4252 29.1013 24.5347 29.1655 24.6176 29.2201C24.6415 29.2361 24.6642 29.2526 24.6875 29.269C24.5274 28.8954 24.3258 28.4699 24.0062 27.9773C23.7643 27.6048 23.5355 27.317 23.3754 27.1276L23.3759 27.1259Z" fill="#FCB300"/>
<path d="M33.4851 23.3482C33.3216 23.1292 33.2012 22.9523 33.028 22.6924C32.9877 22.8022 32.9451 22.9114 32.8969 23.0183C32.7936 23.2487 32.6703 23.471 32.5312 23.6832C32.659 23.7941 32.7481 23.8948 32.8043 23.9585C33.04 24.227 33.1825 24.4869 33.2602 24.6575C33.4113 24.9886 33.4942 25.3435 33.5084 25.7132C33.5294 25.7286 33.5498 25.7451 33.568 25.7638C33.6395 25.7798 33.7252 25.7923 33.8212 25.7923C33.8825 25.7923 33.9472 25.7871 34.0159 25.7752C34.0789 25.7638 34.1363 25.7479 34.1868 25.7303C34.1454 25.6319 34.0983 25.5289 34.0455 25.4226C33.9881 25.3082 33.9296 25.2019 33.8723 25.1035C33.9802 25.0546 34.0897 25.0028 34.201 24.9488C34.3072 24.897 34.4111 24.8452 34.5116 24.7929C34.4531 24.6894 34.3634 24.5364 34.247 24.3578C34.0046 23.9864 33.8831 23.8817 33.4845 23.3482H33.4851Z" fill="#FCB300"/>
<path d="M30.7548 29.5236C30.7929 29.5236 30.8303 29.527 30.8661 29.5378C30.9916 29.5748 30.9218 29.9195 30.8786 30.0998C30.8712 30.1299 30.865 30.1561 30.8604 30.1749C30.7264 30.7146 30.4499 31.1992 30.1666 31.6031C30.1456 31.6332 30.0849 31.681 30.0775 31.7202C30.1445 31.3704 30.1752 31.0093 30.1644 30.6572C30.1593 30.4837 30.1439 30.3119 30.1167 30.1453C30.1042 30.0674 30.0906 29.9866 30.0684 29.9149C30.0502 29.8558 30.0122 29.7921 30.0338 29.7176C30.0724 29.5822 30.2632 29.5634 30.5868 29.535C30.6407 29.5304 30.6986 29.5225 30.7554 29.5225" fill="white"/>
<path d="M32.4873 25.0125C32.4431 24.9153 32.3426 24.723 32.1666 24.5222C32.1007 24.4471 32.0014 24.334 31.8429 24.2253C31.6914 24.1212 31.521 24.0461 31.3376 24.0012L31.0753 23.9369L31.0208 23.6719C30.8647 22.9097 30.6512 22.1515 30.3855 21.4189C30.1772 20.8439 29.7888 19.7729 28.9979 18.5375C28.4342 17.657 27.7142 16.7907 26.916 16.0325C26.1648 15.3193 25.3319 14.6913 24.4389 14.1612C24.0494 14.0651 23.221 13.895 22.1275 13.895C21.3514 13.895 20.4424 13.9809 19.4625 14.2397C19.4318 14.2477 19.4012 14.2562 19.3711 14.2647C21.1158 14.9439 23.6412 16.2379 25.8389 18.7109C26.6747 19.6517 27.3106 20.5913 27.796 21.4422C28.1259 21.9297 28.3183 22.3751 28.4336 22.6976C28.5358 22.9837 28.655 23.3278 28.6754 23.7987C28.6851 24.0194 28.6703 24.2048 28.6533 24.3385C28.3609 24.4051 27.7608 24.5836 27.2129 25.0984C27.0267 25.2736 26.6628 25.6234 26.4703 26.2053C26.1978 27.03 26.4561 27.7569 26.5532 27.9952C26.5503 27.9952 26.5469 27.9958 26.5441 27.9964C26.6588 28.2466 26.8285 28.514 27.0823 28.7511C27.7693 29.3939 28.6056 29.3979 29.007 29.4001C29.4941 29.403 30.0466 29.4053 30.4366 29.023C30.6666 28.7972 30.771 28.5128 30.8176 28.2773C30.8079 28.2614 30.7994 28.2455 30.7892 28.2296C30.6694 28.0402 30.5275 27.8866 30.3583 27.7421C30.2345 27.6363 30.0988 27.5237 29.9353 27.4879C29.8019 27.4589 29.6554 27.4793 29.5191 27.4674C29.2228 27.4412 28.9491 27.3104 28.873 27.0016C28.8021 26.7138 28.8821 26.4783 29.0399 26.2917C29.2943 25.992 29.7019 25.8407 30.0755 25.7593C30.913 25.5767 31.7941 25.6114 32.648 25.5893C32.6247 25.3873 32.5708 25.1934 32.4873 25.0108V25.0125Z" fill="white"/>
<path d="M31.5761 28.8503C31.5602 28.8566 31.5443 28.8629 31.5284 28.8691C31.5102 28.9152 31.4903 28.9618 31.4688 29.0085C31.5499 29.0358 31.647 29.0568 31.7555 29.0568C31.7924 29.0568 31.8304 29.0545 31.8696 29.0489C32.0757 29.0198 32.2602 28.9146 32.4777 28.6888C32.7984 28.3572 33.0034 27.9602 33.1408 27.5825C32.7496 28.1445 32.1983 28.6103 31.5766 28.8503H31.5761Z" fill="white"/>
<path d="M35.2546 24.3725C35.1626 24.2099 35.0638 24.0478 34.9616 23.8908C34.7975 23.6394 34.6749 23.4858 34.533 23.3078C34.4359 23.1855 34.3257 23.0473 34.1685 22.8368C33.9908 22.5985 33.8676 22.4136 33.6439 22.0769L33.6195 22.0399C33.5133 21.8801 33.4083 21.7186 33.3049 21.5565C33.3078 21.5041 33.3089 21.4518 33.3095 21.3995C33.3157 21.3182 33.3202 21.2357 33.3225 21.1532H33.3038C33.3004 21.0923 33.2958 21.0315 33.2896 20.9712C33.2771 20.8529 33.2589 20.7351 33.2357 20.618C33.3674 20.3671 33.4798 20.1061 33.5712 19.8387C33.691 19.4884 33.9136 18.8354 33.8573 18.0704C33.8329 17.7416 33.6433 16.0683 32.2727 15.3846C31.9247 15.2105 31.5375 15.1224 31.1225 15.1224C30.494 15.1224 29.9018 15.3249 29.4692 15.4722C29.3272 15.5205 29.187 15.5751 29.049 15.6348C28.6664 15.3061 28.1054 14.8738 27.3946 14.462C26.2597 13.8051 25.2212 13.486 24.8272 13.379C24.8068 13.3733 24.7863 13.3682 24.7659 13.3631C24.6915 13.3443 24.6166 13.3261 24.5422 13.3074C23.8001 13.1345 22.9548 13.04 22.1287 13.04C21.1527 13.04 20.183 13.1657 19.2462 13.4132C18.4173 13.6321 17.6116 13.9478 16.852 14.3505L15.8391 14.8875C15.4144 14.9 15.2254 14.9057 15.1152 14.9159C14.883 14.9364 14.4004 14.9796 13.919 15.1542C12.8817 15.5308 12.3678 16.1792 12.1197 16.6564C12.0772 16.7389 11.7098 17.4845 11.799 18.5738C11.8154 18.7774 11.8523 18.9531 11.8597 18.9861C11.9545 19.4224 12.1226 19.7295 12.1941 19.8609C12.218 19.9047 12.3065 19.9582 12.2685 19.9906C9.4371 22.3949 7.70091 25.2251 7.04345 28.5787C7.01847 28.7044 6.94977 28.8204 6.90435 28.9416L6.26562 30.6406L6.90605 30.4199C6.91797 30.7901 6.97986 31.1195 7.04174 31.3612L7.46529 33.0278L7.5408 32.9328C7.53853 33.3719 7.58565 33.8457 7.72532 34.3519C7.83944 34.7648 8.00636 35.1658 8.22267 35.5435L8.7575 36.478L8.82336 36.416C8.87048 36.5155 8.91874 36.6066 8.967 36.685C9.55292 37.6321 10.7537 37.8408 11.2426 37.8869L12.055 37.9631L12.1657 37.1532C12.2895 36.2516 12.5382 35.3905 12.9055 34.5942C13.6748 32.9271 14.8024 31.8885 15.6262 31.1297C16.0741 30.7173 16.4971 30.3277 17.1506 29.9336C17.7184 29.5906 18.5768 29.0724 19.7532 28.9558C19.8571 28.9456 19.9406 28.9405 20.0155 28.9405C20.0331 28.9405 20.0501 28.9405 20.0677 28.941C20.2903 28.9479 20.4555 28.9581 20.6207 28.9757C21.9237 29.1168 23.5537 29.6969 23.5702 29.7026L23.7093 29.7527H23.7121C24.0483 29.8727 24.1317 29.9154 24.1522 29.929C24.486 30.1497 24.6626 30.4989 24.9129 31.0472C25.0276 31.2981 25.1911 31.7099 25.3212 32.2474C25.3961 32.5562 25.4251 32.7672 25.4489 32.9367C25.4938 33.2592 25.5449 33.625 25.8946 33.9674C26.3051 34.3689 26.8785 34.4031 27.3832 34.4031C27.599 34.4031 27.8465 34.3951 28.1327 34.3866C29.1671 34.3542 29.8899 34.2216 30.2992 33.6625C30.4151 33.5044 30.4837 33.34 30.6211 33.0118C30.7801 32.6319 30.8693 32.3401 30.8982 32.2445L30.8993 32.2411C30.9885 31.9493 31.0941 31.7673 31.2411 31.5154C31.3314 31.3595 31.4342 31.1832 31.5437 30.9619C31.7107 30.6258 31.8515 30.2691 31.965 29.8966C31.9741 29.8954 31.9832 29.8943 31.9923 29.8932C32.5226 29.8181 32.8746 29.5081 33.0937 29.2817C33.9266 28.42 34.135 27.2876 34.2355 26.7432C34.2445 26.6938 34.2531 26.6443 34.2616 26.5948C34.3331 26.5783 34.4041 26.5578 34.4734 26.5339L35.3301 26.2336L35.0178 25.4936L35.6952 25.1444L35.258 24.3714L35.2546 24.3725ZM29.7428 16.281C30.2146 16.1086 30.6297 15.9767 31.1213 15.9767C31.3819 15.9767 31.642 16.0245 31.8918 16.149C32.8774 16.641 32.9955 17.9828 33.0063 18.1335C33.0494 18.7251 32.8729 19.2432 32.7638 19.5629C32.6265 19.9656 32.4567 20.2807 32.3238 20.4951C32.3721 20.6481 32.4181 20.8387 32.4414 21.0605C32.4522 21.164 32.4567 21.2624 32.4573 21.3546C32.4198 21.8124 32.3074 22.2532 32.1211 22.6667C32.0309 22.867 31.923 23.0603 31.8004 23.2441C31.5778 22.3892 31.3604 21.6714 31.1855 21.127C30.9419 20.3671 30.6058 19.3291 30.0403 18.034C29.7542 17.3782 29.4896 16.8412 29.2949 16.4619C29.3976 16.4152 29.5521 16.3492 29.7428 16.2793V16.281ZM24.6183 29.218C24.536 29.1634 24.4258 29.0991 23.8541 28.9006C23.8541 28.9006 22.1321 28.2829 20.7093 28.1288C20.4975 28.106 20.3011 28.0958 20.0904 28.0896C20.0649 28.089 20.0388 28.0884 20.0132 28.0884C19.9031 28.0884 19.7924 28.0952 19.6669 28.1078C18.2997 28.2437 17.3272 28.8307 16.7089 29.2038C15.9958 29.6344 15.5399 30.049 15.0476 30.5029C14.1773 31.3043 12.9708 32.4152 12.13 34.2376C11.8501 34.8445 11.4907 35.7909 11.3198 37.0388C11.1353 37.0218 10.1053 36.9109 9.68862 36.2368C9.58358 36.0673 9.46378 35.7756 9.38487 35.4957C9.30992 35.2312 9.27813 35.0014 9.26337 34.8359C9.16231 34.9309 9.06068 35.0253 8.95962 35.1203C8.82052 34.8769 8.65928 34.5424 8.54402 34.1255C8.27888 33.1654 8.4123 32.3264 8.54402 31.5478C8.59739 31.2332 8.68085 30.8391 8.81768 30.3909C8.6712 30.4614 8.48952 30.5649 8.30102 30.7156C8.11026 30.8681 7.96775 31.0233 7.86556 31.1519C7.80935 30.9318 7.71226 30.4671 7.77415 29.9643C7.82581 29.5496 7.96548 29.2738 8.04781 29.2032C8.05575 29.1964 8.11139 29.1503 8.10345 29.1373C8.10231 29.135 8.09947 29.1344 8.09493 29.1344C8.07846 29.1344 8.04383 29.1492 8.02737 29.1526C7.90984 29.1776 7.80083 29.2089 7.69977 29.2442C7.73441 29.1651 7.76904 29.0861 7.80367 29.007C7.81389 28.9689 7.82865 28.9314 7.8349 28.8927C8.24879 26.2182 9.76583 23.0677 12.7914 20.6919C12.566 20.8688 13.1286 21.007 13.2842 21.1032C13.375 21.1595 13.4295 21.193 13.5204 21.296C13.5698 21.3523 13.6056 21.3944 13.6317 21.4285C13.454 21.5462 13.3807 21.7504 13.3495 21.8392C13.2314 22.177 13.3421 22.4802 13.3824 22.5769C13.5471 22.4773 13.7878 22.3511 14.0955 22.2504C14.2522 22.1992 14.4475 22.1486 15.0317 22.0809C15.7045 22.003 16.0412 21.9643 16.4721 21.9819C16.8241 21.9961 17.0779 22.0365 17.4947 22.1031C17.9858 22.1816 18.4292 22.2783 18.6807 22.3431C19.5164 22.5592 20.1308 22.9193 21.2214 23.5563C22.3126 24.1945 23.0479 24.7468 23.2772 24.922C23.795 25.3167 24.222 25.6853 24.5536 25.9879C24.4076 26.0903 24.2538 26.2097 24.0971 26.3474C23.795 26.6136 23.5583 26.8832 23.376 27.1243C23.5361 27.3137 23.7649 27.601 24.0068 27.9741C24.3265 28.4667 24.528 28.8921 24.6881 29.2658C24.6654 29.2493 24.6427 29.2328 24.6183 29.2169V29.218ZM25.0174 22.3829C24.5053 21.9188 24.05 21.6003 23.5736 21.267C23.1546 20.974 22.7765 20.709 22.2326 20.4155C22.2326 20.4155 20.6724 19.572 19.7044 19.6374C19.4233 19.6562 19.1599 19.7238 19.1599 19.7238C19.0009 19.7648 18.8658 19.8137 18.7591 19.8575C18.641 19.5253 18.4008 18.9639 17.9233 18.4037C17.1784 17.5295 15.6943 16.4732 14.6031 16.9499C14.5571 16.9698 14.1858 17.1398 13.9604 17.5352C13.5085 18.3286 13.911 19.5691 14.602 19.8655C14.699 19.907 14.7842 19.9224 14.8336 19.9292C14.8773 19.9838 15.1163 20.2904 15.0425 20.6726C14.9852 20.9678 14.7632 21.193 14.5236 21.3073C14.4668 21.0963 14.3187 20.9132 14.1574 20.7312C13.9831 20.5344 13.8434 20.4479 13.731 20.3779C13.6084 20.3017 13.6209 20.3051 13.6095 20.296C13.5369 20.2409 13.4772 20.1726 13.3614 20.0384C13.3308 20.0031 13.2893 19.9548 13.2354 19.8882C13.1758 19.8143 13.1269 19.7489 13.0889 19.696C13.0372 19.6215 12.9867 19.5407 12.939 19.4531C12.8731 19.3325 12.7568 19.1164 12.6898 18.807C12.6886 18.8007 12.6585 18.6602 12.646 18.5061C12.5745 17.6273 12.8731 17.0523 12.8731 17.0523C13.2638 16.3003 14.0126 16.0284 14.2068 15.9585C14.5844 15.8214 14.9778 15.7861 15.189 15.7674C15.2855 15.7588 15.5251 15.752 16.0043 15.7378C16.2939 15.7293 16.5318 15.7258 16.5885 15.7247C17.1455 15.715 17.2074 15.7207 17.4282 15.7105C17.6031 15.702 17.8609 15.6838 18.1771 15.6394C18.4882 15.7736 18.8664 15.9454 19.3296 16.1564C21.3066 17.0568 23.0814 18.3497 23.1847 18.4253C23.9955 19.0208 24.9737 19.8251 25.9917 20.8773C26.1524 21.0531 26.5038 21.4376 26.7099 21.6628C26.7099 21.6628 27.1136 22.1042 27.6478 22.8835C27.6989 22.9585 27.8 23.1098 27.8164 23.322C27.8215 23.3919 27.8261 23.5944 27.7137 23.7628C27.5167 24.0574 27.0835 24.0631 27.0176 24.0637C26.3806 24.0716 26.1433 23.4033 25.0168 22.3824L25.0174 22.3829ZM30.7778 30.5837C30.5008 31.1422 30.2635 31.3982 30.0818 31.9931C30.0574 32.0739 29.9773 32.3378 29.8325 32.6831C29.7213 32.9493 29.665 33.0824 29.6094 33.1591C29.4851 33.3292 29.2392 33.4993 28.1032 33.5345C27.8215 33.5436 27.5831 33.551 27.3804 33.551C26.916 33.551 26.6435 33.5118 26.4868 33.3588C26.2557 33.1324 26.3533 32.9328 26.158 32.1001C25.9531 31.124 25.8668 30.4483 25.827 29.9995C25.8168 29.8875 25.7776 29.4228 25.7061 28.6117C25.6925 28.4598 25.6754 28.2625 25.6624 28.1163L25.6715 28.1151C25.8196 28.5144 26.0712 28.974 26.5004 29.3756C27.4309 30.2458 28.5721 30.2515 29.0025 30.2538C29.0439 30.2538 29.0859 30.2538 29.1291 30.2538C29.7008 30.2538 30.4372 30.2162 31.0322 29.6321C31.0969 29.5684 31.1548 29.5024 31.2082 29.4353C31.0776 29.9222 30.9175 30.3021 30.7784 30.5825L30.7778 30.5837ZM30.075 25.7609C29.7014 25.8423 29.2937 25.9936 29.0394 26.2933C28.8815 26.4799 28.8015 26.7148 28.8725 27.0032C28.9485 27.312 29.2222 27.4428 29.5186 27.469C29.6548 27.481 29.8013 27.4599 29.9347 27.4895C30.0977 27.5253 30.2334 27.6379 30.3577 27.7437C30.5269 27.8882 30.6688 28.0418 30.7886 28.2312C30.7983 28.2465 30.8074 28.263 30.817 28.279C30.7705 28.5144 30.666 28.7988 30.4361 29.0246C30.0466 29.4074 29.4942 29.4046 29.0065 29.4017C28.6045 29.3995 27.7687 29.3955 27.0818 28.7528C26.828 28.5156 26.6582 28.2482 26.5435 27.998C26.5464 27.998 26.5498 27.9974 26.5526 27.9968C26.4555 27.7585 26.1972 27.0316 26.4697 26.2069C26.6622 25.6256 27.0261 25.2752 27.2123 25.1C27.7602 24.5853 28.3598 24.4067 28.6527 24.3401C28.6692 24.2064 28.6845 24.021 28.6749 23.8003C28.6544 23.3288 28.5352 22.9853 28.433 22.6992C28.3178 22.3761 28.1253 21.9313 27.7954 21.4439C27.3106 20.593 26.6747 19.6533 25.8384 18.7125C23.6406 16.2395 21.39 14.8732 19.6453 14.1947C19.6453 14.1947 19.6476 14.1941 19.6482 14.1941C19.9689 14.1008 20.3022 14.0343 20.8234 13.978C21.1675 13.941 21.5797 13.8961 22.1275 13.8966C22.6987 13.8972 23.4947 13.9473 24.4389 14.1628C24.7994 14.3767 25.2139 14.644 25.6567 14.9745C25.9042 15.1588 26.3829 15.5285 26.916 16.0347C28.085 17.1438 28.7964 18.2251 28.9979 18.5396C29.7882 19.775 30.1766 20.8461 30.3855 21.4211C30.6512 22.1537 30.8647 22.9119 31.0208 23.6741L31.0753 23.9391L31.3377 24.0034C31.521 24.0483 31.6914 24.1234 31.843 24.2275C32.0014 24.3361 32.1007 24.4493 32.1666 24.5244C32.3426 24.7252 32.4431 24.9174 32.4874 25.0147C32.5708 25.1973 32.6242 25.3912 32.648 25.5932C31.7947 25.6153 30.9135 25.5806 30.0755 25.7632L30.075 25.7609ZM32.4783 28.6896C32.2603 28.9149 32.0763 29.0201 31.8702 29.0497C31.831 29.0554 31.793 29.0576 31.7561 29.0576C31.6476 29.0576 31.5506 29.036 31.4694 29.0093C31.4909 28.9626 31.5114 28.916 31.529 28.8699C31.5449 28.8637 31.5608 28.8574 31.5767 28.8512C32.1984 28.6117 32.7497 28.1459 33.1408 27.5833C33.004 27.9616 32.7985 28.358 32.4777 28.6896H32.4783ZM34.2025 24.9487C34.0913 25.0027 33.9817 25.0545 33.8738 25.1034C33.9317 25.2013 33.9902 25.3076 34.047 25.4225C34.1003 25.5289 34.1469 25.6318 34.1883 25.7302C34.1378 25.7479 34.0805 25.7638 34.0175 25.7752C33.9493 25.7871 33.884 25.7922 33.8227 25.7922C33.7268 25.7922 33.641 25.7797 33.5695 25.7638C33.5513 25.745 33.5309 25.7285 33.5099 25.7132C33.4957 25.3435 33.4128 24.9885 33.2618 24.6575C33.184 24.4869 33.0415 24.2269 32.8059 23.9585C32.7502 23.8948 32.6611 23.7941 32.5328 23.6832C32.6719 23.471 32.7945 23.2486 32.8984 23.0183C32.9467 22.9113 32.9892 22.8021 33.0296 22.6923C33.2027 22.9523 33.3231 23.1286 33.4866 23.3482C33.8852 23.8817 34.0067 23.9863 34.2491 24.3577C34.366 24.5369 34.4552 24.6893 34.5137 24.7929C34.4126 24.8446 34.3093 24.897 34.2031 24.9487H34.2025Z" fill="#1E1E1E"/>
<path d="M31.8206 19.4755C31.912 19.6347 32.0386 19.8691 32.18 20.1802C32.3929 19.7343 32.5195 19.3429 32.5978 19.0534C32.7506 18.4875 32.8522 18.0728 32.6819 17.6292C32.6506 17.5473 32.4746 17.0894 32.1726 17.0672C32.0477 17.0581 31.9489 17.1269 31.8978 17.1628C31.7882 17.239 31.6582 17.384 31.5202 18.0404C31.485 18.2088 31.4442 18.4357 31.4141 18.7087C31.4476 18.7798 31.4981 18.8862 31.5645 19.0136C31.6775 19.2315 31.7638 19.3771 31.8211 19.476L31.8206 19.4755Z" fill="#1E1E1E"/>
<path d="M12.0085 24.509C11.8439 24.6364 11.6627 24.7934 11.4782 24.9839C11.2619 25.208 11.0905 25.427 10.957 25.6216C11.2097 25.5436 11.4623 25.4651 11.7155 25.3872C11.5543 25.5755 11.3738 25.8144 11.204 26.1073C11.0507 26.3712 10.94 26.6192 10.8594 26.8342C11.1058 26.7102 11.3726 26.5862 11.661 26.4679C11.8864 26.3752 12.1045 26.2933 12.3134 26.2216C12.2015 26.456 12.08 26.7642 11.9972 27.1379C11.9029 27.5622 11.8881 27.9342 11.8978 28.2158C12.1732 28.2141 12.4599 28.2061 12.7568 28.1913C13.0566 28.176 13.3456 28.1544 13.6221 28.1282C13.3791 28.4575 13.1304 28.8454 12.9044 29.2948C12.8261 29.45 12.7562 29.6019 12.6927 29.7504C13.0361 29.4722 13.4898 29.1651 14.0587 28.9114C14.2932 28.8068 14.518 28.7243 14.7281 28.6589C14.8331 28.6145 14.9552 28.5707 15.0931 28.5337C15.2038 28.5042 15.3072 28.4843 15.4008 28.4706C15.205 28.6526 14.9103 28.9797 14.7326 29.4688C14.6628 29.6616 14.6247 29.8414 14.6048 29.9955C14.8268 29.7407 15.1794 29.3966 15.6864 29.1031C16.1259 28.8483 16.3405 28.8392 16.7271 28.672C17.0337 28.5394 18.0982 28.0781 18.5337 27.064C18.8551 26.3149 18.7665 25.4208 18.394 24.7456C17.6537 23.405 15.9851 23.2764 15.5076 23.2395C13.647 23.0961 12.3145 24.2348 12.0091 24.5107L12.0085 24.509Z" fill="#1E1E1E"/>
<path d="M13.3452 23.2863C13.18 23.4131 12.9978 23.569 12.8127 23.7584C12.5952 23.9814 12.4226 24.1992 12.2881 24.3932C12.5413 24.3164 12.7945 24.2396 13.0477 24.1622C12.8853 24.3494 12.7042 24.5877 12.5322 24.88C12.3778 25.1428 12.2659 25.3908 12.1836 25.6052C12.4306 25.4824 12.698 25.3601 12.987 25.2429C13.2129 25.1513 13.4309 25.0706 13.6405 25C13.5275 25.2338 13.4043 25.5415 13.3191 25.9147C13.2226 26.3384 13.2061 26.7104 13.2146 26.9919C13.49 26.9919 13.7767 26.9851 14.0736 26.9715C14.3734 26.9578 14.6624 26.9373 14.9395 26.9123C14.6948 27.2405 14.4444 27.6267 14.2156 28.0755C14.1367 28.2302 14.0657 28.382 14.0015 28.5299C14.3467 28.2535 14.8015 27.9492 15.3721 27.6978C15.6072 27.5943 15.8326 27.5129 16.0432 27.4487C16.1482 27.4049 16.2703 27.3616 16.4088 27.3252C16.5195 27.2962 16.6229 27.2769 16.7171 27.2632C16.5207 27.4441 16.2237 27.7695 16.0438 28.2581C15.9728 28.4509 15.9342 28.63 15.9137 28.7842C16.1374 28.5305 16.4911 28.1881 16.9999 27.8969C17.441 27.6443 17.6556 27.6364 18.0422 27.4709C18.3494 27.3395 19.4162 26.8839 19.8568 25.872C20.1821 25.1246 20.0981 24.2299 19.7285 23.5531C18.9949 22.2084 17.3269 22.0714 16.8494 22.0321C14.9894 21.8797 13.6512 23.0116 13.3447 23.2857L13.3452 23.2863Z" fill="#FCB300"/>
<path d="M24.0835 22.7951C24.5825 23.1892 24.8965 23.6033 25.0617 23.849C25.2434 24.1186 25.3683 24.3655 25.4529 24.5543C25.3683 24.5071 25.2525 24.4866 25.1242 24.4474C25.0402 24.4212 24.9329 24.4184 24.8636 24.4076C24.7268 24.5651 24.6916 24.6101 24.4849 24.6658C24.243 24.7312 24.0437 24.705 23.9461 24.6766C23.4993 24.5464 23.2353 24.1977 23.1013 24.0162C22.743 23.5305 22.6545 23.0266 22.5937 22.683C22.5432 22.3946 22.5318 22.1523 22.5312 21.9868C22.9196 22.1046 23.4993 22.3338 24.0835 22.7951Z" fill="white"/>
<path d="M30.8867 26.5486C31.3063 26.5076 31.7469 26.4769 32.2067 26.4593C32.4815 26.449 32.4418 26.4439 32.703 26.4434" fill="#1E1E1E"/>
<path d="M30.8867 26.5486C31.3063 26.5076 31.7469 26.4769 32.2067 26.4593C32.4815 26.449 32.4418 26.4439 32.703 26.4434" stroke="white" stroke-width="0.5" stroke-linecap="round" stroke-linejoin="round"/>
<path d="M40.2302 14.3998C39.763 13.5795 39.2391 12.7961 38.6641 12.0548C42.5653 7.23823 45.8875 2.76418 47 0.557836C44.8901 1.72463 40.5086 5.14493 35.8301 9.09295C35.1649 8.5283 34.4624 8.00682 33.7258 7.53306C36.2395 4.33317 38.257 1.52638 39.0264 0C37.4523 0.870269 34.3858 3.22204 30.9695 6.05496C28.5534 4.9978 25.8844 4.41099 23.0793 4.41099C12.1821 4.41099 3.34831 13.2608 3.34831 24.1778C3.34831 27.1681 4.01117 30.0033 5.1974 32.5442C2.73592 35.6543 0.743944 38.3816 0 39.837C1.32288 39.1155 3.76281 37.2773 6.56508 35.0005C7.10716 35.8287 7.70934 36.6132 8.3654 37.3489C4.87533 41.6781 1.93641 45.6164 0.930497 47.5836C2.86294 46.5299 6.81287 43.4589 11.0956 39.8841C11.8906 40.4942 12.7338 41.0447 13.6178 41.5292C11.4483 44.2928 9.71493 46.6878 9.04413 48.0006C10.439 47.2399 13.1313 45.1819 16.1558 42.6943C18.31 43.5032 20.6427 43.9458 23.0787 43.9458C33.9759 43.9458 42.8096 35.0959 42.8096 24.1789C42.8096 21.621 42.3248 19.176 41.4414 16.9322C43.7923 13.9317 45.6731 11.3084 46.3978 9.87119C45.1328 10.5705 42.8612 12.2695 40.2297 14.4009L40.2302 14.3998ZM23.0793 38.1396C15.383 38.1396 9.14336 31.8892 9.14336 24.1784C9.14336 16.4675 15.3824 10.2171 23.0793 10.2171C30.7761 10.2171 37.0152 16.4675 37.0152 24.1784C37.0152 31.8892 30.7761 38.1396 23.0793 38.1396Z" fill="#FCB300"/>
<path d="M27.241 34.1069C26.1248 33.8549 25.4112 34.0119 25.175 34.0716C24.9916 34.1182 24.8224 34.1762 24.668 34.2399C24.7832 34.3173 24.9518 34.4328 25.1517 34.5789C25.5542 34.8724 25.8392 35.1113 25.9596 35.212C26.1157 35.3423 26.2123 35.4207 26.2912 35.4839C26.2912 35.4839 26.4189 35.5868 26.5648 35.6989C26.7147 35.8143 26.8334 35.9065 26.9736 36.0043C27.3211 36.2472 27.8173 36.5276 27.8372 36.539C28.1653 36.7204 28.7229 37.3176 29.7198 39.2134C30.3824 37.602 30.3126 35.9383 29.424 35.0408C28.8608 34.472 28.0444 34.2877 27.241 34.1069Z" fill="white" stroke="#1E1E1E" stroke-linecap="round" stroke-linejoin="round"/>
<path d="M26.2089 34.913C25.745 34.7873 24.7929 34.5951 23.6551 34.8374C23.4195 34.8874 23.2287 34.9449 23.1016 34.987C23.2202 35.0769 23.394 35.2111 23.5995 35.3795C24.0423 35.7423 24.3495 36.0347 24.4267 36.1069C24.4267 36.1069 24.693 36.3538 24.9683 36.5944C25.1086 36.7167 25.2221 36.8156 25.3561 36.9248C25.7933 37.282 26.3429 37.6665 26.3707 37.6853C26.7403 37.9401 27.3188 38.6488 28.246 40.6106C28.3539 40.4149 29.3906 38.4685 28.4339 36.649C28.0609 35.9397 27.5215 35.5086 27.1599 35.2737C26.83 35.0814 26.5592 35.0086 26.2089 34.9136V34.913Z" fill="white" stroke="#1E1E1E" stroke-linecap="round" stroke-linejoin="round"/>
<path d="M23.8772 36.1066C23.143 35.9343 22.3153 35.7147 21.5658 36.1425C21.2831 36.304 21.094 36.5088 20.9805 36.6544C21.1463 36.7255 21.4091 36.8426 21.7225 37.0059C22.1438 37.2254 22.3919 37.3841 23.9089 38.4125C24.3524 38.7134 24.6357 38.9062 25.0121 39.2065C25.2636 39.4073 25.4657 39.5705 25.6974 39.8072C25.9563 40.0711 26.2521 40.4271 26.5252 40.8952C26.6262 40.666 26.7511 40.3299 26.8266 39.9095C26.8999 39.4994 27.0174 38.917 26.7977 38.3021C26.5337 37.565 25.9727 37.1464 25.598 36.8665C24.9099 36.3524 24.2462 36.1931 23.876 36.1066H23.8772Z" fill="white" stroke="#1E1E1E" stroke-linecap="round" stroke-linejoin="round"/>
<path d="M23.7775 38.3916C23.6804 38.221 23.5413 37.9224 23.5231 37.5339C23.5129 37.3115 23.4817 36.5783 24.0125 36.2484C24.373 36.0243 24.8709 36.0636 25.2871 36.3218C25.282 36.2621 25.2349 35.5659 25.7413 35.1916C26.0326 34.9766 26.3522 34.9817 26.4885 34.9863C27.2845 35.0107 27.7722 35.7348 27.8375 35.8355C27.6581 35.4692 27.7341 35.0375 28.0123 34.7809C28.2377 34.5728 28.5676 34.5062 28.873 34.6012C28.722 34.3185 28.3513 33.7213 27.6285 33.3402C26.9819 32.9995 26.3908 33.012 25.8361 33.0188C24.737 33.0314 23.9529 33.4119 23.7763 33.5012C23.4777 33.6519 22.8662 33.9687 22.3586 34.6268C22.2139 34.8145 20.9733 36.4191 21.7069 37.5544C22.2945 38.465 23.673 38.3984 23.7763 38.3916H23.7775Z" fill="#FCB300" stroke="#1E1E1E" stroke-linecap="round" stroke-linejoin="round"/>
<path d="M35.2412 35.0725C34.9045 34.4901 34.3226 34.138 33.9768 33.9292C33.8377 33.8451 33.7185 33.7831 33.6367 33.7427C33.6515 33.8439 33.6725 33.9935 33.6924 34.175C33.7321 34.5401 33.7435 34.8148 33.7486 34.9309C33.7554 35.081 33.7605 35.1726 33.765 35.2471C33.765 35.2471 33.7724 35.3677 33.7838 35.5031C33.7951 35.6424 33.8042 35.7533 33.8207 35.8785C33.8479 36.0906 33.857 36.197 33.9575 36.6133C34.0262 36.8983 34.0006 37.5092 33.6441 38.8919C33.7628 38.8424 35.2491 38.198 35.5007 36.722C35.5319 36.5377 35.6517 35.7823 35.2418 35.0731L35.2412 35.0725Z" fill="white" stroke="#1E1E1E" stroke-linecap="round" stroke-linejoin="round"/>
<path d="M33.9418 34.7774C33.5648 33.9015 32.9045 33.418 32.6944 33.2684C32.5502 33.1655 32.4213 33.0898 32.3271 33.0381C32.3356 33.153 32.3481 33.3213 32.3623 33.525C32.452 34.8252 32.5076 35.6295 32.4895 36.2984C32.4741 36.8768 32.3941 37.7073 32.0938 38.7237C32.2346 38.685 33.6801 38.2612 34.128 36.9041C34.4448 35.9452 34.0752 35.0891 33.9412 34.7786L33.9418 34.7774Z" fill="white" stroke="#1E1E1E" stroke-linecap="round" stroke-linejoin="round"/>
<path d="M32.0778 33.988C31.8774 33.6325 31.5339 33.0234 31.0292 33.0581C30.9258 33.0655 30.8395 33.0979 30.7845 33.1235C30.6544 33.1622 30.5114 33.2259 30.4762 33.3334C30.4472 33.4209 30.5119 33.4983 30.5182 33.529C30.5716 33.8066 30.6136 34.1632 30.7311 35.2689C30.7737 35.6699 30.8004 35.9265 30.81 36.2916C30.8174 36.5703 30.8072 36.7973 30.7998 36.9218C30.7981 36.9542 30.7964 36.9736 30.7958 36.9861C30.7839 37.1653 30.7856 37.4588 30.8429 37.9633C30.9934 37.9223 31.208 37.8467 31.4345 37.6994C31.9166 37.3854 32.1312 36.9554 32.2322 36.7472C32.5275 36.138 32.5002 35.5829 32.4849 35.3218C32.4451 34.6495 32.1982 34.2002 32.0789 33.988H32.0778Z" fill="white" stroke="#1E1E1E" stroke-linecap="round" stroke-linejoin="round"/>
<path d="M30.7016 35.2024C30.7289 35.0909 30.8084 34.8355 31.0383 34.6296C31.103 34.5716 31.5016 34.2058 31.962 34.3577C32.3322 34.4794 32.4747 34.8474 32.4963 34.9054C32.5224 34.8736 32.8932 34.4368 33.4104 34.509C33.6971 34.5488 33.8867 34.7257 33.9407 34.7775C34.1632 34.9908 34.2234 35.2422 34.241 35.3343C34.4301 35.0351 34.7849 34.9174 35.0625 35.0323C35.3691 35.1597 35.4361 35.5106 35.4407 35.5351C35.4407 35.1665 35.3731 34.8821 35.3158 34.699C34.9388 33.4977 33.8237 32.9005 33.3706 32.7276C33.3553 32.7219 33.3434 32.7173 33.3354 32.7145C32.6609 32.4648 32.0324 32.5262 32.0324 32.5262C32.0262 32.5268 32.0046 32.5291 31.9825 32.5319C31.5646 32.582 30.4302 32.8669 30.2003 33.6945C29.9942 34.4368 30.646 35.1432 30.7022 35.2024H30.7016Z" fill="#FCB300" stroke="#1E1E1E" stroke-linecap="round" stroke-linejoin="round"/>
</g>
<defs>
<clipPath id="clip0_2298_27678">
<rect width="47" height="48" fill="white"/>
</clipPath>
</defs>
</svg>
