<svg width="47" height="48" viewBox="0 0 47 48" fill="none" xmlns="http://www.w3.org/2000/svg">
<g clip-path="url(#clip0_2235_73134)">
<path d="M40.2302 14.3998C39.763 13.5795 39.2391 12.7961 38.6641 12.0548C42.5653 7.23823 45.8875 2.76418 47 0.557836C44.8901 1.72463 40.5086 5.14493 35.8301 9.09295C35.1649 8.5283 34.4624 8.00682 33.7258 7.53306C36.2395 4.33317 38.257 1.52638 39.0264 0C37.4523 0.870269 34.3858 3.22204 30.9695 6.05496C28.5534 4.9978 25.8844 4.41099 23.0793 4.41099C12.1821 4.41099 3.34831 13.2608 3.34831 24.1778C3.34831 27.1681 4.01117 30.0033 5.1974 32.5442C2.73592 35.6543 0.743944 38.3816 0 39.837C1.32288 39.1155 3.76281 37.2773 6.56508 35.0005C7.10716 35.8287 7.70934 36.6132 8.3654 37.3489C4.87533 41.6781 1.93641 45.6164 0.930497 47.5836C2.86294 46.5299 6.81287 43.4589 11.0956 39.8841C11.8906 40.4942 12.7338 41.0447 13.6178 41.5292C11.4483 44.2928 9.71493 46.6878 9.04413 48.0006C10.439 47.2399 13.1313 45.1819 16.1558 42.6943C18.31 43.5032 20.6427 43.9458 23.0787 43.9458C33.9759 43.9458 42.8096 35.0959 42.8096 24.1789C42.8096 21.621 42.3248 19.176 41.4414 16.9322C43.7923 13.9317 45.6731 11.3084 46.3978 9.87119C45.1328 10.5705 42.8612 12.2695 40.2297 14.4009L40.2302 14.3998ZM23.0793 38.1396C15.383 38.1396 9.14336 31.8892 9.14336 24.1784C9.14336 16.4675 15.3824 10.2171 23.0793 10.2171C30.7761 10.2171 37.0152 16.4675 37.0152 24.1784C37.0152 31.8892 30.7761 38.1396 23.0793 38.1396Z" fill="#727272"/>
<path d="M24.0926 29.1679C22.9764 28.9159 22.2627 29.0729 22.0265 29.1326C21.8432 29.1793 21.674 29.2373 21.5195 29.301C21.6348 29.3783 21.8034 29.4938 22.0033 29.64C22.4058 29.9335 22.6908 30.1724 22.8112 30.273C22.9673 30.4033 23.0638 30.4818 23.1427 30.5449C23.1427 30.5449 23.2705 30.6479 23.4164 30.7599C23.5663 30.8754 23.6849 30.9675 23.8252 31.0654C24.1726 31.3082 24.6689 31.5886 24.6887 31.6C25.0169 31.7815 25.5744 32.3787 26.5714 34.2744C27.234 32.6631 27.1641 30.9994 26.2756 30.1018C25.7124 29.533 24.896 29.3488 24.0926 29.1679Z" fill="white" stroke="#1E1E1E" stroke-linecap="round" stroke-linejoin="round"/>
<path d="M23.0604 29.9741C22.5966 29.8484 21.6445 29.6561 20.5067 29.8984C20.2711 29.9485 20.0803 30.0059 19.9531 30.048C20.0718 30.1379 20.2455 30.2721 20.451 30.4405C20.8939 30.8034 21.201 31.0957 21.2783 31.168C21.2783 31.168 21.5445 31.4148 21.8199 31.6554C21.9601 31.7777 22.0737 31.8767 22.2077 31.9859C22.6448 32.3431 23.1944 32.7276 23.2223 32.7463C23.5919 33.0012 24.1704 33.7099 25.0975 35.6716C25.2054 35.476 26.2421 33.5296 25.2855 31.71C24.9125 31.0007 24.3731 30.5696 24.0114 30.3347C23.6816 30.1424 23.4107 30.0696 23.0604 29.9747V29.9741Z" fill="white" stroke="#1E1E1E" stroke-linecap="round" stroke-linejoin="round"/>
<path d="M20.7287 31.1677C19.9946 30.9953 19.1668 30.7758 18.4174 31.2035C18.1346 31.365 17.9456 31.5698 17.832 31.7154C17.9978 31.7865 18.2607 31.9037 18.5741 32.0669C18.9954 32.2865 19.2435 32.4452 20.7605 33.4735C21.2039 33.7744 21.4872 33.9672 21.8637 34.2676C22.1152 34.4683 22.3173 34.6316 22.5489 34.8682C22.8078 35.1321 23.1036 35.4882 23.3767 35.9563C23.4778 35.7271 23.6027 35.3909 23.6782 34.9706C23.7514 34.5605 23.869 33.978 23.6492 33.3632C23.3852 32.626 22.8243 32.2074 22.4496 31.9276C21.7615 31.4134 21.0978 31.2541 20.7276 31.1677H20.7287Z" fill="white" stroke="#1E1E1E" stroke-linecap="round" stroke-linejoin="round"/>
<path d="M20.629 33.4526C20.5319 33.282 20.3928 32.9834 20.3747 32.5949C20.3644 32.3725 20.3332 31.6393 20.8641 31.3095C21.2246 31.0854 21.7225 31.1246 22.1387 31.3828C22.1336 31.3231 22.0864 30.6269 22.5929 30.2526C22.8841 30.0376 23.2038 30.0428 23.34 30.0473C24.136 30.0718 24.6237 30.7958 24.689 30.8965C24.5096 30.5302 24.5857 30.0985 24.8639 29.842C25.0893 29.6338 25.4192 29.5673 25.7246 29.6623C25.5736 29.3796 25.2028 28.7823 24.4801 28.4012C23.8334 28.0605 23.2424 28.0731 22.6877 28.0799C21.5885 28.0924 20.8045 28.4729 20.6279 28.5622C20.3292 28.7129 19.7178 29.0298 19.2102 29.6878C19.0654 29.8755 17.8249 31.4801 18.5584 32.6154C19.146 33.526 20.5246 33.4595 20.6279 33.4526H20.629Z" fill="#727272" stroke="#1E1E1E" stroke-linecap="round" stroke-linejoin="round"/>
<path d="M37.9287 31.0964C37.592 30.514 37.0101 30.1619 36.6643 29.9532C36.5252 29.869 36.406 29.807 36.3242 29.7666C36.339 29.8678 36.36 30.0174 36.3799 30.1989C36.4196 30.564 36.431 30.8388 36.4361 30.9548C36.4429 31.105 36.448 31.1965 36.4525 31.271C36.4525 31.271 36.4599 31.3916 36.4713 31.527C36.4826 31.6663 36.4917 31.7773 36.5082 31.9024C36.5354 32.1145 36.5445 32.2209 36.645 32.6373C36.7137 32.9222 36.6881 33.5331 36.3316 34.9158C36.4503 34.8663 37.9366 34.2219 38.1882 32.7459C38.2194 32.5616 38.3392 31.8063 37.9293 31.097L37.9287 31.0964Z" fill="white" stroke="#1E1E1E" stroke-linecap="round" stroke-linejoin="round"/>
<path d="M36.6293 30.8014C36.2523 29.9254 35.592 29.442 35.3819 29.2924C35.2377 29.1894 35.1088 29.1138 35.0146 29.062C35.0231 29.1769 35.0356 29.3453 35.0498 29.5489C35.1395 30.8491 35.1951 31.6534 35.177 32.3223C35.1616 32.9007 35.0816 33.7312 34.7812 34.7476C34.9221 34.7089 36.3676 34.2852 36.8155 32.9281C37.1323 31.9691 36.7627 31.1131 36.6287 30.8025L36.6293 30.8014Z" fill="white" stroke="#1E1E1E" stroke-linecap="round" stroke-linejoin="round"/>
<path d="M34.7653 30.012C34.5649 29.6565 34.2214 29.0473 33.7167 29.082C33.6133 29.0894 33.527 29.1218 33.472 29.1474C33.3419 29.1861 33.1989 29.2498 33.1637 29.3573C33.1347 29.4449 33.1994 29.5222 33.2057 29.5529C33.2591 29.8305 33.3011 30.1871 33.4186 31.2929C33.4612 31.6939 33.4879 31.9504 33.4975 32.3155C33.5049 32.5942 33.4947 32.8212 33.4873 32.9458C33.4856 32.9782 33.4839 32.9975 33.4833 33.01C33.4714 33.1892 33.4731 33.4827 33.5304 33.9872C33.6809 33.9462 33.8955 33.8706 34.122 33.7233C34.6041 33.4093 34.8187 32.9793 34.9197 32.7711C35.215 32.162 35.1877 31.6068 35.1724 31.3458C35.1326 30.6735 34.8857 30.2241 34.7664 30.012H34.7653Z" fill="white" stroke="#1E1E1E" stroke-linecap="round" stroke-linejoin="round"/>
<path d="M33.3891 31.2263C33.4164 31.1148 33.4959 30.8594 33.7258 30.6535C33.7905 30.5955 34.1891 30.2298 34.6495 30.3816C35.0197 30.5033 35.1622 30.8714 35.1838 30.9294C35.2099 30.8975 35.5807 30.4607 36.0979 30.5329C36.3846 30.5727 36.5742 30.7496 36.6282 30.8014C36.8507 31.0147 36.9109 31.2661 36.9285 31.3582C37.1176 31.0591 37.4724 30.9413 37.75 31.0562C38.0566 31.1836 38.1236 31.5346 38.1282 31.559C38.1282 31.1904 38.0606 30.906 38.0033 30.7229C37.6263 29.5216 36.5112 28.9244 36.0581 28.7515C36.0428 28.7458 36.0309 28.7412 36.0229 28.7384C35.3484 28.4887 34.7199 28.5501 34.7199 28.5501C34.7137 28.5507 34.6921 28.553 34.67 28.5558C34.2521 28.6059 33.1177 28.8908 32.8878 29.7184C32.6817 30.4607 33.3335 31.1671 33.3897 31.2263H33.3891Z" fill="#727272" stroke="#1E1E1E" stroke-linecap="round" stroke-linejoin="round"/>
<path d="M29.3828 19.3613C29.4486 19.3607 29.8818 19.355 30.0788 19.0604C30.1913 18.8921 30.1867 18.6901 30.1816 18.6196C30.1657 18.4074 30.0646 18.2562 30.013 18.1811C29.4787 17.4018 29.0751 16.9605 29.0751 16.9605C28.869 16.7352 28.5175 16.3507 28.3568 16.175C27.3389 15.1227 26.3606 14.3184 25.5499 13.7229C25.4471 13.6473 23.6717 12.3544 21.6948 11.454C21.231 11.243 20.8528 11.0712 20.5423 10.937C20.226 10.9814 19.9677 10.9996 19.7934 11.0081C19.5725 11.0189 19.5112 11.0127 18.9537 11.0223C18.8969 11.0235 18.659 11.0269 18.3695 11.0354C17.8903 11.0491 17.6507 11.0565 17.5542 11.065C17.343 11.0838 16.9495 11.119 16.572 11.2561C16.3778 11.3266 15.6289 11.5979 15.2383 12.3499C15.2383 12.3499 14.9391 12.9249 15.0112 13.8037C15.0237 13.9584 15.0538 14.0983 15.0549 14.1046C15.1219 14.414 15.2383 14.6301 15.3042 14.7507C15.3519 14.8383 15.4024 14.9185 15.4541 14.9936C15.4921 15.0459 15.5415 15.1119 15.6005 15.1858C15.6539 15.2524 15.6954 15.3007 15.7266 15.336C15.8424 15.4702 15.902 15.5385 15.9747 15.5937C15.986 15.6022 15.9736 15.5994 16.0962 15.6756C16.2086 15.745 16.3483 15.832 16.5226 16.0288C16.6838 16.2114 16.8314 16.3939 16.8888 16.605C17.1284 16.4906 17.3504 16.2654 17.4077 15.9702C17.4821 15.588 17.2425 15.2814 17.1988 15.2268C17.1494 15.22 17.0636 15.2046 16.9671 15.1631C16.2762 14.8673 15.8736 13.6262 16.3256 12.8328C16.5504 12.4375 16.9223 12.268 16.9683 12.2475C18.0589 11.7709 19.543 12.8271 20.2885 13.7013C20.766 14.2616 21.0056 14.823 21.1242 15.1551C21.231 15.1113 21.3661 15.0624 21.5251 15.0215C21.5251 15.0215 21.7885 14.9538 22.0695 14.935C23.0376 14.8696 24.5977 15.7131 24.5977 15.7131C25.1417 16.0072 25.5203 16.2717 25.9388 16.5646C26.4151 16.8979 26.8705 17.2164 27.3826 17.6805C28.509 18.7015 28.7463 19.3698 29.3833 19.3619L29.3828 19.3613Z" fill="#727272"/>
<path d="M33.5496 16.4253C33.7994 17.1152 34.0061 17.8262 34.1645 18.5423C34.2877 18.3586 34.3956 18.1652 34.4853 17.965C34.6715 17.5515 34.7839 17.1106 34.8214 16.6528C34.8214 16.5606 34.8169 16.4622 34.8055 16.3587C34.7822 16.1369 34.7362 15.9463 34.688 15.7933C34.8203 15.5783 34.99 15.2638 35.128 14.8611C35.237 14.5414 35.4141 14.0227 35.3704 13.4317C35.3591 13.281 35.2415 11.9392 34.2559 11.4472C34.0061 11.3227 33.7461 11.2749 33.4855 11.2749C33.008 11.2749 32.5288 11.4353 32.107 11.5792C31.7476 11.7021 31.4643 11.8465 31.2695 11.958C31.4728 12.2987 31.7561 12.7839 32.0786 13.3754C32.6844 14.4857 33.1477 15.3184 33.5496 16.4264V16.4253ZM33.8823 13.3368C34.0197 12.6804 34.1503 12.5359 34.2599 12.4591C34.311 12.4233 34.4098 12.3545 34.5347 12.3636C34.8373 12.3852 35.0127 12.843 35.044 12.9255C35.2143 13.3692 35.1121 13.7838 34.9599 14.3498C34.8816 14.6393 34.755 15.0312 34.5421 15.4765C34.4013 15.1654 34.2747 14.9311 34.1827 14.7718C34.1253 14.6723 34.039 14.5272 33.9261 14.3094C33.8602 14.182 33.8091 14.0756 33.7756 14.0045C33.8057 13.7315 33.8466 13.5045 33.8818 13.3362L33.8823 13.3368Z" fill="#727272"/>
<path d="M31.494 25.5522C31.4509 25.5522 31.4089 25.5522 31.3674 25.5522C30.9376 25.5499 29.7965 25.5442 28.8653 24.674C28.4361 24.2724 28.1846 23.8129 28.0364 23.4136L28.0273 23.4147C28.0404 23.5609 28.058 23.7583 28.0711 23.9101C28.1426 24.7212 28.1823 25.1853 28.192 25.298C28.2317 25.7467 28.318 26.423 28.523 27.3985C28.7183 28.2312 28.6201 28.4308 28.8517 28.6572C29.0084 28.8102 29.2809 28.8495 29.7454 28.8495C29.9475 28.8495 30.1865 28.8421 30.4681 28.833C31.6042 28.7971 31.85 28.6271 31.9744 28.4576C32.0306 28.3808 32.0862 28.2477 32.1975 27.9815C32.3423 27.6362 32.4218 27.3723 32.4467 27.2916C32.6284 26.6966 32.8657 26.4407 33.1428 25.8821C33.2819 25.6017 33.4426 25.2212 33.5726 24.7349C33.5198 24.802 33.4613 24.868 33.3966 24.9317C32.8016 25.5158 32.0652 25.5533 31.4935 25.5533L31.494 25.5522Z" fill="#1E1E1E"/>
<path d="M30.9747 29.1453C29.7001 29.3091 29.0631 29.3904 28.6384 29.0594C28.4567 28.9178 28.4772 28.8347 28.3233 28.2933C28.2143 27.9105 28.1666 27.9651 28.0008 27.3081C27.9259 27.0101 27.9418 26.7132 27.99 26.0562C28.0582 25.1302 28.0888 25.0409 28.1115 25.0296C28.1127 25.029 28.1144 25.029 28.1167 25.0279C28.2853 24.9789 28.4556 25.1035 28.4959 25.1325C28.6339 25.2326 28.6884 25.3805 28.7599 25.6063C28.9456 26.1939 29.0182 26.5755 29.0182 26.5755C29.0835 26.9202 29.0818 26.968 29.1386 27.2967C29.1738 27.4998 29.2295 27.7751 29.3203 28.1004C29.4197 28.064 29.5673 27.9952 29.7052 27.8616C29.7279 27.8394 29.8074 27.7603 29.9312 27.5493C30.005 27.4236 30.0981 27.2456 30.1816 27.0169C30.3286 27.233 30.3616 27.4224 30.3701 27.5214C30.3814 27.6483 30.3655 27.7666 30.3536 27.8576C30.3366 27.9878 30.3099 28.0953 30.2877 28.1715C30.3564 28.1727 30.4444 28.1732 30.5461 28.1698C30.7079 28.1641 30.8635 28.1596 31.0457 28.1277C31.1638 28.1073 31.3256 28.0692 31.5135 27.9958C31.6146 27.8866 31.7491 27.7154 31.8542 27.4782C31.9388 27.2871 31.978 27.1136 31.9973 26.9828C32.0501 27.0533 32.1222 27.1682 32.1676 27.324C32.2238 27.5163 32.2891 27.6807 32.276 27.7757C32.3572 27.6977 32.3328 27.6881 32.3652 27.6983C32.5099 27.7444 32.5593 28.2614 32.3283 28.6328C32.23 28.7904 32.0682 29.0037 30.9742 29.1442L30.9747 29.1453Z" fill="white"/>
<path d="M29.2443 27.2211C29.2295 26.8884 29.1898 26.5568 29.1268 26.2348C29.0666 25.9288 28.999 25.7007 28.9496 25.5335C28.8707 25.2667 28.8213 25.1501 28.8003 25.1001C28.7464 24.9715 28.6839 24.8458 28.6141 24.7264L28.4375 24.4244L28.7685 24.3129C28.9138 24.264 29.2732 24.144 29.4691 24.0882C29.4873 24.0831 29.5355 24.0694 29.6003 24.0592C29.6604 24.0495 29.7354 24.0376 29.8132 24.0376C29.9074 24.0376 29.9875 24.0547 30.0579 24.0905C30.3934 24.2594 30.3758 24.7486 30.365 25.0404C30.3628 25.0967 30.361 25.1388 30.3605 25.1473L30.3593 25.1644C30.3151 25.798 30.2861 26.2166 30.1175 26.6779C30.03 26.9174 29.9108 27.1494 29.7632 27.3678L29.2829 28.0777L29.2443 27.2211Z" fill="white"/>
<path d="M29.8131 24.3227C29.8563 24.3227 29.8972 24.3284 29.9307 24.3454C30.0942 24.4279 30.0908 24.7783 30.0817 25.0308C30.08 25.0826 30.0783 25.1207 30.0777 25.1281C30.034 25.756 30.0073 26.1536 29.8512 26.5808C29.7921 26.7423 29.695 26.963 29.5281 27.2087C29.51 26.7986 29.4583 26.4505 29.4055 26.1803C29.3442 25.8675 29.276 25.6355 29.2215 25.4529C29.1432 25.1895 29.0921 25.0621 29.062 24.9904C28.9893 24.817 28.9149 24.6793 28.8587 24.5832C28.9428 24.5548 29.3413 24.4205 29.5457 24.3631C29.5628 24.3585 29.5974 24.3489 29.6445 24.3409C29.6979 24.3324 29.7575 24.3227 29.8131 24.3227ZM29.8131 23.7539C29.7132 23.7539 29.6224 23.7681 29.5559 23.7789C29.4719 23.7926 29.4106 23.8102 29.3902 23.8159C29.1983 23.8699 28.861 23.982 28.6776 24.044L28.0156 24.267L28.3693 24.8704C28.4329 24.9791 28.4897 25.0934 28.5391 25.21C28.5584 25.2555 28.6033 25.363 28.6776 25.6144C28.7253 25.7754 28.7912 25.9961 28.8485 26.2896C28.9087 26.5978 28.9467 26.9152 28.9609 27.2337L29.0376 28.9469L29.9977 27.5272C30.1583 27.29 30.2883 27.0369 30.3837 26.7759C30.566 26.277 30.5978 25.8192 30.6421 25.185L30.6432 25.1673C30.6449 25.1406 30.6477 25.0661 30.6483 25.0513C30.6608 24.7146 30.6835 24.0878 30.185 23.8369C30.0754 23.7818 29.9505 23.7539 29.8126 23.7539H29.8131Z" fill="#1E1E1E"/>
<path d="M25.7392 22.4232C25.922 22.1821 26.1588 21.9125 26.4603 21.6463C26.617 21.508 26.7708 21.3892 26.9167 21.2868C26.5852 20.9842 26.1577 20.6156 25.6404 20.2209C25.4111 20.0457 24.6758 19.4934 23.5846 18.8552C22.4945 18.2176 21.8796 17.8581 21.0439 17.642C20.7924 17.5766 20.3484 17.4799 19.8579 17.402C19.4411 17.3354 19.1879 17.2951 18.8353 17.2808C18.4044 17.2632 18.0683 17.3024 17.3949 17.3798C16.8107 17.4469 16.6154 17.4981 16.4587 17.5493C16.1516 17.6494 15.9108 17.7762 15.7456 17.8758C15.7053 17.7791 15.5946 17.4759 15.7127 17.1381C15.7439 17.0493 15.8166 16.8451 15.9949 16.7274C15.9682 16.6938 15.933 16.6512 15.8836 16.5949C15.7927 16.4919 15.7377 16.4584 15.6474 16.4021C15.4918 16.3054 15.0904 16.0585 14.8991 15.8452C12.2942 18.4923 11.6669 19.4047 11.5352 19.7221C11.5164 19.767 11.5096 20.3113 11.2496 20.8124C11.1786 20.9495 11.1298 21.036 11.0957 21.0985C10.9322 21.3971 10.805 21.677 10.3809 22.7287C10.1845 23.2167 10.0544 23.546 9.9409 24.017C9.9409 24.017 9.78193 24.6779 9.90797 24.7217C9.98972 24.7501 10.3361 24.4635 10.3866 24.4527C10.3866 24.4527 10.3883 24.4527 10.39 24.4521C10.4065 24.4487 10.4411 24.4339 10.4576 24.4339C10.4615 24.4339 10.4644 24.435 10.4661 24.4367C10.474 24.4498 10.4184 24.4959 10.4104 24.5027C10.3287 24.5732 10.1884 24.8491 10.1368 25.2637C10.0743 25.766 10.172 26.2312 10.2282 26.4514C10.3304 26.3228 10.4729 26.167 10.6636 26.0151C10.8521 25.8644 11.0338 25.7609 11.1803 25.6903C11.0435 26.1385 10.96 26.5327 10.9066 26.8472C10.7749 27.6265 10.6415 28.4654 10.9066 29.425C11.0219 29.8419 11.1831 30.1763 11.3222 30.4198C11.4233 30.3248 11.5249 30.2304 11.626 30.1354C11.6408 30.3009 11.6725 30.5307 11.7475 30.7952C11.827 31.0745 11.9468 31.3668 12.0512 31.5363C12.468 32.2098 13.4979 32.3207 13.6824 32.3383C13.8533 31.091 14.2127 30.1445 14.4926 29.537C15.3329 27.7146 16.5399 26.6038 17.4103 25.8024C17.9031 25.3491 18.359 24.9338 19.0715 24.5033C19.6898 24.1302 20.6624 23.5432 22.0295 23.4072C22.155 23.3947 22.2657 23.3879 22.3759 23.3879C22.4014 23.3879 22.4269 23.3879 22.4531 23.389C22.6643 23.3953 22.8601 23.4055 23.0719 23.4283C24.4947 23.5818 26.2167 24.2001 26.2167 24.2001C26.7884 24.3986 26.898 24.4629 26.9809 24.5175C27.0048 24.5334 27.0275 24.5499 27.0507 24.5664C26.8906 24.1927 26.6891 23.7673 26.3694 23.2747C26.1276 22.9021 25.8988 22.6143 25.7387 22.4249L25.7392 22.4232Z" fill="#727272"/>
<path d="M35.8484 18.6456C35.6848 18.4266 35.5645 18.2497 35.3913 17.9897C35.351 18.0995 35.3084 18.2087 35.2602 18.3157C35.1568 18.546 35.0336 18.7684 34.8945 18.9806C35.0223 19.0915 35.1114 19.1922 35.1676 19.2559C35.4032 19.5243 35.5457 19.7843 35.6235 19.9549C35.7746 20.2859 35.8574 20.6409 35.8716 21.0106C35.8926 21.0259 35.9131 21.0424 35.9313 21.0612C36.0028 21.0771 36.0885 21.0896 36.1845 21.0896C36.2458 21.0896 36.3105 21.0845 36.3792 21.0726C36.4422 21.0612 36.4996 21.0453 36.5501 21.0276C36.5087 20.9292 36.4615 20.8263 36.4087 20.7199C36.3514 20.6056 36.2929 20.4992 36.2356 20.4008C36.3434 20.3519 36.453 20.3002 36.5643 20.2461C36.6705 20.1944 36.7744 20.1426 36.8749 20.0903C36.8164 19.9868 36.7267 19.8338 36.6103 19.6552C36.3679 19.2837 36.2464 19.1791 35.8478 18.6456H35.8484Z" fill="#727272"/>
<path d="M33.1181 24.821C33.1562 24.821 33.1936 24.8244 33.2294 24.8352C33.3549 24.8722 33.285 25.2168 33.2419 25.3971C33.2345 25.4273 33.2283 25.4535 33.2237 25.4722C33.0897 26.012 32.8132 26.4966 32.5299 26.9004C32.5089 26.9306 32.4482 26.9784 32.4408 27.0176C32.5078 26.6678 32.5384 26.3066 32.5276 25.9546C32.5225 25.7811 32.5072 25.6093 32.48 25.4426C32.4675 25.3647 32.4538 25.284 32.4317 25.2123C32.4135 25.1531 32.3755 25.0894 32.3971 25.0149C32.4357 24.8795 32.6264 24.8608 32.9501 24.8323C33.004 24.8278 33.0619 24.8198 33.1187 24.8198" fill="white"/>
<path d="M34.8506 20.3099C34.8063 20.2126 34.7059 20.0204 34.5299 19.8196C34.464 19.7445 34.3646 19.6313 34.2062 19.5227C34.0546 19.4186 33.8843 19.3435 33.7009 19.2986L33.4386 19.2343L33.3841 18.9692C33.228 18.2071 33.0145 17.4489 32.7488 16.7163C32.5404 16.1412 32.1521 15.0702 31.3612 13.8348C30.7974 12.9543 30.0775 12.0881 29.2793 11.3299C28.5281 10.6166 27.6952 9.98868 26.8021 9.45858C26.4127 9.36245 25.5843 9.19238 24.4908 9.19238C23.7147 9.19238 22.8057 9.27827 21.8258 9.53707C21.7951 9.54503 21.7645 9.55356 21.7344 9.56209C23.4791 10.2412 26.0045 11.5352 28.2022 14.0083C29.038 14.9491 29.6738 15.8887 30.1593 16.7396C30.4891 17.2271 30.6816 17.6724 30.7969 17.9949C30.8991 18.281 31.0183 18.6251 31.0387 19.0961C31.0484 19.3168 31.0336 19.5022 31.0166 19.6359C30.7242 19.7024 30.1241 19.881 29.5762 20.3958C29.39 20.5709 29.026 20.9208 28.8336 21.5026C28.5611 22.3274 28.8194 23.0543 28.9165 23.2926C28.9136 23.2926 28.9102 23.2932 28.9074 23.2937C29.0221 23.544 29.1918 23.8113 29.4456 24.0485C30.1326 24.6912 30.9689 24.6952 31.3703 24.6975C31.8574 24.7003 32.4099 24.7026 32.7999 24.3204C33.0298 24.0946 33.1343 23.8102 33.1809 23.5747C33.1712 23.5588 33.1627 23.5429 33.1525 23.5269C33.0327 23.3375 32.8907 23.184 32.7216 23.0395C32.5978 22.9337 32.4621 22.8211 32.2986 22.7852C32.1652 22.7562 32.0187 22.7767 31.8824 22.7648C31.586 22.7386 31.3124 22.6078 31.2363 22.2989C31.1653 22.0111 31.2454 21.7756 31.4032 21.5891C31.6576 21.2893 32.0652 21.138 32.4388 21.0567C33.2762 20.8741 34.1574 20.9088 35.0113 20.8866C34.988 20.6847 34.9341 20.4907 34.8506 20.3082V20.3099Z" fill="white"/>
<path d="M33.9393 24.1477C33.9234 24.154 33.9075 24.1602 33.8916 24.1665C33.8735 24.2126 33.8536 24.2592 33.832 24.3058C33.9132 24.3331 34.0103 24.3542 34.1187 24.3542C34.1557 24.3542 34.1937 24.3519 34.2329 24.3462C34.439 24.3172 34.6235 24.212 34.8409 23.9862C35.1617 23.6546 35.3667 23.2576 35.5041 22.8799C35.1129 23.4418 34.5616 23.9077 33.9399 24.1477H33.9393Z" fill="white"/>
<path d="M37.6179 19.6699C37.5259 19.5072 37.4271 19.3451 37.3249 19.1881C37.1608 18.9367 37.0382 18.7832 36.8963 18.6051C36.7992 18.4828 36.689 18.3446 36.5318 18.1342C36.354 17.8959 36.2308 17.711 36.0072 17.3743L35.9827 17.3373C35.8766 17.1775 35.7715 17.0159 35.6682 16.8538C35.671 16.8015 35.6722 16.7492 35.6727 16.6969C35.679 16.6155 35.6835 16.533 35.6858 16.4506H35.6671C35.6637 16.3897 35.6591 16.3288 35.6529 16.2686C35.6404 16.1502 35.6222 16.0325 35.5989 15.9153C35.7307 15.6645 35.8431 15.4034 35.9345 15.1361C36.0543 14.7857 36.2768 14.1328 36.2206 13.3677C36.1962 13.039 36.0066 11.3656 34.636 10.6819C34.288 10.5079 33.9008 10.4197 33.4858 10.4197C32.8573 10.4197 32.2651 10.6222 31.8325 10.7695C31.6905 10.8179 31.5503 10.8725 31.4123 10.9322C31.0296 10.6034 30.4687 10.1712 29.7579 9.75937C28.6229 9.10242 27.5845 8.78333 27.1905 8.6764C27.1701 8.67071 27.1496 8.66559 27.1292 8.66047C27.0548 8.6417 26.9799 8.6235 26.9055 8.60473C26.1634 8.43182 25.318 8.3374 24.492 8.3374C23.516 8.3374 22.5463 8.4631 21.6095 8.71053C20.7806 8.92951 19.9749 9.24519 19.2153 9.64789L18.2024 10.1848C17.7777 10.1973 17.5886 10.203 17.4785 10.2133C17.2463 10.2337 16.7637 10.277 16.2822 10.4516C15.2449 10.8281 14.7311 11.4765 14.483 11.9537C14.4404 12.0362 14.0731 12.7819 14.1622 13.8711C14.1787 14.0747 14.2156 14.2505 14.223 14.2835C14.3178 14.7198 14.4859 15.0269 14.5574 15.1583C14.5812 15.2021 14.6698 15.2555 14.6318 15.288C11.8004 17.6922 10.0642 20.5225 9.40673 23.8761C9.38175 24.0018 9.31305 24.1178 9.26763 24.239L8.62891 25.9379L9.26933 25.7172C9.28126 26.0875 9.34314 26.4168 9.40503 26.6586L9.82857 28.3251L9.90408 28.2301C9.90181 28.6692 9.94894 29.143 10.0886 29.6493C10.2027 30.0622 10.3696 30.4632 10.586 30.8409L11.1208 31.7754L11.1866 31.7134C11.2338 31.8129 11.282 31.9039 11.3303 31.9824C11.9162 32.9294 13.117 33.1382 13.6058 33.1843L14.4183 33.2605L14.529 32.4505C14.6528 31.549 14.9015 30.6879 15.2688 29.8916C16.0381 28.2244 17.1657 27.1858 17.9895 26.4271C18.4374 26.0147 18.8604 25.6251 19.5139 25.2309C20.0816 24.8879 20.9401 24.3698 22.1165 24.2532C22.2204 24.2429 22.3038 24.2378 22.3788 24.2378C22.3964 24.2378 22.4134 24.2378 22.431 24.2384C22.6536 24.2452 22.8188 24.2555 22.984 24.2731C24.287 24.4141 25.917 24.9943 25.9335 25L26.0726 25.05H26.0754C26.4115 25.1701 26.495 25.2127 26.5154 25.2264C26.8493 25.4471 27.0258 25.7963 27.2762 26.3446C27.3909 26.5954 27.5544 27.0072 27.6844 27.5447C27.7594 27.8536 27.7883 28.0646 27.8122 28.2341C27.857 28.5566 27.9081 28.9223 28.2579 29.2647C28.6684 29.6663 29.2418 29.7004 29.7465 29.7004C29.9623 29.7004 30.2098 29.6925 30.496 29.6839C31.5304 29.6515 32.2532 29.519 32.6625 28.9599C32.7783 28.8018 32.847 28.6374 32.9844 28.3092C33.1434 27.9292 33.2325 27.6375 33.2615 27.5419L33.2626 27.5385C33.3518 27.2467 33.4574 27.0647 33.6044 26.8127C33.6947 26.6569 33.7975 26.4805 33.907 26.2593C34.0739 25.9231 34.2147 25.5665 34.3283 25.1939C34.3374 25.1928 34.3465 25.1917 34.3556 25.1905C34.8858 25.1155 35.2378 24.8055 35.457 24.5791C36.2899 23.7174 36.4983 22.5849 36.5987 22.0406C36.6078 21.9911 36.6164 21.9416 36.6249 21.8921C36.6964 21.8756 36.7674 21.8552 36.8366 21.8313L37.6934 21.531L37.3811 20.791L38.0584 20.4417L37.6213 19.6688L37.6179 19.6699ZM32.1061 11.5783C32.5779 11.406 32.9929 11.274 33.4846 11.274C33.7452 11.274 34.0052 11.3218 34.2551 11.4464C35.2407 11.9384 35.3588 13.2802 35.3696 13.4309C35.4127 14.0224 35.2361 14.5406 35.1271 14.8602C34.9897 15.2629 34.82 15.5781 34.6871 15.7925C34.7354 15.9455 34.7814 16.136 34.8046 16.3579C34.8154 16.4614 34.82 16.5598 34.8205 16.6519C34.7831 17.1098 34.6707 17.5506 34.4844 17.9641C34.3942 18.1643 34.2863 18.3577 34.1637 18.5414C33.9411 17.6865 33.7236 16.9687 33.5488 16.4244C33.3052 15.6645 32.9691 14.6265 32.4036 13.3313C32.1175 12.6755 31.8529 12.1386 31.6582 11.7592C31.7609 11.7126 31.9153 11.6466 32.1061 11.5766V11.5783ZM26.9816 24.5154C26.8992 24.4608 26.7891 24.3965 26.2174 24.198C26.2174 24.198 24.4954 23.5803 23.0726 23.4262C22.8608 23.4034 22.6644 23.3932 22.4537 23.3869C22.4282 23.3863 22.4021 23.3858 22.3765 23.3858C22.2664 23.3858 22.1557 23.3926 22.0302 23.4051C20.663 23.5411 19.6905 24.128 19.0722 24.5012C18.3591 24.9317 17.9032 25.3464 17.4109 25.8003C16.5406 26.6017 15.3341 27.7125 14.4932 29.5349C14.2133 30.1418 13.8539 31.0883 13.6831 32.3362C13.4985 32.3191 12.4686 32.2082 12.0519 31.5342C11.9469 31.3647 11.8271 31.0729 11.7481 30.7931C11.6732 30.5286 11.6414 30.2988 11.6266 30.1333C11.5256 30.2283 11.424 30.3227 11.3229 30.4177C11.1838 30.1742 11.0226 29.8398 10.9073 29.4229C10.6422 28.4628 10.7756 27.6238 10.9073 26.8451C10.9607 26.5306 11.0441 26.1364 11.181 25.6882C11.0345 25.7588 10.8528 25.8623 10.6643 26.013C10.4735 26.1654 10.331 26.3207 10.2288 26.4493C10.1726 26.2291 10.0755 25.7644 10.1374 25.2616C10.1891 24.847 10.3288 24.5711 10.4111 24.5006C10.419 24.4938 10.4747 24.4477 10.4667 24.4346C10.4656 24.4323 10.4628 24.4318 10.4582 24.4318C10.4417 24.4318 10.4071 24.4466 10.3906 24.45C10.2731 24.475 10.1641 24.5063 10.0631 24.5416C10.0977 24.4625 10.1323 24.3834 10.167 24.3044C10.1772 24.2663 10.1919 24.2287 10.1982 24.19C10.6121 21.5156 12.1291 18.3651 15.1547 15.9893C14.9293 16.1662 15.4919 16.3044 15.6475 16.4005C15.7383 16.4568 15.7928 16.4904 15.8837 16.5933C15.9331 16.6496 15.9688 16.6917 15.9949 16.7259C15.8172 16.8436 15.744 17.0478 15.7128 17.1365C15.5947 17.4744 15.7054 17.7775 15.7457 17.8742C15.9104 17.7747 16.1511 17.6484 16.4588 17.5478C16.6155 17.4966 16.8108 17.4459 17.395 17.3783C18.0678 17.3003 18.4045 17.2617 18.8354 17.2793C19.1874 17.2935 19.4412 17.3339 19.8579 17.4004C20.3491 17.4789 20.7925 17.5756 21.044 17.6405C21.8797 17.8566 22.494 18.2166 23.5847 18.8537C24.6759 19.4919 25.4112 20.0442 25.6405 20.2193C26.1583 20.6141 26.5853 20.9827 26.9168 21.2853C26.7709 21.3876 26.6171 21.5071 26.4604 21.6447C26.1583 21.9109 25.9216 22.1805 25.7393 22.4217C25.8994 22.6111 26.1282 22.8983 26.3701 23.2715C26.6897 23.764 26.8913 24.1895 27.0514 24.5632C27.0287 24.5467 27.006 24.5302 26.9816 24.5142V24.5154ZM27.3807 17.6803C26.8686 17.2162 26.4132 16.8976 25.9369 16.5643C25.5179 16.2714 25.1398 16.0063 24.5959 15.7129C24.5959 15.7129 23.0357 14.8693 22.0676 14.9348C21.7866 14.9535 21.5232 15.0212 21.5232 15.0212C21.3642 15.0622 21.2291 15.1111 21.1223 15.1549C21.0042 14.8227 20.7641 14.2613 20.2866 13.7011C19.5417 12.8268 18.0576 11.7706 16.9664 12.2472C16.9204 12.2671 16.5491 12.4372 16.3237 12.8325C15.8717 13.626 16.2743 14.8665 16.9652 15.1628C17.0623 15.2044 17.1475 15.2197 17.1969 15.2265C17.2406 15.2811 17.4796 15.5877 17.4058 15.9699C17.3485 16.2651 17.1265 16.4904 16.8869 16.6047C16.8301 16.3937 16.6819 16.2105 16.5207 16.0285C16.3464 15.8317 16.2067 15.7453 16.0943 15.6753C15.9717 15.5991 15.9842 15.6025 15.9728 15.5934C15.9001 15.5382 15.8405 15.47 15.7247 15.3357C15.694 15.3005 15.6526 15.2521 15.5987 15.1856C15.539 15.1116 15.4902 15.0462 15.4522 14.9933C15.4005 14.9188 15.35 14.8381 15.3023 14.7505C15.2364 14.6299 15.12 14.4137 15.053 14.1043C15.0519 14.0981 15.0218 13.9576 15.0093 13.8034C14.9378 12.9247 15.2364 12.3496 15.2364 12.3496C15.627 11.5977 16.3759 11.3258 16.5701 11.2558C16.9476 11.1188 17.3411 11.0835 17.5523 11.0647C17.6488 11.0562 17.8884 11.0494 18.3676 11.0352C18.6571 11.0266 18.895 11.0232 18.9518 11.0221C19.5088 11.0124 19.5707 11.0181 19.7915 11.0079C19.9664 10.9993 20.2242 10.9811 20.5404 10.9368C20.8515 11.071 21.2296 11.2428 21.6929 11.4538C23.6699 12.3542 25.4447 13.647 25.548 13.7227C26.3587 14.3182 27.337 15.1225 28.355 16.1747C28.5156 16.3505 28.8671 16.735 29.0732 16.9602C29.0732 16.9602 29.4768 17.4016 30.0111 18.1808C30.0622 18.2559 30.1633 18.4072 30.1797 18.6194C30.1848 18.6893 30.1894 18.8918 30.077 19.0602C29.8799 19.3548 29.4468 19.3605 29.3809 19.361C28.7439 19.369 28.5065 18.7007 27.3801 17.6797L27.3807 17.6803ZM33.1411 25.881C32.8641 26.4396 32.6267 26.6955 32.4451 27.2905C32.4206 27.3713 32.3406 27.6352 32.1958 27.9804C32.0845 28.2466 32.0283 28.3797 31.9727 28.4565C31.8484 28.6266 31.6025 28.7966 30.4664 28.8319C30.1848 28.841 29.9464 28.8484 29.7437 28.8484C29.2793 28.8484 29.0067 28.8092 28.85 28.6561C28.619 28.4298 28.7166 28.2301 28.5213 27.3974C28.3164 26.4214 28.2301 25.7457 28.1903 25.2969C28.1801 25.1848 28.1409 24.7201 28.0694 23.9091C28.0558 23.7572 28.0387 23.5598 28.0257 23.4136L28.0347 23.4125C28.1829 23.8118 28.4344 24.2714 28.8637 24.6729C29.7942 25.5432 30.9354 25.5489 31.3658 25.5511C31.4072 25.5511 31.4492 25.5511 31.4924 25.5511C32.0641 25.5511 32.8005 25.5136 33.3955 24.9295C33.4602 24.8658 33.5181 24.7998 33.5715 24.7327C33.4409 25.2195 33.2808 25.5995 33.1417 25.8799L33.1411 25.881ZM32.4382 21.0583C32.0647 21.1396 31.657 21.2909 31.4027 21.5907C31.2448 21.7773 31.1648 22.0122 31.2357 22.3005C31.3118 22.6094 31.5855 22.7402 31.8818 22.7664C32.0181 22.7783 32.1646 22.7573 32.298 22.7868C32.461 22.8227 32.5966 22.9353 32.721 23.0411C32.8902 23.1856 33.0321 23.3391 33.1519 23.5285C33.1616 23.5439 33.1707 23.5604 33.1803 23.5763C33.1337 23.8118 33.0293 24.0962 32.7993 24.322C32.4099 24.7048 31.8574 24.7019 31.3697 24.6991C30.9678 24.6968 30.132 24.6928 29.445 24.0501C29.1913 23.8129 29.0215 23.5456 28.9068 23.2953C28.9097 23.2953 28.9131 23.2948 28.9159 23.2942C28.8188 23.0559 28.5605 22.329 28.833 21.5042C29.0255 20.9229 29.3894 20.5726 29.5756 20.3974C30.1235 19.8826 30.7231 19.704 31.016 19.6375C31.0325 19.5038 31.0478 19.3184 31.0382 19.0977C31.0177 18.6262 30.8985 18.2826 30.7963 17.9965C30.681 17.6735 30.4886 17.2287 30.1587 16.7412C29.6739 15.8903 29.038 14.9507 28.2017 14.0099C26.0039 11.5368 23.7533 10.1706 22.0086 9.49204C22.0086 9.49204 22.0109 9.49147 22.0114 9.49147C22.3322 9.39819 22.6655 9.33164 23.1867 9.27533C23.5308 9.23836 23.9429 9.19343 24.4908 9.19399C25.062 9.19456 25.858 9.24462 26.8022 9.46019C27.1627 9.67405 27.5771 9.94138 28.02 10.2718C28.2675 10.4561 28.7461 10.8258 29.2793 11.3321C30.4483 12.4412 31.1597 13.5225 31.3612 13.837C32.1515 15.0724 32.5399 16.1434 32.7488 16.7185C33.0145 17.4511 33.228 18.2093 33.3841 18.9714L33.4386 19.2365L33.7009 19.3008C33.8843 19.3457 34.0546 19.4208 34.2062 19.5249C34.3646 19.6335 34.464 19.7467 34.5299 19.8218C34.7059 20.0225 34.8064 20.2148 34.8506 20.3121C34.9341 20.4946 34.9875 20.6886 35.0113 20.8905C34.158 20.9127 33.2768 20.878 32.4388 21.0606L32.4382 21.0583ZM34.8416 23.987C34.6235 24.2122 34.4396 24.3174 34.2335 24.347C34.1943 24.3527 34.1563 24.355 34.1194 24.355C34.0109 24.355 33.9138 24.3334 33.8327 24.3066C33.8542 24.26 33.8747 24.2134 33.8923 24.1673C33.9082 24.161 33.9241 24.1548 33.94 24.1485C34.5616 23.9091 35.1129 23.4432 35.5041 22.8807C35.3673 23.2589 35.1618 23.6554 34.841 23.987H34.8416ZM36.5658 20.2461C36.4545 20.3001 36.345 20.3519 36.2371 20.4008C36.295 20.4986 36.3535 20.605 36.4103 20.7199C36.4636 20.8262 36.5102 20.9292 36.5516 21.0276C36.5011 21.0452 36.4438 21.0611 36.3807 21.0725C36.3126 21.0845 36.2473 21.0896 36.186 21.0896C36.09 21.0896 36.0043 21.0771 35.9328 21.0611C35.9146 21.0424 35.8942 21.0259 35.8732 21.0105C35.859 20.6408 35.7761 20.2859 35.6251 19.9549C35.5473 19.7842 35.4048 19.5243 35.1691 19.2558C35.1135 19.1921 35.0244 19.0914 34.8961 18.9805C35.0352 18.7684 35.1578 18.546 35.2617 18.3156C35.3099 18.2087 35.3525 18.0995 35.3928 17.9897C35.566 18.2496 35.6864 18.426 35.8499 18.6455C36.2484 19.179 36.3699 19.2837 36.6124 19.6551C36.7293 19.8343 36.8185 19.9867 36.8769 20.0902C36.7759 20.142 36.6726 20.1943 36.5664 20.2461H36.5658Z" fill="#1E1E1E"/>
<path d="M34.1839 14.7728C34.2753 14.9321 34.4019 15.1664 34.5432 15.4776C34.7562 15.0316 34.8828 14.6403 34.9611 14.3508C35.1138 13.7848 35.2155 13.3702 35.0451 12.9266C35.0139 12.8446 34.8379 12.3868 34.5359 12.3646C34.411 12.3555 34.3122 12.4243 34.2611 12.4601C34.1515 12.5364 34.0215 12.6814 33.8835 13.3378C33.8483 13.5061 33.8074 13.7331 33.7773 14.0061C33.8108 14.0772 33.8614 14.1836 33.9278 14.311C34.0408 14.5288 34.1271 14.6744 34.1844 14.7734L34.1839 14.7728Z" fill="#1E1E1E"/>
<path d="M14.3718 19.8064C14.2071 19.9338 14.026 20.0908 13.8415 20.2813C13.6252 20.5054 13.4537 20.7244 13.3203 20.9189C13.573 20.841 13.8256 20.7625 14.0788 20.6846C13.9176 20.8728 13.737 21.1117 13.5673 21.4047C13.414 21.6686 13.3033 21.9166 13.2227 22.1316C13.4691 22.0076 13.7359 21.8836 14.0243 21.7653C14.2497 21.6726 14.4677 21.5906 14.6767 21.519C14.5648 21.7533 14.4433 22.0616 14.3604 22.4353C14.2662 22.8596 14.2514 23.2316 14.2611 23.5131C14.5364 23.5114 14.8232 23.5035 15.1201 23.4887C15.4199 23.4733 15.7089 23.4517 15.9853 23.4256C15.7423 23.7549 15.4937 24.1428 15.2677 24.5921C15.1894 24.7474 15.1195 24.8993 15.0559 25.0477C15.3994 24.7696 15.8531 24.4624 16.422 24.2088C16.6564 24.1041 16.8813 24.0216 17.0913 23.9562C17.1964 23.9119 17.3184 23.8681 17.4564 23.8311C17.5671 23.8015 17.6704 23.7816 17.7641 23.768C17.5682 23.95 17.2736 24.277 17.0959 24.7662C17.026 24.959 16.988 25.1387 16.9681 25.2929C17.1901 25.0381 17.5427 24.6939 18.0497 24.4005C18.4891 24.1456 18.7038 24.1365 19.0904 23.9693C19.397 23.8368 20.4615 23.3755 20.897 22.3614C21.2183 21.6123 21.1298 20.7181 20.7573 20.043C20.017 18.7024 18.3483 18.5738 17.8709 18.5368C16.0103 18.3935 14.6778 19.5322 14.3724 19.8081L14.3718 19.8064Z" fill="#1E1E1E"/>
<path d="M15.7085 18.5837C15.5433 18.7105 15.361 18.8663 15.1759 19.0557C14.9585 19.2787 14.7859 19.4966 14.6513 19.6905C14.9046 19.6137 15.1578 19.5369 15.411 19.4596C15.2486 19.6467 15.0675 19.885 14.8955 20.1774C14.741 20.4402 14.6292 20.6882 14.5469 20.9026C14.7938 20.7797 15.0613 20.6575 15.3502 20.5403C15.5762 20.4487 15.7942 20.3679 16.0037 20.2974C15.8907 20.5312 15.7675 20.8389 15.6824 21.212C15.5859 21.6358 15.5694 22.0078 15.5779 22.2893C15.8533 22.2893 16.14 22.2825 16.4369 22.2688C16.7367 22.2552 17.0257 22.2347 17.3028 22.2097C17.0581 22.5379 16.8077 22.9241 16.5789 23.3728C16.4999 23.5275 16.429 23.6794 16.3648 23.8273C16.71 23.5509 17.1648 23.2466 17.7354 22.9952C17.9704 22.8916 18.1958 22.8103 18.4065 22.746C18.5115 22.7022 18.6336 22.659 18.7721 22.6226C18.8828 22.5936 18.9861 22.5743 19.0804 22.5606C18.8839 22.7415 18.587 23.0668 18.407 23.5554C18.3361 23.7482 18.2975 23.9274 18.277 24.0815C18.5007 23.8279 18.8544 23.4855 19.3631 23.1942C19.8043 22.9417 20.0189 22.9337 20.4055 22.7682C20.7127 22.6368 21.7795 22.1812 22.2201 21.1694C22.5454 20.422 22.4614 19.5273 22.0918 18.8504C21.3582 17.5058 19.6902 17.3687 19.2127 17.3295C17.3527 17.177 16.0145 18.3089 15.7079 18.5831L15.7085 18.5837Z" fill="#727272"/>
<path d="M26.4468 18.0924C26.9458 18.4866 27.2598 18.9007 27.425 19.1464C27.6067 19.416 27.7316 19.6628 27.8162 19.8517C27.7316 19.8045 27.6158 19.784 27.4875 19.7447C27.4034 19.7186 27.2961 19.7157 27.2269 19.7049C27.09 19.8625 27.0548 19.9074 26.8482 19.9632C26.6063 20.0286 26.407 20.0024 26.3094 19.974C25.8626 19.8437 25.5985 19.4951 25.4646 19.3136C25.1063 18.8279 25.0177 18.3239 24.957 17.9804C24.9065 17.692 24.8951 17.4497 24.8945 17.2842C25.2829 17.4019 25.8626 17.6311 26.4468 18.0924Z" fill="white"/>
<path d="M33.25 21.8459C33.6696 21.805 34.1101 21.7743 34.57 21.7566C34.8448 21.7464 34.8051 21.7413 35.0662 21.7407" fill="#1E1E1E"/>
<path d="M33.25 21.8459C33.6696 21.805 34.1101 21.7743 34.57 21.7566C34.8448 21.7464 34.8051 21.7413 35.0662 21.7407" stroke="white" stroke-width="0.5" stroke-linecap="round" stroke-linejoin="round"/>
</g>
<defs>
<clipPath id="clip0_2235_73134">
<rect width="47" height="48" fill="white"/>
</clipPath>
</defs>
</svg>
