<svg width="47" height="48" viewBox="0 0 47 48" fill="none" xmlns="http://www.w3.org/2000/svg">
<path d="M23.5013 4.4165C34.3172 4.4165 43.0846 13.184 43.0846 23.9998C43.0846 34.8157 34.3172 43.5832 23.5013 43.5832C12.6854 43.5832 3.91797 34.8157 3.91797 23.9998C3.91797 13.184 12.6854 4.4165 23.5013 4.4165ZM23.5013 31.8332C22.9819 31.8332 22.4838 32.0395 22.1166 32.4068C21.7493 32.774 21.543 33.2721 21.543 33.7915C21.543 34.3109 21.7493 34.809 22.1166 35.1763C22.4838 35.5435 22.9819 35.7498 23.5013 35.7498C24.0207 35.7498 24.5188 35.5435 24.8861 35.1763C25.2533 34.809 25.4596 34.3109 25.4596 33.7915C25.4596 33.2721 25.2533 32.774 24.8861 32.4068C24.5188 32.0395 24.0207 31.8332 23.5013 31.8332ZM23.5013 13.229C21.6185 13.229 19.8129 13.9769 18.4816 15.3082C17.1503 16.6396 16.4023 18.4452 16.4023 20.328C16.4023 20.8473 16.6087 21.3455 16.9759 21.7127C17.3432 22.08 17.8413 22.2863 18.3607 22.2863C18.8801 22.2863 19.3782 22.08 19.7454 21.7127C20.1127 21.3455 20.319 20.8473 20.319 20.328C20.3197 19.7503 20.4775 19.1838 20.7757 18.689C21.0738 18.1943 21.501 17.79 22.0114 17.5196C22.5218 17.2491 23.0962 17.1227 23.673 17.1539C24.2498 17.185 24.8073 17.3726 25.2856 17.6965C25.7639 18.0204 26.145 18.4683 26.3881 18.9923C26.6312 19.5163 26.727 20.0966 26.6654 20.6709C26.6038 21.2453 26.3871 21.792 26.0384 22.2525C25.6897 22.7131 25.2222 23.07 24.6861 23.285C23.3623 23.8138 21.543 25.169 21.543 27.4269V27.9165C21.543 28.4359 21.7493 28.934 22.1166 29.3013C22.4838 29.6685 22.9819 29.8748 23.5013 29.8748C24.0207 29.8748 24.5188 29.6685 24.8861 29.3013C25.2533 28.934 25.4596 28.4359 25.4596 27.9165C25.4596 27.4387 25.5576 27.1998 25.9708 26.9961L26.1411 26.9178C27.6702 26.3026 28.9377 25.1747 29.7263 23.7275C30.5149 22.2802 30.7755 20.6037 30.4634 18.9853C30.1513 17.3669 29.286 15.9075 28.0157 14.8573C26.7455 13.8071 25.1495 13.2314 23.5013 13.229Z" fill="#727272"/>
</svg>
