<svg width="24" height="24" viewBox="0 0 24 24" fill="none" xmlns="http://www.w3.org/2000/svg">
<path d="M5.82484 13.9365L5.2815 13.4195L5.82484 13.9365ZM18.1752 13.9365L17.6318 14.4535L18.1752 13.9365ZM12 4V4.75C14.3472 4.75 16.25 6.65279 16.25 9H17H17.75C17.75 5.82436 15.1756 3.25 12 3.25V4ZM17 9H16.25V11.76H17H17.75V9H17ZM18.1752 13.9365L17.6318 14.4535C18.0156 14.8568 18.25 15.3998 18.25 16H19H19.75C19.75 14.9995 19.3568 14.0903 18.7185 13.4195L18.1752 13.9365ZM18 17V16.25H6V17V17.75H18V17ZM5 16H5.75C5.75 15.3998 5.98436 14.8568 6.36817 14.4535L5.82484 13.9365L5.2815 13.4195C4.64319 14.0903 4.25 14.9995 4.25 16H5ZM7 11.76H7.75V9H7H6.25V11.76H7ZM7 9H7.75C7.75 6.65279 9.65279 4.75 12 4.75V4V3.25C8.82436 3.25 6.25 5.82436 6.25 9H7ZM6 17V16.25C5.86193 16.25 5.75 16.1381 5.75 16H5H4.25C4.25 16.9665 5.0335 17.75 6 17.75V17ZM19 16H18.25C18.25 16.1381 18.1381 16.25 18 16.25V17V17.75C18.9665 17.75 19.75 16.9665 19.75 16H19ZM5.82484 13.9365L6.36817 14.4535C6.93465 13.8581 7.75 12.942 7.75 11.76H7H6.25C6.25 12.2727 5.88327 12.787 5.2815 13.4195L5.82484 13.9365ZM17 11.76H16.25C16.25 12.942 17.0654 13.8581 17.6318 14.4535L18.1752 13.9365L18.7185 13.4195C18.1167 12.787 17.75 12.2727 17.75 11.76H17Z" fill="#737373"/>
<path d="M13.7976 19.8767C13.6312 20.2179 13.3712 20.5046 13.048 20.7035C12.7247 20.9023 12.3516 21.0051 11.9721 20.9998C11.5926 20.9945 11.2224 20.8813 10.9049 20.6735C10.5873 20.4657 10.3354 20.1718 10.1786 19.8262" stroke="#737373" stroke-width="1.5" stroke-linecap="round" stroke-linejoin="round"/>
<path d="M12 3V4" stroke="#737373" stroke-width="2" stroke-linecap="round" stroke-linejoin="round"/>
</svg>
