<svg width="20" height="20" viewBox="0 0 20 20" fill="none" xmlns="http://www.w3.org/2000/svg">
<path d="M5.83203 6.53349C5.83203 5.41339 5.83203 4.85334 6.05002 4.42552C6.24176 4.04919 6.54773 3.74323 6.92405 3.55148C7.35187 3.3335 7.91193 3.3335 9.03203 3.3335H10.9654C12.0855 3.3335 12.6455 3.3335 13.0733 3.55148C13.4497 3.74323 13.7556 4.04919 13.9474 4.42552C14.1654 4.85334 14.1654 5.41339 14.1654 6.5335V16.6668L12.1247 14.8529C11.3724 14.1842 10.9963 13.8499 10.5719 13.7229C10.1979 13.6111 9.79946 13.6111 9.42553 13.7229C9.00109 13.8499 8.62497 14.1842 7.87273 14.8529L5.83203 16.6668V6.53349Z" stroke="#737373" stroke-width="1.5" stroke-linecap="round" stroke-linejoin="round"/>
</svg>
