<svg width="28" height="29" viewBox="0 0 28 29" fill="none" xmlns="http://www.w3.org/2000/svg">
<path d="M22.4008 7.17598V6.47598C22.4008 5.31398 21.4628 4.37598 20.3008 4.37598C19.1388 4.37598 18.2008 5.31398 18.2008 6.47598V7.17598H9.80078V6.47598C9.80078 5.31398 8.86278 4.37598 7.70078 4.37598C6.53878 4.37598 5.60078 5.31398 5.60078 6.47598V7.17598C4.06078 7.17598 2.80078 8.43598 2.80078 9.97598V12.776V14.176V22.576C2.80078 24.116 4.06078 25.376 5.60078 25.376H22.4008C23.9408 25.376 25.2008 24.116 25.2008 22.576V9.97598C25.2008 8.43598 23.9408 7.17598 22.4008 7.17598ZM19.6008 8.57598V7.17598V6.47598C19.6008 6.08398 19.9088 5.77598 20.3008 5.77598C20.6928 5.77598 21.0008 6.08398 21.0008 6.47598V7.17598V8.57598V9.27598C21.0008 9.66798 20.6928 9.97598 20.3008 9.97598C19.9088 9.97598 19.6008 9.66798 19.6008 9.27598V8.57598ZM7.00078 8.57598V7.17598V6.47598C7.00078 6.08398 7.30878 5.77598 7.70078 5.77598C8.09278 5.77598 8.40078 6.08398 8.40078 6.47598V7.17598V8.57598V9.27598C8.40078 9.66798 8.09278 9.97598 7.70078 9.97598C7.30878 9.97598 7.00078 9.66798 7.00078 9.27598V8.57598ZM23.8008 22.576C23.8008 23.346 23.1708 23.976 22.4008 23.976H5.60078C4.83078 23.976 4.20078 23.346 4.20078 22.576V14.176H23.8008V22.576ZM23.8008 12.776H4.20078V9.97598C4.20078 9.20598 4.83078 8.57598 5.60078 8.57598V9.27598C5.60078 10.438 6.53878 11.376 7.70078 11.376C8.86278 11.376 9.80078 10.438 9.80078 9.27598V8.57598H18.2008V9.27598C18.2008 10.438 19.1388 11.376 20.3008 11.376C21.4628 11.376 22.4008 10.438 22.4008 9.27598V8.57598C23.1708 8.57598 23.8008 9.20598 23.8008 9.97598V12.776Z" fill="#7C8292"/>
<path d="M7.7 18.3762C8.092 18.3762 8.4 18.0682 8.4 17.6762V16.2762C8.4 15.8842 8.092 15.5762 7.7 15.5762C7.308 15.5762 7 15.8842 7 16.2762V17.6762C7 18.0682 7.308 18.3762 7.7 18.3762Z" fill="#7C8292"/>
<path d="M11.9012 18.3762C12.2932 18.3762 12.6012 18.0682 12.6012 17.6762V16.2762C12.6012 15.8842 12.2932 15.5762 11.9012 15.5762C11.5092 15.5762 11.2012 15.8842 11.2012 16.2762V17.6762C11.2012 18.0682 11.5092 18.3762 11.9012 18.3762Z" fill="#7C8292"/>
<path d="M16.1004 18.3762C16.4924 18.3762 16.8004 18.0682 16.8004 17.6762V16.2762C16.8004 15.8842 16.4924 15.5762 16.1004 15.5762C15.7084 15.5762 15.4004 15.8842 15.4004 16.2762V17.6762C15.4004 18.0682 15.7084 18.3762 16.1004 18.3762Z" fill="#7C8292"/>
<path d="M20.3016 18.3762C20.6936 18.3762 21.0016 18.0682 21.0016 17.6762V16.2762C21.0016 15.8842 20.6936 15.5762 20.3016 15.5762C19.9096 15.5762 19.6016 15.8842 19.6016 16.2762V17.6762C19.6016 18.0682 19.9096 18.3762 20.3016 18.3762Z" fill="#7C8292"/>
<path d="M7.7 22.5764C8.092 22.5764 8.4 22.2684 8.4 21.8764V20.4764C8.4 20.0844 8.092 19.7764 7.7 19.7764C7.308 19.7764 7 20.0844 7 20.4764V21.8764C7 22.2684 7.308 22.5764 7.7 22.5764Z" fill="#7C8292"/>
<path d="M11.9012 22.5764C12.2932 22.5764 12.6012 22.2684 12.6012 21.8764V20.4764C12.6012 20.0844 12.2932 19.7764 11.9012 19.7764C11.5092 19.7764 11.2012 20.0844 11.2012 20.4764V21.8764C11.2012 22.2684 11.5092 22.5764 11.9012 22.5764Z" fill="#7C8292"/>
<path d="M16.1004 22.5764C16.4924 22.5764 16.8004 22.2684 16.8004 21.8764V20.4764C16.8004 20.0844 16.4924 19.7764 16.1004 19.7764C15.7084 19.7764 15.4004 20.0844 15.4004 20.4764V21.8764C15.4004 22.2684 15.7084 22.5764 16.1004 22.5764Z" fill="#7C8292"/>
<path d="M20.3016 22.5764C20.6936 22.5764 21.0016 22.2684 21.0016 21.8764V20.4764C21.0016 20.0844 20.6936 19.7764 20.3016 19.7764C19.9096 19.7764 19.6016 20.0844 19.6016 20.4764V21.8764C19.6016 22.2684 19.9096 22.5764 20.3016 22.5764Z" fill="#7C8292"/>
</svg>
