<svg width="20" height="21" viewBox="0 0 20 21" fill="none" xmlns="http://www.w3.org/2000/svg">
<path d="M8.27934 3.07193C9.07267 1.79786 10.9273 1.79786 11.7207 3.07193C12.1792 3.80832 13.0555 4.17129 13.9004 3.97481C15.3623 3.63488 16.6737 4.94632 16.3338 6.40819C16.1373 7.25312 16.5003 8.12941 17.2367 8.58794C18.5107 9.38127 18.5107 11.2359 17.2367 12.0293C16.5003 12.4878 16.1373 13.3641 16.3338 14.209C16.6737 15.6709 15.3623 16.9823 13.9004 16.6424C13.0555 16.4459 12.1792 16.8089 11.7207 17.5453C10.9273 18.8193 9.07267 18.8193 8.27934 17.5453C7.82082 16.8089 6.94452 16.4459 6.0996 16.6424C4.63772 16.9823 3.32628 15.6709 3.66622 14.209C3.8627 13.3641 3.49972 12.4878 2.76334 12.0293C1.48927 11.2359 1.48927 9.38127 2.76334 8.58794C3.49972 8.12941 3.8627 7.25312 3.66622 6.40819C3.32628 4.94632 4.63772 3.63488 6.0996 3.97482C6.94452 4.17129 7.82082 3.80832 8.27934 3.07193Z" fill="#FCB300"/>
<path d="M7.24023 10.3768L9.03503 12.1716L12.7603 8.44629" stroke="white" stroke-width="1.3" stroke-linecap="round" stroke-linejoin="round"/>
</svg>
