<svg width="100" height="100" viewBox="0 0 100 100" fill="none" xmlns="http://www.w3.org/2000/svg">
<g clip-path="url(#clip0_94_16188)">
<path d="M83.0529 30.3958C82.1299 28.7783 81.0948 27.2335 79.9589 25.7717C87.6659 16.2735 94.2291 7.45087 96.4269 3.09891C92.2587 5.39979 83.6029 12.1456 74.3602 19.931C73.0462 18.8175 71.6583 17.7892 70.2031 16.8549C75.169 10.5448 79.1546 5.00996 80.6747 2C77.5651 3.71614 71.507 8.35375 64.7579 13.9402C59.9847 11.8555 54.712 10.6983 49.1704 10.6983C27.6424 10.6983 10.1909 28.1498 10.1909 49.6777C10.1909 55.5745 11.5004 61.1653 13.8439 66.176C8.98111 72.309 5.04587 77.6871 3.57617 80.557C6.18959 79.1344 11.0098 75.5094 16.5458 71.0197C17.6156 72.6529 18.8063 74.1999 20.1024 75.6506C13.2076 84.1876 7.40164 91.9539 5.41441 95.8331C9.23204 93.7552 17.0353 87.6994 25.4961 80.65C27.0667 81.8531 28.7324 82.9386 30.4788 83.8941C26.1929 89.3438 22.7685 94.0666 21.4433 96.6554C24.199 95.1554 29.5177 91.097 35.4928 86.1916C39.7484 87.7868 44.3569 88.6594 49.1692 88.6594C70.6971 88.6594 88.1487 71.2079 88.1487 49.68C88.1487 44.6357 87.1909 39.8144 85.4456 35.3897C90.09 29.4728 93.8056 24.2997 95.2373 21.4656C92.7381 22.8446 88.2506 26.1951 83.0518 30.3981L83.0529 30.3958Z" fill="#FCB300"/>
<path d="M49.1697 77.2098C64.3747 77.2098 76.7007 64.8837 76.7007 49.6787C76.7007 34.4738 64.3747 22.1477 49.1697 22.1477C33.9647 22.1477 21.6387 34.4738 21.6387 49.6787C21.6387 64.8837 33.9647 77.2098 49.1697 77.2098Z" fill="#1E1E1E"/>
<path d="M60.8581 41.6763C60.988 41.6752 61.8427 41.664 62.2314 41.0837C62.4532 40.7521 62.4443 40.3545 62.4342 40.2156C62.4028 39.7977 62.2034 39.4998 62.1015 39.3519C61.0474 37.8172 60.2509 36.9479 60.2509 36.9479C59.8443 36.5044 59.1509 35.7471 58.8339 35.401C56.8254 33.3286 54.8953 31.7446 53.2957 30.5718C53.0929 30.4228 49.59 27.8766 45.6895 26.1033C44.7743 25.6877 44.0283 25.3494 43.4155 25.0851C42.7916 25.1725 42.2819 25.2083 41.938 25.2251C41.5022 25.2464 41.3813 25.2341 40.2812 25.2531C40.1692 25.2554 39.6998 25.2621 39.1285 25.2789C38.1831 25.3058 37.7104 25.3203 37.5199 25.3371C37.1032 25.3741 36.3269 25.4435 35.582 25.7135C35.1989 25.8524 33.7214 26.3867 32.9507 27.8676C32.9507 27.8676 32.3603 29.0002 32.5026 30.7309C32.5272 31.0356 32.5866 31.3111 32.5888 31.3234C32.721 31.9328 32.9507 32.3585 33.0806 32.596C33.1747 32.7685 33.2744 32.9264 33.3763 33.0743C33.4514 33.1774 33.5489 33.3073 33.6654 33.4529C33.7707 33.584 33.8524 33.6792 33.914 33.7487C34.1426 34.013 34.2602 34.1475 34.4036 34.2561C34.426 34.2729 34.4013 34.2673 34.6433 34.4174C34.8651 34.5541 35.1407 34.7255 35.4846 35.1131C35.8027 35.4727 36.0939 35.8322 36.2071 36.2478C36.6798 36.0227 37.1178 35.5791 37.2309 34.9977C37.3777 34.2449 36.905 33.6411 36.8187 33.5336C36.7212 33.5202 36.5521 33.4899 36.3617 33.4081C34.9984 32.8256 34.2042 30.3814 35.0958 28.8187C35.5394 28.0402 36.2732 27.7063 36.3639 27.666C38.5158 26.7273 41.444 28.8075 42.9148 30.5292C43.8569 31.6326 44.3296 32.7383 44.5637 33.3924C44.7743 33.3062 45.0409 33.2099 45.3546 33.1292C45.3546 33.1292 45.8744 32.9959 46.4289 32.9589C48.3388 32.8301 51.4171 34.4914 51.4171 34.4914C52.4902 35.0705 53.2374 35.5914 54.063 36.1683C55.0028 36.8247 55.9012 37.452 56.9116 38.3661C59.1341 40.3769 59.6024 41.6931 60.8592 41.6774L60.8581 41.6763Z" fill="#FCB300"/>
<path d="M69.0807 35.8939C69.5736 37.2527 69.9814 38.6529 70.2939 40.0632C70.537 39.7014 70.7498 39.3205 70.9268 38.9262C71.2942 38.1118 71.516 37.2437 71.59 36.3419C71.59 36.1605 71.581 35.9667 71.5586 35.7628C71.5127 35.3259 71.4219 34.9506 71.3267 34.6493C71.5877 34.2259 71.9227 33.6064 72.1949 32.8133C72.41 32.1838 72.7595 31.1622 72.6732 29.9983C72.6508 29.7014 72.4189 27.0589 70.4743 26.0899C69.9814 25.8446 69.4683 25.7505 68.9542 25.7505C68.0121 25.7505 67.0666 26.0664 66.2343 26.3498C65.5252 26.5918 64.9663 26.8763 64.582 27.0958C64.9831 27.7668 65.542 28.7224 66.1783 29.8874C67.3736 32.074 68.2876 33.714 69.0807 35.8961V35.8939ZM69.7372 29.8112C70.0083 28.5185 70.2659 28.234 70.4821 28.0827C70.5829 28.0122 70.7778 27.8766 71.0243 27.8945C71.6213 27.9371 71.9675 28.8389 72.0291 29.0013C72.3652 29.875 72.1635 30.6917 71.8633 31.8063C71.7087 32.3764 71.4589 33.1483 71.0388 34.0254C70.761 33.4126 70.5112 32.9511 70.3298 32.6374C70.2166 32.4414 70.0463 32.1558 69.8234 31.7267C69.6935 31.4758 69.5927 31.2663 69.5266 31.1263C69.5859 30.5886 69.6666 30.1417 69.7361 29.8101L69.7372 29.8112Z" fill="#FCB300"/>
<path d="M65.0215 53.8683C64.9364 53.8683 64.8535 53.8683 64.7717 53.8683C63.9238 53.8638 61.6722 53.8526 59.835 52.1387C58.9882 51.3479 58.4919 50.4427 58.1996 49.6564L58.1816 49.6586C58.2074 49.9465 58.2421 50.3352 58.2679 50.6343C58.409 52.2317 58.4875 53.1458 58.5065 53.3676C58.5849 54.2514 58.7552 55.5833 59.1596 57.5045C59.5449 59.1444 59.3511 59.5376 59.8082 59.9835C60.1173 60.2848 60.655 60.3621 61.5713 60.3621C61.9701 60.3621 62.4417 60.3475 62.9974 60.3296C65.2389 60.259 65.7239 59.9241 65.9692 59.5903C66.0801 59.439 66.1899 59.1769 66.4095 58.6527C66.6951 57.9727 66.8519 57.4529 66.9012 57.2939C67.2597 56.1221 67.7279 55.618 68.2746 54.518C68.549 53.9658 68.8661 53.2164 69.1226 52.2586C69.0184 52.3908 68.903 52.5207 68.7753 52.6462C67.6014 53.7966 66.1485 53.8705 65.0204 53.8705L65.0215 53.8683Z" fill="#1E1E1E"/>
<path d="M64.0046 60.9446C61.4897 61.2672 60.2329 61.4274 59.395 60.7755C59.0365 60.4965 59.0768 60.333 58.7733 59.2666C58.5582 58.5127 58.4641 58.6202 58.137 57.3264C57.9891 56.7394 58.0205 56.1547 58.1157 54.8608C58.2501 53.0372 58.3106 52.8613 58.3554 52.8389C58.3577 52.8378 58.361 52.8378 58.3655 52.8355C58.6982 52.7392 59.0343 52.9845 59.1138 53.0416C59.386 53.2388 59.4935 53.5301 59.6347 53.9748C60.001 55.1319 60.1444 55.8836 60.1444 55.8836C60.2732 56.5624 60.2698 56.6565 60.3819 57.304C60.4513 57.7039 60.5611 58.2461 60.7403 58.8868C60.9364 58.8151 61.2276 58.6796 61.4998 58.4163C61.5446 58.3727 61.7015 58.2169 61.9457 57.8014C62.0913 57.5538 62.275 57.2032 62.4397 56.7529C62.7298 57.1785 62.7948 57.5515 62.8116 57.7465C62.834 57.9963 62.8026 58.2293 62.7791 58.4085C62.7455 58.665 62.6928 58.8767 62.6491 59.0268C62.7847 59.0291 62.9583 59.0302 63.1588 59.0235C63.4781 59.0123 63.785 59.0033 64.1446 58.9406C64.3776 58.9003 64.6969 58.8252 65.0676 58.6807C65.267 58.4656 65.5325 58.1285 65.7398 57.6613C65.9067 57.2849 65.984 56.9433 66.022 56.6856C66.1262 56.8245 66.2685 57.0508 66.3581 57.3578C66.469 57.7364 66.5978 58.0601 66.5721 58.2472C66.7322 58.0937 66.6841 58.0747 66.7479 58.0948C67.0336 58.1856 67.131 59.2038 66.6751 59.9353C66.4813 60.2456 66.1621 60.6657 64.0035 60.9424L64.0046 60.9446Z" fill="white"/>
<path d="M60.5898 57.1551C60.5607 56.4998 60.4823 55.8467 60.358 55.2127C60.2392 54.61 60.1059 54.1608 60.0085 53.8315C59.8528 53.3061 59.7553 53.0765 59.7138 52.9779C59.6074 52.7247 59.4842 52.4772 59.3464 52.2419L58.998 51.6471L59.6511 51.4276C59.9379 51.3312 60.647 51.0949 61.0334 50.9851C61.0693 50.975 61.1645 50.9481 61.2922 50.9279C61.4109 50.9089 61.5588 50.8854 61.7123 50.8854C61.8982 50.8854 62.0562 50.919 62.1951 50.9896C62.8571 51.3223 62.8224 52.2856 62.8011 52.8603C62.7966 52.9712 62.7933 53.0541 62.7921 53.0709L62.7899 53.1045C62.7025 54.3524 62.6454 55.1768 62.3127 56.0853C62.1402 56.5569 61.9049 57.014 61.6137 57.4441L60.666 58.8421L60.5898 57.1551Z" fill="white"/>
<path d="M61.7126 51.4466C61.7977 51.4466 61.8783 51.4578 61.9444 51.4914C62.2671 51.6538 62.2603 52.3439 62.2424 52.8413C62.239 52.9432 62.2357 53.0182 62.2346 53.0328C62.1483 54.2695 62.0957 55.0525 61.7876 55.8938C61.6711 56.2119 61.4796 56.6466 61.1502 57.1305C61.1144 56.3228 61.0124 55.6373 60.9083 55.1052C60.7873 54.4891 60.6529 54.032 60.5453 53.6724C60.3907 53.1538 60.2899 52.9029 60.2305 52.7617C60.0872 52.4201 59.9404 52.149 59.8295 51.9597C59.9953 51.9036 60.7817 51.6393 61.1849 51.5261C61.2186 51.5172 61.2869 51.4981 61.3799 51.4825C61.4852 51.4657 61.6028 51.4466 61.7126 51.4466ZM61.7126 50.3264C61.5154 50.3264 61.3362 50.3544 61.2051 50.3757C61.0393 50.4026 60.9183 50.4373 60.878 50.4485C60.4994 50.5549 59.834 50.7756 59.4722 50.8977L58.166 51.3368L58.8639 52.5254C58.9894 52.7393 59.1014 52.9645 59.1988 53.1941C59.2369 53.2837 59.3254 53.4954 59.4722 53.9906C59.5663 54.3076 59.6962 54.7422 59.8093 55.3202C59.9281 55.9274 60.0031 56.5525 60.0311 57.1798L60.1824 60.5538L62.0766 57.7578C62.3936 57.2907 62.6502 56.7922 62.8383 56.278C63.1979 55.2956 63.2607 54.3938 63.348 53.1448L63.3503 53.1101C63.3536 53.0575 63.3592 52.9107 63.3604 52.8816C63.385 52.2184 63.4298 50.984 62.4463 50.49C62.2301 50.3813 61.9836 50.3264 61.7114 50.3264H61.7126Z" fill="#1E1E1E"/>
<path d="M53.6712 47.7062C54.0319 47.2312 54.4991 46.7002 55.0939 46.176C55.4031 45.9038 55.7066 45.6696 55.9945 45.468C55.3403 44.8721 54.4968 44.1462 53.4763 43.3688C53.0238 43.0237 51.5731 41.936 49.4201 40.6792C47.2693 39.4234 46.0562 38.7155 44.4072 38.2898C43.911 38.161 43.035 37.9705 42.0671 37.8171C41.2449 37.686 40.7453 37.6065 40.0497 37.5785C39.1994 37.5437 38.5363 37.621 37.2077 37.7734C36.0551 37.9056 35.6697 38.0064 35.3605 38.1072C34.7545 38.3044 34.2795 38.5542 33.9536 38.7502C33.874 38.5598 33.6556 37.9627 33.8886 37.2973C33.9502 37.1226 34.0936 36.7204 34.4453 36.4885C34.3927 36.4224 34.3232 36.3384 34.2258 36.2275C34.0465 36.0248 33.9379 35.9587 33.7598 35.8478C33.4528 35.6573 32.6609 35.1712 32.2834 34.7511C27.1439 39.9645 25.9061 41.7613 25.6462 42.3863C25.6092 42.4748 25.5958 43.5469 25.0827 44.5338C24.9427 44.8037 24.8464 44.974 24.7792 45.0972C24.4566 45.6853 24.2056 46.2365 23.3688 48.3077C22.9813 49.2688 22.7247 49.9174 22.5007 50.8449C22.5007 50.8449 22.187 52.1466 22.4357 52.2329C22.597 52.2889 23.2803 51.7243 23.38 51.703C23.38 51.703 23.3834 51.703 23.3868 51.7019C23.4193 51.6952 23.4876 51.666 23.5201 51.666C23.5279 51.666 23.5335 51.6683 23.5369 51.6716C23.5526 51.6974 23.4428 51.7881 23.4271 51.8016C23.2658 51.9405 22.9891 52.4838 22.8872 53.3004C22.7639 54.2895 22.9566 55.2059 23.0675 55.6394C23.2691 55.3862 23.5503 55.0793 23.9267 54.7802C24.2986 54.4833 24.6571 54.2795 24.9461 54.1406C24.6761 55.0233 24.5114 55.7996 24.4061 56.419C24.1463 57.9537 23.883 59.606 24.4061 61.4958C24.6335 62.3169 24.9517 62.9755 25.2261 63.455C25.4255 63.2679 25.626 63.082 25.8254 62.8949C25.8546 63.2209 25.9173 63.6734 26.0652 64.1943C26.222 64.7443 26.4583 65.3201 26.6645 65.6539C27.4867 66.9802 29.5187 67.1987 29.8828 67.2334C30.22 64.7768 30.929 62.9128 31.4813 61.7164C33.1392 58.1273 35.5207 55.9396 37.238 54.3612C38.2103 53.4684 39.1098 52.6507 40.5157 51.8027C41.7356 51.0679 43.6545 49.9118 46.3519 49.6441C46.5994 49.6194 46.8179 49.606 47.0352 49.606C47.0856 49.606 47.136 49.606 47.1875 49.6082C47.6043 49.6206 47.9907 49.6407 48.4086 49.6855C51.2158 49.988 54.6133 51.2056 54.6133 51.2056C55.7414 51.5966 55.9576 51.7232 56.1211 51.8307C56.1682 51.8621 56.213 51.8946 56.2589 51.9271C55.943 51.1911 55.5453 50.3532 54.9147 49.3831C54.4375 48.6494 53.986 48.0825 53.6701 47.7095L53.6712 47.7062Z" fill="#FCB300"/>
<path d="M73.6183 40.2658C73.2956 39.8346 73.0582 39.4862 72.7165 38.9742C72.637 39.1904 72.553 39.4055 72.4577 39.6161C72.2539 40.0698 72.0108 40.5078 71.7363 40.9256C71.9884 41.1441 72.1642 41.3423 72.2751 41.4678C72.74 41.9965 73.0212 42.5085 73.1747 42.8445C73.4726 43.4965 73.6362 44.1955 73.6642 44.9236C73.7056 44.9538 73.746 44.9863 73.7818 45.0233C73.9229 45.0547 74.0921 45.0793 74.2814 45.0793C74.4024 45.0793 74.5301 45.0692 74.6656 45.0457C74.79 45.0233 74.9031 44.9919 75.0028 44.9572C74.921 44.7634 74.8281 44.5607 74.7239 44.3512C74.6108 44.126 74.4954 43.9165 74.3822 43.7227C74.5951 43.6264 74.8113 43.5245 75.0308 43.4181C75.2403 43.3161 75.4453 43.2142 75.6436 43.1111C75.5282 42.9072 75.3512 42.6059 75.1216 42.2542C74.6432 41.5227 74.4035 41.3166 73.6171 40.2658H73.6183Z" fill="#FCB300"/>
<path d="M67.3777 57.0161C67.3777 57.0161 67.4236 56.959 67.4426 56.8593L66.3426 56.6475C66.4692 55.9889 66.5241 55.3257 66.5039 54.6771C66.4938 54.35 66.4647 54.0353 66.4177 53.7429C66.3953 53.6062 66.3729 53.4684 66.3404 53.3654C66.3359 53.3497 66.3292 53.334 66.3236 53.3183C66.2754 53.1895 66.1847 52.9487 66.2687 52.6563C66.4535 52.0144 67.1312 51.9562 67.8504 51.8946L67.9277 51.8867C68.0184 51.8778 68.1204 51.8677 68.2301 51.8677C68.369 51.8677 68.4923 51.8845 68.6065 51.9181C69.3873 52.1466 69.1285 53.2298 69.0188 53.6925C69.0064 53.7429 68.9818 53.8448 68.9818 53.8448C68.7421 54.8115 68.266 55.7928 67.5278 56.8447C67.4897 56.8985 67.4494 56.941 67.4146 56.978C67.4023 56.9903 67.39 57.0026 67.3788 57.0161H67.3777Z" fill="white"/>
<path d="M68.2303 52.4278C68.3053 52.4278 68.3793 52.4345 68.4498 52.4558C68.6974 52.5286 68.5596 53.2074 68.4745 53.5625C68.4599 53.6219 68.4476 53.6734 68.4386 53.7104C68.1743 54.7735 67.6287 55.7279 67.0698 56.5232C67.0283 56.5826 66.9084 56.6767 66.8939 56.754C67.0261 56.0651 67.0866 55.3537 67.0653 54.6603C67.0552 54.3187 67.0249 53.9804 66.9712 53.6522C66.9465 53.4987 66.9196 53.3396 66.876 53.1985C66.8401 53.082 66.7651 52.9565 66.8076 52.8098C66.8838 52.5432 67.2602 52.5062 67.8987 52.4502C68.0051 52.4412 68.1194 52.4255 68.2314 52.4255" fill="#1E1E1E"/>
<path d="M71.6483 43.5434C71.5609 43.3518 71.3626 42.9732 71.0154 42.5778C70.8854 42.4299 70.6894 42.207 70.3769 41.9931C70.0778 41.7881 69.7417 41.6402 69.3799 41.5517L68.8624 41.4251L68.7548 40.9031C68.4468 39.402 68.0256 37.9088 67.5013 36.466C67.0902 35.3335 66.324 33.2242 64.7636 30.7911C63.6512 29.057 62.2308 27.351 60.6558 25.8578C59.1738 24.453 57.5305 23.2163 55.7684 22.1723C54.9999 21.983 53.3656 21.6481 51.2081 21.6481C49.6768 21.6481 47.8833 21.8172 45.9499 22.3269C45.8894 22.3426 45.8289 22.3594 45.7695 22.3762C49.2119 23.7137 54.1945 26.2622 58.5308 31.1328C60.1797 32.9856 61.4343 34.8361 62.3921 36.5119C63.0429 37.4719 63.4227 38.3491 63.6501 38.9842C63.8517 39.5477 64.087 40.2254 64.1273 41.1529C64.1463 41.5875 64.1172 41.9527 64.0836 42.216C63.5067 42.347 62.3227 42.6988 61.2417 43.7126C60.8742 44.0576 60.1562 44.7465 59.7765 45.8925C59.2388 47.5167 59.7484 48.9483 59.94 49.4177C59.9344 49.4177 59.9277 49.4188 59.9221 49.4199C60.1484 49.9128 60.4833 50.4393 60.984 50.9064C62.3395 52.1723 63.9895 52.1801 64.7815 52.1846C65.7426 52.1902 66.8326 52.1947 67.6021 51.4419C68.0558 50.9972 68.2619 50.4371 68.3538 49.9733C68.3347 49.942 68.3179 49.9106 68.2978 49.8792C68.0614 49.5062 67.7814 49.2038 67.4475 48.9192C67.2033 48.7109 66.9356 48.4891 66.613 48.4185C66.3498 48.3614 66.0607 48.4017 65.7919 48.3782C65.2072 48.3266 64.6672 48.069 64.5171 47.4607C64.3771 46.8939 64.535 46.4301 64.8465 46.0627C65.3483 45.4724 66.1526 45.1744 66.8897 45.0142C68.542 44.6546 70.2805 44.723 71.9653 44.6793C71.9194 44.2816 71.8129 43.8996 71.6483 43.54V43.5434Z" fill="white"/>
<path d="M69.8504 51.1028C69.819 51.1151 69.7877 51.1274 69.7563 51.1397C69.7204 51.2305 69.6812 51.3223 69.6387 51.4142C69.7989 51.4679 69.9904 51.5094 70.2044 51.5094C70.2772 51.5094 70.3522 51.5049 70.4295 51.4937C70.8362 51.4366 71.2002 51.2293 71.6293 50.7846C72.2622 50.1315 72.6666 49.3496 72.9376 48.6058C72.1658 49.7126 71.0781 50.63 69.8515 51.1028H69.8504Z" fill="white"/>
<path d="M77.1081 42.2834C76.9267 41.963 76.7318 41.6437 76.5301 41.3346C76.2064 40.8394 75.9644 40.537 75.6844 40.1864C75.4928 39.9455 75.2755 39.6733 74.9652 39.2588C74.6146 38.7895 74.3715 38.4254 73.9302 37.7623L73.882 37.6894C73.6725 37.3747 73.4653 37.0565 73.2614 36.7373C73.267 36.6342 73.2692 36.5312 73.2704 36.4281C73.2827 36.2679 73.2916 36.1055 73.2961 35.9431H73.2592C73.2524 35.8232 73.2435 35.7033 73.2312 35.5846C73.2065 35.3516 73.1707 35.1197 73.1247 34.889C73.3846 34.395 73.6064 33.8808 73.7868 33.3543C74.0231 32.6643 74.4622 31.3783 74.3513 29.8716C74.3032 29.2241 73.929 25.9285 71.2249 24.582C70.5382 24.2393 69.7742 24.0656 68.9554 24.0656C67.7153 24.0656 66.547 24.4644 65.6934 24.7546C65.4133 24.8498 65.1366 24.9573 64.8644 25.0749C64.1094 24.4275 63.0027 23.5761 61.6002 22.7651C59.3609 21.4713 57.3121 20.8428 56.5346 20.6322C56.4943 20.621 56.454 20.611 56.4137 20.6009C56.2669 20.5639 56.1191 20.5281 55.9723 20.4911C54.5082 20.1506 52.8402 19.9646 51.2104 19.9646C49.2847 19.9646 47.3715 20.2122 45.5231 20.6994C43.8876 21.1307 42.2981 21.7524 40.7993 22.5455L38.8008 23.603C37.9629 23.6276 37.5899 23.6388 37.3726 23.659C36.9144 23.6993 35.9623 23.7845 35.0123 24.1284C32.9657 24.8699 31.952 26.147 31.4624 27.0868C31.3784 27.2492 30.6537 28.7178 30.8295 30.863C30.862 31.264 30.9348 31.6101 30.9494 31.6751C31.1365 32.5343 31.468 33.1392 31.6092 33.398C31.6562 33.4842 31.831 33.5895 31.7559 33.6534C26.1695 38.3884 22.744 43.9625 21.4468 50.5672C21.3975 50.8148 21.2619 51.0433 21.1723 51.2819L19.9121 54.6279L21.1757 54.1933C21.1992 54.9225 21.3213 55.5711 21.4434 56.0472L22.2791 59.3294L22.4281 59.1423C22.4236 60.0071 22.5166 60.9402 22.7921 61.9372C23.0173 62.7505 23.3466 63.5402 23.7734 64.284L24.8286 66.1245L24.9586 66.0024C25.0516 66.1984 25.1468 66.3776 25.242 66.5322C26.398 68.3974 28.7673 68.8085 29.7317 68.8992L31.3347 69.0493L31.5532 67.4541C31.7974 65.6786 32.288 63.9827 33.0128 62.4144C34.5307 59.1311 36.7554 57.0856 38.3808 55.5913C39.2646 54.7791 40.0991 54.0118 41.3885 53.2355C42.5087 52.56 44.2024 51.5395 46.5235 51.3099C46.7285 51.2897 46.8931 51.2797 47.041 51.2797C47.0757 51.2797 47.1093 51.2797 47.1441 51.2808C47.5832 51.2942 47.9091 51.3144 48.2351 51.3491C50.806 51.6269 54.022 52.7695 54.0545 52.7807L54.329 52.8793H54.3346C54.9977 53.1157 55.1624 53.1997 55.2027 53.2266C55.8614 53.6612 56.2098 54.349 56.7038 55.4289C56.9301 55.9229 57.2527 56.7339 57.5092 57.7925C57.6571 58.4007 57.7142 58.8163 57.7613 59.1501C57.8498 59.7853 57.9506 60.5056 58.6406 61.1799C59.4505 61.9708 60.5819 62.038 61.5778 62.038C62.0034 62.038 62.4918 62.0223 63.0564 62.0055C65.0974 61.9417 66.5234 61.6807 67.3311 60.5795C67.5596 60.2681 67.6951 59.9444 67.9662 59.298C68.2799 58.5497 68.4558 57.9751 68.5129 57.7869L68.5151 57.7801C68.691 57.2055 68.8994 56.847 69.1895 56.3508C69.3676 56.0438 69.5704 55.6966 69.7866 55.2608C70.1159 54.5988 70.3937 53.8964 70.6177 53.1627C70.6357 53.1605 70.6536 53.1582 70.6715 53.156C71.7178 53.0081 72.4123 52.3976 72.8447 51.9518C74.488 50.2547 74.8991 48.0244 75.0974 46.9523C75.1153 46.8549 75.1321 46.7574 75.1489 46.66C75.2901 46.6275 75.4301 46.5872 75.5668 46.5401L77.2571 45.9486L76.641 44.4913L77.9774 43.8035L77.1149 42.2811L77.1081 42.2834ZM66.2333 26.3475C67.1642 26.0081 67.983 25.7482 68.9531 25.7482C69.4673 25.7482 69.9803 25.8423 70.4732 26.0876C72.4179 27.0566 72.6509 29.6991 72.6722 29.9959C72.7573 31.1609 72.4089 32.1814 72.1939 32.811C71.9228 33.6041 71.5878 34.2247 71.3257 34.647C71.4209 34.9483 71.5117 35.3236 71.5576 35.7605C71.5789 35.9643 71.5878 36.1581 71.5889 36.3396C71.515 37.2414 71.2932 38.1095 70.9258 38.9239C70.7477 39.3182 70.5348 39.6991 70.2929 40.0609C69.8538 38.3772 69.4247 36.9636 69.0797 35.8915C68.5991 34.395 67.936 32.3506 66.8203 29.7999C66.2557 28.5083 65.7337 27.4509 65.3495 26.7037C65.5522 26.6118 65.8569 26.4819 66.2333 26.3441V26.3475ZM56.1224 51.8263C55.96 51.7188 55.7427 51.5922 54.6146 51.2012C54.6146 51.2012 51.2171 49.9847 48.4099 49.6811C47.992 49.6363 47.6045 49.6162 47.1889 49.6038C47.1384 49.6027 47.0869 49.6016 47.0365 49.6016C46.8192 49.6016 46.6008 49.615 46.3532 49.6397C43.6558 49.9074 41.7369 51.0635 40.517 51.7983C39.11 52.6463 38.2105 53.4629 37.2393 54.3568C35.522 55.9352 33.1416 58.1229 31.4826 61.712C30.9303 62.9073 30.2213 64.7713 29.8841 67.229C29.52 67.1954 27.488 66.9769 26.6658 65.6495C26.4585 65.3157 26.2222 64.741 26.0665 64.1899C25.9186 63.669 25.8559 63.2164 25.8267 62.8905C25.6273 63.0775 25.4268 63.2635 25.2274 63.4506C24.953 62.9711 24.6349 62.3125 24.4075 61.4914C23.8843 59.6005 24.1476 57.9482 24.4075 56.4146C24.5128 55.7952 24.6774 55.0189 24.9474 54.1362C24.6584 54.2751 24.2999 54.4789 23.928 54.7758C23.5516 55.076 23.2705 55.3818 23.0688 55.635C22.9579 55.2015 22.7664 54.2863 22.8885 53.296C22.9904 52.4794 23.266 51.9361 23.4284 51.7972C23.4441 51.7837 23.5539 51.693 23.5382 51.6672C23.5359 51.6628 23.5303 51.6616 23.5214 51.6616C23.4889 51.6616 23.4206 51.6908 23.3881 51.6975C23.1562 51.7468 22.9411 51.8084 22.7417 51.8778C22.8101 51.7221 22.8784 51.5664 22.9467 51.4107C22.9669 51.3357 22.996 51.2617 23.0083 51.1856C23.825 45.9184 26.8181 39.7136 32.7876 35.0346C32.3429 35.383 33.453 35.6552 33.76 35.8445C33.9392 35.9554 34.0467 36.0215 34.226 36.2242C34.3234 36.3351 34.394 36.418 34.4455 36.4852C34.0949 36.7171 33.9504 37.1193 33.8888 37.294C33.6558 37.9594 33.8742 38.5565 33.9538 38.7469C34.2786 38.5509 34.7536 38.3022 35.3607 38.1039C35.6699 38.0031 36.0552 37.9034 37.2079 37.7701C38.5354 37.6166 39.1996 37.5405 40.0499 37.5752C40.7444 37.6032 41.2451 37.6827 42.0673 37.8138C43.0363 37.9684 43.9112 38.1588 44.4074 38.2865C46.0563 38.7122 47.2684 39.4213 49.4203 40.6759C51.5733 41.9327 53.024 43.0205 53.4765 43.3655C54.4981 44.1429 55.3405 44.8688 55.9947 45.4647C55.7068 45.6664 55.4032 45.9016 55.0941 46.1727C54.4981 46.6969 54.031 47.2279 53.6714 47.7029C53.9873 48.0759 54.4388 48.6416 54.916 49.3764C55.5466 50.3465 55.9443 51.1844 56.2602 51.9204C56.2154 51.8879 56.1706 51.8554 56.1224 51.8241V51.8263ZM56.9099 38.3649C55.8995 37.4508 55.0011 36.8235 54.0613 36.1671C53.2346 35.5902 52.4885 35.0682 51.4154 34.4902C51.4154 34.4902 48.3371 32.8289 46.4271 32.9577C45.8726 32.9947 45.3529 33.128 45.3529 33.128C45.0392 33.2087 44.7726 33.305 44.562 33.3913C44.329 32.7371 43.8552 31.6314 42.9131 30.528C41.4434 28.8063 38.5152 26.7261 36.3622 27.6648C36.2714 27.704 35.5388 28.039 35.0941 28.8175C34.2024 30.3802 34.9967 32.8233 36.3599 33.4069C36.5515 33.4887 36.7195 33.519 36.817 33.5324C36.9032 33.6399 37.3748 34.2437 37.2292 34.9965C37.1161 35.5779 36.6781 36.0215 36.2053 36.2466C36.0933 35.831 35.801 35.4703 35.4828 35.1119C35.1389 34.7243 34.8634 34.554 34.6416 34.4162C34.3996 34.2661 34.4242 34.2729 34.4018 34.2549C34.2584 34.1463 34.1408 34.0118 33.9123 33.7475C33.8518 33.678 33.77 33.5828 33.6636 33.4517C33.546 33.3061 33.4497 33.1773 33.3746 33.0731C33.2727 32.9264 33.173 32.7673 33.0789 32.5948C32.9489 32.3573 32.7193 31.9316 32.5871 31.3223C32.5849 31.3099 32.5255 31.0332 32.5009 30.7297C32.3597 28.999 32.9489 27.8665 32.9489 27.8665C33.7196 26.3856 35.1972 25.8501 35.5803 25.7123C36.3252 25.4424 37.1015 25.3729 37.5182 25.3359C37.7086 25.3191 38.1814 25.3057 39.1268 25.2777C39.6981 25.2609 40.1675 25.2542 40.2795 25.2519C41.3784 25.2329 41.5005 25.2441 41.9363 25.2239C42.2813 25.2071 42.7899 25.1713 43.4138 25.0839C44.0277 25.3483 44.7737 25.6866 45.6878 26.1021C49.5883 27.8754 53.09 30.4216 53.2939 30.5706C54.8936 31.7435 56.8237 33.3274 58.8322 35.3998C59.1492 35.7459 59.8426 36.5032 60.2492 36.9468C60.2492 36.9468 61.0457 37.816 62.0998 39.3507C62.2006 39.4986 62.4 39.7965 62.4325 40.2144C62.4426 40.3522 62.4515 40.7509 62.2297 41.0825C61.841 41.6628 60.9863 41.674 60.8564 41.6751C59.5995 41.6908 59.1313 40.3746 56.9088 38.3638L56.9099 38.3649ZM68.2754 54.5159C67.7288 55.6159 67.2605 56.12 66.9021 57.2917C66.8539 57.4508 66.6959 57.9706 66.4103 58.6505C66.1907 59.1748 66.0798 59.4369 65.97 59.5881C65.7247 59.9231 65.2397 60.258 62.9982 60.3275C62.4426 60.3454 61.9721 60.36 61.5722 60.36C60.6558 60.36 60.1181 60.2827 59.809 59.9813C59.3531 59.5355 59.5457 59.1423 59.1604 57.5023C58.756 55.5801 58.5857 54.2493 58.5073 53.3655C58.4871 53.1448 58.4099 52.2296 58.2687 50.6322C58.2418 50.3331 58.2082 49.9444 58.1825 49.6565L58.2004 49.6542C58.4927 50.4406 58.989 51.3457 59.8359 52.1366C61.6719 53.8505 63.9235 53.8617 64.7726 53.8662C64.8543 53.8662 64.9372 53.8662 65.0224 53.8662C66.1504 53.8662 67.6033 53.7922 68.7773 52.6418C68.905 52.5163 69.0192 52.3864 69.1245 52.2542C68.8669 53.2131 68.551 53.9614 68.2765 54.5137L68.2754 54.5159ZM66.8886 45.0178C66.1515 45.1779 65.3472 45.4759 64.8454 46.0663C64.534 46.4337 64.376 46.8963 64.516 47.4643C64.6661 48.0725 65.2061 48.3302 65.7908 48.3817C66.0597 48.4052 66.3487 48.3638 66.6119 48.422C66.9334 48.4926 67.2011 48.7144 67.4465 48.9228C67.7803 49.2073 68.0603 49.5097 68.2967 49.8828C68.3157 49.913 68.3337 49.9455 68.3527 49.9769C68.2608 50.4406 68.0547 51.0007 67.6011 51.4454C66.8326 52.1993 65.7426 52.1937 64.7804 52.1881C63.9873 52.1837 62.3384 52.1758 60.9829 50.91C60.4822 50.4429 60.1473 49.9164 59.921 49.4235C59.9266 49.4235 59.9333 49.4224 59.9389 49.4212C59.7474 48.9519 59.2377 47.5203 59.7754 45.896C60.1551 44.7512 60.8732 44.0611 61.2406 43.7161C62.3216 42.7023 63.5045 42.3506 64.0825 42.2195C64.115 41.9563 64.1452 41.5911 64.1262 41.1564C64.0859 40.2278 63.8506 39.5512 63.649 38.9878C63.4216 38.3515 63.0419 37.4755 62.391 36.5155C61.4344 34.8397 60.1798 32.9891 58.5297 31.1363C54.1934 26.2657 49.753 23.575 46.3106 22.2386C46.3106 22.2386 46.3151 22.2375 46.3162 22.2375C46.9491 22.0538 47.6067 21.9227 48.635 21.8118C49.3139 21.739 50.1271 21.6505 51.2081 21.6516C52.335 21.6527 53.9055 21.7513 55.7684 22.1759C56.4798 22.5971 57.2975 23.1236 58.1712 23.7744C58.6597 24.1373 59.604 24.8655 60.6558 25.8624C62.9623 28.0468 64.3659 30.1763 64.7636 30.7958C66.3229 33.2288 67.0891 35.3382 67.5014 36.4707C68.0256 37.9135 68.4468 39.4067 68.7549 40.9078L68.8624 41.4298L69.3799 41.5564C69.7417 41.6449 70.0778 41.7927 70.3769 41.9977C70.6894 42.2117 70.8855 42.4346 71.0154 42.5825C71.3627 42.9779 71.5609 43.3565 71.6483 43.5481C71.813 43.9076 71.9183 44.2896 71.9653 44.6873C70.2817 44.731 68.5431 44.6627 66.8897 45.0222L66.8886 45.0178ZM71.6304 50.7856C71.2002 51.2292 70.8373 51.4365 70.4307 51.4947C70.3534 51.5059 70.2783 51.5104 70.2055 51.5104C69.9915 51.5104 69.8 51.4678 69.6398 51.4152C69.6824 51.3233 69.7227 51.2315 69.7574 51.1407C69.7888 51.1284 69.8202 51.1161 69.8515 51.1038C71.0781 50.6322 72.1658 49.7147 72.9377 48.6069C72.6677 49.3518 72.2622 50.1326 71.6293 50.7856H71.6304ZM75.0324 43.4181C74.8129 43.5245 74.5967 43.6265 74.3838 43.7228C74.4981 43.9155 74.6135 44.125 74.7255 44.3512C74.8308 44.5607 74.9226 44.7635 75.0044 44.9573C74.9047 44.992 74.7916 45.0234 74.6672 45.0458C74.5328 45.0693 74.404 45.0794 74.283 45.0794C74.0937 45.0794 73.9246 45.0547 73.7834 45.0234C73.7476 44.9864 73.7072 44.9539 73.6658 44.9237C73.6378 44.1955 73.4742 43.4965 73.1763 42.8446C73.0228 42.5085 72.7416 41.9966 72.2767 41.4679C72.167 41.3424 71.9911 41.1441 71.7379 40.9257C72.0124 40.5079 72.2543 40.0699 72.4593 39.6162C72.5546 39.4056 72.6386 39.1905 72.7181 38.9743C73.0598 39.4862 73.2972 39.8335 73.6199 40.2659C74.4062 41.3166 74.646 41.5228 75.1243 42.2542C75.355 42.6071 75.5309 42.9073 75.6463 43.1112C75.4469 43.2131 75.243 43.3162 75.0335 43.4181H75.0324Z" fill="#1E1E1E"/>
<path d="M70.3274 32.6383C70.5078 32.952 70.7576 33.4135 71.0365 34.0262C71.4566 33.148 71.7064 32.3773 71.861 31.8071C72.1623 30.6925 72.3628 29.8759 72.0268 29.0022C71.9652 28.8409 71.6179 27.9391 71.022 27.8954C70.7755 27.8775 70.5806 28.013 70.4798 28.0836C70.2636 28.2337 70.0071 28.5194 69.7349 29.8121C69.6654 30.1436 69.5848 30.5906 69.5254 31.1283C69.5915 31.2683 69.6912 31.4778 69.8222 31.7287C70.0452 32.1578 70.2154 32.4445 70.3286 32.6394L70.3274 32.6383Z" fill="#1E1E1E"/>
<path d="M31.2458 42.5522C30.9209 42.8031 30.5636 43.1123 30.1995 43.4876C29.7727 43.9289 29.4344 44.3602 29.1712 44.7433C29.6697 44.5898 30.1682 44.4353 30.6678 44.2818C30.3496 44.6526 29.9934 45.1231 29.6585 45.7C29.356 46.2197 29.1376 46.7081 28.9785 47.1316C29.4647 46.8874 29.9912 46.6432 30.5602 46.4102C31.0049 46.2276 31.4351 46.0663 31.8473 45.9251C31.6267 46.3866 31.3869 46.9938 31.2234 47.7297C31.0374 48.5654 31.0083 49.298 31.0274 49.8525C31.5706 49.8492 32.1363 49.8335 32.7222 49.8043C33.3137 49.7741 33.8838 49.7315 34.4294 49.68C33.9499 50.3286 33.4593 51.0926 33.0135 51.9775C32.8589 52.2833 32.7211 52.5824 32.5956 52.8748C33.2733 52.327 34.1684 51.7221 35.2908 51.2225C35.7535 51.0164 36.1971 50.854 36.6115 50.7251C36.8188 50.6378 37.0596 50.5515 37.3318 50.4787C37.5502 50.4205 37.7541 50.3812 37.939 50.3544C37.5525 50.7128 36.9711 51.3569 36.6205 52.3203C36.4827 52.7001 36.4076 53.054 36.3684 53.3576C36.8064 52.8558 37.5021 52.178 38.5024 51.6C39.3694 51.0982 39.7929 51.0803 40.5557 50.7509C41.1606 50.4899 43.261 49.5814 44.1202 47.5841C44.7542 46.1088 44.5795 44.3479 43.8446 43.0182C42.3839 40.3779 39.0916 40.1247 38.1496 40.0519C34.4787 39.7696 31.8496 42.0123 31.2469 42.5556L31.2458 42.5522Z" fill="#1E1E1E"/>
<path d="M33.8779 40.1438C33.5519 40.3936 33.1923 40.7006 32.8271 41.0736C32.3981 41.5127 32.0575 41.9417 31.7921 42.3237C32.2917 42.1725 32.7913 42.0213 33.2909 41.8689C32.9705 42.2375 32.6132 42.7068 32.2737 43.2826C31.969 43.8001 31.7484 44.2885 31.5859 44.7109C32.0732 44.4689 32.6008 44.2281 33.171 43.9973C33.6169 43.8169 34.047 43.6579 34.4604 43.519C34.2374 43.9794 33.9944 44.5854 33.8263 45.3202C33.6359 46.1548 33.6034 46.8874 33.6202 47.4419C34.1635 47.4419 34.7292 47.4285 35.3151 47.4016C35.9065 47.3747 36.4767 47.3344 37.0234 47.2851C36.5406 47.9314 36.0466 48.692 35.5951 49.5759C35.4394 49.8806 35.2994 50.1797 35.1728 50.4709C35.8539 49.9265 36.7512 49.3272 37.877 48.8321C38.3407 48.6282 38.7854 48.468 39.201 48.3414C39.4083 48.2552 39.6491 48.17 39.9224 48.0983C40.1409 48.0412 40.3447 48.0031 40.5307 47.9762C40.1431 48.3325 39.5572 48.9732 39.2021 49.9355C39.0621 50.3152 38.9859 50.6681 38.9456 50.9716C39.387 50.472 40.0849 49.7977 41.0886 49.2241C41.9589 48.7268 42.3824 48.7111 43.1452 48.3851C43.7513 48.1263 45.8561 47.2291 46.7254 45.2362C47.3672 43.7643 47.2015 42.0022 46.4722 40.6692C45.0249 38.0211 41.7338 37.7511 40.7917 37.6738C37.1219 37.3736 34.4816 39.6028 33.8767 40.1427L33.8779 40.1438Z" fill="#FCB300"/>
<path d="M55.0665 39.177C56.0512 39.9533 56.6706 40.7688 56.9966 41.2527C57.3551 41.7837 57.6015 42.2699 57.7684 42.6418C57.6015 42.5488 57.373 42.5085 57.1198 42.4312C56.954 42.3796 56.7423 42.374 56.6057 42.3528C56.3357 42.663 56.2662 42.7515 55.8585 42.8613C55.3813 42.9901 54.9881 42.9386 54.7954 42.8826C53.9138 42.6261 53.3929 41.9394 53.1286 41.5821C52.4217 40.6254 52.247 39.6329 52.1271 38.9563C52.0274 38.3884 52.005 37.9112 52.0039 37.5852C52.7701 37.8171 53.9138 38.2685 55.0665 39.177Z" fill="white"/>
<path d="M49.6451 58.7759C47.4428 58.2796 46.0347 58.5888 45.5687 58.7064C45.2069 58.7983 44.8731 58.9125 44.5684 59.038C44.7958 59.1903 45.1285 59.4177 45.5228 59.7056C46.317 60.2837 46.8793 60.7541 47.1168 60.9524C47.4249 61.2089 47.6153 61.3635 47.771 61.4879C47.771 61.4879 48.023 61.6906 48.3109 61.9113C48.6067 62.1387 48.8408 62.3202 49.1175 62.5128C49.803 62.9912 50.7821 63.5434 50.8213 63.5658C51.4688 63.9232 52.5688 65.0994 54.5359 68.833C55.8431 65.6595 55.7053 62.3829 53.9522 60.6152C52.841 59.495 51.2302 59.1321 49.6451 58.7759Z" fill="white" stroke="#1E1E1E" stroke-width="1.68029" stroke-linecap="round" stroke-linejoin="round"/>
<path d="M47.6132 60.3633C46.698 60.1158 44.8195 59.7371 42.5746 60.2143C42.1097 60.3129 41.7333 60.4261 41.4824 60.5089C41.7165 60.6859 42.0593 60.9503 42.4648 61.2819C43.3386 61.9966 43.9446 62.5723 44.097 62.7146C44.097 62.7146 44.6223 63.2008 45.1656 63.6746C45.4423 63.9155 45.6663 64.1104 45.9307 64.3255C46.7933 65.0289 47.8776 65.7862 47.9325 65.8232C48.6618 66.325 49.8032 67.7208 51.6325 71.5843C51.8453 71.199 53.8908 67.3657 52.0033 63.7822C51.2673 62.3853 50.2031 61.5362 49.4896 61.0735C48.8387 60.6949 48.3044 60.5515 47.6132 60.3644V60.3633Z" fill="white" stroke="#1E1E1E" stroke-width="1.68029" stroke-linecap="round" stroke-linejoin="round"/>
<path d="M43.0121 62.7145C41.5637 62.3751 39.9305 61.9427 38.4518 62.7851C37.8939 63.1032 37.5209 63.5065 37.2969 63.7932C37.624 63.9333 38.1426 64.164 38.761 64.4855C39.5922 64.9179 40.0817 65.2304 43.0748 67.2558C43.9497 67.8483 44.5087 68.2281 45.2514 68.8195C45.7476 69.215 46.1464 69.5365 46.6035 70.0025C47.1143 70.5222 47.6979 71.2235 48.2367 72.1454C48.4361 71.694 48.6825 71.0319 48.8315 70.2041C48.976 69.3964 49.2079 68.2494 48.7744 67.0384C48.2535 65.5867 47.1467 64.7622 46.4074 64.2111C45.0497 63.1984 43.7402 62.8848 43.0099 62.7145H43.0121Z" fill="white" stroke="#1E1E1E" stroke-width="1.68029" stroke-linecap="round" stroke-linejoin="round"/>
<path d="M42.8132 67.2142C42.6216 66.8781 42.3472 66.29 42.3113 65.525C42.2912 65.087 42.2295 63.643 43.2769 62.9933C43.9882 62.552 44.9707 62.6293 45.7918 63.1378C45.7817 63.0202 45.6887 61.6491 46.6879 60.912C47.2626 60.4886 47.8932 60.4986 48.1621 60.5076C49.7326 60.5558 50.6949 61.9818 50.8237 62.18C50.4697 61.4586 50.6198 60.6084 51.1687 60.1032C51.6134 59.6932 52.2642 59.5622 52.8669 59.7492C52.5689 59.1925 51.8375 58.0163 50.4114 57.2658C49.1355 56.5948 47.9694 56.6194 46.875 56.6328C44.7063 56.6575 43.1593 57.4069 42.8109 57.5828C42.2217 57.8796 41.0153 58.5036 40.0138 59.7996C39.7281 60.1693 37.2805 63.3294 38.7278 65.5653C39.8872 67.3587 42.607 67.2276 42.8109 67.2142H42.8132Z" fill="#FCB300" stroke="#1E1E1E" stroke-width="1.68029" stroke-linecap="round" stroke-linejoin="round"/>
<path d="M77.3336 63.1905C76.6694 62.0435 75.5212 61.3501 74.839 60.939C74.5645 60.7732 74.3293 60.6511 74.168 60.5715C74.1971 60.7709 74.2385 61.0655 74.2777 61.4229C74.3562 62.142 74.3786 62.6831 74.3887 62.9116C74.4021 63.2074 74.4122 63.3877 74.4211 63.5345C74.4211 63.5345 74.4357 63.7719 74.4581 64.0385C74.4805 64.313 74.4984 64.5314 74.5309 64.7779C74.5847 65.1957 74.6026 65.4052 74.8009 66.2252C74.9364 66.7864 74.886 67.9895 74.1825 70.7127C74.4167 70.6152 77.3493 69.346 77.8456 66.4391C77.9072 66.0762 78.1435 64.5886 77.3348 63.1917L77.3336 63.1905Z" fill="white" stroke="#1E1E1E" stroke-width="1.68029" stroke-linecap="round" stroke-linejoin="round"/>
<path d="M74.7654 62.609C74.0216 60.8839 72.7188 59.9318 72.3043 59.6372C72.0198 59.4344 71.7655 59.2854 71.5795 59.1835C71.5963 59.4098 71.621 59.7413 71.649 60.1424C71.826 62.7031 71.9358 64.2871 71.8999 65.6044C71.8697 66.7437 71.7117 68.3792 71.1191 70.3809C71.3969 70.3048 74.249 69.4702 75.1328 66.7974C75.7579 64.9088 75.0286 63.2229 74.7643 62.6113L74.7654 62.609Z" fill="white" stroke="#1E1E1E" stroke-width="1.68029" stroke-linecap="round" stroke-linejoin="round"/>
<path d="M71.0849 61.0542C70.6894 60.354 70.0117 59.1543 69.0159 59.2226C68.812 59.2372 68.6417 59.3011 68.5331 59.3515C68.2765 59.4276 67.9942 59.5531 67.9248 59.7648C67.8677 59.9373 67.9954 60.0897 68.0077 60.1502C68.113 60.6968 68.1959 61.3992 68.4278 63.5768C68.5118 64.3666 68.5644 64.8718 68.5835 65.591C68.598 66.1399 68.5779 66.5868 68.5633 66.8321C68.5599 66.896 68.5566 66.9341 68.5555 66.9587C68.5319 67.3116 68.5353 67.8896 68.6484 68.8832C68.9453 68.8026 69.3687 68.6536 69.8157 68.3634C70.7667 67.7451 71.1902 66.8982 71.3896 66.4882C71.9721 65.2885 71.9183 64.1952 71.888 63.681C71.8096 62.357 71.3223 61.472 71.0871 61.0542H71.0849Z" fill="white" stroke="#1E1E1E" stroke-width="1.68029" stroke-linecap="round" stroke-linejoin="round"/>
<path d="M68.373 63.4459C68.4268 63.2263 68.5836 62.7234 69.0373 62.3179C69.165 62.2036 69.9514 61.4833 70.8598 61.7824C71.5902 62.0221 71.8714 62.7469 71.914 62.8612C71.9655 62.7984 72.697 61.9381 73.7175 62.0804C74.2832 62.1588 74.6573 62.5072 74.7637 62.6091C75.2028 63.0292 75.3216 63.5243 75.3563 63.7058C75.7293 63.1166 76.4295 62.8847 76.9772 63.111C77.5821 63.3619 77.7143 64.0531 77.7233 64.1012C77.7233 63.3753 77.59 62.8152 77.4768 62.4545C76.733 60.0887 74.533 58.9125 73.6391 58.5719C73.6088 58.5607 73.5853 58.5518 73.5696 58.5462C72.2388 58.0544 70.9988 58.1754 70.9988 58.1754C70.9864 58.1765 70.9439 58.181 70.9002 58.1866C70.0757 58.2852 67.8376 58.8464 67.3839 60.4763C66.9773 61.9381 68.2632 63.3294 68.3741 63.4459H68.373Z" fill="#FCB300" stroke="#1E1E1E" stroke-width="1.68029" stroke-linecap="round" stroke-linejoin="round"/>
<path d="M68.4941 46.5691C69.322 46.4884 70.1912 46.4279 71.0986 46.3932C71.6408 46.373 71.5624 46.3629 72.0776 46.3618" fill="#1E1E1E"/>
<path d="M68.4941 46.5691C69.322 46.4884 70.1912 46.4279 71.0986 46.3932C71.6408 46.373 71.5624 46.3629 72.0776 46.3618" stroke="white" stroke-width="0.896156" stroke-linecap="round" stroke-linejoin="round"/>
</g>
<defs>
<clipPath id="clip0_94_16188">
<rect width="92.8496" height="94.6542" fill="white" transform="translate(3.57617 2)"/>
</clipPath>
</defs>
</svg>
