<svg width="32" height="32" viewBox="0 0 32 32" fill="none" xmlns="http://www.w3.org/2000/svg">
<path d="M4 9.08199C4 6.717 5.78998 4.7998 7.99803 4.7998H17.9931C20.2011 4.7998 21.9911 6.717 21.9911 9.08199V17.6464C21.9911 20.0113 20.2011 21.9285 17.9931 21.9285H11.2464L9.79714 23.9983C9.39734 24.5692 8.59773 24.5692 8.19793 23.9983L6.74864 21.9285C4.54059 21.9285 4 20.0113 4 17.6464V9.08199Z" stroke="#737373" stroke-width="2" stroke-linecap="round" stroke-linejoin="round"/>
<path d="M25.1779 12.9775C25.9734 12.9775 26.7042 13.2719 27.2793 13.7639C28.0439 14.4179 28.5332 15.4212 28.5332 16.546V23.683C28.5332 25.6538 28.0795 27.2515 26.2265 27.2515L25.0102 28.9763C24.6746 29.452 24.0036 29.452 23.6681 28.9763L22.4518 27.2515H16.7898C15.9316 27.2515 15.1486 26.9088 14.5553 26.3451C14.254 26.0589 14.0017 25.7157 13.8132 25.3315" stroke="#737373" stroke-width="2" stroke-linecap="round" stroke-linejoin="round"/>
<path d="M10.3672 14.6136H13.8135V9.53174" stroke="#737373" stroke-width="2" stroke-linecap="round"/>
</svg>
