<svg width="20" height="20" viewBox="0 0 20 20" fill="none" xmlns="http://www.w3.org/2000/svg">
<path d="M2.5 5.67636C2.5 4.19825 3.61874 3 4.99877 3H11.2457C12.6257 3 13.7444 4.19825 13.7444 5.67636V11.0291C13.7444 12.5072 12.6257 13.7055 11.2457 13.7055H7.02901L6.12321 14.999C5.87333 15.3559 5.37358 15.3559 5.1237 14.999L4.2179 13.7055C2.83787 13.7055 2.5 12.5072 2.5 11.0291V5.67636Z" stroke="#737373" stroke-width="1.5" stroke-linecap="round" stroke-linejoin="round"/>
<path d="M15.7369 8.11133C16.2341 8.11133 16.6908 8.29532 17.0503 8.60278C17.5282 9.01157 17.834 9.63862 17.834 10.3416V14.8022C17.834 16.034 17.5504 17.0325 16.3923 17.0325L15.6321 18.1105C15.4224 18.4079 15.003 18.4079 14.7933 18.1105L14.0331 17.0325H10.4943C9.95795 17.0325 9.46861 16.8184 9.09778 16.466C8.90951 16.2872 8.7518 16.0727 8.63398 15.8325" stroke="#737373" stroke-width="1.5" stroke-linecap="round" stroke-linejoin="round"/>
<path d="M6.48047 9.13322H8.63444V5.95703" stroke="#737373" stroke-width="1.5" stroke-linecap="round"/>
</svg>
