<svg width="31" height="32" viewBox="0 0 31 32" fill="none" xmlns="http://www.w3.org/2000/svg">
<path d="M9.3 14.45C8.88891 14.45 8.49467 14.6133 8.20398 14.904C7.9133 15.1947 7.75 15.5889 7.75 16C7.75 16.4111 7.9133 16.8053 8.20398 17.096C8.49467 17.3867 8.88891 17.55 9.3 17.55H21.7C22.1111 17.55 22.5053 17.3867 22.796 17.096C23.0867 16.8053 23.25 16.4111 23.25 16C23.25 15.5889 23.0867 15.1947 22.796 14.904C22.5053 14.6133 22.1111 14.45 21.7 14.45H9.3ZM15.5 0.5C11.3891 0.5 7.44666 2.13303 4.53984 5.03984C1.63303 7.94666 0 11.8891 0 16C0 20.1109 1.63303 24.0533 4.53984 26.9602C7.44666 29.867 11.3891 31.5 15.5 31.5C19.6109 31.5 23.5533 29.867 26.4602 26.9602C29.367 24.0533 31 20.1109 31 16C31 11.8891 29.367 7.94666 26.4602 5.03984C23.5533 2.13303 19.6109 0.5 15.5 0.5ZM3.1 16C3.1 12.7113 4.40642 9.55733 6.73188 7.23188C9.05733 4.90642 12.2113 3.6 15.5 3.6C18.7887 3.6 21.9427 4.90642 24.2681 7.23188C26.5936 9.55733 27.9 12.7113 27.9 16C27.9 19.2887 26.5936 22.4427 24.2681 24.7681C21.9427 27.0936 18.7887 28.4 15.5 28.4C12.2113 28.4 9.05733 27.0936 6.73188 24.7681C4.40642 22.4427 3.1 19.2887 3.1 16Z" fill="#C0C0C0"/>
</svg>
