<svg width="16" height="16" viewBox="0 0 16 16" fill="none" xmlns="http://www.w3.org/2000/svg">
<path d="M8.0013 2.66657H4.66797C3.5634 2.66657 2.66797 3.562 2.66797 4.66657V11.3332C2.66797 12.4378 3.5634 13.3332 4.66797 13.3332H11.3346C12.4392 13.3332 13.3346 12.4378 13.3346 11.3332V7.9999M12.2775 5.60937L13.0013 4.88553C13.522 4.36483 13.522 3.52061 13.0013 2.99992C12.4806 2.47922 11.6363 2.47922 11.1156 2.99993L10.3918 3.72375M12.2775 5.60937L8.25327 9.63361C8.06713 9.81974 7.83007 9.94662 7.57194 9.99824L5.61078 10.3905L6.00302 8.42931C6.05464 8.17119 6.18151 7.93413 6.36764 7.748L10.3918 3.72375M12.2775 5.60937L10.3918 3.72375" stroke="#737373" stroke-width="2" stroke-linecap="round" stroke-linejoin="round"/>
</svg>
