<svg width="24" height="24" viewBox="0 0 24 24" fill="none" xmlns="http://www.w3.org/2000/svg">
<g clip-path="url(#clip0_2052_51930)">
<path d="M21.7623 12.1871C21.7623 11.3677 21.6958 10.7697 21.552 10.1497H12.1953V13.848H17.6874C17.5768 14.7671 16.9788 16.1512 15.65 17.0813L15.6314 17.2051L18.5898 19.4969L18.7948 19.5174C20.6771 17.7789 21.7623 15.221 21.7623 12.1871Z" fill="#4285F4"/>
<path d="M12.1937 21.9313C14.8844 21.9313 17.1432 21.0454 18.7932 19.5174L15.6484 17.0813C14.8069 17.6682 13.6774 18.0779 12.1937 18.0779C9.55834 18.0779 7.32163 16.3395 6.5243 13.9366L6.40743 13.9466L3.33124 16.3273L3.29102 16.4391C4.92979 19.6945 8.29598 21.9313 12.1937 21.9313Z" fill="#34A853"/>
<path d="M6.52477 13.9366C6.31439 13.3165 6.19264 12.6521 6.19264 11.9656C6.19264 11.279 6.31439 10.6147 6.51371 9.9946L6.50813 9.86253L3.3934 7.4436L3.29149 7.49208C2.61607 8.84299 2.22852 10.36 2.22852 11.9656C2.22852 13.5712 2.61607 15.0881 3.29149 16.439L6.52477 13.9366Z" fill="#FBBC05"/>
<path d="M12.1937 5.85336C14.065 5.85336 15.3273 6.66168 16.047 7.33718L18.8596 4.59107C17.1322 2.9855 14.8844 2 12.1937 2C8.29598 2 4.92979 4.23672 3.29102 7.49214L6.51323 9.99466C7.32163 7.59183 9.55834 5.85336 12.1937 5.85336Z" fill="#EB4335"/>
</g>
<defs>
<clipPath id="clip0_2052_51930">
<rect width="20" height="20" fill="white" transform="translate(2 2)"/>
</clipPath>
</defs>
</svg>
