<svg width="24" height="24" viewBox="0 0 24 24" fill="none" xmlns="http://www.w3.org/2000/svg">
<path d="M4 15L20 15" stroke="#737373" stroke-width="1.5" stroke-linecap="round" stroke-linejoin="round"/>
<path d="M4 9L20 9" stroke="#737373" stroke-width="1.5" stroke-linecap="round" stroke-linejoin="round"/>
<circle cx="12" cy="12" r="9" stroke="#737373" stroke-width="1.5" stroke-linecap="round" stroke-linejoin="round"/>
<path d="M12 3.18652L12.5358 2.66174C12.3947 2.5177 12.2016 2.43652 12 2.43652C11.7984 2.43652 11.6053 2.5177 11.4642 2.66174L12 3.18652ZM15.5996 12L16.3496 12V12L15.5996 12ZM12 20.8135L11.4642 21.3383C11.6053 21.4823 11.7984 21.5635 12 21.5635C12.2016 21.5635 12.3947 21.4823 12.5358 21.3383L12 20.8135ZM8.40039 12L7.65039 12V12H8.40039ZM12 3.18652L11.4642 3.71131C13.5583 5.8495 14.8496 8.77252 14.8496 12L15.5996 12L16.3496 12C16.3496 8.36359 14.8928 5.06827 12.5358 2.66174L12 3.18652ZM15.5996 12H14.8496C14.8496 15.2275 13.5583 18.1505 11.4642 20.2887L12 20.8135L12.5358 21.3383C14.8928 18.9317 16.3496 15.6364 16.3496 12H15.5996ZM12 20.8135L12.5358 20.2887C10.4417 18.1505 9.15039 15.2275 9.15039 12H8.40039H7.65039C7.65039 15.6364 9.10722 18.9317 11.4642 21.3383L12 20.8135ZM8.40039 12L9.15039 12C9.15039 8.77252 10.4417 5.8495 12.5358 3.71131L12 3.18652L11.4642 2.66174C9.10722 5.06827 7.65039 8.36359 7.65039 12L8.40039 12Z" fill="#737373"/>
</svg>
