<svg width="54" height="54" viewBox="0 0 54 54" fill="none" xmlns="http://www.w3.org/2000/svg">
<g clip-path="url(#clip0_1666_30042)">
<g clip-path="url(#clip1_1666_30042)">
<path d="M44.3645 17.0413C43.879 16.1904 43.3345 15.3778 42.737 14.6088C46.7911 9.61244 50.2437 4.97138 51.3998 2.68207C49.2071 3.89243 44.6539 7.44099 39.7918 11.5364C39.1006 10.9507 38.3705 10.4097 37.6051 9.91827C40.2173 6.59893 42.3139 3.68736 43.1135 2.104C41.4777 3.00676 38.291 5.44633 34.7406 8.385C32.2298 7.28837 29.4561 6.67966 26.541 6.67966C15.2165 6.67966 6.03626 15.8598 6.03626 27.1844C6.03626 30.2863 6.72512 33.2273 7.95786 35.8631C5.39985 39.0893 3.32976 41.9184 2.55664 43.4281C3.9314 42.6797 6.46702 40.7729 9.37917 38.4111C9.94192 39.2702 10.5683 40.084 11.2501 40.8471C7.62316 45.3379 4.56899 49.4233 3.52363 51.4639C5.53185 50.3709 9.63668 47.1853 14.0874 43.477C14.9136 44.1099 15.7898 44.6809 16.7085 45.1835C14.4539 48.0503 12.6526 50.5347 11.9554 51.8965C13.405 51.1074 16.2029 48.9725 19.346 46.3921C21.5847 47.2312 24.0089 47.6903 26.5404 47.6903C37.8649 47.6903 47.0451 38.5101 47.0451 27.1856C47.0451 24.5321 46.5413 21.9959 45.6232 19.6683C48.0663 16.5558 50.0209 13.8345 50.774 12.3437C49.4593 13.0691 47.0987 14.8316 44.364 17.0425L44.3645 17.0413Z" fill="#FCB300"/>
<path d="M26.541 41.6675C34.5394 41.6675 41.0234 35.1835 41.0234 27.1851C41.0234 19.1866 34.5394 12.7026 26.541 12.7026C18.5426 12.7026 12.0586 19.1866 12.0586 27.1851C12.0586 35.1835 18.5426 41.6675 26.541 41.6675Z" fill="#1E1E1E"/>
<path d="M32.6895 22.9752C32.7578 22.9746 33.2074 22.9687 33.4119 22.6635C33.5286 22.489 33.5239 22.2799 33.5186 22.2068C33.5021 21.987 33.3972 21.8302 33.3436 21.7525C32.7891 20.9452 32.3701 20.4879 32.3701 20.4879C32.1562 20.2545 31.7914 19.8562 31.6247 19.6741C30.5681 18.584 29.5528 17.7507 28.7113 17.1338C28.6047 17.0554 26.762 15.716 24.7102 14.7832C24.2288 14.5646 23.8363 14.3866 23.514 14.2476C23.1858 14.2935 22.9177 14.3124 22.7368 14.3212C22.5075 14.3324 22.4439 14.3259 21.8652 14.3359C21.8063 14.3371 21.5594 14.3407 21.2589 14.3495C20.7615 14.3636 20.5129 14.3713 20.4127 14.3801C20.1935 14.3996 19.7851 14.4361 19.3933 14.5781C19.1917 14.6512 18.4145 14.9323 18.0091 15.7113C18.0091 15.7113 17.6985 16.307 17.7734 17.2175C17.7863 17.3777 17.8176 17.5227 17.8187 17.5292C17.8883 17.8497 18.0091 18.0737 18.0774 18.1986C18.1269 18.2893 18.1794 18.3724 18.233 18.4502C18.2725 18.5044 18.3237 18.5728 18.385 18.6494C18.4404 18.7183 18.4834 18.7684 18.5158 18.8049C18.636 18.944 18.6979 19.0147 18.7733 19.0719C18.7851 19.0807 18.7722 19.0778 18.8994 19.1567C19.0161 19.2286 19.1611 19.3188 19.342 19.5227C19.5093 19.7118 19.6625 19.901 19.7221 20.1196C19.9707 20.0012 20.2011 19.7678 20.2607 19.462C20.3378 19.066 20.0892 18.7484 20.0438 18.6918C19.9925 18.6847 19.9036 18.6688 19.8034 18.6258C19.0862 18.3194 18.6685 17.0336 19.1375 16.2116C19.3709 15.802 19.7568 15.6264 19.8046 15.6052C20.9365 15.1114 22.4769 16.2057 23.2506 17.1114C23.7462 17.6918 23.9948 18.2734 24.118 18.6176C24.2288 18.5722 24.369 18.5215 24.534 18.4791C24.534 18.4791 24.8074 18.409 25.0991 18.3895C26.1038 18.3217 27.7231 19.1956 27.7231 19.1956C28.2876 19.5003 28.6807 19.7743 29.115 20.0778C29.6094 20.4231 30.082 20.7531 30.6135 21.2339C31.7826 22.2916 32.0289 22.984 32.6901 22.9758L32.6895 22.9752Z" fill="#FCB300"/>
<path d="M37.014 19.9335C37.2732 20.6482 37.4877 21.3848 37.6521 22.1267C37.78 21.9364 37.892 21.736 37.9851 21.5286C38.1783 21.1002 38.295 20.6435 38.3339 20.1692C38.3339 20.0737 38.3292 19.9718 38.3174 19.8645C38.2933 19.6347 38.2455 19.4373 38.1954 19.2788C38.3327 19.056 38.5089 18.7302 38.6521 18.313C38.7653 17.9818 38.9491 17.4444 38.9037 16.8322C38.892 16.676 38.77 15.2859 37.747 14.7762C37.4877 14.6472 37.2178 14.5977 36.9474 14.5977C36.4518 14.5977 35.9545 14.7638 35.5166 14.9129C35.1436 15.0402 34.8496 15.1899 34.6475 15.3054C34.8584 15.6583 35.1525 16.161 35.4872 16.7738C36.1159 17.9241 36.5968 18.7868 37.014 19.9346V19.9335ZM37.3593 16.7337C37.5019 16.0537 37.6374 15.9041 37.7511 15.8245C37.8042 15.7874 37.9067 15.7161 38.0363 15.7255C38.3504 15.7479 38.5325 16.2223 38.5649 16.3077C38.7417 16.7673 38.6356 17.1969 38.4777 17.7832C38.3964 18.0832 38.265 18.4892 38.044 18.9506C37.8979 18.6282 37.7665 18.3855 37.671 18.2205C37.6115 18.1173 37.5219 17.9671 37.4046 17.7414C37.3363 17.6094 37.2833 17.4992 37.2485 17.4255C37.2797 17.1427 37.3221 16.9076 37.3587 16.7332L37.3593 16.7337Z" fill="#FCB300"/>
<path d="M34.8793 29.389C34.8345 29.389 34.7909 29.389 34.7479 29.389C34.3018 29.3866 33.1174 29.3807 32.151 28.4792C31.7055 28.0631 31.4445 27.587 31.2907 27.1733L31.2812 27.1745C31.2948 27.326 31.3131 27.5304 31.3266 27.6878C31.4009 28.5281 31.4421 29.0089 31.4521 29.1256C31.4934 29.5905 31.583 30.2912 31.7957 31.3017C31.9984 32.1644 31.8964 32.3713 32.1369 32.6058C32.2995 32.7643 32.5823 32.805 33.0644 32.805C33.2741 32.805 33.5222 32.7973 33.8145 32.7879C34.9936 32.7508 35.2488 32.5746 35.3778 32.399C35.4362 32.3194 35.4939 32.1815 35.6094 31.9057C35.7597 31.5481 35.8422 31.2746 35.8681 31.191C36.0567 30.5746 36.303 30.3094 36.5905 29.7308C36.7349 29.4402 36.9017 29.046 37.0366 28.5422C36.9818 28.6117 36.9211 28.6801 36.8539 28.7461C36.2364 29.3513 35.4721 29.3902 34.8787 29.3902L34.8793 29.389Z" fill="#1E1E1E"/>
<path d="M34.3443 33.1114C33.0213 33.2811 32.3602 33.3653 31.9194 33.0224C31.7309 32.8756 31.7521 32.7896 31.5924 32.2286C31.4792 31.8321 31.4297 31.8886 31.2577 31.208C31.1799 30.8992 31.1964 30.5916 31.2465 29.911C31.3172 28.9517 31.349 28.8592 31.3726 28.8474C31.3738 28.8468 31.3755 28.8468 31.3779 28.8456C31.5529 28.795 31.7297 28.924 31.7715 28.9541C31.9147 29.0578 31.9713 29.211 32.0455 29.4449C32.2382 30.0536 32.3136 30.449 32.3136 30.449C32.3814 30.8061 32.3796 30.8556 32.4386 31.1962C32.4751 31.4066 32.5328 31.6918 32.6271 32.0289C32.7302 31.9912 32.8835 31.9199 33.0267 31.7814C33.0502 31.7584 33.1327 31.6765 33.2612 31.4579C33.3378 31.3276 33.4344 31.1432 33.521 30.9063C33.6737 31.1302 33.7078 31.3265 33.7167 31.429C33.7285 31.5604 33.712 31.683 33.6996 31.7773C33.6819 31.9122 33.6542 32.0236 33.6312 32.1025C33.7025 32.1037 33.7939 32.1043 33.8994 32.1008C34.0673 32.0949 34.2288 32.0902 34.4179 32.0572C34.5405 32.0359 34.7084 31.9965 34.9035 31.9204C35.0084 31.8073 35.148 31.6299 35.257 31.3842C35.3448 31.1862 35.3855 31.0065 35.4055 30.871C35.4603 30.944 35.5352 31.0631 35.5823 31.2245C35.6406 31.4237 35.7084 31.594 35.6949 31.6924C35.7791 31.6117 35.7538 31.6016 35.7874 31.6123C35.9376 31.66 35.9889 32.1956 35.7491 32.5804C35.6471 32.7436 35.4792 32.9646 34.3437 33.1102L34.3443 33.1114Z" fill="white"/>
<path d="M32.5483 31.118C32.533 30.7732 32.4917 30.4297 32.4263 30.0962C32.3638 29.7791 32.2937 29.5428 32.2425 29.3696C32.1605 29.0932 32.1093 28.9724 32.0875 28.9206C32.0315 28.7874 31.9667 28.6572 31.8942 28.5334L31.7109 28.2205L32.0545 28.105C32.2053 28.0544 32.5783 27.93 32.7816 27.8723C32.8005 27.867 32.8506 27.8528 32.9178 27.8422C32.9802 27.8322 33.058 27.8198 33.1387 27.8198C33.2365 27.8198 33.3196 27.8375 33.3927 27.8746C33.741 28.0496 33.7227 28.5564 33.7115 28.8587C33.7091 28.917 33.7074 28.9606 33.7068 28.9695L33.7056 28.9872C33.6596 29.6436 33.6296 30.0773 33.4546 30.5552C33.3638 30.8033 33.2401 31.0437 33.0869 31.27L32.5884 32.0054L32.5483 31.118Z" fill="white"/>
<path d="M33.1381 28.1151C33.1829 28.1151 33.2253 28.121 33.2601 28.1387C33.4298 28.2242 33.4262 28.5871 33.4168 28.8488C33.415 28.9024 33.4133 28.9419 33.4127 28.9495C33.3673 29.6001 33.3396 30.012 33.1776 30.4545C33.1163 30.6219 33.0155 30.8505 32.8423 31.1051C32.8234 30.6802 32.7698 30.3196 32.715 30.0397C32.6513 29.7156 32.5806 29.4752 32.5241 29.286C32.4427 29.0132 32.3897 28.8812 32.3585 28.8069C32.2831 28.6272 32.2059 28.4846 32.1475 28.385C32.2347 28.3556 32.6484 28.2165 32.8605 28.157C32.8782 28.1523 32.9142 28.1423 32.9631 28.134C33.0185 28.1252 33.0803 28.1151 33.1381 28.1151ZM33.1381 27.5259C33.0344 27.5259 32.9401 27.5406 32.8711 27.5518C32.7839 27.5659 32.7203 27.5842 32.6991 27.5901C32.4999 27.6461 32.1499 27.7622 31.9595 27.8264L31.2725 28.0574L31.6396 28.6826C31.7056 28.7952 31.7645 28.9136 31.8158 29.0344C31.8358 29.0815 31.8824 29.1929 31.9595 29.4534C32.009 29.6201 32.0774 29.8488 32.1369 30.1528C32.1994 30.4722 32.2389 30.801 32.2536 31.131L32.3331 32.9059L33.3296 31.4351C33.4964 31.1894 33.6313 30.9271 33.7303 30.6567C33.9194 30.1399 33.9524 29.6655 33.9984 29.0085L33.9996 28.9902C34.0014 28.9625 34.0043 28.8853 34.0049 28.87C34.0179 28.5212 34.0414 27.8718 33.524 27.6119C33.4103 27.5548 33.2807 27.5259 33.1375 27.5259H33.1381Z" fill="#1E1E1E"/>
<path d="M28.9093 26.1474C29.099 25.8975 29.3448 25.6182 29.6577 25.3425C29.8203 25.1993 29.98 25.0761 30.1314 24.97C29.7873 24.6565 29.3436 24.2747 28.8068 23.8657C28.5687 23.6843 27.8056 23.1121 26.673 22.4509C25.5416 21.7904 24.9035 21.4179 24.0361 21.194C23.775 21.1262 23.3142 21.0261 22.8051 20.9453C22.3725 20.8764 22.1097 20.8346 21.7438 20.8198C21.2965 20.8016 20.9477 20.8422 20.2488 20.9224C19.6425 20.9919 19.4398 21.0449 19.2771 21.098C18.9583 21.2017 18.7085 21.3331 18.537 21.4362C18.4952 21.336 18.3803 21.0219 18.5028 20.6719C18.5352 20.58 18.6107 20.3685 18.7957 20.2465C18.768 20.2117 18.7315 20.1675 18.6802 20.1092C18.5859 20.0025 18.5288 19.9677 18.4351 19.9094C18.2736 19.8092 17.857 19.5535 17.6584 19.3325C14.9549 22.075 14.3037 23.0202 14.167 23.349C14.1476 23.3955 14.1405 23.9594 13.8706 24.4786C13.7969 24.6206 13.7463 24.7102 13.7109 24.775C13.5412 25.0844 13.4092 25.3743 12.969 26.4638C12.7651 26.9694 12.6302 27.3106 12.5123 27.7985C12.5123 27.7985 12.3474 28.4832 12.4782 28.5286C12.563 28.5581 12.9225 28.2611 12.9749 28.2499C12.9749 28.2499 12.9767 28.2499 12.9785 28.2493C12.9955 28.2458 13.0315 28.2304 13.0486 28.2304C13.0527 28.2304 13.0557 28.2316 13.0574 28.2334C13.0657 28.2469 13.0079 28.2947 12.9997 28.3017C12.9148 28.3748 12.7693 28.6606 12.7156 29.0902C12.6508 29.6105 12.7522 30.0925 12.8105 30.3206C12.9166 30.1874 13.0645 30.0259 13.2625 29.8686C13.4581 29.7125 13.6467 29.6052 13.7987 29.5321C13.6567 29.9965 13.5701 30.4048 13.5147 30.7307C13.378 31.538 13.2395 32.4072 13.5147 33.4013C13.6343 33.8332 13.8017 34.1797 13.946 34.4319C14.0509 34.3335 14.1564 34.2357 14.2613 34.1373C14.2766 34.3087 14.3096 34.5468 14.3874 34.8208C14.4699 35.1101 14.5942 35.413 14.7027 35.5886C15.1352 36.2863 16.2041 36.4012 16.3956 36.4195C16.573 35.1272 16.946 34.1467 17.2365 33.5174C18.1086 31.6293 19.3614 30.4785 20.2647 29.6482C20.7762 29.1786 21.2494 28.7484 21.9889 28.3023C22.6306 27.9158 23.6401 27.3077 25.059 27.1668C25.1892 27.1539 25.3042 27.1468 25.4185 27.1468C25.445 27.1468 25.4715 27.1468 25.4986 27.148C25.7178 27.1544 25.9211 27.1651 26.1409 27.1886C27.6176 27.3477 29.4049 27.9883 29.4049 27.9883C29.9983 28.1939 30.112 28.2605 30.198 28.3171C30.2228 28.3336 30.2463 28.3507 30.2705 28.3677C30.1043 27.9806 29.8951 27.5398 29.5634 27.0295C29.3123 26.6436 29.0749 26.3454 28.9087 26.1492L28.9093 26.1474Z" fill="#FCB300"/>
<path d="M39.4021 22.2336C39.2324 22.0068 39.1074 21.8235 38.9277 21.5542C38.8859 21.6679 38.8417 21.7811 38.7916 21.8918C38.6844 22.1305 38.5565 22.3609 38.4121 22.5807C38.5447 22.6956 38.6372 22.7999 38.6955 22.8659C38.9401 23.144 39.088 23.4133 39.1687 23.5901C39.3255 23.9331 39.4115 24.3008 39.4262 24.6838C39.448 24.6997 39.4693 24.7168 39.4881 24.7362C39.5624 24.7527 39.6513 24.7657 39.7509 24.7657C39.8146 24.7657 39.8817 24.7604 39.953 24.748C40.0185 24.7362 40.078 24.7197 40.1304 24.7015C40.0874 24.5995 40.0385 24.4929 39.9837 24.3827C39.9242 24.2642 39.8635 24.154 39.804 24.0521C39.9159 24.0014 40.0296 23.9478 40.1451 23.8918C40.2553 23.8382 40.3632 23.7846 40.4675 23.7304C40.4068 23.6231 40.3137 23.4646 40.1929 23.2796C39.9413 22.8948 39.8152 22.7864 39.4015 22.2336H39.4021Z" fill="#FCB300"/>
<path d="M36.118 31.0447C36.118 31.0447 36.1422 31.0146 36.1522 30.9622L35.5735 30.8508C35.6401 30.5043 35.669 30.1555 35.6584 29.8143C35.6531 29.6422 35.6378 29.4767 35.613 29.3229C35.6012 29.251 35.5894 29.1785 35.5724 29.1243C35.57 29.116 35.5665 29.1078 35.5635 29.0995C35.5382 29.0318 35.4905 28.9051 35.5346 28.7513C35.6319 28.4136 35.9884 28.383 36.3667 28.3506L36.4074 28.3464C36.4551 28.3417 36.5087 28.3364 36.5665 28.3364C36.6395 28.3364 36.7043 28.3453 36.7645 28.3629C37.1752 28.4832 37.0391 29.053 36.9813 29.2963C36.9748 29.3229 36.9619 29.3765 36.9619 29.3765C36.8358 29.885 36.5853 30.4012 36.197 30.9545C36.177 30.9828 36.1557 31.0052 36.1375 31.0247C36.131 31.0311 36.1245 31.0376 36.1186 31.0447H36.118Z" fill="white"/>
<path d="M36.5656 28.6311C36.6051 28.6311 36.644 28.6346 36.6811 28.6458C36.8113 28.6841 36.7388 29.0412 36.6941 29.228C36.6864 29.2592 36.6799 29.2863 36.6752 29.3058C36.5361 29.865 36.2492 30.367 35.9551 30.7854C35.9333 30.8167 35.8703 30.8662 35.8626 30.9068C35.9321 30.5444 35.964 30.1702 35.9528 29.8055C35.9475 29.6257 35.9315 29.4478 35.9033 29.2751C35.8903 29.1944 35.8762 29.1107 35.8532 29.0365C35.8343 28.9752 35.7948 28.9092 35.8172 28.832C35.8573 28.6918 36.0553 28.6723 36.3912 28.6428C36.4472 28.6381 36.5073 28.6299 36.5662 28.6299" fill="#1E1E1E"/>
<path d="M38.3652 23.9578C38.3192 23.857 38.2149 23.6578 38.0323 23.4498C37.9639 23.372 37.8608 23.2548 37.6964 23.1422C37.539 23.0344 37.3623 22.9566 37.1719 22.91L36.8997 22.8434L36.8431 22.5689C36.6811 21.7792 36.4595 20.9937 36.1837 20.2348C35.9675 19.639 35.5644 18.5294 34.7436 17.2495C34.1584 16.3374 33.4112 15.4399 32.5827 14.6544C31.8031 13.9155 30.9387 13.2649 30.0117 12.7157C29.6075 12.6161 28.7478 12.4399 27.6128 12.4399C26.8073 12.4399 25.8639 12.5289 24.8468 12.797C24.815 12.8053 24.7832 12.8141 24.752 12.823C26.5628 13.5265 29.1838 14.8671 31.4649 17.4293C32.3323 18.4039 32.9923 19.3774 33.4961 20.2589C33.8384 20.7639 34.0382 21.2253 34.1578 21.5594C34.2639 21.8558 34.3876 22.2123 34.4089 22.7003C34.4189 22.9289 34.4036 23.121 34.3859 23.2595C34.0824 23.3284 33.4596 23.5134 32.8909 24.0467C32.6976 24.2282 32.3199 24.5906 32.1201 25.1934C31.8373 26.0479 32.1054 26.801 32.2062 27.0479C32.2032 27.0479 32.1997 27.0485 32.1968 27.049C32.3158 27.3083 32.492 27.5853 32.7554 27.831C33.4684 28.4969 34.3364 28.501 34.753 28.5034C35.2586 28.5063 35.8319 28.5087 36.2368 28.1127C36.4754 27.8787 36.5838 27.5841 36.6322 27.3401C36.6221 27.3236 36.6133 27.3071 36.6027 27.2906C36.4784 27.0944 36.331 26.9353 36.1554 26.7856C36.027 26.676 35.8861 26.5594 35.7164 26.5222C35.578 26.4922 35.4259 26.5134 35.2845 26.501C34.9769 26.4739 34.6929 26.3384 34.6139 26.0184C34.5403 25.7202 34.6234 25.4763 34.7872 25.283C35.0512 24.9725 35.4743 24.8157 35.862 24.7315C36.7312 24.5423 37.6457 24.5782 38.532 24.5553C38.5078 24.3461 38.4518 24.1451 38.3652 23.956V23.9578Z" fill="white"/>
<path d="M37.42 27.9341C37.4035 27.9406 37.387 27.947 37.3705 27.9535C37.3516 28.0013 37.331 28.0496 37.3086 28.0979C37.3929 28.1262 37.4936 28.148 37.6062 28.148C37.6445 28.148 37.684 28.1456 37.7246 28.1397C37.9385 28.1097 38.13 28.0007 38.3557 27.7667C38.6887 27.4232 38.9014 27.0119 39.044 26.6206C38.638 27.2028 38.0658 27.6854 37.4206 27.9341H37.42Z" fill="white"/>
<path d="M41.2378 23.2948C41.1423 23.1262 41.0398 22.9583 40.9337 22.7956C40.7634 22.5352 40.6361 22.3761 40.4888 22.1916C40.388 22.065 40.2737 21.9218 40.1105 21.7037C39.9261 21.4568 39.7982 21.2653 39.566 20.9165L39.5407 20.8782C39.4305 20.7126 39.3215 20.5452 39.2142 20.3773C39.2172 20.3231 39.2184 20.2689 39.2189 20.2147C39.2254 20.1304 39.2301 20.0449 39.2325 19.9595H39.213C39.2095 19.8965 39.2048 19.8334 39.1983 19.7709C39.1854 19.6484 39.1665 19.5264 39.1423 19.405C39.279 19.1451 39.3957 18.8747 39.4906 18.5977C39.6149 18.2347 39.8459 17.5582 39.7876 16.7657C39.7622 16.4251 39.5654 14.6915 38.1429 13.9832C37.7817 13.8028 37.3798 13.7115 36.9491 13.7115C36.2968 13.7115 35.6822 13.9213 35.2331 14.0739C35.0858 14.124 34.9403 14.1806 34.7971 14.2424C34.3999 13.9018 33.8177 13.454 33.08 13.0274C31.902 12.3468 30.8242 12.0162 30.4153 11.9054C30.3941 11.8995 30.3729 11.8942 30.3517 11.8889C30.2745 11.8695 30.1967 11.8506 30.1195 11.8312C29.3493 11.652 28.4719 11.5542 27.6145 11.5542C26.6016 11.5542 25.5951 11.6844 24.6228 11.9408C23.7625 12.1676 22.9263 12.4947 22.1379 12.9119L21.0866 13.4681C20.6458 13.4811 20.4496 13.487 20.3353 13.4976C20.0943 13.5188 19.5934 13.5636 19.0937 13.7445C18.0171 14.1346 17.4838 14.8064 17.2263 15.3008C17.1821 15.3862 16.8009 16.1587 16.8934 17.2872C16.9105 17.4981 16.9488 17.6802 16.9564 17.7144C17.0548 18.1664 17.2293 18.4846 17.3035 18.6207C17.3283 18.6661 17.4202 18.7215 17.3807 18.755C14.442 21.2459 12.6401 24.1781 11.9577 27.6524C11.9318 27.7826 11.8605 27.9028 11.8133 28.0283L11.1504 29.7885L11.8151 29.5598C11.8275 29.9434 11.8917 30.2846 11.9559 30.5351L12.3955 32.2616L12.4739 32.1632C12.4715 32.6181 12.5204 33.109 12.6654 33.6334C12.7838 34.0612 12.9571 34.4767 13.1816 34.868L13.7367 35.8361L13.805 35.7719C13.8539 35.875 13.904 35.9693 13.9541 36.0506C14.5622 37.0317 15.8085 37.248 16.3159 37.2957L17.1591 37.3747L17.2741 36.5356C17.4025 35.6016 17.6606 34.7094 18.0419 33.8845C18.8403 32.1573 20.0106 31.0813 20.8656 30.2952C21.3306 29.868 21.7696 29.4644 22.4478 29.056C23.0371 28.7007 23.9281 28.1639 25.149 28.0431C25.2569 28.0325 25.3435 28.0272 25.4213 28.0272C25.4395 28.0272 25.4572 28.0272 25.4755 28.0277C25.7065 28.0348 25.8779 28.0454 26.0494 28.0637C27.4018 28.2098 29.0936 28.8109 29.1107 28.8168L29.255 28.8686H29.258C29.6068 28.993 29.6934 29.0372 29.7147 29.0513C30.0611 29.2799 30.2444 29.6417 30.5043 30.2098C30.6233 30.4697 30.793 30.8963 30.928 31.4531C31.0057 31.7731 31.0358 31.9917 31.0605 32.1673C31.1071 32.5015 31.1601 32.8804 31.5231 33.2351C31.9492 33.6511 32.5443 33.6865 33.0682 33.6865C33.2921 33.6865 33.549 33.6782 33.846 33.6694C34.9196 33.6358 35.6698 33.4985 36.0946 32.9192C36.2149 32.7554 36.2862 32.5851 36.4288 32.2451C36.5938 31.8515 36.6863 31.5492 36.7163 31.4502L36.7175 31.4467C36.81 31.1444 36.9196 30.9558 37.0722 30.6948C37.1659 30.5333 37.2726 30.3506 37.3863 30.1214C37.5596 29.7731 37.7057 29.4037 37.8236 29.0177C37.833 29.0165 37.8424 29.0154 37.8518 29.0142C38.4022 28.9364 38.7676 28.6152 38.995 28.3807C39.8595 27.488 40.0757 26.3147 40.18 25.7508C40.1895 25.6995 40.1983 25.6483 40.2071 25.597C40.2814 25.5799 40.355 25.5587 40.4269 25.534L41.3161 25.2228L40.992 24.4562L41.695 24.0944L41.2413 23.2936L41.2378 23.2948ZM35.5172 14.9118C36.0068 14.7333 36.4376 14.5966 36.9479 14.5966C37.2184 14.5966 37.4883 14.6461 37.7475 14.7751C38.7705 15.2848 38.8931 16.6749 38.9043 16.8311C38.9491 17.4439 38.7658 17.9807 38.6527 18.3119C38.5101 18.7291 38.3339 19.0556 38.196 19.2777C38.2461 19.4362 38.2938 19.6336 38.318 19.8635C38.3291 19.9707 38.3339 20.0726 38.3345 20.1681C38.2956 20.6425 38.1789 21.0991 37.9856 21.5275C37.8919 21.735 37.78 21.9353 37.6527 22.1256C37.4217 21.24 37.196 20.4963 37.0145 19.9324C36.7617 19.1451 36.4129 18.0697 35.8259 16.728C35.529 16.0485 35.2544 15.4923 35.0522 15.0992C35.1589 15.0509 35.3192 14.9826 35.5172 14.9101V14.9118ZM30.1984 28.3147C30.113 28.2581 29.9987 28.1916 29.4053 27.9859C29.4053 27.9859 27.618 27.346 26.1413 27.1863C25.9215 27.1627 25.7177 27.1521 25.499 27.1456C25.4725 27.145 25.4454 27.1444 25.4189 27.1444C25.3046 27.1444 25.1897 27.1515 25.0594 27.1645C23.6405 27.3053 22.6311 27.9134 21.9894 28.3C21.2492 28.7461 20.7761 29.1756 20.2652 29.6459C19.3618 30.4761 18.1096 31.627 17.2369 33.515C16.9464 34.1437 16.5734 35.1243 16.396 36.4171C16.2045 36.3995 15.1356 36.2845 14.7031 35.5863C14.5941 35.4107 14.4697 35.1084 14.3878 34.8185C14.31 34.5444 14.277 34.3064 14.2617 34.1349C14.1568 34.2333 14.0514 34.3311 13.9465 34.4295C13.8021 34.1773 13.6347 33.8308 13.5151 33.3989C13.2399 32.4042 13.3784 31.5351 13.5151 30.7284C13.5705 30.4025 13.6571 29.9941 13.7991 29.5298C13.6471 29.6029 13.4585 29.7101 13.2629 29.8663C13.0649 30.0242 12.917 30.185 12.8109 30.3182C12.7526 30.0902 12.6518 29.6087 12.7161 29.0878C12.7697 28.6583 12.9147 28.3725 13.0001 28.2994C13.0083 28.2923 13.0661 28.2446 13.0578 28.231C13.0567 28.2287 13.0537 28.2281 13.049 28.2281C13.0319 28.2281 12.996 28.2434 12.9789 28.2469C12.8569 28.2729 12.7438 28.3053 12.6389 28.3418C12.6748 28.2599 12.7108 28.178 12.7467 28.0961C12.7573 28.0566 12.7726 28.0177 12.7791 27.9777C13.2087 25.2069 14.7832 21.943 17.9234 19.4816C17.6895 19.6649 18.2734 19.8081 18.4349 19.9076C18.5292 19.966 18.5858 20.0007 18.68 20.1074C18.7313 20.1657 18.7684 20.2094 18.7955 20.2447C18.6111 20.3667 18.5351 20.5782 18.5027 20.6702C18.3801 21.0202 18.495 21.3343 18.5369 21.4344C18.7077 21.3313 18.9576 21.2005 19.277 21.0962C19.4396 21.0432 19.6423 20.9907 20.2487 20.9206C20.947 20.8399 21.2964 20.7998 21.7436 20.8181C22.109 20.8328 22.3724 20.8746 22.8049 20.9436C23.3146 21.0249 23.7748 21.1251 24.0359 21.1922C24.9033 21.4162 25.5409 21.7892 26.6729 22.4492C27.8054 23.1103 28.5685 23.6825 28.8066 23.864C29.344 24.2729 29.7871 24.6548 30.1313 24.9683C29.9798 25.0743 29.8201 25.1981 29.6575 25.3407C29.344 25.6165 29.0983 25.8958 28.9091 26.1456C29.0753 26.3418 29.3128 26.6394 29.5638 27.026C29.8956 27.5363 30.1048 27.9771 30.2709 28.3642C30.2474 28.3471 30.2238 28.33 30.1984 28.3135V28.3147ZM30.6127 21.2335C30.0812 20.7527 29.6086 20.4227 29.1142 20.0774C28.6793 19.7739 28.2869 19.4993 27.7223 19.1952C27.7223 19.1952 26.103 18.3213 25.0983 18.3891C24.8067 18.4085 24.5332 18.4787 24.5332 18.4787C24.3682 18.5211 24.228 18.5718 24.1172 18.6172C23.9946 18.273 23.7454 17.6914 23.2498 17.111C22.4767 16.2053 20.9363 15.111 19.8038 15.6048C19.756 15.6254 19.3707 15.8016 19.1367 16.2112C18.6677 17.0332 19.0855 18.3184 19.8026 18.6254C19.9034 18.6684 19.9918 18.6843 20.043 18.6914C20.0884 18.748 20.3365 19.0656 20.2599 19.4616C20.2004 19.7674 19.9699 20.0007 19.7213 20.1192C19.6624 19.9006 19.5086 19.7108 19.3412 19.5223C19.1603 19.3184 19.0153 19.2288 18.8987 19.1563C18.7714 19.0774 18.7843 19.0809 18.7726 19.0715C18.6971 19.0143 18.6353 18.9436 18.515 18.8045C18.4832 18.768 18.4402 18.7179 18.3842 18.649C18.3224 18.5724 18.2717 18.5046 18.2322 18.4498C18.1786 18.3726 18.1261 18.2889 18.0766 18.1982C18.0083 18.0733 17.8875 17.8493 17.8179 17.5288C17.8168 17.5223 17.7855 17.3767 17.7726 17.2171C17.6983 16.3066 18.0083 15.7109 18.0083 15.7109C18.4137 14.9319 19.1909 14.6502 19.3925 14.5777C19.7843 14.4357 20.1927 14.3992 20.4119 14.3797C20.5121 14.3709 20.7607 14.3638 21.2581 14.3491C21.5586 14.3403 21.8055 14.3367 21.8644 14.3355C22.4425 14.3255 22.5067 14.3314 22.736 14.3208C22.9175 14.312 23.185 14.2931 23.5132 14.2471C23.8361 14.3862 24.2286 14.5642 24.7094 14.7828C26.7612 15.7156 28.6033 17.055 28.7105 17.1334C29.552 17.7503 30.5673 18.5836 31.6239 19.6737C31.7906 19.8558 32.1554 20.2541 32.3693 20.4875C32.3693 20.4875 32.7883 20.9448 33.3428 21.7521C33.3958 21.8298 33.5007 21.9866 33.5178 22.2064C33.5231 22.2789 33.5278 22.4886 33.4111 22.6631C33.2067 22.9683 32.757 22.9742 32.6887 22.9748C32.0275 22.983 31.7812 22.2906 30.6121 21.2329L30.6127 21.2335ZM36.5914 29.7295C36.3038 30.3082 36.0575 30.5734 35.869 31.1897C35.8436 31.2734 35.7605 31.5468 35.6103 31.9045C35.4948 32.1803 35.4364 32.3182 35.3787 32.3977C35.2496 32.5739 34.9945 32.7501 33.8154 32.7867C33.5231 32.7961 33.2756 32.8037 33.0652 32.8037C32.5832 32.8037 32.3004 32.7631 32.1377 32.6046C31.8979 32.37 31.9992 32.1632 31.7965 31.3005C31.5838 30.2893 31.4942 29.5893 31.453 29.1244C31.4424 29.0083 31.4017 28.5269 31.3275 27.6866C31.3133 27.5292 31.2957 27.3247 31.2821 27.1733L31.2915 27.1721C31.4453 27.5858 31.7064 28.0619 32.1519 28.4779C33.1177 29.3795 34.3021 29.3854 34.7488 29.3878C34.7918 29.3878 34.8354 29.3878 34.8802 29.3878C35.4736 29.3878 36.2378 29.3489 36.8554 28.7437C36.9226 28.6777 36.9827 28.6093 37.0381 28.5398C36.9025 29.0442 36.7364 29.4379 36.592 29.7284L36.5914 29.7295ZM35.8619 24.7332C35.4742 24.8174 35.0511 24.9742 34.7871 25.2847C34.6232 25.478 34.5402 25.7214 34.6138 26.0201C34.6928 26.3401 34.9768 26.4756 35.2844 26.5027C35.4258 26.5151 35.5779 26.4933 35.7163 26.5239C35.8855 26.5611 36.0263 26.6777 36.1553 26.7873C36.3309 26.937 36.4783 27.0961 36.6026 27.2923C36.6126 27.3082 36.622 27.3253 36.6321 27.3418C36.5837 27.5858 36.4753 27.8804 36.2367 28.1144C35.8324 28.5109 35.2591 28.508 34.7529 28.505C34.3357 28.5027 33.4683 28.4986 32.7553 27.8327C32.4919 27.587 32.3157 27.31 32.1966 27.0507C32.1996 27.0507 32.2031 27.0501 32.2061 27.0496C32.1053 26.8027 31.8372 26.0496 32.12 25.1951C32.3198 24.5929 32.6975 24.2299 32.8908 24.0484C33.4594 23.5151 34.0817 23.3301 34.3858 23.2612C34.4029 23.1227 34.4188 22.9306 34.4088 22.7019C34.3875 22.2134 34.2638 21.8575 34.1577 21.5611C34.0381 21.2264 33.8383 20.7656 33.496 20.2606C32.9927 19.3791 32.3328 18.4056 31.4648 17.431C29.1837 14.8688 26.8479 13.4534 25.0371 12.7504C25.0371 12.7504 25.0394 12.7498 25.04 12.7498C25.3729 12.6532 25.7188 12.5842 26.2598 12.5259C26.6169 12.4876 27.0447 12.441 27.6133 12.4416C28.2061 12.4422 29.0323 12.4941 30.0122 12.7174C30.3864 12.939 30.8166 13.2159 31.2762 13.5583C31.5331 13.7492 32.0299 14.1322 32.5832 14.6567C33.7965 15.8058 34.5349 16.926 34.744 17.2518C35.5643 18.5317 35.9674 19.6413 36.1842 20.237C36.46 20.996 36.6816 21.7815 36.8436 22.5711L36.9002 22.8457L37.1724 22.9123C37.3628 22.9589 37.5395 23.0367 37.6969 23.1445C37.8613 23.257 37.9644 23.3743 38.0327 23.4521C38.2154 23.6601 38.3197 23.8593 38.3657 23.96C38.4523 24.1492 38.5077 24.3501 38.5324 24.5593C37.6468 24.5823 36.7322 24.5464 35.8625 24.7355L35.8619 24.7332ZM38.3563 27.7673C38.13 28.0006 37.9391 28.1096 37.7252 28.1403C37.6845 28.1462 37.645 28.1485 37.6067 28.1485C37.4942 28.1485 37.3934 28.1261 37.3091 28.0985C37.3315 28.0501 37.3527 28.0018 37.371 27.9541C37.3875 27.9476 37.404 27.9411 37.4205 27.9346C38.0657 27.6866 38.6379 27.2039 39.0439 26.6212C38.9019 27.013 38.6886 27.4237 38.3557 27.7673H38.3563ZM40.1459 23.8917C40.0304 23.9477 39.9166 24.0013 39.8047 24.052C39.8648 24.1533 39.9255 24.2635 39.9844 24.3825C40.0398 24.4927 40.0881 24.5994 40.1311 24.7013C40.0787 24.7196 40.0192 24.7361 39.9538 24.7479C39.883 24.7603 39.8153 24.7656 39.7516 24.7656C39.6521 24.7656 39.5631 24.7526 39.4888 24.7361C39.47 24.7167 39.4488 24.6996 39.427 24.6837C39.4122 24.3006 39.3262 23.9329 39.1694 23.59C39.0887 23.4132 38.9408 23.1439 38.6963 22.8658C38.6385 22.7998 38.546 22.6955 38.4128 22.5806C38.5572 22.3608 38.6845 22.1304 38.7923 21.8917C38.8424 21.7809 38.8866 21.6678 38.9284 21.5541C39.1082 21.8234 39.2331 22.006 39.4028 22.2335C39.8165 22.7862 39.9426 22.8946 40.1942 23.2794C40.3156 23.465 40.4081 23.623 40.4688 23.7302C40.3639 23.7838 40.2566 23.8381 40.1464 23.8917H40.1459Z" fill="#1E1E1E"/>
<path d="M37.6709 18.2214C37.7658 18.3864 37.8972 18.6292 38.0439 18.9515C38.2649 18.4895 38.3963 18.0841 38.4776 17.7842C38.6362 17.1978 38.7416 16.7683 38.5649 16.3086C38.5324 16.2238 38.3498 15.7494 38.0363 15.7264C37.9066 15.717 37.8041 15.7883 37.7511 15.8254C37.6374 15.9044 37.5024 16.0547 37.3592 16.7347C37.3227 16.9091 37.2803 17.1442 37.249 17.4271C37.2838 17.5007 37.3362 17.6109 37.4052 17.7429C37.5224 17.9686 37.612 18.1194 37.6715 18.222L37.6709 18.2214Z" fill="#1E1E1E"/>
<path d="M27.7842 42.4212C27.8189 42.4513 27.8502 42.4825 27.8785 42.5143C27.8944 41.8225 28.0517 41.1089 28.1925 40.4696C28.235 40.2775 28.2762 40.0895 28.3116 39.9121H28.2686C28.2079 40.3841 28.1012 40.8496 28.0034 41.2798C27.9073 41.6988 27.8166 42.0971 27.7842 42.4218V42.4212Z" fill="#1E1E1E"/>
<path d="M18.3438 40.5244L18.8169 41.4354C18.8929 41.2315 18.9884 41.0294 19.1045 40.8314C19.4286 40.2787 19.8953 39.8332 20.4934 39.5003C20.4492 39.4307 20.4038 39.3565 20.3567 39.2781C20.2406 39.0866 20.154 38.9304 20.0903 38.7979C19.7067 39.4961 19.1228 40.0742 18.3443 40.5238L18.3438 40.5244Z" fill="#1E1E1E"/>
<path d="M15.2324 37.4793H15.3715C15.4935 37.4445 15.7286 37.2424 15.7769 37.1286C15.8176 37.002 15.8258 36.92 15.8252 36.88C15.7728 36.847 15.6266 36.7851 15.3579 36.7598L15.2324 37.4793Z" fill="#1E1E1E"/>
<path d="M32.8815 39.9582C32.7949 40.3477 32.6252 41.112 32.5557 41.64C32.581 41.6335 32.6052 41.627 32.6276 41.6205C32.7307 41.5928 32.8273 41.5669 32.9234 41.5474L32.9717 41.5374C32.9729 41.3954 32.9799 41.2487 32.9935 41.0961C33.0294 40.6918 33.1102 40.2947 33.2298 39.9087L32.891 39.9122C32.8874 39.9275 32.8845 39.9429 32.8809 39.9582H32.8815Z" fill="#1E1E1E"/>
<path d="M19.3762 38.0079C20.5206 35.2289 18.4452 33.8294 15.9208 33.698C15.5784 33.6803 15.2319 33.6738 14.8825 33.6738C13.9632 33.6738 13.0286 33.7186 12.1123 33.7186C11.8919 33.7186 11.6727 33.7163 11.4547 33.7098C11.4559 33.969 11.0882 35.2319 11.1241 35.3574C11.1483 35.4422 11.2184 35.4599 11.3038 35.4599C11.3657 35.4599 11.4353 35.4505 11.5013 35.4505C11.6521 35.4505 11.7859 35.4982 11.7676 35.8123C11.4028 38.2707 10.7105 40.7727 10.3545 43.2188C10.3321 43.372 10.1937 43.9618 10.3681 44.0161H13.0121L13.6574 40.398C13.6804 40.3638 13.7705 40.3473 13.8772 40.3473C14.0498 40.3473 14.2667 40.3903 14.3215 40.4716L16.1741 44.151L19.0839 44.3425L19.0639 44.1716C19.0215 44.105 18.9808 44.0367 18.9437 43.966C18.8423 43.7739 18.7646 43.5741 18.7086 43.3696L16.9944 40.0674C18.0174 39.6832 18.9461 39.0503 19.3756 38.0067L19.3762 38.0079ZM16.7157 37.4363C16.5589 37.9201 15.9013 38.4669 15.3957 38.4669H14.0575L14.5236 35.7993C14.7104 35.7752 14.9066 35.761 15.1023 35.761C16.1235 35.761 17.1346 36.1423 16.7157 37.4369V37.4363Z" fill="white"/>
<path d="M15.1014 36.2549C15.0496 36.2549 14.9965 36.2561 14.9435 36.2584L14.6436 37.9738H15.3943C15.6636 37.9738 16.1485 37.5813 16.2446 37.2849C16.3454 36.9744 16.3424 36.7428 16.2363 36.5967C16.0808 36.3828 15.6565 36.2549 15.1014 36.2549ZM15.7761 37.1288C15.7278 37.2425 15.4927 37.4446 15.3707 37.4794H15.2316L15.3572 36.7599C15.6253 36.7852 15.772 36.8471 15.8244 36.8801C15.825 36.9196 15.8168 37.0021 15.7761 37.1288Z" fill="#1E1E1E"/>
<path d="M19.6444 44.8743L15.8607 44.6257L14.0481 41.0252L13.4264 44.5102H10.2939L10.2226 44.4878C9.65569 44.3116 9.78415 43.6039 9.8531 43.2238C9.85899 43.1926 9.8637 43.166 9.86606 43.1478C10.0481 41.8974 10.3198 40.6186 10.5826 39.3818C10.8224 38.2527 11.0705 37.0872 11.2473 35.9517C10.8083 35.9251 10.6792 35.5963 10.6498 35.4926C10.5979 35.3111 10.6351 35.142 10.7995 34.4555C10.8572 34.2139 10.9538 33.8108 10.9609 33.706L10.9591 33.2004L11.4695 33.2157C11.6704 33.2216 11.8808 33.2245 12.1129 33.2245C12.5649 33.2245 13.0322 33.2133 13.4842 33.2021C13.9432 33.1909 14.4176 33.1797 14.8831 33.1797C15.2761 33.1797 15.6238 33.188 15.9461 33.2045C17.7057 33.2958 19.094 33.9476 19.7551 34.9923C20.1028 35.5415 20.4016 36.449 19.9938 37.7507C20.1234 37.3942 20.4016 37.1278 20.6661 36.9387C20.7634 35.9546 20.4835 35.2204 20.1723 34.7289C19.4246 33.5469 17.8936 32.812 15.9715 32.7119C15.6403 32.6948 15.2838 32.6865 14.8819 32.6865C14.4099 32.6865 13.9326 32.6983 13.4706 32.7095C13.0216 32.7201 12.5572 32.7313 12.1112 32.7313C11.8843 32.7313 11.6786 32.7284 11.483 32.7225L10.4624 32.6924L10.4659 33.6771C10.4483 33.7985 10.3669 34.1355 10.318 34.3412C10.143 35.0707 10.0841 35.3164 10.1737 35.6293C10.2414 35.8674 10.41 36.1302 10.6904 36.2922C10.5225 37.2834 10.3074 38.2952 10.0982 39.2798C9.83365 40.5244 9.56023 41.8107 9.37579 43.0771C9.37343 43.0912 9.3699 43.1118 9.36518 43.136C9.34043 43.2721 9.30331 43.4778 9.29388 43.6875C9.25322 44.6304 9.8802 44.8997 10.0735 44.9598L10.2167 45.004H13.8377L13.9827 44.1896L14.2714 42.5715L15.2903 44.5956L15.5442 45.1L16.1076 45.1371L19.0174 45.3287L20.2018 45.4064L20.177 45.1972C19.982 45.0935 19.8017 44.9704 19.6367 44.8307L19.642 44.8749L19.6444 44.8743Z" fill="#1E1E1E"/>
<path d="M17.6787 40.3151L18.6345 42.156C18.6681 41.9156 18.7282 41.6745 18.8172 41.4353L18.344 40.5243C19.1224 40.0747 19.7064 39.4966 20.09 38.7983C19.9497 38.5096 19.9179 38.3363 19.9191 38.1643C19.9203 38.0464 19.9374 37.9362 19.9674 37.8325C19.9279 37.951 19.8837 38.0718 19.8325 38.1961C19.4589 39.1036 18.7353 39.8142 17.6787 40.3151Z" fill="#1E1E1E"/>
<path d="M19.0643 44.1718L19.0843 44.3427L16.1745 44.1511L14.3219 40.4718C14.2671 40.3904 14.0502 40.3474 13.8776 40.3474C13.7709 40.3474 13.6808 40.3639 13.6578 40.3981L13.0125 44.0162H10.3685C10.1935 43.962 10.3325 43.3727 10.3549 43.2189C10.7109 40.7729 11.4032 38.2709 11.768 35.8124C11.7863 35.4984 11.6525 35.4506 11.5017 35.4506C11.4357 35.4506 11.3655 35.46 11.3042 35.46C11.2188 35.46 11.1487 35.4424 11.1245 35.3575C11.0886 35.232 11.4557 33.9686 11.4551 33.7099C11.6731 33.7164 11.8923 33.7188 12.1127 33.7188C13.029 33.7188 13.9636 33.674 14.8829 33.674C15.2317 33.674 15.5782 33.6805 15.9212 33.6981C18.4456 33.8295 20.521 35.2291 19.3766 38.008C18.947 39.0516 18.0178 39.6839 16.9954 40.0687L18.7096 43.371C18.6023 42.9791 18.5782 42.569 18.6353 42.1559L17.6795 40.315C18.7361 39.8147 19.4597 39.1035 19.8333 38.196C19.8846 38.0717 19.9288 37.9503 19.9682 37.8324C19.9759 37.8047 19.9847 37.7776 19.9948 37.7511C20.4025 36.4494 20.1038 35.5425 19.7561 34.9928C19.0949 33.948 17.7066 33.2963 15.9471 33.2049C15.6248 33.1884 15.2765 33.1802 14.884 33.1802C14.4179 33.1802 13.9436 33.1914 13.4851 33.2026C13.0332 33.2138 12.5659 33.225 12.1139 33.225C11.8817 33.225 11.6714 33.222 11.4704 33.2161L10.9601 33.2008L10.9619 33.7064C10.9548 33.8119 10.8582 34.2149 10.8004 34.4559C10.636 35.143 10.5989 35.3116 10.6508 35.493C10.6802 35.5968 10.8093 35.9256 11.2483 35.9521C11.0715 37.0876 10.8234 38.2532 10.5836 39.3822C10.3208 40.6185 10.0491 41.8972 9.86703 43.1482C9.86408 43.1665 9.85936 43.193 9.85406 43.2242C9.78512 43.6043 9.65666 44.312 10.2235 44.4882L10.2948 44.5106H13.4274L14.0491 41.0257L15.8616 44.6261L19.6453 44.8748L19.64 44.8306C19.4173 44.642 19.224 44.4216 19.0655 44.1724L19.0643 44.1718Z" fill="#1E1E1E"/>
<path d="M15.1014 35.7608C14.9052 35.7608 14.709 35.775 14.5228 35.7991L14.0566 38.4668H15.3949C15.9005 38.4668 16.5581 37.9199 16.7148 37.4361C17.1344 36.1415 16.1226 35.7603 15.1014 35.7603V35.7608ZM16.2452 37.2847C16.1491 37.5805 15.6648 37.9735 15.3949 37.9735H14.6441L14.9441 36.2582C14.9971 36.2558 15.0496 36.2546 15.102 36.2546C15.6571 36.2546 16.0814 36.3825 16.2369 36.5964C16.343 36.7426 16.3459 36.9741 16.2452 37.2847Z" fill="#1E1E1E"/>
<path d="M31.602 42.434C31.3427 41.8747 31.9791 39.6279 32.0852 38.9325L33.6397 38.9166C33.7134 38.7764 33.7929 38.6391 33.8778 38.5041C33.9597 38.0545 34.041 37.3786 34.0351 37.226H32.4358C32.4075 37.226 32.3268 37.1241 32.3415 37.0699L32.5991 35.0068L30.0982 35.9332C29.8313 36.0923 29.8979 37.0805 29.7305 37.1977C29.6663 37.2254 29.5478 37.2331 29.4058 37.2331C29.2078 37.2331 28.965 37.2172 28.7653 37.2172C28.5655 37.2172 28.4217 37.2313 28.384 37.2873C28.3392 37.3527 28.2868 37.9196 28.2373 38.3763C28.275 38.5507 28.2998 38.7334 28.3116 38.9243H29.3027C29.3693 38.9243 29.4046 39.0763 29.4041 39.1494C29.3923 40.6426 28.0181 43.3514 29.7075 44.3302C30.0935 44.5535 30.6403 44.6602 31.1907 44.6602C31.7411 44.6602 32.3027 44.5524 32.701 44.3467C33.1194 44.131 33.0139 43.1753 33.0946 42.6467C33.0852 42.6078 33.0764 42.5677 33.0675 42.5276C32.8295 42.5836 32.4529 42.7097 32.1329 42.7097C31.9008 42.7097 31.6992 42.6431 31.602 42.4345V42.434Z" fill="white"/>
<path d="M32.9235 41.5474C32.828 41.5669 32.7308 41.5928 32.6277 41.6205C32.6053 41.6264 32.5811 41.6329 32.5558 41.6399C32.6253 41.1119 32.795 40.3477 32.8816 39.9582C32.8852 39.9428 32.8887 39.9275 32.8917 39.9122L33.2305 39.9087C33.2823 39.7407 33.3419 39.5757 33.409 39.4131L32.4939 39.4225C32.4662 39.5533 32.4338 39.6971 32.3996 39.8509C32.2653 40.4543 31.9553 41.8479 32.0455 42.2086C32.062 42.2121 32.0903 42.2156 32.1327 42.2156C32.3136 42.2156 32.5587 42.1502 32.7555 42.0978C32.8404 42.0754 32.9194 42.0548 32.993 42.0383C32.9777 41.8792 32.9706 41.7124 32.9718 41.538L32.9235 41.548V41.5474Z" fill="#1E1E1E"/>
<path d="M27.8479 37.427C27.8827 37.1907 27.9145 37.0988 27.9752 37.0098C28.1703 36.724 28.5421 36.724 28.7648 36.724C28.8738 36.724 28.9911 36.7281 29.1042 36.7322C29.1938 36.7352 29.2799 36.7387 29.3576 36.7393C29.3635 36.6975 29.3688 36.655 29.3735 36.6191C29.4301 36.1777 29.489 35.721 29.845 35.5089L29.8839 35.4859L33.189 34.262L32.8809 36.7328H34.5102L34.5285 37.2078C34.5326 37.3103 34.5155 37.5 34.4943 37.6868C34.5821 37.589 34.6716 37.493 34.7659 37.4005C34.849 37.3191 34.9345 37.2414 35.0211 37.1653L34.9857 36.239H33.4401L33.5786 35.1294L33.7795 33.5166L32.2551 34.0811L29.7542 35.0074L29.6694 35.0387L29.5916 35.0852C29.1484 35.3492 29.0017 35.8136 28.9298 36.2325C28.8744 36.2314 28.819 36.2302 28.7642 36.2302C28.5079 36.2302 27.908 36.2302 27.5669 36.7316C27.5191 36.8018 27.4826 36.8707 27.4531 36.9491C27.6046 37.0946 27.736 37.2543 27.8479 37.427Z" fill="#1E1E1E"/>
<path d="M32.9262 44.7856C32.4719 45.0195 31.839 45.1533 31.1902 45.1533C30.5414 45.1533 29.9009 45.0125 29.4589 44.7567C27.9469 43.8811 28.3505 42.0479 28.6746 40.5753C28.7671 40.1557 28.8555 39.7544 28.8915 39.418H28.3128C28.3046 39.5824 28.2892 39.7474 28.268 39.9118H28.311C28.2757 40.0891 28.2344 40.2771 28.192 40.4692C28.0512 41.1086 27.8938 41.8228 27.8779 42.514C28.0742 42.7302 28.1407 42.9736 28.1625 43.1339C28.1855 43.3018 28.1749 43.4491 28.0742 43.8322C28.3328 44.5352 28.8025 44.9477 29.2114 45.1845C29.727 45.4827 30.4295 45.6471 31.1896 45.6471C31.9498 45.6471 32.6227 45.4968 33.1519 45.2246C33.5826 45.003 33.7983 44.6259 33.9103 44.2246C33.7765 44.0744 33.6392 43.894 33.5119 43.6807C33.4601 44.1345 33.3304 44.5776 32.9262 44.7862V44.7856Z" fill="#1E1E1E"/>
<path d="M28.3823 37.2875C28.42 37.2315 28.5727 37.2174 28.7636 37.2174C28.9545 37.2174 29.2061 37.2333 29.4041 37.2333C29.5455 37.2333 29.6646 37.225 29.7288 37.1979C29.8961 37.0807 29.8296 36.0925 30.0965 35.9334L32.5973 35.007L32.3398 37.0701C32.3251 37.1243 32.4058 37.2262 32.4341 37.2262H34.0334C34.0393 37.3788 33.958 38.0541 33.8761 38.5043C34.057 38.2168 34.2632 37.9434 34.493 37.687C34.5142 37.5002 34.5313 37.3105 34.5272 37.208L34.5089 36.733H32.8796L33.1878 34.2622L29.8826 35.4861L29.8437 35.5091C29.4878 35.7212 29.4289 36.1773 29.3723 36.6193C29.3676 36.6552 29.3623 36.6977 29.3564 36.7395C29.2786 36.7383 29.1926 36.7354 29.103 36.7324C28.9899 36.7283 28.8726 36.7242 28.7636 36.7242C28.5414 36.7242 28.169 36.7242 27.974 37.01C27.9133 37.0989 27.8814 37.1909 27.8467 37.4272C28.0294 37.7082 28.159 38.0253 28.235 38.3765C28.2851 37.9198 28.3369 37.3535 28.3817 37.2875H28.3823Z" fill="#1E1E1E"/>
<path d="M32.133 42.2157C32.0899 42.2157 32.0622 42.2116 32.0457 42.2086C31.9556 41.8486 32.2655 40.4544 32.3999 39.851C32.4341 39.6972 32.4659 39.5528 32.4942 39.4226L33.4093 39.4132C33.4788 39.2446 33.5554 39.079 33.6403 38.917L32.0858 38.9329C31.9797 39.6282 31.3433 41.8757 31.6026 42.4343C31.6993 42.6429 31.9014 42.7095 32.1335 42.7095C32.4529 42.7095 32.8295 42.5834 33.0681 42.5274C33.0357 42.3736 33.0104 42.2104 32.9939 42.0383C32.9202 42.0543 32.8407 42.0749 32.7564 42.0979C32.5596 42.1503 32.3144 42.2157 32.1335 42.2157H32.133Z" fill="#1E1E1E"/>
<path d="M32.7 44.3463C32.3011 44.5513 31.7442 44.6597 31.1897 44.6597C30.6352 44.6597 30.0919 44.5531 29.7065 44.3298C28.0171 43.3516 29.3913 40.6421 29.403 39.1489C29.403 39.0759 29.3689 38.9238 29.3017 38.9238H28.3105C28.3123 38.9527 28.3147 38.981 28.3159 39.0104C28.3212 39.1454 28.3194 39.2815 28.3129 39.4176H28.8916C28.855 39.7547 28.7666 40.156 28.6747 40.575C28.35 42.0481 27.9464 43.8807 29.459 44.7564C29.9004 45.0121 30.515 45.153 31.1903 45.153C31.8656 45.153 32.4725 45.0186 32.9263 44.7853C33.3311 44.5773 33.4607 44.1335 33.512 43.6798C33.3435 43.3958 33.1926 43.0534 33.0936 42.6456C33.0123 43.1748 33.1184 44.13 32.7 44.3457V44.3463Z" fill="#1E1E1E"/>
<path d="M42.7814 44.1168C42.8539 44.1304 42.9623 44.1357 43.0914 44.1357C43.541 44.1357 44.2387 44.0668 44.5162 44.0167C44.6158 43.999 44.6211 43.9925 44.6659 43.9053C44.7036 43.8316 45.003 42.7468 44.9906 42.6849C44.9582 42.517 44.5864 42.4669 44.5145 42.319C44.4296 42.144 44.5033 41.8329 44.4832 41.6343L45.8527 33.3745C44.9971 33.4859 44.1085 33.4523 43.2676 33.5637L43.1898 33.6815L42.3289 38.9354C42.4208 39.7174 42.3 40.4569 42.1609 40.989L41.993 41.6325L41.8846 41.6466L41.7373 42.5441C41.6742 43.2989 41.993 43.9713 42.7808 44.1168H42.7814Z" fill="white"/>
<path d="M41.3331 41.7192L41.2334 41.7321C41.2599 41.7981 41.2989 41.8853 41.3325 41.9608L41.3732 41.7139L41.3331 41.7192Z" fill="#1E1E1E"/>
<path d="M44.5132 32.4824C44.0653 32.5025 43.6016 32.5231 43.1378 32.585L42.6906 32.6439L42.4425 33.0204L42.3647 33.1383L42.2492 33.3139L42.215 33.5213L41.6234 37.13C41.7778 37.328 41.9092 37.5466 42.017 37.7829L42.7195 33.4971L42.9793 33.1029L43.2027 33.0735C43.6452 33.0151 44.0977 32.9945 44.535 32.975C44.9516 32.9562 45.3823 32.9367 45.7884 32.8843L46.4477 32.7983L44.9787 41.6585C44.9822 41.7451 44.9769 41.8306 44.9716 41.9136C44.9693 41.9496 44.9663 41.9979 44.9657 42.0415C45.1248 42.1193 45.4112 42.2631 45.4743 42.5907C45.4955 42.7009 45.5043 42.7463 45.3222 43.4192C45.1584 44.0238 45.1225 44.0933 45.1036 44.131C44.9875 44.3567 44.8514 44.4575 44.6027 44.5023C44.2787 44.5612 43.5468 44.629 43.0901 44.629C42.918 44.629 42.7913 44.6201 42.6906 44.6019C42.1066 44.494 41.6688 44.1517 41.4325 43.6573L41.4113 43.682C41.3058 43.8034 41.1933 43.9201 41.0742 44.0321C41.3918 44.5795 41.9228 44.9625 42.601 45.088C42.7318 45.1122 42.8874 45.1234 43.0901 45.1234C43.5798 45.1234 44.3388 45.0521 44.6905 44.9884C45.0924 44.916 45.3552 44.7209 45.5426 44.3573C45.5815 44.2819 45.6216 44.2035 45.799 43.5489C45.9734 42.9042 46.0064 42.7427 45.9592 42.4982C45.8897 42.1376 45.6717 41.9089 45.4731 41.7669C45.4731 41.7433 45.4737 41.7192 45.4731 41.6944L46.8261 33.5354L47.0435 32.2231L45.7241 32.3946C45.3387 32.4447 44.9375 32.463 44.512 32.4818L44.5132 32.4824Z" fill="#1E1E1E"/>
<path d="M42.3279 38.936L43.1888 33.6821L43.2666 33.5643C44.1069 33.4529 44.9961 33.4865 45.8517 33.3751L44.4823 41.6349C44.5023 41.8335 44.4286 42.1446 44.5135 42.3196C44.5848 42.4675 44.9572 42.5176 44.9896 42.6855C45.0014 42.7474 44.7026 43.8328 44.6649 43.9059C44.6201 43.9931 44.6142 43.9996 44.5152 44.0173C44.2377 44.0674 43.54 44.1363 43.0904 44.1363C42.9614 44.1363 42.8529 44.1304 42.7804 44.1175C41.9926 43.9719 41.6744 43.3001 41.7369 42.5447L41.8842 41.6473L41.3727 41.7138L41.332 41.9607C41.3432 41.9855 41.3538 42.0091 41.3633 42.0297C41.5943 42.5424 41.794 42.9849 41.5495 43.4752L41.4935 43.5877L41.4328 43.6578C41.6691 44.1522 42.1069 44.4946 42.6909 44.6024C42.7916 44.6213 42.9183 44.6295 43.0904 44.6295C43.5471 44.6295 44.2784 44.5612 44.603 44.5028C44.8523 44.4581 44.9878 44.3573 45.1039 44.1316C45.1234 44.0939 45.1593 44.0244 45.3225 43.4198C45.5046 42.7468 45.4958 42.7015 45.4746 42.5913C45.4115 42.2636 45.1251 42.1198 44.966 42.0421C44.9672 41.9985 44.9702 41.9501 44.9719 41.9142C44.9766 41.8311 44.9819 41.7451 44.979 41.659L46.448 32.7988L45.7887 32.8849C45.3826 32.9379 44.9519 32.9568 44.5353 32.9756C44.0975 32.9951 43.6455 33.0157 43.203 33.074L42.9796 33.1035L42.7198 33.4977L42.0173 37.7834C42.0851 37.9325 42.144 38.0881 42.1918 38.2513C42.2589 38.4805 42.302 38.7098 42.3285 38.9354L42.3279 38.936Z" fill="#1E1E1E"/>
<path d="M20.0065 43.7265L20.0159 43.8066C20.373 44.251 20.941 44.5533 21.6641 44.6028C21.7483 44.6086 21.8308 44.6116 21.9104 44.6116C22.6941 44.6116 23.2716 44.3364 23.9127 43.8491C23.9982 43.7843 24.0388 43.6511 24.0594 43.6393C24.1254 43.6022 24.1738 43.5869 24.2085 43.5869C24.3352 43.5869 24.2887 43.7925 24.3211 43.9033C24.4737 44.4277 25.1125 44.5609 25.6587 44.5609C25.8172 44.5609 25.9681 44.5497 26.0971 44.5338C26.2215 44.5185 26.8367 44.3311 26.9015 44.2616C26.9522 44.2073 27.1949 43.3488 27.1843 43.2675C27.1566 43.0648 26.9268 43.1461 26.8355 42.9581C26.7683 42.8208 26.7807 42.6346 26.7889 42.4843C26.8302 41.7395 27.1395 40.8049 27.2721 39.9122H26.8596L27.2032 38.6759C27.2114 38.6317 27.2232 38.5445 27.235 38.442C27.1213 38.0554 26.8968 37.7136 26.5031 37.4473C25.9162 37.0501 25.0842 36.8916 24.2663 36.8916C23.6688 36.8916 23.0783 36.9765 22.5963 37.1149C22.2221 37.2222 20.911 37.7419 20.9075 38.1721C20.9063 38.3259 21.4814 39.2428 21.5439 39.2557C21.5557 39.2581 21.5686 39.2593 21.5822 39.2593C21.8096 39.2593 22.218 38.9193 22.4207 38.8321C22.7436 38.6942 23.2663 38.551 23.743 38.551C24.2569 38.551 24.7171 38.7172 24.8143 39.2334C24.9068 39.723 24.8314 39.8273 24.6528 39.8273C24.5279 39.8273 24.3523 39.7761 24.1472 39.7702C24.0435 39.7666 23.9375 39.7649 23.829 39.7649C22.4337 39.7649 20.7018 40.0607 19.9576 41.3305C19.6176 41.911 19.5274 42.5032 19.6417 43.0223L19.924 43.5662L20.0071 43.7265H20.0065ZM23.8921 41.0171C24.1107 41.0171 24.3211 41.0395 24.5026 41.0789C24.5421 41.1172 24.3794 41.9505 24.3423 42.0601C24.1844 42.5279 23.5285 42.8579 22.9858 42.8579C22.5798 42.8579 22.2368 42.6729 22.2133 42.2221C22.1667 41.3247 23.0836 41.0171 23.8927 41.0171H23.8921Z" fill="white"/>
<path d="M20.006 43.7261L19.9229 43.5659L19.6406 43.022C19.7043 43.3113 19.8321 43.5777 20.0154 43.8063L20.006 43.7261Z" fill="white"/>
<path d="M26.8594 39.9116H27.2719C27.3491 39.3919 27.3656 38.8869 27.2347 38.4414C27.223 38.5439 27.2112 38.6311 27.2029 38.6753L26.8594 39.9116Z" fill="white"/>
<path d="M20.0908 38.7981C20.155 38.9301 20.2411 39.0862 20.3571 39.2783C20.4049 39.3567 20.4502 39.431 20.4938 39.5005C19.8957 39.8334 19.429 40.2789 19.1049 40.8316C18.9889 41.0296 18.8934 41.2318 18.8174 41.4356L19.1491 42.075C19.214 41.7409 19.3412 41.4056 19.531 41.0815C19.9364 40.3891 20.571 39.9501 21.2817 39.6785C21.155 39.6001 21.0265 39.4315 20.7796 39.0232C20.4119 38.4162 20.4131 38.2731 20.4137 38.1688C20.4178 37.6526 20.9688 37.3031 21.3831 37.0857C21.8008 36.8659 22.2563 36.6991 22.4602 36.6408C23.0047 36.4846 23.6464 36.3986 24.2669 36.3986V35.9048C23.6016 35.9048 22.9116 35.9979 22.3241 36.1664C22.0566 36.243 21.5763 36.4269 21.1538 36.649C21.0383 36.7097 20.8562 36.8058 20.6671 36.9407C20.6241 37.3738 20.5086 37.8547 20.29 38.3856C20.231 38.5282 20.1644 38.6661 20.0908 38.7993V38.7981Z" fill="#1E1E1E"/>
<path d="M24.1619 39.277C24.2173 39.2788 24.2703 39.2829 24.3204 39.2882C24.2951 39.1945 24.2073 39.0454 23.7423 39.0454C23.3517 39.0454 22.8944 39.1662 22.6139 39.2864C22.5886 39.2976 22.5279 39.3347 22.4707 39.3707C22.9374 39.2976 23.4023 39.2717 23.8284 39.2717C23.938 39.2717 24.0505 39.2735 24.1625 39.277H24.1619Z" fill="#1E1E1E"/>
<path d="M27.8795 42.5144C27.8506 42.4826 27.8194 42.4514 27.7852 42.4213C27.8176 42.0966 27.9083 41.6983 28.0044 41.2793C28.1028 40.8491 28.2089 40.3836 28.2696 39.9116H27.771C27.7121 40.3418 27.6143 40.7696 27.523 41.1691C27.4104 41.6612 27.3043 42.1255 27.2831 42.5109V42.5233C27.2802 42.5627 27.2772 42.6234 27.2772 42.6735C27.4122 42.7366 27.6308 42.8774 27.675 43.2003C27.6862 43.281 27.6974 43.3641 27.5424 43.9086C27.3833 44.4708 27.3303 44.5273 27.2631 44.5987C27.0339 44.8426 26.1676 45.0223 26.16 45.0229C25.9968 45.0435 25.8241 45.0542 25.6603 45.0542C24.6998 45.0542 24.236 44.7177 24.0121 44.3889C23.2932 44.8951 22.6698 45.1048 21.9114 45.1048C21.8206 45.1048 21.7263 45.1013 21.6309 45.0948C21.0446 45.0547 20.5231 44.8697 20.1064 44.5674L20.1807 45.1962C20.5967 45.4166 21.0758 45.5515 21.5979 45.5874C21.7039 45.5945 21.8094 45.5986 21.912 45.5986C22.7552 45.5986 23.4052 45.347 23.9367 45.0288C24.2808 45.3146 24.8194 45.548 25.6603 45.548C25.8471 45.548 26.0356 45.5362 26.2213 45.5132C26.3869 45.4926 26.6426 45.4166 26.827 45.357C27.2101 45.2333 27.4381 45.1343 27.6231 44.9369C27.7858 44.7636 27.863 44.588 28.0174 44.0436C28.0397 43.9658 28.0586 43.8962 28.0751 43.8326C27.9679 43.5421 27.8971 43.2021 27.8812 42.8037C27.8777 42.7083 27.8771 42.6116 27.8795 42.5144Z" fill="#1E1E1E"/>
<path d="M22.9859 42.3645C23.3778 42.3645 23.7985 42.1135 23.8727 41.9066C23.8904 41.8453 23.9246 41.6786 23.9552 41.5118C23.9346 41.5118 23.9134 41.5112 23.8928 41.5112C23.4214 41.5112 23.0136 41.6326 22.8286 41.8277C22.7714 41.8878 22.696 41.9921 22.7072 42.1971C22.7107 42.2679 22.716 42.3645 22.9865 42.3645H22.9859Z" fill="#1E1E1E"/>
<path d="M27.3328 37.5496C27.3663 37.2703 27.3982 37.0929 27.453 36.9492C27.3328 36.8337 27.2008 36.727 27.0558 36.6292C26.1695 36.0299 25.0493 35.9038 24.2656 35.9038V36.3976C24.9804 36.3976 25.9963 36.509 26.7788 37.0381C27.0057 37.1919 27.1878 37.3634 27.3322 37.5496H27.3328Z" fill="#1E1E1E"/>
<path d="M19.0643 44.1721L19.0466 44.0213L18.709 43.3701C18.765 43.5746 18.8427 43.7744 18.9441 43.9665C18.9812 44.0372 19.0225 44.1049 19.0643 44.1721Z" fill="#1E1E1E"/>
<path d="M19.541 43.9966L19.6394 44.8304C19.8044 44.97 19.9847 45.0932 20.1798 45.1969L20.1055 44.5682C19.8863 44.4091 19.696 44.2176 19.541 43.9966Z" fill="#1E1E1E"/>
<path d="M19.9938 37.7514C19.9856 37.7785 19.9761 37.8056 19.9673 37.8327C19.9378 37.9364 19.9202 38.0466 19.919 38.1644C19.9178 38.3365 19.9496 38.5098 20.0899 38.7985C20.1635 38.6647 20.2301 38.5268 20.289 38.3848C20.5077 37.8539 20.6232 37.3731 20.6662 36.9399C20.4016 37.1291 20.1235 37.396 19.9938 37.752V37.7514Z" fill="#1E1E1E"/>
<path d="M19.1736 43.1952C19.0828 42.8352 19.074 42.4557 19.1482 42.0744L18.8165 41.4351C18.7275 41.6737 18.6674 41.9147 18.6338 42.1557L19.1736 43.1952Z" fill="#1E1E1E"/>
<path d="M19.9935 37.751C19.984 37.7776 19.9751 37.8049 19.9668 37.8328C19.9757 37.8055 19.9852 37.7782 19.9935 37.751Z" fill="#1E1E1E"/>
<path d="M19.1733 43.1952L18.6336 42.1558C18.5764 42.5688 18.6006 42.979 18.7078 43.3708L19.0455 44.022L19.0631 44.1728C19.2217 44.4221 19.4155 44.6425 19.6377 44.831L19.5393 43.9972C19.4809 43.9141 19.4267 43.8275 19.379 43.7368C19.2877 43.5635 19.2199 43.382 19.1728 43.1958L19.1733 43.1952Z" fill="#1E1E1E"/>
<path d="M28.1592 38.924H28.3108C28.299 38.7331 28.2742 38.5504 28.2364 38.376C28.2093 38.6229 28.1834 38.8374 28.1592 38.924Z" fill="#1E1E1E"/>
<path d="M28.163 43.1341C28.1412 42.9732 28.0746 42.7304 27.8784 42.5142C27.876 42.6108 27.8766 42.7074 27.8801 42.8035C27.8955 43.2018 27.9668 43.5418 28.074 43.8323C28.1748 43.4493 28.1854 43.302 28.1624 43.1341H28.163Z" fill="#1E1E1E"/>
<path d="M27.7695 39.9113H28.268C28.2893 39.7469 28.3052 39.5819 28.3128 39.4175H27.8173C27.8084 39.5813 27.7919 39.7463 27.7695 39.9113Z" fill="#1E1E1E"/>
<path d="M27.7372 38.397C27.749 38.2904 27.7608 38.1796 27.7708 38.0871C27.8027 37.7842 27.8262 37.5768 27.848 37.4271C27.7361 37.2545 27.6047 37.0948 27.4532 36.9492C27.399 37.093 27.3672 37.2704 27.333 37.5497C27.5339 37.8084 27.6624 38.0948 27.7372 38.3976V38.397Z" fill="#1E1E1E"/>
<path d="M28.316 39.0102C28.3148 38.9808 28.3124 38.9525 28.3107 38.9236H28.1592C28.1834 38.8376 28.2093 38.6225 28.2364 38.3756C28.1598 38.0244 28.0302 37.7073 27.8481 37.4263C27.8263 37.5759 27.8033 37.7834 27.7709 38.0862C27.7609 38.1794 27.7491 38.2901 27.7373 38.3962C27.818 38.7221 27.8363 39.0668 27.818 39.4168H28.3136C28.3201 39.2807 28.3219 39.1446 28.3166 39.0096L28.316 39.0102Z" fill="#1E1E1E"/>
<path d="M22.4595 36.6397C22.2556 36.698 21.8007 36.8648 21.3823 37.0845C20.9681 37.302 20.4165 37.6514 20.413 38.1676C20.4124 38.2719 20.4112 38.4145 20.7789 39.0221C21.0264 39.4304 21.1549 39.5989 21.281 39.6773C20.5703 39.9496 19.9357 40.3886 19.5303 41.0804C19.3405 41.4045 19.2133 41.7398 19.1484 42.0739L19.6405 43.022C19.5262 42.5029 19.6163 41.9106 19.9563 41.3302C20.7006 40.0603 22.4324 39.7645 23.8278 39.7645C23.9362 39.7645 24.0423 39.7663 24.146 39.7698C24.3505 39.7763 24.5261 39.827 24.6516 39.827C24.8307 39.827 24.9056 39.7227 24.8131 39.233C24.7158 38.7168 24.2556 38.5506 23.7418 38.5506C23.2651 38.5506 22.7418 38.6932 22.4195 38.8317C22.2167 38.9183 21.8084 39.2589 21.5809 39.2589C21.5674 39.2589 21.555 39.2578 21.5426 39.2554C21.4808 39.2424 20.905 38.3255 20.9062 38.1717C20.9098 37.7416 22.2209 37.2218 22.5951 37.1146C23.0777 36.9761 23.6675 36.8913 24.265 36.8913C25.0835 36.8913 25.915 37.0498 26.5019 37.4469C26.8955 37.7133 27.1206 38.0551 27.2338 38.4416C27.2491 38.3114 27.2656 38.1564 27.2786 38.035C27.2986 37.8435 27.3157 37.685 27.3322 37.5495C27.1878 37.3633 27.0057 37.1918 26.7789 37.038C25.9963 36.5088 24.9798 36.3975 24.2656 36.3975C23.6451 36.3975 23.0034 36.4835 22.4589 36.6397H22.4595ZM22.6139 39.2855C22.8944 39.1652 23.3517 39.0445 23.7424 39.0445C24.2079 39.0445 24.2951 39.1935 24.3204 39.2872C24.2709 39.2819 24.2179 39.2778 24.1619 39.276C24.05 39.2725 23.938 39.2707 23.8278 39.2707C23.4018 39.2707 22.9374 39.2967 22.4701 39.3697C22.5273 39.3338 22.588 39.2961 22.6133 39.2855H22.6139Z" fill="#1E1E1E"/>
<path d="M22.9858 42.8584C23.5285 42.8584 24.1843 42.5285 24.3422 42.0606C24.3794 41.9504 24.5426 41.1178 24.5025 41.0795C24.321 41.04 24.1107 41.0176 23.892 41.0176C23.0836 41.0176 22.1661 41.3252 22.2126 42.2226C22.2362 42.6734 22.5792 42.8584 22.9852 42.8584H22.9858ZM22.8278 41.8272C23.0129 41.6322 23.4212 41.5108 23.892 41.5108C23.9133 41.5108 23.9339 41.5108 23.9545 41.5114C23.9239 41.6781 23.8897 41.8443 23.872 41.9062C23.7978 42.1136 23.3764 42.3641 22.9852 42.3641C22.7147 42.3641 22.7094 42.2674 22.7059 42.1967C22.6952 41.9916 22.7701 41.8873 22.8272 41.8272H22.8278Z" fill="#1E1E1E"/>
<path d="M26.7887 42.4838C26.7804 42.634 26.768 42.8202 26.8352 42.9575C26.9271 43.1455 27.1569 43.0642 27.1841 43.2669C27.1953 43.3482 26.9525 44.2074 26.9012 44.261C26.8358 44.3305 26.2206 44.5179 26.0969 44.5332C25.9678 44.5492 25.817 44.5603 25.6584 44.5603C25.1122 44.5603 24.4734 44.4272 24.3208 43.9027C24.2884 43.7919 24.3355 43.5863 24.2083 43.5863C24.1735 43.5863 24.1258 43.6016 24.0592 43.6387C24.0385 43.6505 23.9973 43.7837 23.9124 43.8485C23.2713 44.3358 22.6938 44.611 21.9101 44.611C21.83 44.611 21.7481 44.6081 21.6638 44.6022C20.9408 44.5527 20.3727 44.2504 20.0156 43.8061L20.0274 43.9051L20.0651 44.2268L20.1052 44.5674C20.5224 44.8703 21.0439 45.0547 21.6296 45.0948C21.7245 45.1013 21.8188 45.1048 21.9101 45.1048C22.6685 45.1048 23.2914 44.8951 24.0109 44.3889C24.2348 44.7177 24.6985 45.0542 25.659 45.0542C25.8228 45.0542 25.9955 45.0435 26.1587 45.0229C26.167 45.0217 27.0332 44.8426 27.2618 44.5987C27.329 44.5273 27.382 44.4708 27.5412 43.9086C27.6955 43.3635 27.6843 43.2805 27.6737 43.2003C27.6301 42.8774 27.4115 42.7366 27.276 42.6735C27.276 42.6234 27.2789 42.5627 27.2813 42.5233V42.5109C27.3031 42.1261 27.4092 41.6612 27.5217 41.1691C27.613 40.7696 27.7109 40.3418 27.7698 39.9116H27.2719C27.1393 40.8044 26.8299 41.7389 26.7887 42.4838Z" fill="#1E1E1E"/>
<path d="M20.0271 43.9061L20.0153 43.8072C19.832 43.5785 19.7042 43.3122 19.6405 43.0228L19.1485 42.0747C19.0743 42.456 19.0831 42.8355 19.1738 43.1955L19.5262 43.8743L19.541 43.9969C19.6959 44.2179 19.8863 44.4094 20.1055 44.5685L20.0654 44.2279L20.0277 43.9061H20.0271Z" fill="#1E1E1E"/>
<path d="M19.1734 43.1953C19.2206 43.3815 19.2883 43.563 19.3797 43.7363C19.428 43.8276 19.4816 43.9142 19.54 43.9967L19.5252 43.8741L19.1729 43.1953H19.1734Z" fill="#1E1E1E"/>
<path d="M27.5096 39.4174L27.6834 38.7916C27.6969 38.7386 27.7176 38.5736 27.737 38.3968C27.6622 38.0945 27.5343 37.8081 27.3328 37.5488C27.3163 37.6844 27.2998 37.8429 27.2792 38.0344C27.2662 38.1558 27.2497 38.3102 27.2344 38.441C27.3652 38.8865 27.3481 39.3915 27.2715 39.9112H27.7694C27.7918 39.7462 27.8089 39.5812 27.8172 39.4174H27.509H27.5096Z" fill="#1E1E1E"/>
<path d="M27.5088 39.4176H27.817C27.8358 39.0676 27.817 38.7228 27.7362 38.397C27.7162 38.5738 27.6962 38.7387 27.6826 38.7918L27.5088 39.4176Z" fill="#1E1E1E"/>
<path d="M34.3585 39.7047C34.1563 40.1709 34.0238 40.67 33.9778 41.1844C33.9731 41.2351 33.9707 41.284 33.9678 41.3335L34.494 41.2256L34.1145 42.6251C34.5417 43.9492 35.8004 44.5609 37.1634 44.5609C38.4397 44.5609 39.8074 44.0247 40.6654 43.0359C40.7349 42.8968 40.2264 42.0453 40.234 41.8008C40.2199 41.789 40.201 41.7837 40.1786 41.7837C39.9854 41.7837 39.5216 42.1838 39.3684 42.2663C38.9359 42.5002 38.3902 42.6605 37.897 42.6605C37.1698 42.6605 36.5564 42.3128 36.5859 41.3441L41.029 40.7637L41.3307 38.9216C41.1981 38.066 40.7432 37.3217 39.7797 37C39.3537 36.858 38.9282 36.792 38.5128 36.792C37.0202 36.792 35.6519 37.6441 34.8134 38.8827C34.7303 39.264 34.6136 39.5179 34.3596 39.7053L34.3585 39.7047ZM37.0756 39.1243C37.2694 38.7943 37.6118 38.4838 38.0007 38.4178C38.0974 38.4013 38.1893 38.393 38.2759 38.393C38.7509 38.393 39.0632 38.647 39.049 39.2192C39.039 39.627 38.8487 39.7301 38.4892 39.8208C38.3272 39.8615 37.1964 40.0117 36.9053 40.0117C36.8705 40.0117 36.8475 40.0094 36.8399 40.0047C36.6984 39.9145 36.9966 39.2587 37.075 39.1249L37.0756 39.1243Z" fill="white"/>
<path d="M34.8121 38.8818C34.6365 39.1405 34.4839 39.4163 34.3584 39.7045C34.6124 39.5171 34.729 39.2631 34.8121 38.8818Z" fill="white"/>
<path d="M33.9683 41.3334C33.94 41.8219 33.9942 42.2515 34.115 42.6251L34.4945 41.2256L33.9683 41.3334Z" fill="white"/>
<path d="M41.2051 40.7399C41.3595 40.1488 41.4208 39.5089 41.33 38.9214L41.0283 40.7634L41.2051 40.7405V40.7399Z" fill="white"/>
<path d="M38.548 39.2847C38.5509 39.2694 38.5539 39.2446 38.5551 39.2063C38.558 39.0802 38.5368 38.9818 38.4979 38.9417C38.4637 38.907 38.3806 38.8857 38.2752 38.8857C38.2174 38.8857 38.1526 38.8916 38.0831 38.9034C37.8792 38.9382 37.6452 39.1273 37.5009 39.3731C37.4885 39.3949 37.4714 39.4279 37.4531 39.4674C37.8361 39.4232 38.2757 39.3613 38.37 39.3395C38.4737 39.3136 38.5238 39.2947 38.548 39.2835V39.2847Z" fill="#1E1E1E"/>
<path d="M34.9678 37.8908C35.8959 36.9132 37.1646 36.298 38.5116 36.298V35.8042C37.2529 35.8042 36.0261 36.2862 35.0214 37.166L35.0226 37.1896C35.0291 37.351 34.999 37.6427 34.9684 37.8914L34.9678 37.8908Z" fill="#1E1E1E"/>
<path d="M33.7493 39.9033L33.2308 39.9086C33.1111 40.2946 33.0304 40.6923 32.9945 41.096C32.9809 41.2486 32.9738 41.3953 32.9727 41.5374L33.47 41.4354C33.4729 41.3382 33.4777 41.2398 33.4865 41.1402C33.5248 40.713 33.6155 40.2981 33.7499 39.9033H33.7493Z" fill="#1E1E1E"/>
<path d="M41.5028 37.8649L41.623 37.1312C41.2406 36.6404 40.7203 36.2733 40.091 36.0635C39.5759 35.8914 39.0444 35.8042 38.5117 35.8042V36.298C38.9914 36.298 39.4705 36.3764 39.9348 36.5319C40.6478 36.77 41.1793 37.2367 41.5028 37.8655V37.8649Z" fill="#1E1E1E"/>
<path d="M37.2491 41.9621C37.4123 42.1306 37.691 42.166 37.8961 42.166C38.2833 42.166 38.7458 42.041 39.133 41.8313C39.1566 41.8177 39.2355 41.7606 39.2927 41.7187C39.4524 41.6026 39.592 41.5048 39.7211 41.4312L37.1318 41.7694C37.1601 41.8466 37.199 41.9108 37.2485 41.9621H37.2491Z" fill="#1E1E1E"/>
<path d="M40.5503 41.4211L40.7354 41.5754L40.7289 41.7852C40.7418 41.8359 40.7801 41.9296 40.8214 42.0256L40.9451 41.272L40.4219 41.3403C40.4678 41.361 40.5109 41.3881 40.5509 41.4211H40.5503Z" fill="#1E1E1E"/>
<path d="M37.1633 45.0548C35.9865 45.0548 34.9718 44.6535 34.3054 43.9246C34.2005 43.8103 34.1062 43.6877 34.0207 43.5592C34.0031 43.7737 33.973 44.0029 33.9111 44.2251C33.9212 44.2363 33.9306 44.2469 33.9406 44.2581C34.7019 45.0907 35.8463 45.5492 37.1639 45.5492C37.9376 45.5492 38.7307 45.3865 39.4567 45.0789C40.0672 44.8203 40.6182 44.4632 41.0748 44.0336C40.9882 43.8839 40.9169 43.7219 40.8633 43.5498C39.947 44.4838 38.5546 45.0554 37.1639 45.0554L37.1633 45.0548Z" fill="#1E1E1E"/>
<path d="M33.7653 38.9157C33.7959 38.8957 33.8372 38.7277 33.8779 38.5044C33.793 38.6393 33.7134 38.7766 33.6396 38.9169L33.7653 38.9157Z" fill="#1E1E1E"/>
<path d="M33.1204 42.5152C33.1032 42.5188 33.0854 42.5229 33.0664 42.5271C33.0747 42.5674 33.0842 42.6077 33.0937 42.6469C33.1008 42.5994 33.1097 42.555 33.1204 42.5146V42.5152Z" fill="#1E1E1E"/>
<path d="M34.4946 37.6871C34.4657 37.9405 34.4297 38.1886 34.4268 38.2063C34.3991 38.3937 34.3744 38.5469 34.3496 38.6736C34.5329 38.3931 34.7397 38.1308 34.9677 37.8904C34.9984 37.6418 35.0284 37.3501 35.022 37.1886L35.0208 37.165C34.9342 37.2411 34.8487 37.3182 34.7656 37.4002C34.6713 37.4927 34.5818 37.5887 34.494 37.6865L34.4946 37.6871Z" fill="#1E1E1E"/>
<path d="M32.9928 42.0383C33.0022 42.0359 33.0128 42.0336 33.0216 42.0318L33.4801 41.9387C33.4665 41.776 33.463 41.6081 33.4683 41.436L32.971 41.538C32.9692 41.713 32.9768 41.8798 32.9922 42.0383H32.9928Z" fill="#1E1E1E"/>
<path d="M33.6017 42.6294L33.5976 42.6453C33.5687 42.7526 33.5587 42.9647 33.5486 43.1698C33.541 43.3336 33.5321 43.508 33.5127 43.6812C33.64 43.8951 33.7773 44.0749 33.911 44.2251C33.9729 44.003 34.003 43.7738 34.0206 43.5593C33.835 43.2799 33.6948 42.9682 33.6023 42.6294H33.6017Z" fill="#1E1E1E"/>
<path d="M33.7496 39.9031C33.8109 39.7233 33.8816 39.5483 33.9606 39.3774L33.914 39.4075L33.409 39.4128C33.3418 39.5754 33.2829 39.741 33.2305 39.9084L33.749 39.9031H33.7496Z" fill="#1E1E1E"/>
<path d="M33.7657 38.9156L33.6402 38.9168C33.5553 39.0789 33.4787 39.2444 33.4092 39.413L33.9142 39.4077L33.9607 39.3776C34.0739 39.1325 34.2041 38.8974 34.3502 38.6734C34.3744 38.5468 34.3997 38.3935 34.4274 38.2062C34.4298 38.1885 34.4663 37.9404 34.4952 37.687C34.2654 37.9433 34.0591 38.2174 33.8782 38.5043C33.8376 38.7277 33.7963 38.8956 33.7657 38.9156Z" fill="#1E1E1E"/>
<path d="M33.022 42.0312C33.0126 42.033 33.0026 42.0359 32.9932 42.0377C33.0097 42.2097 33.0344 42.373 33.0674 42.5268C33.0863 42.5226 33.1039 42.5185 33.121 42.515C33.1104 42.5545 33.1016 42.5987 33.0945 42.6464C33.1935 43.0542 33.3438 43.3965 33.5129 43.6805C33.5323 43.5073 33.5412 43.3323 33.5488 43.1691C33.5583 42.964 33.5683 42.7519 33.5978 42.6446L33.6019 42.6287C33.5418 42.4095 33.5011 42.1785 33.4811 41.9375L33.0226 42.0306L33.022 42.0312Z" fill="#1E1E1E"/>
<path d="M42.1602 40.9891C42.2992 40.4576 42.42 39.7175 42.3281 38.9355L41.8838 41.6468L41.9922 41.6326L42.1602 40.9891Z" fill="#1E1E1E"/>
<path d="M41.4117 43.6829L41.4329 43.6582C41.2774 43.3317 41.209 42.9393 41.245 42.5038L41.2467 42.4844L41.3328 41.9611C41.2992 41.8857 41.2603 41.7985 41.2338 41.7325L41.3334 41.7195L41.3734 41.7142L41.4565 41.2051L40.945 41.2717L40.8213 42.0253C40.8531 42.099 40.8867 42.1738 40.9132 42.2328C41.1218 42.6953 41.2473 42.9741 41.1077 43.2551L41.08 43.3111L41.0387 43.3583C40.9822 43.4231 40.9238 43.4867 40.8631 43.548C40.9168 43.7201 40.9875 43.8821 41.0747 44.0318C41.1937 43.9198 41.3063 43.8032 41.4117 43.6818V43.6829Z" fill="#1E1E1E"/>
<path d="M41.8294 38.9275L42.0168 37.7838C41.9095 37.5475 41.7775 37.3289 41.6231 37.1309L41.5029 37.8645C41.6656 38.1803 41.7752 38.5374 41.8294 38.9269V38.9275Z" fill="#1E1E1E"/>
<path d="M41.549 43.4754C41.7936 42.9845 41.5938 42.542 41.3628 42.0299C41.3534 42.0093 41.3428 41.9857 41.3316 41.9609L41.2456 42.4842L41.2438 42.5037C41.2079 42.9391 41.2756 43.3316 41.4318 43.658L41.4925 43.5879L41.5485 43.4754H41.549Z" fill="#1E1E1E"/>
<path d="M41.683 40.8648L41.5987 41.1865L41.4561 41.2054L41.373 41.7145L41.8845 41.6479L42.3288 38.9367C42.3023 38.7104 42.2587 38.4812 42.1921 38.2525C42.1444 38.0893 42.0855 37.9338 42.0177 37.7847L41.8303 38.9284C41.911 39.5112 41.8663 40.1665 41.6836 40.8654L41.683 40.8648Z" fill="#1E1E1E"/>
<path d="M34.9671 37.8907C34.9465 38.0569 34.9258 38.2036 34.9146 38.2785C34.8805 38.5101 34.8492 38.7086 34.8115 38.8825C35.65 37.6444 37.0189 36.7918 38.5109 36.7918C38.927 36.7918 39.3518 36.8578 39.7779 36.9998C40.7413 37.3215 41.1968 38.0658 41.3288 38.9214L41.5021 37.8648C41.1785 37.2367 40.647 36.7694 39.934 36.5313C39.4697 36.3763 38.9906 36.2974 38.5109 36.2974C37.1639 36.2974 35.8952 36.9126 34.9671 37.8901V37.8907Z" fill="#1E1E1E"/>
<path d="M36.5852 41.3432C36.5557 42.3126 37.1692 42.6596 37.8963 42.6596C38.3895 42.6596 38.9352 42.5 39.3677 42.2654C39.5209 42.1823 39.9847 41.7828 40.178 41.7828C40.2004 41.7828 40.2192 41.7881 40.2334 41.7999C40.2257 42.0445 40.7342 42.8959 40.6647 43.035C39.8067 44.0238 38.439 44.56 37.1627 44.56C35.7997 44.56 34.541 43.9484 34.1138 42.6243L34.0743 42.771C34.0584 42.8394 34.0484 43.0515 34.0413 43.1918C34.036 43.3055 34.0301 43.4292 34.0195 43.5583C34.105 43.6867 34.1993 43.8093 34.3041 43.9236C34.9706 44.6525 35.9859 45.0538 37.1621 45.0538C38.5528 45.0538 39.9458 44.4822 40.8615 43.5483C40.759 43.2194 40.7189 42.8535 40.7513 42.4622L40.7549 42.4233L40.7613 42.3845L40.8203 42.025C40.7784 41.929 40.7407 41.8353 40.7277 41.7846L40.7342 41.5748L40.5492 41.4204C40.5097 41.3874 40.4667 41.3603 40.4201 41.3397L40.9434 41.2713L41.0271 40.7622L36.584 41.3426L36.5852 41.3432ZM39.2929 41.7186C39.2357 41.7604 39.1568 41.817 39.1332 41.8311C38.746 42.0409 38.2835 42.1658 37.8963 42.1658C37.6913 42.1658 37.4125 42.1305 37.2493 41.962C37.1998 41.9107 37.1609 41.8465 37.1326 41.7693L39.7219 41.431C39.5922 41.5041 39.4532 41.6025 39.2935 41.7186H39.2929Z" fill="#1E1E1E"/>
<path d="M34.358 39.7047C34.3403 39.7177 34.3226 39.7312 34.3032 39.7436L34.0621 39.9003L33.7746 39.9033H33.7487C33.6143 40.2987 33.5236 40.7129 33.4852 41.1401C33.4764 41.2403 33.4717 41.3381 33.4688 41.4354L33.9673 41.3328C33.9702 41.2833 33.9726 41.2344 33.9773 41.1837C34.0232 40.6693 34.1558 40.1702 34.358 39.7041V39.7047Z" fill="#1E1E1E"/>
<path d="M36.9051 40.0103C37.1956 40.0103 38.327 39.8606 38.489 39.8194C38.8485 39.7286 39.0388 39.6255 39.0488 39.2178C39.063 38.6456 38.7507 38.3916 38.2757 38.3916C38.1891 38.3916 38.0972 38.3999 38.0005 38.4163C37.6116 38.4829 37.2693 38.7929 37.0754 39.1229C36.997 39.2566 36.6988 39.9125 36.8403 40.0027C36.8479 40.0074 36.8709 40.0097 36.9057 40.0097L36.9051 40.0103ZM37.5008 39.3739C37.6452 39.1276 37.8791 38.939 38.083 38.9043C38.1526 38.8925 38.2168 38.8866 38.2751 38.8866C38.3806 38.8866 38.4637 38.9072 38.4979 38.9426C38.5368 38.982 38.558 39.081 38.555 39.2071C38.5539 39.2449 38.5509 39.2702 38.548 39.2855C38.5244 39.2967 38.4737 39.3156 38.37 39.3415C38.2757 39.3633 37.8361 39.4252 37.4531 39.4694C37.4714 39.4299 37.4885 39.3963 37.5008 39.3751V39.3739Z" fill="#1E1E1E"/>
<path d="M34.0739 42.7709L34.1134 42.6242C33.9932 42.2512 33.939 41.8216 33.9667 41.3325L33.4682 41.4351C33.4629 41.6065 33.4664 41.7745 33.48 41.9377L33.8058 41.8711L33.6002 42.6283C33.6927 42.9671 33.8329 43.2783 34.0186 43.5582C34.0292 43.4291 34.035 43.3054 34.0404 43.1917C34.0468 43.0514 34.0569 42.8387 34.0734 42.7709H34.0739Z" fill="#1E1E1E"/>
<path d="M34.0342 39.3296L33.96 39.3779C33.881 39.5488 33.8103 39.7238 33.749 39.9036H33.775L34.0625 39.9006L34.3035 39.7439C34.323 39.7315 34.3406 39.7179 34.3583 39.705C34.4838 39.4162 34.6365 39.1411 34.8121 38.8824C34.8498 38.7091 34.881 38.5099 34.9152 38.2784C34.9264 38.2035 34.947 38.0568 34.9676 37.8906C34.7396 38.131 34.5327 38.3933 34.3495 38.6738C34.2646 39.1145 34.1874 39.23 34.0342 39.3296Z" fill="#1E1E1E"/>
<path d="M33.4805 41.9381C33.5005 42.1791 33.5412 42.4095 33.6013 42.6293L33.8069 41.8721L33.4811 41.9387L33.4805 41.9381Z" fill="#1E1E1E"/>
<path d="M34.0342 39.3297C34.1874 39.2301 34.2646 39.1146 34.3495 38.6738C34.2033 38.8977 34.0731 39.1329 33.96 39.378L34.0342 39.3297Z" fill="#1E1E1E"/>
<path d="M41.503 37.8647L41.3297 38.9213C41.4205 39.5088 41.3592 40.1487 41.2048 40.7398L41.028 40.7628L40.9443 41.2719L41.4558 41.2053L41.8288 38.9278C41.7752 38.5383 41.665 38.1812 41.5024 37.8653L41.503 37.8647Z" fill="#1E1E1E"/>
<path d="M40.7557 42.4236L40.7522 42.4625C40.7198 42.8538 40.7599 43.2197 40.8624 43.5485C40.9231 43.4867 40.9814 43.4236 41.038 43.3588L41.0792 43.3117L41.1069 43.2557C41.2466 42.9746 41.1211 42.6953 40.9125 42.2333C40.886 42.1744 40.8524 42.0995 40.8205 42.0259L40.7616 42.3853L40.7551 42.4242L40.7557 42.4236Z" fill="#1E1E1E"/>
<path d="M41.6833 40.8651C41.866 40.1657 41.9102 39.511 41.83 38.9282L41.457 41.2057L41.5996 41.1869L41.6839 40.8651H41.6833Z" fill="#1E1E1E"/>
<path d="M17.1126 23.436C16.9417 23.568 16.7537 23.7307 16.5622 23.9281C16.3377 24.1602 16.1598 24.3871 16.0213 24.5886C16.2835 24.5079 16.5457 24.4266 16.8085 24.3459C16.6412 24.5409 16.4538 24.7884 16.2776 25.0919C16.1185 25.3653 16.0036 25.6222 15.9199 25.8449C16.1757 25.7165 16.4526 25.588 16.752 25.4655C16.9859 25.3694 17.2122 25.2846 17.429 25.2103C17.3129 25.4531 17.1868 25.7725 17.1008 26.1596C17.003 26.5992 16.9877 26.9846 16.9977 27.2763C17.2835 27.2745 17.5811 27.2663 17.8893 27.2509C18.2004 27.235 18.5003 27.2126 18.7873 27.1855C18.5351 27.5267 18.277 27.9286 18.0425 28.3941C17.9611 28.555 17.8887 28.7123 17.8227 28.8661C18.1792 28.578 18.65 28.2598 19.2404 27.9969C19.4838 27.8885 19.7172 27.8031 19.9352 27.7353C20.0442 27.6894 20.1709 27.644 20.3141 27.6057C20.429 27.575 20.5362 27.5544 20.6335 27.5403C20.4302 27.7288 20.1243 28.0677 19.9399 28.5744C19.8674 28.7742 19.8279 28.9604 19.8073 29.1201C20.0377 28.8561 20.4037 28.4996 20.9299 28.1955C21.386 27.9315 21.6087 27.9221 22.01 27.7489C22.3282 27.6116 23.4331 27.1337 23.885 26.083C24.2186 25.3069 24.1266 24.3806 23.7401 23.6812C22.9717 22.2923 21.2398 22.1591 20.7443 22.1208C18.8132 21.9723 17.4302 23.152 17.1132 23.4378L17.1126 23.436Z" fill="#1E1E1E"/>
<path d="M18.4976 22.1694C18.3262 22.3008 18.137 22.4622 17.9449 22.6585C17.7192 22.8894 17.5401 23.1151 17.4004 23.3161C17.6632 23.2365 17.926 23.157 18.1889 23.0768C18.0203 23.2707 17.8324 23.5176 17.6538 23.8205C17.4935 24.0927 17.3774 24.3497 17.292 24.5718C17.5483 24.4445 17.8259 24.3178 18.1258 24.1964C18.3603 24.1016 18.5866 24.0179 18.8041 23.9448C18.6868 24.187 18.5589 24.5058 18.4705 24.8924C18.3704 25.3314 18.3533 25.7168 18.3621 26.0084C18.6479 26.0084 18.9455 26.0014 19.2537 25.9872C19.5648 25.9731 19.8647 25.9519 20.1523 25.9259C19.8983 26.2659 19.6385 26.6661 19.401 27.131C19.3191 27.2913 19.2454 27.4486 19.1788 27.6018C19.5371 27.3154 20.0091 27.0002 20.6013 26.7397C20.8453 26.6325 21.0792 26.5482 21.2978 26.4816C21.4068 26.4362 21.5335 26.3915 21.6773 26.3537C21.7922 26.3237 21.8995 26.3037 21.9973 26.2895C21.7934 26.4769 21.4852 26.814 21.2984 27.3201C21.2248 27.5199 21.1847 27.7055 21.1635 27.8652C21.3956 27.6024 21.7628 27.2477 22.2907 26.946C22.7486 26.6843 22.9713 26.6761 23.3726 26.5046C23.6914 26.3685 24.7987 25.8965 25.2559 24.8482C25.5936 24.0739 25.5064 23.147 25.1228 22.4457C24.3614 21.0527 22.6302 20.9107 22.1346 20.87C20.2041 20.7121 18.8152 21.8847 18.497 22.1688L18.4976 22.1694Z" fill="#FCB300"/>
<path d="M29.6433 21.6606C30.1612 22.069 30.4871 22.4979 30.6586 22.7525C30.8472 23.0318 30.9768 23.2876 31.0646 23.4832C30.9768 23.4343 30.8566 23.4131 30.7234 23.3724C30.6362 23.3453 30.5248 23.3424 30.4529 23.3312C30.3109 23.4944 30.2744 23.5409 30.0599 23.5987C29.8089 23.6665 29.602 23.6393 29.5007 23.6099C29.0369 23.4749 28.7629 23.1137 28.6238 22.9257C28.252 22.4225 28.1601 21.9004 28.097 21.5445C28.0446 21.2457 28.0328 20.9947 28.0322 20.8232C28.4353 20.9452 29.0369 21.1827 29.6433 21.6606Z" fill="white"/>
<path d="M35.9604 25.4691C35.9209 25.3701 35.9751 25.2328 36.0594 25.1615C36.1661 25.0714 36.321 25.092 36.6304 25.1327C36.7854 25.1533 36.7795 25.1645 36.9091 25.1768C37.0777 25.1928 37.2055 25.1851 37.3617 25.1745C37.5732 25.1604 37.6799 25.1562 37.7901 25.1262C38.0659 25.0507 38.1325 24.9394 38.3481 24.9488C38.3799 24.95 38.5455 24.96 38.687 25.0761C38.7323 25.1132 38.7971 25.1668 38.8072 25.2505C38.8172 25.333 38.7689 25.3961 38.7029 25.4815C38.5644 25.6612 38.4141 25.6989 38.3823 25.6978C38.3381 25.696 38.3004 25.6813 38.2998 25.6813C38.377 25.5004 38.3522 25.4196 38.3222 25.3801C38.2415 25.2741 38.0541 25.3719 37.4342 25.4632C37.08 25.5157 36.9027 25.5204 36.8384 25.6471C36.7883 25.7455 36.8143 25.8952 36.7082 25.9511C36.6988 25.9559 36.6829 25.9647 36.6605 25.9671C36.5503 25.9794 36.4961 25.8221 36.3552 25.6989C36.1649 25.5322 36.0099 25.597 35.9586 25.4697L35.9604 25.4691Z" fill="white"/>
<path d="M26.7907 31.9707C25.6322 31.7097 24.8915 31.8723 24.6463 31.9342C24.456 31.9825 24.2804 32.0426 24.1201 32.1086C24.2397 32.1888 24.4147 32.3084 24.6222 32.4598C25.04 32.7639 25.3358 33.0114 25.4607 33.1157C25.6227 33.2506 25.7229 33.3319 25.8048 33.3973C25.8048 33.3973 25.9374 33.504 26.0889 33.6201C26.2444 33.7397 26.3676 33.8352 26.5131 33.9365C26.8738 34.1881 27.3888 34.4786 27.4094 34.4904C27.75 34.6784 28.3287 35.2971 29.3634 37.2612C30.0511 35.5918 29.9786 33.8682 29.0564 32.9383C28.4719 32.349 27.6245 32.1581 26.7907 31.9707Z" fill="white" stroke="#1E1E1E" stroke-width="0.638819" stroke-linecap="round" stroke-linejoin="round"/>
<path d="M25.7212 32.8052C25.2397 32.675 24.2515 32.4758 23.0706 32.7268C22.8261 32.7787 22.6281 32.8382 22.4961 32.8818C22.6193 32.9749 22.7996 33.114 23.0129 33.2884C23.4725 33.6644 23.7913 33.9672 23.8714 34.0421C23.8714 34.0421 24.1478 34.2978 24.4336 34.5471C24.5792 34.6738 24.697 34.7763 24.8361 34.8894C25.2898 35.2595 25.8602 35.6578 25.8891 35.6773C26.2727 35.9413 26.8732 36.6755 27.8354 38.7079C27.9474 38.5052 29.0234 36.4887 28.0305 34.6037C27.6433 33.8688 27.0835 33.4222 26.7082 33.1788C26.3658 32.9796 26.0847 32.9042 25.7212 32.8058V32.8052Z" fill="white" stroke="#1E1E1E" stroke-width="0.638819" stroke-linecap="round" stroke-linejoin="round"/>
<path d="M23.3014 34.0425C22.5394 33.8639 21.6803 33.6365 20.9025 34.0796C20.609 34.247 20.4128 34.4591 20.2949 34.61C20.467 34.6836 20.7398 34.805 21.0651 34.9741C21.5023 35.2016 21.7598 35.366 23.3344 36.4314C23.7946 36.7431 24.0886 36.9429 24.4793 37.254C24.7404 37.462 24.9501 37.6311 25.1906 37.8763C25.4593 38.1497 25.7663 38.5186 26.0497 39.0035C26.1546 38.7661 26.2842 38.4178 26.3626 37.9823C26.4386 37.5575 26.5606 36.9541 26.3326 36.3171C26.0585 35.5534 25.4763 35.1197 25.0874 34.8298C24.3732 34.2971 23.6844 34.1321 23.3002 34.0425H23.3014Z" fill="white" stroke="#1E1E1E" stroke-width="0.638819" stroke-linecap="round" stroke-linejoin="round"/>
<path d="M23.1967 36.4094C23.0959 36.2326 22.9515 35.9232 22.9327 35.5208C22.9221 35.2903 22.8897 34.5308 23.4406 34.189C23.8148 33.9568 24.3316 33.9975 24.7635 34.265C24.7582 34.2032 24.7093 33.4819 25.2349 33.0941C25.5372 32.8714 25.869 32.8767 26.0104 32.8814C26.8366 32.9068 27.3428 33.6569 27.4105 33.7612C27.2243 33.3817 27.3033 32.9345 27.592 32.6687C27.8259 32.453 28.1683 32.3841 28.4853 32.4825C28.3286 32.1896 27.9438 31.5709 27.1937 31.1761C26.5225 30.8231 25.9091 30.8361 25.3334 30.8431C24.1925 30.8561 23.3788 31.2503 23.1955 31.3428C22.8855 31.499 22.2509 31.8272 21.7241 32.509C21.5738 32.7035 20.2863 34.3658 21.0476 35.542C21.6575 36.4854 23.0882 36.4164 23.1955 36.4094H23.1967Z" fill="#FCB300" stroke="#1E1E1E" stroke-width="0.638819" stroke-linecap="round" stroke-linejoin="round"/>
<path d="M40.7271 32.6937C40.1225 32.346 39.4171 32.3325 38.9982 32.3242C38.8296 32.3207 38.69 32.3272 38.5957 32.3331C38.6617 32.4162 38.7578 32.5393 38.8691 32.6919C39.0942 32.999 39.2463 33.2394 39.3111 33.3407C39.3947 33.4721 39.4466 33.5517 39.4896 33.6159C39.4896 33.6159 39.5592 33.7202 39.6393 33.8363C39.7218 33.9553 39.7872 34.0502 39.8668 34.1539C40.0011 34.3301 40.0647 34.4209 40.3706 34.742C40.5798 34.9618 40.8732 35.5234 41.2692 36.9488C41.3505 36.8427 42.3529 35.4933 41.8143 34.0384C41.7471 33.8569 41.4631 33.1168 40.7277 32.6937H40.7271Z" fill="white" stroke="#1E1E1E" stroke-width="0.638819" stroke-linecap="round" stroke-linejoin="round"/>
<path d="M39.4041 33.1036C38.6115 32.5131 37.7677 32.4224 37.5014 32.397C37.3181 32.3794 37.1637 32.3782 37.0518 32.3811C37.1195 32.4801 37.2179 32.6245 37.3358 32.7995C38.09 33.9197 38.5567 34.6121 38.8867 35.2214C39.1725 35.7488 39.5308 36.5349 39.7871 37.6026C39.8932 37.4948 40.9733 36.3646 40.6734 34.9144C40.4613 33.8896 39.6858 33.3133 39.4047 33.1042L39.4041 33.1036Z" fill="white" stroke="#1E1E1E" stroke-width="0.638819" stroke-linecap="round" stroke-linejoin="round"/>
<path d="M37.3189 33.3638C36.9547 33.1487 36.3307 32.7804 35.8946 33.0739C35.8051 33.134 35.745 33.2077 35.7084 33.2595C35.6118 33.3615 35.5157 33.4929 35.5399 33.6078C35.5594 33.7015 35.6578 33.7368 35.679 33.7616C35.8711 33.9825 36.0932 34.2807 36.7715 35.2123C37.0178 35.55 37.1745 35.7663 37.3725 36.0892C37.5234 36.3355 37.6318 36.5441 37.6895 36.6596C37.7049 36.6896 37.7137 36.7079 37.719 36.7191C37.8009 36.8859 37.9547 37.1487 38.2676 37.5718C38.3819 37.4569 38.5351 37.2777 38.6624 37.0279C38.9329 36.4958 38.9034 35.999 38.8864 35.7598C38.8363 35.0597 38.524 34.5759 38.3749 34.3497C37.9913 33.7669 37.5363 33.4923 37.3189 33.3638Z" fill="white" stroke="#1E1E1E" stroke-width="0.638819" stroke-linecap="round" stroke-linejoin="round"/>
<path d="M36.7121 35.1656C36.6791 35.0513 36.6178 34.7814 36.7179 34.4774C36.7462 34.3919 36.9148 33.8569 37.4074 33.7543C37.8034 33.6718 38.1216 33.9276 38.1711 33.9688C38.1781 33.927 38.2848 33.3424 38.7874 33.1385C39.0662 33.0254 39.3278 33.0861 39.4032 33.1044C39.7138 33.1804 39.8982 33.3743 39.9619 33.4479C39.9766 33.0814 40.2347 32.7915 40.5441 32.7508C40.8858 32.7054 41.128 32.9865 41.1445 33.006C40.9536 32.6754 40.7456 32.455 40.5989 32.3206C39.6378 31.4379 38.3261 31.4815 37.8293 31.5611C37.8128 31.564 37.7998 31.5658 37.791 31.5676C37.055 31.6937 36.5223 32.0749 36.5223 32.0749C36.517 32.079 36.4987 32.092 36.4805 32.1056C36.1304 32.3672 35.2589 33.2116 35.4811 34.0737C35.6802 34.8468 36.6319 35.1421 36.7132 35.1662L36.7121 35.1656Z" fill="#FCB300" stroke="#1E1E1E" stroke-width="0.638819" stroke-linecap="round" stroke-linejoin="round"/>
</g>
</g>
<defs>
<clipPath id="clip0_1666_30042">
<rect width="48.8426" height="49.7919" fill="white" transform="translate(2.55664 2.104)"/>
</clipPath>
<clipPath id="clip1_1666_30042">
<rect width="48.8426" height="49.7919" fill="white" transform="translate(2.55664 2.104)"/>
</clipPath>
</defs>
</svg>
