<svg width="24" height="24" viewBox="0 0 24 24" fill="none" xmlns="http://www.w3.org/2000/svg">
<g clip-path="url(#clip0_2754_227545)">
<path fill-rule="evenodd" clip-rule="evenodd" d="M9.00004 7.41421V10.5C9.00004 12.1569 10.3432 13.5 12 13.5C12.8503 13.5 13.6179 13.1463 14.1638 12.578L12.7487 11.1629C12.5655 11.3697 12.298 11.5 12 11.5C11.4478 11.5 11 11.0523 11 10.5V9.41422L9.00004 7.41421ZM13 8.58579V4.5C13 3.94772 12.5523 3.5 12 3.5C11.4478 3.5 11 3.94772 11 4.5V6.58579L9.00004 4.58579V4.5C9.00004 2.84315 10.3432 1.5 12 1.5C13.6569 1.5 15 2.84315 15 4.5V10.5C15 10.5283 14.9997 10.5565 14.9989 10.5846L13 8.58579ZM15.5782 13.9924C15.4023 14.1727 15.2121 14.3402 15.0091 14.4932C14.1658 15.1286 13.143 15.4808 12.0873 15.4992C12.0594 15.4997 12.0315 15.5 12.0036 15.5C10.977 15.5007 9.97424 15.1854 9.13216 14.5958C8.26722 13.9901 7.61622 13.1262 7.27245 12.1278C7.09264 11.6056 6.52356 11.3281 6.00136 11.5079C5.47917 11.6877 5.20161 12.2568 5.38141 12.779C5.86269 14.1767 6.77409 15.3862 7.98501 16.2341C8.88694 16.8656 9.92054 17.2724 11 17.4282V19.5H9.00004C8.44776 19.5 8.00004 19.9477 8.00004 20.5C8.00004 21.0523 8.44776 21.5 9.00004 21.5H12H15C15.5523 21.5 16 21.0523 16 20.5C16 19.9477 15.5523 19.5 15 19.5H13V17.4282C14.1618 17.2605 15.2678 16.8025 16.2127 16.0904C16.4905 15.8812 16.7509 15.6525 16.9925 15.4067L15.5782 13.9924ZM18.1876 13.7733L16.6785 12.2642C16.716 12.1648 16.7504 12.0639 16.7816 11.9619C16.943 11.4337 17.5021 11.1365 18.0302 11.2979C18.5584 11.4594 18.8556 12.0184 18.6942 12.5466C18.5639 12.9729 18.3938 13.3834 18.1876 13.7733Z" fill="#7C8292"/>
<path d="M5 4.5L19 18.5" stroke="#EB5757" stroke-width="2" stroke-linecap="round" stroke-linejoin="round"/>
</g>
<defs>
<clipPath id="clip0_2754_227545">
<rect width="24" height="24" fill="white"/>
</clipPath>
</defs>
</svg>
