<svg width="36" height="37" viewBox="0 0 36 37" fill="none" xmlns="http://www.w3.org/2000/svg">
<g clip-path="url(#clip0_1387_17334)">
<path d="M8.09961 1.4375H23.4395L30.8252 8.2207V33.1631C30.825 34.7783 29.5147 36.0879 27.8994 36.0879H8.09961C6.48449 36.0877 5.17502 34.7782 5.1748 33.1631V4.3623C5.17502 2.74718 6.48449 1.43771 8.09961 1.4375Z" stroke="#737373" stroke-width="1.35"/>
<mask id="path-2-inside-1_1387_17334" fill="white">
<path d="M22.5 1.66309H30.15V9.31309H23.4C22.9029 9.31309 22.5 8.91014 22.5 8.41309V1.66309Z"/>
</mask>
<path d="M22.5 1.66309H30.15H22.5ZM30.15 10.2131H23.4C22.4059 10.2131 21.6 9.4072 21.6 8.41309H23.4H30.15V10.2131ZM23.4 10.2131C22.4059 10.2131 21.6 9.4072 21.6 8.41309V1.66309H23.4V8.41309V10.2131ZM30.15 1.66309V9.31309V1.66309Z" fill="#737373" mask="url(#path-2-inside-1_1387_17334)"/>
<rect x="0.900391" y="18.7627" width="21.6" height="11.4" rx="1.8" fill="#F97066"/>
<path d="M8.53462 23.1789C8.53462 23.5449 8.45062 23.8809 8.28262 24.1869C8.11462 24.4869 7.85662 24.7299 7.50862 24.9159C7.16062 25.1019 6.72862 25.1949 6.21262 25.1949H5.25862V27.4629H3.71962V21.1449H6.21262C6.71662 21.1449 7.14262 21.2319 7.49062 21.4059C7.83862 21.5799 8.09962 21.8199 8.27362 22.1259C8.44762 22.4319 8.53462 22.7829 8.53462 23.1789ZM6.09562 23.9709C6.38962 23.9709 6.60862 23.9019 6.75262 23.7639C6.89662 23.6259 6.96862 23.4309 6.96862 23.1789C6.96862 22.9269 6.89662 22.7319 6.75262 22.5939C6.60862 22.4559 6.38962 22.3869 6.09562 22.3869H5.25862V23.9709H6.09562ZM11.7028 21.1449C12.3688 21.1449 12.9508 21.2769 13.4488 21.5409C13.9468 21.8049 14.3308 22.1769 14.6008 22.6569C14.8768 23.1309 15.0148 23.6799 15.0148 24.3039C15.0148 24.9219 14.8768 25.4709 14.6008 25.9509C14.3308 26.4309 13.9438 26.8029 13.4398 27.0669C12.9418 27.3309 12.3628 27.4629 11.7028 27.4629H9.33583V21.1449H11.7028ZM11.6038 26.1309C12.1858 26.1309 12.6388 25.9719 12.9628 25.6539C13.2868 25.3359 13.4488 24.8859 13.4488 24.3039C13.4488 23.7219 13.2868 23.2689 12.9628 22.9449C12.6388 22.6209 12.1858 22.4589 11.6038 22.4589H10.8748V26.1309H11.6038ZM19.9879 21.1449V22.3779H17.4139V23.7099H19.3399V24.9069H17.4139V27.4629H15.8749V21.1449H19.9879Z" fill="white"/>
</g>
<defs>
<clipPath id="clip0_1387_17334">
<rect width="36" height="36" fill="white" transform="translate(0 0.762695)"/>
</clipPath>
</defs>
</svg>
