<svg width="20" height="21" viewBox="0 0 20 21" fill="none" xmlns="http://www.w3.org/2000/svg">
<path d="M10.667 2.80811L10.6672 2.05811H10.667V2.80811ZM11.667 4.71729H10.917C10.917 5.04907 11.135 5.34143 11.453 5.4361L11.667 4.71729ZM12.7744 5.17627L12.4172 5.83571C12.7088 5.99372 13.0696 5.94138 13.3043 5.707L12.7744 5.17627ZM13.418 4.53369L13.9479 5.06442L13.9483 5.06402L13.418 4.53369ZM14.832 4.53369L14.3017 5.06402L14.832 4.53369ZM15.7744 5.47607L16.3047 4.94574L15.7744 5.47607ZM15.7744 6.89014L16.3043 7.42087L16.3047 7.42047L15.7744 6.89014ZM15.1309 7.53271L14.6009 7.00198C14.3659 7.2367 14.3132 7.59809 14.4715 7.89013L15.1309 7.53271ZM15.5908 8.64111L14.872 8.85512C14.9667 9.17311 15.259 9.39111 15.5908 9.39111V8.64111ZM16.5 8.64111V7.89111V8.64111ZM17.5 9.64111H18.25V9.64087L17.5 9.64111ZM17.5 10.9751L18.25 10.9753V10.9751H17.5ZM16.5 11.9751V11.2251V11.9751ZM15.5908 11.9751V11.2251C15.259 11.2251 14.9667 11.4431 14.872 11.7611L15.5908 11.9751ZM15.1309 13.0825L14.4714 12.7252C14.3133 13.017 14.3658 13.3781 14.6005 13.6128L15.1309 13.0825ZM15.7744 13.7261L15.2441 14.2564L15.7744 13.7261ZM15.7744 15.1401L15.2441 14.6098L15.7744 15.1401ZM14.832 16.0825L15.3624 16.6128L14.832 16.0825ZM13.418 16.0825L12.8876 16.6128L13.418 16.0825ZM12.7744 15.439L13.3047 14.9086C13.07 14.6739 12.7089 14.6214 12.4171 14.7796L12.7744 15.439ZM11.667 15.8979L11.4529 15.1791C11.135 15.2738 10.917 15.5662 10.917 15.8979H11.667ZM10.667 17.8081V18.5581H10.6672L10.667 17.8081ZM9.33301 17.8081L9.33276 18.5581H9.33301V17.8081ZM8.33301 15.8979H9.08301C9.08301 15.5662 8.86503 15.2738 8.54705 15.1791L8.33301 15.8979ZM7.22461 15.439L7.58203 14.7796C7.28998 14.6213 6.92859 14.674 6.69388 14.909L7.22461 15.439ZM6.58203 16.0825L7.11235 16.6129L7.11276 16.6124L6.58203 16.0825ZM5.16797 16.0825L5.6983 15.5522L5.16797 16.0825ZM4.22559 15.1401L3.69526 15.6705L4.22559 15.1401ZM4.22559 13.7261L4.75592 14.2564L4.75632 14.256L4.22559 13.7261ZM4.86816 13.0825L5.3989 13.6124C5.63327 13.3777 5.68561 13.0169 5.52761 12.7253L4.86816 13.0825ZM4.40918 11.9751L5.128 11.7611C5.03332 11.4431 4.74097 11.2251 4.40918 11.2251V11.9751ZM3.5 11.9751L3.5 12.7251H3.5V11.9751ZM2.5 10.9751H1.75L1.75 10.9753L2.5 10.9751ZM2.5 9.64111L1.75 9.64088V9.64111H2.5ZM3.5 8.64111V7.89111H3.5L3.5 8.64111ZM4.40918 8.64111V9.39111C4.74097 9.39111 5.03332 9.17311 5.128 8.85512L4.40918 8.64111ZM4.86816 7.53271L5.52755 7.89008C5.68572 7.59822 5.63322 7.23711 5.39849 7.00238L4.86816 7.53271ZM4.22559 6.89014L3.69525 7.42046L3.69526 7.42047L4.22559 6.89014ZM4.22559 5.47607L4.75592 6.0064L4.22559 5.47607ZM5.16797 4.53369L4.63764 4.00336L5.16797 4.53369ZM6.58203 4.53369L7.11236 4.00336L7.11235 4.00335L6.58203 4.53369ZM7.22461 5.17627L6.69428 5.7066C6.92901 5.94133 7.29012 5.99383 7.58197 5.83566L7.22461 5.17627ZM8.33301 4.71729L8.54702 5.4361C8.86501 5.34143 9.08301 5.04907 9.08301 4.71729H8.33301ZM9.33301 2.80811V2.05811L9.33276 2.05811L9.33301 2.80811ZM10.667 2.80811L10.6668 3.55811C10.8051 3.55815 10.917 3.67036 10.917 3.80811H11.667H12.417C12.417 2.84148 11.6332 2.0584 10.6672 2.05811L10.667 2.80811ZM11.667 3.80811H10.917V4.71729H11.667H12.417V3.80811H11.667ZM11.667 4.71729L11.453 5.4361C11.7905 5.53658 12.1131 5.671 12.4172 5.83571L12.7744 5.17627L13.1317 4.51683C12.7373 4.30315 12.3187 4.12877 11.881 3.99847L11.667 4.71729ZM12.7744 5.17627L13.3043 5.707L13.9479 5.06442L13.418 4.53369L12.888 4.00296L12.2445 4.64554L12.7744 5.17627ZM13.418 4.53369L13.9483 5.06402C14.0459 4.96639 14.2041 4.96639 14.3017 5.06402L14.832 4.53369L15.3624 4.00336C14.6789 3.31994 13.5711 3.31994 12.8876 4.00336L13.418 4.53369ZM14.832 4.53369L14.3017 5.06402L15.2441 6.0064L15.7744 5.47607L16.3047 4.94574L15.3624 4.00336L14.832 4.53369ZM15.7744 5.47607L15.2441 6.0064C15.3417 6.10404 15.3417 6.26218 15.2441 6.35981L15.7744 6.89014L16.3047 7.42047C16.9882 6.73705 16.9882 5.62916 16.3047 4.94574L15.7744 5.47607ZM15.7744 6.89014L15.2445 6.3594L14.6009 7.00198L15.1309 7.53271L15.6608 8.06345L16.3043 7.42087L15.7744 6.89014ZM15.1309 7.53271L14.4715 7.89013C14.6367 8.19489 14.7715 8.51772 14.872 8.85512L15.5908 8.64111L16.3096 8.4271C16.179 7.98847 16.004 7.56966 15.7902 7.1753L15.1309 7.53271ZM15.5908 8.64111V9.39111H16.5V8.64111V7.89111H15.5908V8.64111ZM16.5 8.64111V9.39111C16.6377 9.39111 16.75 9.50301 16.75 9.64135L17.5 9.64111L18.25 9.64087C18.2497 8.67495 17.4666 7.89111 16.5 7.89111V8.64111ZM17.5 9.64111H16.75V10.9751H17.5H18.25V9.64111H17.5ZM17.5 10.9751L16.75 10.9749C16.75 11.1132 16.6377 11.2251 16.5 11.2251V11.9751V12.7251C17.4666 12.7251 18.2497 11.9413 18.25 10.9753L17.5 10.9751ZM16.5 11.9751V11.2251H15.5908V11.9751V12.7251H16.5V11.9751ZM15.5908 11.9751L14.872 11.7611C14.7718 12.0977 14.6368 12.4201 14.4714 12.7252L15.1309 13.0825L15.7903 13.4398C16.0035 13.0462 16.179 12.628 16.3096 12.1891L15.5908 11.9751ZM15.1309 13.0825L14.6005 13.6128L15.2441 14.2564L15.7744 13.7261L16.3047 13.1957L15.6612 12.5522L15.1309 13.0825ZM15.7744 13.7261L15.2441 14.2564C15.3417 14.354 15.3417 14.5122 15.2441 14.6098L15.7744 15.1401L16.3047 15.6705C16.9882 14.987 16.9882 13.8792 16.3047 13.1957L15.7744 13.7261ZM15.7744 15.1401L15.2441 14.6098L14.3017 15.5522L14.832 16.0825L15.3624 16.6128L16.3047 15.6705L15.7744 15.1401ZM14.832 16.0825L14.3017 15.5522C14.2041 15.6498 14.0459 15.6498 13.9483 15.5522L13.418 16.0825L12.8876 16.6128C13.5711 17.2963 14.6789 17.2963 15.3624 16.6128L14.832 16.0825ZM13.418 16.0825L13.9483 15.5522L13.3047 14.9086L12.7744 15.439L12.2441 15.9693L12.8876 16.6128L13.418 16.0825ZM12.7744 15.439L12.4171 14.7796C12.1131 14.9443 11.7906 15.0786 11.4529 15.1791L11.667 15.8979L11.881 16.6168C12.3187 16.4864 12.7372 16.3122 13.1317 16.0984L12.7744 15.439ZM11.667 15.8979H10.917V16.8081H11.667H12.417V15.8979H11.667ZM11.667 16.8081H10.917C10.917 16.9458 10.8051 17.0581 10.6668 17.0581L10.667 17.8081L10.6672 18.5581C11.6332 18.5578 12.417 17.7747 12.417 16.8081H11.667ZM10.667 17.8081V17.0581H9.33301V17.8081V18.5581H10.667V17.8081ZM9.33301 17.8081L9.33326 17.0581C9.1949 17.0581 9.08301 16.9458 9.08301 16.8081H8.33301H7.58301C7.58301 17.7747 8.36686 18.5578 9.33276 18.5581L9.33301 17.8081ZM8.33301 16.8081H9.08301V15.8979H8.33301H7.58301V16.8081H8.33301ZM8.33301 15.8979L8.54705 15.1791C8.20861 15.0784 7.88568 14.9442 7.58203 14.7796L7.22461 15.439L6.86719 16.0983C7.26249 16.3126 7.68156 16.4865 8.11896 16.6168L8.33301 15.8979ZM7.22461 15.439L6.69388 14.909L6.0513 15.5526L6.58203 16.0825L7.11276 16.6124L7.75534 15.9689L7.22461 15.439ZM6.58203 16.0825L6.05171 15.5522C5.95407 15.6498 5.79592 15.6498 5.6983 15.5522L5.16797 16.0825L4.63764 16.6128C5.32106 17.2963 6.42894 17.2962 7.11235 16.6129L6.58203 16.0825ZM5.16797 16.0825L5.6983 15.5522L4.75592 14.6098L4.22559 15.1401L3.69526 15.6705L4.63764 16.6128L5.16797 16.0825ZM4.22559 15.1401L4.75592 14.6098C4.6583 14.5122 4.65829 14.354 4.75592 14.2564L4.22559 13.7261L3.69525 13.1958C3.01186 13.8792 3.01183 14.987 3.69526 15.6705L4.22559 15.1401ZM4.22559 13.7261L4.75632 14.256L5.3989 13.6124L4.86816 13.0825L4.33743 12.5526L3.69485 13.1961L4.22559 13.7261ZM4.86816 13.0825L5.52761 12.7253C5.36289 12.4212 5.22848 12.0986 5.128 11.7611L4.40918 11.9751L3.69036 12.1891C3.82067 12.6268 3.99505 13.0454 4.20872 13.4398L4.86816 13.0825ZM4.40918 11.9751V11.2251H3.5V11.9751V12.7251H4.40918V11.9751ZM3.5 11.9751L3.5 11.2251C3.36228 11.2251 3.25004 11.1132 3.25 10.9749L2.5 10.9751L1.75 10.9753C1.75031 11.9413 2.53337 12.7251 3.5 12.7251L3.5 11.9751ZM2.5 10.9751H3.25V9.64111H2.5H1.75V10.9751H2.5ZM2.5 9.64111L3.25 9.64135C3.25004 9.50301 3.36227 9.39111 3.5 9.39111L3.5 8.64111L3.5 7.89111C2.53338 7.89112 1.75031 8.67495 1.75 9.64088L2.5 9.64111ZM3.5 8.64111V9.39111H4.40918V8.64111V7.89111H3.5V8.64111ZM4.40918 8.64111L5.128 8.85512C5.22872 8.51683 5.36295 8.19379 5.52755 7.89008L4.86816 7.53271L4.20878 7.17535C3.99461 7.57052 3.8206 7.98967 3.69036 8.4271L4.40918 8.64111ZM4.86816 7.53271L5.39849 7.00238L4.75592 6.35981L4.22559 6.89014L3.69526 7.42047L4.33783 8.06305L4.86816 7.53271ZM4.22559 6.89014L4.75592 6.35981C4.65829 6.26217 4.6583 6.10402 4.75592 6.0064L4.22559 5.47607L3.69526 4.94574C3.01183 5.62917 3.01186 6.73705 3.69525 7.42046L4.22559 6.89014ZM4.22559 5.47607L4.75592 6.0064L5.6983 5.06402L5.16797 4.53369L4.63764 4.00336L3.69526 4.94574L4.22559 5.47607ZM5.16797 4.53369L5.6983 5.06402C5.79592 4.9664 5.95407 4.96639 6.05171 5.06403L6.58203 4.53369L7.11235 4.00335C6.42894 3.31996 5.32106 3.31994 4.63764 4.00336L5.16797 4.53369ZM6.58203 4.53369L6.0517 5.06402L6.69428 5.7066L7.22461 5.17627L7.75494 4.64594L7.11236 4.00336L6.58203 4.53369ZM7.22461 5.17627L7.58197 5.83566C7.88568 5.67106 8.20872 5.53682 8.54702 5.4361L8.33301 4.71729L8.119 3.99847C7.68156 4.1287 7.26242 4.30271 6.86725 4.51688L7.22461 5.17627ZM8.33301 4.71729H9.08301V3.80811H8.33301H7.58301V4.71729H8.33301ZM8.33301 3.80811H9.08301C9.08301 3.6704 9.1949 3.55815 9.33326 3.55811L9.33301 2.80811L9.33276 2.05811C8.36686 2.05843 7.58301 2.84147 7.58301 3.80811H8.33301ZM9.33301 2.80811V3.55811H10.667V2.80811V2.05811H9.33301V2.80811Z" fill="#737373"/>
<circle cx="10" cy="10.3081" r="2.5" stroke="#737373" stroke-width="1.5" stroke-linecap="round" stroke-linejoin="round"/>
</svg>
