<svg width="24" height="24" viewBox="0 0 24 24" fill="none" xmlns="http://www.w3.org/2000/svg">
<path d="M11 8H7.2C6.07989 8 5.51984 8 5.09202 8.21799C4.71569 8.40973 4.40973 8.71569 4.21799 9.09202C4 9.51984 4 10.0799 4 11.2V16.8C4 17.9201 4 18.4802 4.21799 18.908C4.40973 19.2843 4.71569 19.5903 5.09202 19.782C5.51984 20 6.07989 20 7.2 20H12.8C13.9201 20 14.4802 20 14.908 19.782C15.2843 19.5903 15.5903 19.2843 15.782 18.908C16 18.4802 16 17.9201 16 16.8V13" stroke="#737373" stroke-width="1.5" stroke-linecap="round" stroke-linejoin="round"/>
<path d="M20 4H16M20 4V8M20 4L11 13" stroke="#737373" stroke-width="1.5" stroke-linecap="round"/>
</svg>
