<svg width="25" height="24" viewBox="0 0 25 24" fill="none" xmlns="http://www.w3.org/2000/svg">
<path d="M3.5 19V18C3.5 15.7909 5.29086 14 7.5 14H11.5C13.7091 14 15.5 15.7909 15.5 18V19M15.5 11C17.1569 11 18.5 9.65685 18.5 8C18.5 6.34315 17.1569 5 15.5 5M21.5 19V18C21.5 15.7909 19.7091 14 17.5 14H17M12.5 8C12.5 9.65685 11.1569 11 9.5 11C7.84315 11 6.5 9.65685 6.5 8C6.5 6.34315 7.84315 5 9.5 5C11.1569 5 12.5 6.34315 12.5 8Z" stroke="#737373" stroke-width="1.5" stroke-linecap="round" stroke-linejoin="round"/>
</svg>
