<svg width="24" height="24" viewBox="0 0 24 24" fill="none" xmlns="http://www.w3.org/2000/svg">
<path d="M15.75 18.25V16.75C15.75 15.0931 14.4069 13.75 12.75 13.75H6.75C5.09315 13.75 3.75 15.0931 3.75 16.75V18.25" stroke="white" stroke-width="2" stroke-linecap="round" stroke-linejoin="round"/>
<path fill-rule="evenodd" clip-rule="evenodd" d="M9.75 10.75C11.4069 10.75 12.75 9.40685 12.75 7.75C12.75 6.09315 11.4069 4.75 9.75 4.75C8.09315 4.75 6.75 6.09315 6.75 7.75C6.75 9.40685 8.09315 10.75 9.75 10.75Z" stroke="white" stroke-width="2" stroke-linecap="round" stroke-linejoin="round"/>
<path d="M20.25 18.2502V16.7502C20.249 15.383 19.3237 14.1894 18 13.8477" stroke="white" stroke-width="2" stroke-linecap="round" stroke-linejoin="round"/>
<path d="M15 4.84766C16.3274 5.18753 17.2559 6.38365 17.2559 7.75391C17.2559 9.12416 16.3274 10.3203 15 10.6602" stroke="white" stroke-width="2" stroke-linecap="round" stroke-linejoin="round"/>
</svg>
