<svg width="24" height="24" viewBox="0 0 24 24" fill="none" xmlns="http://www.w3.org/2000/svg">
<path fill-rule="evenodd" clip-rule="evenodd" d="M19 12C19 15.866 15.866 19 12 19C8.13401 19 5 15.866 5 12C5 8.13401 8.13401 5 12 5C15.866 5 19 8.13401 19 12ZM9.13634 9.13634C9.42923 8.84344 9.9041 8.84344 10.197 9.13634L12 10.9393L13.803 9.13634C14.0959 8.84344 14.5708 8.84344 14.8637 9.13634C15.1566 9.42923 15.1566 9.9041 14.8637 10.197L13.0607 12L14.8637 13.803C15.1566 14.0959 15.1566 14.5708 14.8637 14.8637C14.5708 15.1566 14.0959 15.1566 13.803 14.8637L12 13.0607L10.197 14.8637C9.9041 15.1566 9.42923 15.1566 9.13634 14.8637C8.84344 14.5708 8.84344 14.0959 9.13634 13.803L10.9393 12L9.13634 10.197C8.84344 9.9041 8.84344 9.42923 9.13634 9.13634Z" fill="#EB5757"/>
</svg>
