<svg width="16" height="12" viewBox="0 0 16 12" fill="none" xmlns="http://www.w3.org/2000/svg">
<g clip-path="url(#clip0_2060_4446)">
<rect width="16" height="12" rx="1" fill="white"/>
<path fill-rule="evenodd" clip-rule="evenodd" d="M0 0H16V12H0V0Z" fill="#E31D1C"/>
<path d="M16 11V12H0V11H16ZM16 10H0V9H16V10ZM16 8H0V7H16V8ZM16 6H0V5H16V6ZM16 4H0V3H16V4ZM16 2H0V1H16V2Z" fill="#F7FCFF"/>
<rect width="9" height="7" fill="#2E42A5"/>
<path d="M7.81055 1.10059H8.33496L7.92285 1.5166L8.08203 2.17383L7.56934 1.80469L7.14551 2.10059H7.33496L6.92285 2.5166L7.06445 3.10059H7.36328L7.56934 2.56445L7.81055 3.10059H8.33496L7.92285 3.5166L8.08203 4.17383L7.56934 3.80469L7.14551 4.10059H7.33496L6.92285 4.5166L7.06445 5.10059H7.36328L7.56934 4.56445L7.81055 5.10059H8.33496L7.92285 5.5166L8.08203 6.17383L7.56934 5.80469L7.04004 6.17383L7.21875 5.5166L6.74805 5.10059H6.98047L6.56934 4.80469L6.14551 5.10059H6.33496L5.92285 5.5166L6.08203 6.17383L5.56934 5.80469L5.04004 6.17383L5.21875 5.5166L4.74805 5.10059H4.98047L4.56934 4.80469L4.14551 5.10059H4.33496L3.92285 5.5166L4.08203 6.17383L3.56934 5.80469L3.04004 6.17383L3.21875 5.5166L2.74805 5.10059H2.98047L2.56934 4.80469L2.14551 5.10059H2.33496L1.92285 5.5166L2.08203 6.17383L1.56934 5.80469L1.04004 6.17383L1.21875 5.5166L0.748047 5.10059H1.36328L1.56934 4.56445L1.81055 5.10059H2.05957L2.21875 4.5166L1.74805 4.10059H1.98047L1.56934 3.80469L1.04004 4.17383L1.21875 3.5166L0.748047 3.10059H1.36328L1.56934 2.56445L1.81055 3.10059H2.05957L2.21875 2.5166L1.74805 2.10059H1.98047L1.56934 1.80469L1.04004 2.17383L1.21875 1.5166L0.748047 1.10059H1.36328L1.56934 0.564453L1.81055 1.10059H2.33496L1.92285 1.5166L2.06445 2.10059H2.36328L2.56934 1.56445L2.81055 2.10059H3.05957L3.21875 1.5166L2.74805 1.10059H3.36328L3.56934 0.564453L3.81055 1.10059H4.33496L3.92285 1.5166L4.06445 2.10059H4.36328L4.56934 1.56445L4.81055 2.10059H5.05957L5.21875 1.5166L4.74805 1.10059H5.36328L5.56934 0.564453L5.81055 1.10059H6.33496L5.92285 1.5166L6.06445 2.10059H6.36328L6.56934 1.56445L6.81055 2.10059H7.05957L7.21875 1.5166L6.74805 1.10059H7.36328L7.56934 0.564453L7.81055 1.10059ZM5.14551 4.10059H5.33496L4.92285 4.5166L5.06445 5.10059H5.36328L5.56934 4.56445L5.81055 5.10059H6.05957L6.21875 4.5166L5.74805 4.10059H5.98047L5.56934 3.80469L5.14551 4.10059ZM3.14551 4.10059H3.33496L2.92285 4.5166L3.06445 5.10059H3.36328L3.56934 4.56445L3.81055 5.10059H4.05957L4.21875 4.5166L3.74805 4.10059H3.98047L3.56934 3.80469L3.14551 4.10059ZM6.14551 3.10059H6.33496L5.92285 3.5166L6.06445 4.10059H6.36328L6.56934 3.56445L6.81055 4.10059H7.05957L7.21875 3.5166L6.74805 3.10059H6.98047L6.56934 2.80469L6.14551 3.10059ZM2.14551 3.10059H2.33496L1.92285 3.5166L2.06445 4.10059H2.36328L2.56934 3.56445L2.81055 4.10059H3.05957L3.21875 3.5166L2.74805 3.10059H2.98047L2.56934 2.80469L2.14551 3.10059ZM4.14551 3.10059H4.33496L3.92285 3.5166L4.06445 4.10059H4.36328L4.56934 3.56445L4.81055 4.10059H5.05957L5.21875 3.5166L4.74805 3.10059H4.98047L4.56934 2.80469L4.14551 3.10059ZM3.14551 2.10059H3.33496L2.92285 2.5166L3.06445 3.10059H3.36328L3.56934 2.56445L3.81055 3.10059H4.05957L4.21875 2.5166L3.74805 2.10059H3.98047L3.56934 1.80469L3.14551 2.10059ZM5.14551 2.10059H5.33496L4.92285 2.5166L5.06445 3.10059H5.36328L5.56934 2.56445L5.81055 3.10059H6.05957L6.21875 2.5166L5.74805 2.10059H5.98047L5.56934 1.80469L5.14551 2.10059Z" fill="#F7FCFF"/>
</g>
<defs>
<clipPath id="clip0_2060_4446">
<rect width="16" height="12" rx="1" fill="white"/>
</clipPath>
</defs>
</svg>
