<svg width="40" height="41" viewBox="0 0 40 41" fill="none" xmlns="http://www.w3.org/2000/svg">
<g clip-path="url(#clip0_2660_231895)">
<path d="M9 1.28809H26.0439L34.25 8.8252V36.5381C34.25 38.3329 32.7948 39.788 31 39.7881H9C7.20507 39.7881 5.75 38.333 5.75 36.5381V4.53809C5.75 2.74316 7.20508 1.28809 9 1.28809Z" stroke="#D0D5DD" stroke-width="1.5"/>
<mask id="path-2-inside-1_2660_231895" fill="white">
<path d="M25 1.53809H33.5V10.0381H26C25.4477 10.0381 25 9.59037 25 9.03809V1.53809Z"/>
</mask>
<path d="M25 1.53809H33.5H25ZM33.5 11.0381H26C24.8954 11.0381 24 10.1427 24 9.03809H26H33.5V11.0381ZM26 11.0381C24.8954 11.0381 24 10.1427 24 9.03809V1.53809H26V9.03809V11.0381ZM33.5 1.53809V10.0381V1.53809Z" fill="#D0D5DD" mask="url(#path-2-inside-1_2660_231895)"/>
<rect x="1" y="20.5381" width="32" height="13" rx="2" fill="#444CE7"/>
<path d="M5.30371 23.5181C6.04371 23.5181 6.69038 23.6648 7.24371 23.9581C7.79704 24.2514 8.22371 24.6648 8.52371 25.1981C8.83038 25.7248 8.98371 26.3348 8.98371 27.0281C8.98371 27.7148 8.83038 28.3248 8.52371 28.8581C8.22371 29.3914 7.79371 29.8048 7.23371 30.0981C6.68038 30.3914 6.03704 30.5381 5.30371 30.5381H2.67371V23.5181H5.30371ZM5.19371 29.0581C5.84038 29.0581 6.34371 28.8814 6.70371 28.5281C7.06371 28.1748 7.24371 27.6748 7.24371 27.0281C7.24371 26.3814 7.06371 25.8781 6.70371 25.5181C6.34371 25.1581 5.84038 24.9781 5.19371 24.9781H4.38371V29.0581H5.19371ZM13.2593 30.6081C12.5993 30.6081 11.9927 30.4548 11.4393 30.1481C10.8927 29.8414 10.456 29.4148 10.1293 28.8681C9.80934 28.3148 9.64934 27.6948 9.64934 27.0081C9.64934 26.3214 9.80934 25.7048 10.1293 25.1581C10.456 24.6114 10.8927 24.1848 11.4393 23.8781C11.9927 23.5714 12.5993 23.4181 13.2593 23.4181C13.9193 23.4181 14.5227 23.5714 15.0693 23.8781C15.6227 24.1848 16.056 24.6114 16.3693 25.1581C16.6893 25.7048 16.8493 26.3214 16.8493 27.0081C16.8493 27.6948 16.6893 28.3148 16.3693 28.8681C16.0493 29.4148 15.616 29.8414 15.0693 30.1481C14.5227 30.4548 13.9193 30.6081 13.2593 30.6081ZM13.2593 29.0481C13.8193 29.0481 14.266 28.8614 14.5993 28.4881C14.9393 28.1148 15.1093 27.6214 15.1093 27.0081C15.1093 26.3881 14.9393 25.8948 14.5993 25.5281C14.266 25.1548 13.8193 24.9681 13.2593 24.9681C12.6927 24.9681 12.2393 25.1514 11.8993 25.5181C11.566 25.8848 11.3993 26.3814 11.3993 27.0081C11.3993 27.6281 11.566 28.1248 11.8993 28.4981C12.2393 28.8648 12.6927 29.0481 13.2593 29.0481ZM17.5107 27.0181C17.5107 26.3248 17.6607 25.7081 17.9607 25.1681C18.2607 24.6214 18.6773 24.1981 19.2107 23.8981C19.7507 23.5914 20.3607 23.4381 21.0407 23.4381C21.874 23.4381 22.5873 23.6581 23.1807 24.0981C23.774 24.5381 24.1707 25.1381 24.3707 25.8981H22.4907C22.3507 25.6048 22.1507 25.3814 21.8907 25.2281C21.6373 25.0748 21.3473 24.9981 21.0207 24.9981C20.494 24.9981 20.0673 25.1814 19.7407 25.5481C19.414 25.9148 19.2507 26.4048 19.2507 27.0181C19.2507 27.6314 19.414 28.1214 19.7407 28.4881C20.0673 28.8548 20.494 29.0381 21.0207 29.0381C21.3473 29.0381 21.6373 28.9614 21.8907 28.8081C22.1507 28.6548 22.3507 28.4314 22.4907 28.1381H24.3707C24.1707 28.8981 23.774 29.4981 23.1807 29.9381C22.5873 30.3714 21.874 30.5881 21.0407 30.5881C20.3607 30.5881 19.7507 30.4381 19.2107 30.1381C18.6773 29.8314 18.2607 29.4081 17.9607 28.8681C17.6607 28.3281 17.5107 27.7114 17.5107 27.0181ZM29.7179 30.5381L28.2879 28.3881L27.0279 30.5381H25.0879L27.3379 26.9681L25.0379 23.5181H27.0279L28.4379 25.6381L29.6779 23.5181H31.6179L29.3879 27.0581L31.7079 30.5381H29.7179Z" fill="white"/>
</g>
<defs>
<clipPath id="clip0_2660_231895">
<rect width="40" height="40" fill="white" transform="translate(0 0.538086)"/>
</clipPath>
</defs>
</svg>
