<svg width="40" height="41" viewBox="0 0 40 41" fill="none" xmlns="http://www.w3.org/2000/svg">
<g clip-path="url(#clip0_2660_231853)">
<path d="M9 1.28809H26.0439L34.25 8.8252V36.5381C34.25 38.3329 32.7948 39.788 31 39.7881H9C7.20507 39.7881 5.75 38.333 5.75 36.5381V4.53809C5.75 2.74316 7.20508 1.28809 9 1.28809Z" stroke="#D0D5DD" stroke-width="1.5"/>
<mask id="path-2-inside-1_2660_231853" fill="white">
<path d="M25 1.53809H33.5V10.0381H26C25.4477 10.0381 25 9.59037 25 9.03809V1.53809Z"/>
</mask>
<path d="M25 1.53809H33.5H25ZM33.5 11.0381H26C24.8954 11.0381 24 10.1427 24 9.03809H26H33.5V11.0381ZM26 11.0381C24.8954 11.0381 24 10.1427 24 9.03809V1.53809H26V9.03809V11.0381ZM33.5 1.53809V10.0381V1.53809Z" fill="#D0D5DD" mask="url(#path-2-inside-1_2660_231853)"/>
<rect x="1" y="20.5381" width="24" height="13" rx="2" fill="#6172F3"/>
<path d="M8.20066 23.5181V28.2981C8.20066 29.0381 7.99066 29.6081 7.57066 30.0081C7.15733 30.4081 6.59733 30.6081 5.89066 30.6081C5.15066 30.6081 4.55733 30.3981 4.11066 29.9781C3.664 29.5581 3.44066 28.9614 3.44066 28.1881H5.14066C5.14066 28.4814 5.20066 28.7048 5.32066 28.8581C5.44066 29.0048 5.614 29.0781 5.84066 29.0781C6.04733 29.0781 6.20733 29.0114 6.32066 28.8781C6.434 28.7448 6.49066 28.5514 6.49066 28.2981V23.5181H8.20066ZM14.9319 25.7781C14.9319 26.1848 14.8386 26.5581 14.6519 26.8981C14.4652 27.2314 14.1786 27.5014 13.7919 27.7081C13.4052 27.9148 12.9252 28.0181 12.3519 28.0181H11.2919V30.5381H9.58191V23.5181H12.3519C12.9119 23.5181 13.3852 23.6148 13.7719 23.8081C14.1586 24.0014 14.4486 24.2681 14.6419 24.6081C14.8352 24.9481 14.9319 25.3381 14.9319 25.7781ZM12.2219 26.6581C12.5486 26.6581 12.7919 26.5814 12.9519 26.4281C13.1119 26.2748 13.1919 26.0581 13.1919 25.7781C13.1919 25.4981 13.1119 25.2814 12.9519 25.1281C12.7919 24.9748 12.5486 24.8981 12.2219 24.8981H11.2919V26.6581H12.2219ZM20.4821 25.7381C20.3555 25.5048 20.1721 25.3281 19.9321 25.2081C19.6988 25.0814 19.4221 25.0181 19.1021 25.0181C18.5488 25.0181 18.1055 25.2014 17.7721 25.5681C17.4388 25.9281 17.2721 26.4114 17.2721 27.0181C17.2721 27.6648 17.4455 28.1714 17.7921 28.5381C18.1455 28.8981 18.6288 29.0781 19.2421 29.0781C19.6621 29.0781 20.0155 28.9714 20.3021 28.7581C20.5955 28.5448 20.8088 28.2381 20.9421 27.8381H18.7721V26.5781H22.4921V28.1681C22.3655 28.5948 22.1488 28.9914 21.8421 29.3581C21.5421 29.7248 21.1588 30.0214 20.6921 30.2481C20.2255 30.4748 19.6988 30.5881 19.1121 30.5881C18.4188 30.5881 17.7988 30.4381 17.2521 30.1381C16.7121 29.8314 16.2888 29.4081 15.9821 28.8681C15.6821 28.3281 15.5321 27.7114 15.5321 27.0181C15.5321 26.3248 15.6821 25.7081 15.9821 25.1681C16.2888 24.6214 16.7121 24.1981 17.2521 23.8981C17.7921 23.5914 18.4088 23.4381 19.1021 23.4381C19.9421 23.4381 20.6488 23.6414 21.2221 24.0481C21.8021 24.4548 22.1855 25.0181 22.3721 25.7381H20.4821Z" fill="white"/>
</g>
<defs>
<clipPath id="clip0_2660_231853">
<rect width="40" height="40" fill="white" transform="translate(0 0.538086)"/>
</clipPath>
</defs>
</svg>
