<svg width="40" height="41" viewBox="0 0 40 41" fill="none" xmlns="http://www.w3.org/2000/svg">
<g clip-path="url(#clip0_2660_231823)">
<path d="M9 1.28809H26.0439L34.25 8.8252V36.5381C34.25 38.3329 32.7948 39.788 31 39.7881H9C7.20507 39.7881 5.75 38.333 5.75 36.5381V4.53809C5.75 2.74316 7.20508 1.28809 9 1.28809Z" stroke="#D0D5DD" stroke-width="1.5"/>
<mask id="path-2-inside-1_2660_231823" fill="white">
<path d="M25 1.53809H33.5V10.0381H26C25.4477 10.0381 25 9.59037 25 9.03809V1.53809Z"/>
</mask>
<path d="M25 1.53809H33.5H25ZM33.5 11.0381H26C24.8954 11.0381 24 10.1427 24 9.03809H26H33.5V11.0381ZM26 11.0381C24.8954 11.0381 24 10.1427 24 9.03809V1.53809H26V9.03809V11.0381ZM33.5 1.53809V10.0381V1.53809Z" fill="#D0D5DD" mask="url(#path-2-inside-1_2660_231823)"/>
<rect x="1" y="20.5381" width="23" height="13" rx="2" fill="#F04438"/>
<path d="M8.9827 25.7781C8.9827 26.1848 8.88936 26.5581 8.7027 26.8981C8.51603 27.2314 8.22936 27.5014 7.8427 27.7081C7.45603 27.9148 6.97603 28.0181 6.4027 28.0181H5.3427V30.5381H3.6327V23.5181H6.4027C6.9627 23.5181 7.43603 23.6148 7.8227 23.8081C8.20936 24.0014 8.49936 24.2681 8.6927 24.6081C8.88603 24.9481 8.9827 25.3381 8.9827 25.7781ZM6.2727 26.6581C6.59936 26.6581 6.8427 26.5814 7.0027 26.4281C7.1627 26.2748 7.2427 26.0581 7.2427 25.7781C7.2427 25.4981 7.1627 25.2814 7.0027 25.1281C6.8427 24.9748 6.59936 24.8981 6.2727 24.8981H5.3427V26.6581H6.2727ZM12.5029 23.5181C13.2429 23.5181 13.8896 23.6648 14.4429 23.9581C14.9963 24.2514 15.4229 24.6648 15.7229 25.1981C16.0296 25.7248 16.1829 26.3348 16.1829 27.0281C16.1829 27.7148 16.0296 28.3248 15.7229 28.8581C15.4229 29.3914 14.9929 29.8048 14.4329 30.0981C13.8796 30.3914 13.2363 30.5381 12.5029 30.5381H9.87293V23.5181H12.5029ZM12.3929 29.0581C13.0396 29.0581 13.5429 28.8814 13.9029 28.5281C14.2629 28.1748 14.4429 27.6748 14.4429 27.0281C14.4429 26.3814 14.2629 25.8781 13.9029 25.5181C13.5429 25.1581 13.0396 24.9781 12.3929 24.9781H11.5829V29.0581H12.3929ZM21.7086 23.5181V24.8881H18.8486V26.3681H20.9886V27.6981H18.8486V30.5381H17.1386V23.5181H21.7086Z" fill="white"/>
</g>
<defs>
<clipPath id="clip0_2660_231823">
<rect width="40" height="40" fill="white" transform="translate(0 0.538086)"/>
</clipPath>
</defs>
</svg>
