<svg width="40" height="41" viewBox="0 0 40 41" fill="none" xmlns="http://www.w3.org/2000/svg">
<g clip-path="url(#clip0_2660_231925)">
<path d="M9 1.28809H26.0439L34.25 8.8252V36.5381C34.25 38.3329 32.7948 39.788 31 39.7881H9C7.20507 39.7881 5.75 38.333 5.75 36.5381V4.53809C5.75 2.74316 7.20508 1.28809 9 1.28809Z" stroke="#D0D5DD" stroke-width="1.5"/>
<mask id="path-2-inside-1_2660_231925" fill="white">
<path d="M25 1.53809H33.5V10.0381H26C25.4477 10.0381 25 9.59037 25 9.03809V1.53809Z"/>
</mask>
<path d="M25 1.53809H33.5H25ZM33.5 11.0381H26C24.8954 11.0381 24 10.1427 24 9.03809H26H33.5V11.0381ZM26 11.0381C24.8954 11.0381 24 10.1427 24 9.03809V1.53809H26V9.03809V11.0381ZM33.5 1.53809V10.0381V1.53809Z" fill="#D0D5DD" mask="url(#path-2-inside-1_2660_231925)"/>
<rect x="1" y="20.5381" width="26" height="13" rx="2" fill="#6172F3"/>
<path d="M9.28152 25.7781C9.28152 26.1848 9.18819 26.5581 9.00152 26.8981C8.81486 27.2314 8.52819 27.5014 8.14152 27.7081C7.75486 27.9148 7.27486 28.0181 6.70152 28.0181H5.64152V30.5381H3.93152V23.5181H6.70152C7.26152 23.5181 7.73486 23.6148 8.12152 23.8081C8.50819 24.0014 8.79819 24.2681 8.99152 24.6081C9.18486 24.9481 9.28152 25.3381 9.28152 25.7781ZM6.57152 26.6581C6.89819 26.6581 7.14152 26.5814 7.30152 26.4281C7.46152 26.2748 7.54152 26.0581 7.54152 25.7781C7.54152 25.4981 7.46152 25.2814 7.30152 25.1281C7.14152 24.9748 6.89819 24.8981 6.57152 24.8981H5.64152V26.6581H6.57152ZM16.4518 30.5381H14.7418L11.8818 26.2081V30.5381H10.1718V23.5181H11.8818L14.7418 27.8681V23.5181H16.4518V30.5381ZM22.3513 25.7381C22.2246 25.5048 22.0413 25.3281 21.8013 25.2081C21.568 25.0814 21.2913 25.0181 20.9713 25.0181C20.418 25.0181 19.9746 25.2014 19.6413 25.5681C19.308 25.9281 19.1413 26.4114 19.1413 27.0181C19.1413 27.6648 19.3146 28.1714 19.6613 28.5381C20.0146 28.8981 20.498 29.0781 21.1113 29.0781C21.5313 29.0781 21.8846 28.9714 22.1713 28.7581C22.4646 28.5448 22.678 28.2381 22.8113 27.8381H20.6413V26.5781H24.3613V28.1681C24.2346 28.5948 24.018 28.9914 23.7113 29.3581C23.4113 29.7248 23.028 30.0214 22.5613 30.2481C22.0946 30.4748 21.568 30.5881 20.9813 30.5881C20.288 30.5881 19.668 30.4381 19.1213 30.1381C18.5813 29.8314 18.158 29.4081 17.8513 28.8681C17.5513 28.3281 17.4013 27.7114 17.4013 27.0181C17.4013 26.3248 17.5513 25.7081 17.8513 25.1681C18.158 24.6214 18.5813 24.1981 19.1213 23.8981C19.6613 23.5914 20.278 23.4381 20.9713 23.4381C21.8113 23.4381 22.518 23.6414 23.0913 24.0481C23.6713 24.4548 24.0546 25.0181 24.2413 25.7381H22.3513Z" fill="white"/>
</g>
<defs>
<clipPath id="clip0_2660_231925">
<rect width="40" height="40" fill="white" transform="translate(0 0.538086)"/>
</clipPath>
</defs>
</svg>
