<svg width="40" height="41" viewBox="0 0 40 41" fill="none" xmlns="http://www.w3.org/2000/svg">
<g clip-path="url(#clip0_2660_232033)">
<path d="M9 1.28809H26.0439L34.25 8.8252V36.5381C34.25 38.3329 32.7948 39.788 31 39.7881H9C7.20507 39.7881 5.75 38.333 5.75 36.5381V4.53809C5.75 2.74316 7.20508 1.28809 9 1.28809Z" stroke="#D0D5DD" stroke-width="1.5"/>
<mask id="path-2-inside-1_2660_232033" fill="white">
<path d="M25 1.53809H33.5V10.0381H26C25.4477 10.0381 25 9.59037 25 9.03809V1.53809Z"/>
</mask>
<path d="M25 1.53809H33.5H25ZM33.5 11.0381H26C24.8954 11.0381 24 10.1427 24 9.03809H26H33.5V11.0381ZM26 11.0381C24.8954 11.0381 24 10.1427 24 9.03809V1.53809H26V9.03809V11.0381ZM33.5 1.53809V10.0381V1.53809Z" fill="#D0D5DD" mask="url(#path-2-inside-1_2660_232033)"/>
<rect x="1" y="20.5381" width="30" height="13" rx="2" fill="#F97066"/>
<path d="M9.20145 25.7781C9.20145 26.1848 9.10811 26.5581 8.92145 26.8981C8.73478 27.2314 8.44811 27.5014 8.06145 27.7081C7.67478 27.9148 7.19478 28.0181 6.62145 28.0181H5.56145V30.5381H3.85145V23.5181H6.62145C7.18145 23.5181 7.65478 23.6148 8.04145 23.8081C8.42811 24.0014 8.71811 24.2681 8.91145 24.6081C9.10478 24.9481 9.20145 25.3381 9.20145 25.7781ZM6.49145 26.6581C6.81811 26.6581 7.06145 26.5814 7.22145 26.4281C7.38145 26.2748 7.46145 26.0581 7.46145 25.7781C7.46145 25.4981 7.38145 25.2814 7.22145 25.1281C7.06145 24.9748 6.81811 24.8981 6.49145 24.8981H5.56145V26.6581H6.49145ZM15.4417 25.7781C15.4417 26.1848 15.3483 26.5581 15.1617 26.8981C14.975 27.2314 14.6883 27.5014 14.3017 27.7081C13.915 27.9148 13.435 28.0181 12.8617 28.0181H11.8017V30.5381H10.0917V23.5181H12.8617C13.4217 23.5181 13.895 23.6148 14.2817 23.8081C14.6683 24.0014 14.9583 24.2681 15.1517 24.6081C15.345 24.9481 15.4417 25.3381 15.4417 25.7781ZM12.7317 26.6581C13.0583 26.6581 13.3017 26.5814 13.4617 26.4281C13.6217 26.2748 13.7017 26.0581 13.7017 25.7781C13.7017 25.4981 13.6217 25.2814 13.4617 25.1281C13.3017 24.9748 13.0583 24.8981 12.7317 24.8981H11.8017V26.6581H12.7317ZM21.3819 23.5181V24.8881H19.5219V30.5381H17.8119V24.8881H15.9519V23.5181H21.3819ZM26.5401 30.5381L25.1101 28.3881L23.8501 30.5381H21.9101L24.1601 26.9681L21.8601 23.5181H23.8501L25.2601 25.6381L26.5001 23.5181H28.4401L26.2101 27.0581L28.5301 30.5381H26.5401Z" fill="white"/>
</g>
<defs>
<clipPath id="clip0_2660_232033">
<rect width="40" height="40" fill="white" transform="translate(0 0.538086)"/>
</clipPath>
</defs>
</svg>
