<svg width="40" height="41" viewBox="0 0 40 41" fill="none" xmlns="http://www.w3.org/2000/svg">
<g clip-path="url(#clip0_2660_232009)">
<path d="M9 1.28809H26.0439L34.25 8.8252V36.5381C34.25 38.3329 32.7948 39.788 31 39.7881H9C7.20507 39.7881 5.75 38.333 5.75 36.5381V4.53809C5.75 2.74316 7.20508 1.28809 9 1.28809Z" stroke="#D0D5DD" stroke-width="1.5"/>
<mask id="path-2-inside-1_2660_232009" fill="white">
<path d="M25 1.53809H33.5V10.0381H26C25.4477 10.0381 25 9.59037 25 9.03809V1.53809Z"/>
</mask>
<path d="M25 1.53809H33.5H25ZM33.5 11.0381H26C24.8954 11.0381 24 10.1427 24 9.03809H26H33.5V11.0381ZM26 11.0381C24.8954 11.0381 24 10.1427 24 9.03809V1.53809H26V9.03809V11.0381ZM33.5 1.53809V10.0381V1.53809Z" fill="#D0D5DD" mask="url(#path-2-inside-1_2660_232009)"/>
<rect x="1" y="20.5381" width="30" height="13" rx="2" fill="#17B26A"/>
<path d="M8.31258 30.5381L6.88258 28.3881L5.62258 30.5381H3.68258L5.93258 26.9681L3.63258 23.5181H5.62258L7.03258 25.6381L8.27258 23.5181H10.2126L7.98258 27.0581L10.3026 30.5381H8.31258ZM12.871 29.2181H15.111V30.5381H11.161V23.5181H12.871V29.2181ZM18.4666 30.6081C17.9533 30.6081 17.4933 30.5248 17.0866 30.3581C16.68 30.1914 16.3533 29.9448 16.1066 29.6181C15.8666 29.2914 15.74 28.8981 15.7266 28.4381H17.5466C17.5733 28.6981 17.6633 28.8981 17.8166 29.0381C17.97 29.1714 18.17 29.2381 18.4166 29.2381C18.67 29.2381 18.87 29.1814 19.0166 29.0681C19.1633 28.9481 19.2366 28.7848 19.2366 28.5781C19.2366 28.4048 19.1766 28.2614 19.0566 28.1481C18.9433 28.0348 18.8 27.9414 18.6266 27.8681C18.46 27.7948 18.22 27.7114 17.9066 27.6181C17.4533 27.4781 17.0833 27.3381 16.7966 27.1981C16.51 27.0581 16.2633 26.8514 16.0566 26.5781C15.85 26.3048 15.7466 25.9481 15.7466 25.5081C15.7466 24.8548 15.9833 24.3448 16.4566 23.9781C16.93 23.6048 17.5466 23.4181 18.3066 23.4181C19.08 23.4181 19.7033 23.6048 20.1766 23.9781C20.65 24.3448 20.9033 24.8581 20.9366 25.5181H19.0866C19.0733 25.2914 18.99 25.1148 18.8366 24.9881C18.6833 24.8548 18.4866 24.7881 18.2466 24.7881C18.04 24.7881 17.8733 24.8448 17.7466 24.9581C17.62 25.0648 17.5566 25.2214 17.5566 25.4281C17.5566 25.6548 17.6633 25.8314 17.8766 25.9581C18.09 26.0848 18.4233 26.2214 18.8766 26.3681C19.33 26.5214 19.6966 26.6681 19.9766 26.8081C20.2633 26.9481 20.51 27.1514 20.7166 27.4181C20.9233 27.6848 21.0266 28.0281 21.0266 28.4481C21.0266 28.8481 20.9233 29.2114 20.7166 29.5381C20.5166 29.8648 20.2233 30.1248 19.8366 30.3181C19.45 30.5114 18.9933 30.6081 18.4666 30.6081ZM26.379 30.5381L24.949 28.3881L23.689 30.5381H21.749L23.999 26.9681L21.699 23.5181H23.689L25.099 25.6381L26.339 23.5181H28.279L26.049 27.0581L28.369 30.5381H26.379Z" fill="white"/>
</g>
<defs>
<clipPath id="clip0_2660_232009">
<rect width="40" height="40" fill="white" transform="translate(0 0.538086)"/>
</clipPath>
</defs>
</svg>
