<svg width="40" height="41" viewBox="0 0 40 41" fill="none" xmlns="http://www.w3.org/2000/svg">
<g clip-path="url(#clip0_2660_232127)">
<path d="M9 1.58557H26.0439L34.25 9.12268V36.8356C34.25 38.6304 32.7948 40.0855 31 40.0856H9C7.20507 40.0856 5.75 38.6305 5.75 36.8356V4.83557C5.75 3.04065 7.20508 1.58557 9 1.58557Z" stroke="#D0D5DD" stroke-width="1.5"/>
<mask id="path-2-inside-1_2660_232127" fill="white">
<path d="M25 1.83557H33.5V10.3356H26C25.4477 10.3356 25 9.88786 25 9.33557V1.83557Z"/>
</mask>
<path d="M25 1.83557H33.5H25ZM33.5 11.3356H26C24.8954 11.3356 24 10.4401 24 9.33557H26H33.5V11.3356ZM26 11.3356C24.8954 11.3356 24 10.4401 24 9.33557V1.83557H26V9.33557V11.3356ZM33.5 1.83557V10.3356V1.83557Z" fill="#D0D5DD" mask="url(#path-2-inside-1_2660_232127)"/>
<rect x="1" y="20.8356" width="20" height="13" rx="2" fill="#344054"/>
<path d="M5.86676 29.4356H8.88676V30.8356H3.92676V29.5356L6.92676 25.2156H3.92676V23.8156H8.88676V25.1156L5.86676 29.4356ZM11.7138 23.8156V30.8356H10.0038V23.8156H11.7138ZM18.303 26.0756C18.303 26.4822 18.2097 26.8556 18.023 27.1956C17.8363 27.5289 17.5497 27.7989 17.163 28.0056C16.7763 28.2122 16.2963 28.3156 15.723 28.3156H14.663V30.8356H12.953V23.8156H15.723C16.283 23.8156 16.7563 23.9122 17.143 24.1056C17.5297 24.2989 17.8197 24.5656 18.013 24.9056C18.2063 25.2456 18.303 25.6356 18.303 26.0756ZM15.593 26.9556C15.9197 26.9556 16.163 26.8789 16.323 26.7256C16.483 26.5722 16.563 26.3556 16.563 26.0756C16.563 25.7956 16.483 25.5789 16.323 25.4256C16.163 25.2722 15.9197 25.1956 15.593 25.1956H14.663V26.9556H15.593Z" fill="white"/>
</g>
<defs>
<clipPath id="clip0_2660_232127">
<rect width="40" height="40" fill="white" transform="translate(0 0.835571)"/>
</clipPath>
</defs>
</svg>
